<?xml version="1.0" encoding="utf-8"?>
<!-- Generator: Adobe Illustrator 25.0.0, SVG Export Plug-In . SVG Version: 6.00 Build 0)  -->
<svg version="1.1" id="Layer_1" xmlns="http://www.w3.org/2000/svg" xmlns:xlink="http://www.w3.org/1999/xlink" x="0px" y="0px"
	 viewBox="0 0 100 100" style="enable-background:new 0 0 100 100;" xml:space="preserve">
<style type="text/css">
	.st0{fill:#1786A3;}
	.st1{fill:#F0EDDA;}
	.st2{fill:#2C5871;}
	.st3{fill:#CCEEF5;}
	.st4{fill:#FBB600;}
</style>
<g id="c-absence" transform="translate(-1459 -1037)">
	<g id="Group_438" transform="translate(1460 1038)">
		<path id="Path_569" class="st0" d="M49.1,65.3H49c-13.2,0-16.3,6.5-16.3,11.8v4.5h32.7v-4.5C65.3,71.9,62.3,65.3,49.1,65.3z"/>
		<g>
			<path id="Path_570_1_" class="st1" d="M74.1,16.3c-4.6,0-8.3,2.7-8.3,10.2s3.7,10.2,8.3,10.2c4.6,0,8.3-2.7,8.3-10.2
				S78.7,16.3,74.1,16.3"/>
			<path class="st2" d="M74.1,37.8c-2.7,0-5-0.9-6.6-2.6c-1.8-1.9-2.7-4.8-2.7-8.6c0-7.1,3.4-11.2,9.3-11.2h0c0,0,0,0,0,0l0,0
				c5.9,0,9.3,4.1,9.3,11.2C83.4,33.7,80,37.8,74.1,37.8z M74.1,17.3C74.1,17.3,74.1,17.3,74.1,17.3c-4.8,0-7.3,3.2-7.3,9.2
				c0,3.3,0.7,5.7,2.2,7.2c1.2,1.3,2.9,2,5.1,2c4.8,0,7.3-3.2,7.3-9.2C81.4,20.5,78.9,17.3,74.1,17.3C74.1,17.3,74.1,17.3,74.1,17.3
				z"/>
		</g>
		<g>
			<path id="Path_571_1_" class="st3" d="M63.3,44.5c3.3-1.2,6.9-1.7,10.4-1.7c13.2,0,16.2,6.6,16.2,11.9v4.5H61.2"/>
			<path class="st2" d="M89.8,60.2H61.2c-0.6,0-1-0.4-1-1c0-0.6,0.4-1,1-1h27.6v-3.5c0-5-2.6-10.9-15.2-10.9
				c-3.4-0.1-6.8,0.5-10.1,1.6c-0.5,0.2-1.1-0.1-1.3-0.6c-0.2-0.5,0.1-1.1,0.6-1.3c3.5-1.2,7.1-1.8,10.7-1.7
				c14.9,0,17.1,8.1,17.1,12.9v4.5C90.8,59.8,90.4,60.2,89.8,60.2z"/>
		</g>
		<g>
			<path id="Path_572_1_" class="st1" d="M23.9,16.3c4.6,0,8.3,2.7,8.3,10.2s-3.7,10.2-8.3,10.2s-8.3-2.7-8.3-10.2
				S19.3,16.3,23.9,16.3"/>
			<path class="st2" d="M23.9,37.8c-5.9,0-9.3-4.1-9.3-11.2c0-7.1,3.4-11.2,9.3-11.2l0,0c5.9,0,9.3,4.1,9.3,11.2
				C33.2,33.7,29.8,37.8,23.9,37.8z M23.9,17.3c-4.8,0-7.3,3.2-7.3,9.2c0,6,2.5,9.2,7.3,9.2c4.8,0,7.3-3.2,7.3-9.2
				C31.2,20.5,28.6,17.3,23.9,17.3L23.9,17.3z"/>
		</g>
		<path class="st2" d="M36.7,60.2H8.2c-0.6,0-1-0.4-1-1v-4.5c0-4.8,2.2-12.9,17.2-12.9c3.6-0.1,7.3,0.5,10.7,1.7
			c0.5,0.2,0.8,0.8,0.6,1.3c-0.2,0.5-0.7,0.8-1.3,0.6c-3.2-1.1-6.6-1.7-10-1.6c-12.5,0-15.2,5.9-15.2,10.9v3.5h27.6c0.6,0,1,0.4,1,1
			C37.7,59.8,37.3,60.2,36.7,60.2z"/>
		<g>
			<path id="Path_574_1_" class="st3" d="M34.7,44.5c-3.3-1.2-6.9-1.7-10.4-1.7c-13.2,0-16.2,6.6-16.2,11.9v4.5h28.6"/>
			<path class="st2" d="M36.7,60.2H8.2c-0.6,0-1-0.4-1-1v-4.5c0-4.8,2.2-12.9,17.2-12.9c3.6-0.1,7.3,0.5,10.7,1.7
				c0.5,0.2,0.8,0.8,0.6,1.3c-0.2,0.5-0.7,0.8-1.3,0.6c-3.2-1.1-6.6-1.7-10-1.6c-12.5,0-15.2,5.9-15.2,10.9v3.5h27.6
				c0.6,0,1,0.4,1,1C37.7,59.8,37.3,60.2,36.7,60.2z"/>
		</g>
		<g>
			<path id="Path_575_1_" class="st4" d="M49.1,38.8c4.6,0,8.3,2.7,8.3,10.2s-3.7,10.2-8.3,10.2s-8.3-2.7-8.3-10.2
				S44.5,38.8,49.1,38.8"/>
			<path class="st2" d="M49.1,60.2c-2.7,0-5-0.9-6.6-2.6c-1.8-1.9-2.7-4.8-2.7-8.6c0-7.1,3.4-11.2,9.3-11.2l0,0
				c5.9,0,9.3,4.1,9.3,11.2C58.4,56.1,55,60.2,49.1,60.2C49.1,60.2,49.1,60.2,49.1,60.2z M49.1,39.8c-4.8,0-7.3,3.2-7.3,9.2
				c0,3.3,0.7,5.7,2.2,7.2c1.2,1.3,2.9,2,5.1,2c0,0,0,0,0,0c4.8,0,7.3-3.2,7.3-9.2C56.4,43,53.9,39.8,49.1,39.8L49.1,39.8z"/>
		</g>
		<path class="st2" d="M65.3,82.7H32.7c-0.6,0-1-0.4-1-1v-4.5c0-3.9,1.7-12.8,17.3-12.8h0.1c15.6,0,17.3,9,17.3,12.8v4.5
			C66.3,82.2,65.9,82.7,65.3,82.7z M33.7,80.7h30.7v-3.5c0-4-2-10.8-15.3-10.8H49c-13.3,0-15.3,6.8-15.3,10.8V80.7z"/>
		<path class="st2" d="M6.1,60.2H0c-0.6,0-1-0.4-1-1c0-0.6,0.4-1,1-1h6.1c0.6,0,1,0.4,1,1C7.1,59.8,6.7,60.2,6.1,60.2z"/>
		<path class="st2" d="M98,60.2h-6.1c-0.6,0-1-0.4-1-1c0-0.6,0.4-1,1-1H98c0.6,0,1,0.4,1,1C99,59.8,98.6,60.2,98,60.2z"/>
		<path class="st2" d="M98,82.7H0c-0.6,0-1-0.4-1-1s0.4-1,1-1h98c0.6,0,1,0.4,1,1S98.6,82.7,98,82.7z"/>
	</g>
	<path class="st2" d="M1552.5,1072l5.1-5.1c0.4-0.4,0.4-1,0-1.4s-1-0.4-1.4,0l-5.1,5.1l-5.1-5.1c-0.4-0.4-1-0.4-1.4,0s-0.4,1,0,1.4
		l5.1,5.1l-5.1,5.1c-0.4,0.4-0.4,1,0,1.4c0.2,0.2,0.5,0.3,0.7,0.3s0.5-0.1,0.7-0.3l5.1-5.1l5.1,5.1c0.2,0.2,0.5,0.3,0.7,0.3
		s0.5-0.1,0.7-0.3c0.4-0.4,0.4-1,0-1.4L1552.5,1072z"/>
</g>
</svg>
