<?xml version="1.0" encoding="utf-8"?>
<!-- Generator: Adobe Illustrator 25.0.0, SVG Export Plug-In . SVG Version: 6.00 Build 0)  -->
<svg version="1.1" id="Layer_1" xmlns="http://www.w3.org/2000/svg" xmlns:xlink="http://www.w3.org/1999/xlink" x="0px" y="0px"
	 viewBox="0 0 100 100" style="enable-background:new 0 0 100 100;" xml:space="preserve">
<style type="text/css">
	.st0{fill:#FBB600;}
	.st1{fill:#1786A3;}
	.st2{fill:#2C5871;}
</style>
<g id="c-activities" transform="translate(-31.556 -833.149)">
	<path id="Path_741" class="st0" d="M32.9,924.1c0.6-2.1,1.9-3.8,3.7-5l12.7-8c4.3-2.7,7.1-7.3,7.4-12.4l0.9-14
		c0.1-2.1-0.2-4.2-1-6.2l-3.2-8c-1.2-2.9-0.5-6.3,1.8-8.5l1.1-1.1l2.4,4.8c2.4,4.8,7.3,7.9,12.7,7.9h1.1c3.8,0,7.4-1.5,10.1-4.2
		l0.1-0.1c3.4-3.4,6.1-7.5,7.9-12l3.6-9c0,0,20.6,13.7,20.6,19c0,5.3-38.8,48.1-38.8,48.1L63.5,927l-21.9,1.9L32.9,924.1z"/>
	<g>
		<path id="Path_739_1_" class="st1" d="M32.9,924.1c-0.4,1.6-0.4,3.2,0.1,4.8v0c0.6,1.9,2.4,3.2,4.4,3.2H57
			c6.7,0,13.1-2.3,18.2-6.6l9.3-7.8c1.2-1,2.1-2.1,2.9-3.4l3.8-6.7c0.9-1.6,2.1-3,3.6-4l7.8-5.5c0.7-0.5,1.3-1.1,1.9-1.7l15.2-16.3
			c2.4-2.6,2.2-6.6-0.3-8.9c-0.1-0.1-0.2-0.2-0.3-0.2l-4.4-3.6l-18.4,21.4c-0.4,0.5-0.8,0.9-1.3,1.3L85,898.9
			c-1.2,1.1-2.2,2.4-3,3.9l-4.1,8.2c-0.7,1.5-1.8,2.8-3,3.9l-2.7,2.4c-5.2,4.5-11.9,7-18.8,7H34L32.9,924.1z"/>
		<path class="st2" d="M37.4,933.1c-2.5,0-4.6-1.6-5.4-3.9c0,0,0,0,0-0.1c-0.5-1.7-0.6-3.6-0.1-5.3c0.1-0.5,0.6-0.8,1.1-0.7l1.1,0.1
			h19.3c0,0,0,0,0,0c6.7,0,13.1-2.4,18.1-6.8l2.7-2.4c1.1-1,2.1-2.2,2.8-3.6l4.1-8.2c0.8-1.6,1.9-3,3.2-4.2l10.1-8.8
			c0.4-0.4,0.8-0.8,1.2-1.2l18.4-21.4c0.4-0.4,1-0.5,1.4-0.1l4.4,3.6c0.1,0.1,0.2,0.2,0.3,0.3c3,2.7,3.1,7.4,0.4,10.3l-15.2,16.3
			c-0.6,0.7-1.3,1.3-2.1,1.8l-7.8,5.5c-1.4,1-2.5,2.2-3.3,3.7l-3.8,6.7c-0.8,1.4-1.9,2.7-3.1,3.7l-9.3,7.8c-5.3,4.4-12,6.8-18.9,6.8
			H37.4C37.4,933.1,37.4,933.1,37.4,933.1z M33.9,928.7c0.5,1.5,1.9,2.5,3.5,2.5c0,0,0,0,0,0H57c6.4,0,12.7-2.3,17.6-6.4l9.3-7.8
			c1.1-0.9,2-2,2.7-3.2l3.8-6.7c1-1.7,2.3-3.2,3.9-4.3l7.8-5.5c0.6-0.5,1.2-1,1.8-1.6l15.2-16.3c2-2.1,1.9-5.5-0.3-7.5
			c-0.1-0.1-0.1-0.1-0.2-0.2l-3.6-3l-17.8,20.7c-0.4,0.5-0.9,1-1.4,1.4l-10.1,8.8c-1.1,1-2.1,2.2-2.7,3.6l-4.1,8.2
			c-0.8,1.6-1.9,3-3.2,4.2l-2.7,2.4c-5.4,4.7-12.3,7.3-19.4,7.3c0,0,0,0,0,0H34c0,0-0.1,0-0.1,0l-0.3,0
			C33.5,926.3,33.6,927.5,33.9,928.7C33.9,928.6,33.9,928.6,33.9,928.7z"/>
	</g>
	<path class="st2" d="M32.9,925.1c-0.1,0-0.2,0-0.3,0c-0.5-0.1-0.8-0.7-0.7-1.2c0.6-2.3,2.1-4.3,4.1-5.6l12.7-8
		c4-2.5,6.6-6.9,6.9-11.6l0.9-14c0.1-1.9-0.2-3.9-0.9-5.7l-3.2-8c-1.3-3.3-0.6-7.1,2-9.6l1.1-1.1c0.2-0.2,0.6-0.3,0.9-0.3
		c0.3,0.1,0.6,0.3,0.7,0.5l2.4,4.8c2.3,4.5,6.8,7.3,11.8,7.3c0,0,0,0,0,0h1.1c3.5,0,6.9-1.4,9.4-3.9l0.1-0.1
		c3.3-3.3,5.9-7.3,7.7-11.6l3.6-9c0.1-0.3,0.3-0.5,0.6-0.6c0.3-0.1,0.6,0,0.9,0.1c3.5,2.3,21,14.2,21,19.8c0,0.6-0.4,1-1,1
		s-1-0.4-1-1c0-3.3-11.3-12.2-19.1-17.4l-3.1,7.9c-1.9,4.6-4.6,8.8-8.1,12.3l-0.1,0.1c-2.9,2.9-6.7,4.5-10.8,4.5h-1.1c0,0,0,0,0,0
		c-5.8,0-11-3.2-13.6-8.4l-1.8-3.5l-0.1,0.1c-2,2-2.6,4.9-1.5,7.4l3.2,8c0.8,2.1,1.2,4.4,1.1,6.6l-0.9,14
		c-0.3,5.4-3.3,10.3-7.9,13.2l-12.7,8c-1.6,1-2.8,2.6-3.3,4.4C33.7,924.8,33.3,925.1,32.9,925.1z"/>
	<path class="st2" d="M62.5,903.1h-4.7c-0.6,0-1-0.4-1-1c0-0.6,0.4-1,1-1h4.7c0.6,0,1,0.4,1,1C63.5,902.7,63.1,903.1,62.5,903.1z"/>
	<path class="st2" d="M64.1,895.2h-6.3c-0.6,0-1-0.4-1-1s0.4-1,1-1h6.3c0.6,0,1,0.4,1,1S64.7,895.2,64.1,895.2z"/>
	<path class="st2" d="M65.7,887.3h-6.3c-0.6,0-1-0.4-1-1c0-0.6,0.4-1,1-1h6.3c0.6,0,1,0.4,1,1C66.7,886.9,66.2,887.3,65.7,887.3z"/>
	<path class="st2" d="M57.8,854.1c-0.3,0-0.5-0.1-0.7-0.3l-17.4-19c-0.4-0.4-0.3-1,0.1-1.4c0.4-0.4,1-0.3,1.4,0.1l17.4,19
		c0.4,0.4,0.3,1-0.1,1.4C58.3,854,58,854.1,57.8,854.1z"/>
	<path class="st2" d="M86.3,844.6c-0.3,0-0.6-0.1-0.8-0.4l-7.9-9.5c-0.4-0.4-0.3-1.1,0.1-1.4c0.4-0.4,1.1-0.3,1.4,0.1L87,843
		c0.4,0.4,0.3,1.1-0.1,1.4C86.7,844.6,86.5,844.6,86.3,844.6z"/>
	<path class="st2" d="M130.6,904.7h-17.4c-0.6,0-1-0.4-1-1s0.4-1,1-1h17.4c0.6,0,1,0.4,1,1S131.1,904.7,130.6,904.7z"/>
	<path class="st2" d="M116.3,917.3H98.9c-0.6,0-1-0.4-1-1s0.4-1,1-1h17.4c0.6,0,1,0.4,1,1S116.9,917.3,116.3,917.3z"/>
	<path class="st2" d="M129,930h-22.2c-0.6,0-1-0.4-1-1c0-0.6,0.4-1,1-1H129c0.6,0,1,0.4,1,1C130,929.5,129.5,930,129,930z"/>
	<path class="st2" d="M124.2,917.3h-1.6c-0.6,0-1-0.4-1-1s0.4-1,1-1h1.6c0.6,0,1,0.4,1,1S124.8,917.3,124.2,917.3z"/>
</g>
</svg>
