<?xml version="1.0" encoding="utf-8"?>
<!-- Generator: Adobe Illustrator 25.0.0, SVG Export Plug-In . SVG Version: 6.00 Build 0)  -->
<svg version="1.1" id="Layer_1" xmlns="http://www.w3.org/2000/svg" xmlns:xlink="http://www.w3.org/1999/xlink" x="0px" y="0px"
	 viewBox="0 0 100 100" style="enable-background:new 0 0 100 100;" xml:space="preserve">
<style type="text/css">
	.st0{fill:#F0EDDA;}
	.st1{fill:#FBB600;}
	.st2{fill:#2C5871;}
	.st3{fill:#1786A3;}
</style>
<g id="c-account-statement" transform="translate(-1.861 -1.862)">
	<rect id="Rectangle_688_1_" x="35.5" y="28.5" class="st0" width="39.2" height="50.1"/>
	<g id="Group_947" transform="translate(2.861 2.862)">
		<path id="Path_855_1_" class="st1" d="M91.5,6.1c-3.6,0-6.5,2-6.5,2.2v67.5c0,2.8,0.8,5.6,2.2,8l4.3,7.2l4.3-7.2
			c1.4-2.4,2.2-5.2,2.2-8V8.2C98,8,95.1,6.1,91.5,6.1z"/>
		<g>
			<path class="st2" d="M71.9,24.7H32.7c-0.6,0-1,0.4-1,1v50.1c0,0.6,0.4,1,1,1h13.1c0,0,0,0,0,0s0,0,0,0h13.1c0,0,0,0,0,0s0,0,0,0
				h13.1c0.6,0,1-0.4,1-1V25.7C72.9,25.1,72.4,24.7,71.9,24.7z M57.8,74.7H46.7v-8.9h11.1V74.7z M57.8,63.9H46.7V55h11.1V63.9z
				 M33.7,44.1h11.1V53H33.7V44.1z M33.7,55h11.1v8.9H33.7V55z M46.7,53v-8.9h11.1V53H46.7z M59.8,44.1h11.1V53H59.8V44.1z
				 M70.9,26.7v15.4H33.7V26.7H70.9z M33.7,65.9h11.1v8.9H33.7V65.9z M59.8,74.7V55h11.1v19.8H59.8z"/>
			<path class="st2" d="M99,75.7V17c0,0,0,0,0,0s0,0,0,0V8.2c0-0.3-0.1-0.6-0.4-0.8c-0.6-0.6-3.5-2.4-7.2-2.4
				c-3.2,0-7.5,1.8-7.5,3.2v67.5c0,3,0.8,6,2.4,8.6l4.3,7.2c0.2,0.3,0.5,0.5,0.9,0.5s0.7-0.2,0.9-0.5l4.3-7.2
				C98.2,81.7,99,78.8,99,75.7C99,75.8,99,75.8,99,75.7C99,75.7,99,75.7,99,75.7z M85.9,74.8V18H97v56.8H85.9z M91.5,7.1
				c2.7,0,4.8,1.2,5.5,1.6V16H85.9V8.7C86.6,8.2,88.8,7.1,91.5,7.1z M94.9,83.3l-3.5,5.8L88,83.3c-1.2-2-1.9-4.2-2-6.5h11
				C96.8,79.1,96.1,81.3,94.9,83.3z"/>
			<path class="st2" d="M61,79.1c-0.6,0-1,0.4-1,1v7.7H1V7.1h59v14.2c0,0.6,0.4,1,1,1s1-0.4,1-1V6.1c0-0.6-0.4-1-1-1H0
				c-0.6,0-1,0.4-1,1v82.8c0,0.6,0.4,1,1,1h61c0.6,0,1-0.4,1-1v-8.7C62,79.6,61.5,79.1,61,79.1z"/>
		</g>
		<path class="st3" d="M13.1,31c-0.3,0-0.5-0.1-0.7-0.3L8,26.4c-0.4-0.4-0.4-1,0-1.4s1-0.4,1.4,0l3.6,3.6l8-10
			c0.3-0.4,1-0.5,1.4-0.2c0.4,0.3,0.5,1,0.2,1.4l-8.7,10.9C13.7,30.9,13.4,31,13.1,31C13.1,31,13.1,31,13.1,31z"/>
		<path class="st3" d="M13.1,52.8c-0.3,0-0.5-0.1-0.7-0.3L8,48.1c-0.4-0.4-0.4-1,0-1.4c0.4-0.4,1-0.4,1.4,0l3.6,3.6l8-10
			c0.3-0.4,1-0.5,1.4-0.2c0.4,0.3,0.5,1,0.2,1.4l-8.7,10.9C13.7,52.6,13.4,52.8,13.1,52.8C13.1,52.8,13.1,52.8,13.1,52.8z"/>
		<path class="st3" d="M13.1,74.6c-0.3,0-0.5-0.1-0.7-0.3L8,69.9c-0.4-0.4-0.4-1,0-1.4c0.4-0.4,1-0.4,1.4,0l3.6,3.6l8-10
			c0.3-0.4,1-0.5,1.4-0.2c0.4,0.3,0.5,1,0.2,1.4l-8.7,10.9C13.7,74.4,13.4,74.6,13.1,74.6C13.1,74.6,13.1,74.6,13.1,74.6z"/>
	</g>
</g>
</svg>
