<?xml version="1.0" encoding="utf-8"?>
<!-- Generator: Adobe Illustrator 25.0.0, SVG Export Plug-In . SVG Version: 6.00 Build 0)  -->
<svg version="1.1" id="Layer_1" xmlns="http://www.w3.org/2000/svg" xmlns:xlink="http://www.w3.org/1999/xlink" x="0px" y="0px"
	 viewBox="0 0 100 100" style="enable-background:new 0 0 100 100;" xml:space="preserve">
<style type="text/css">
	.st0{fill:#1786A3;}
	.st1{fill:#2C5871;}
	.st2{fill:#FBB600;}
	.st3{fill:#F0EDDA;}
	.st4{fill:none;}
</style>
<g id="c-appointment" transform="translate(-1298 -314)">
	<g id="Group_86" transform="translate(1299 315)">
		<path id="Rectangle_80" class="st0" d="M14.9,9.8h67.8c5.5,0,10,4.5,10,10v19.4l0,0H4.9l0,0V19.8C4.9,14.3,9.4,9.8,14.9,9.8z"/>
		<path class="st1" d="M83.3,8.8H69.6V0c0-0.6-0.4-1-1-1s-1,0.4-1,1v8.8H30.4V0c0-0.6-0.4-1-1-1s-1,0.4-1,1v8.8H14.7
			c-6,0-10.8,4.8-10.8,10.8v68.6c0,6,4.8,10.8,10.8,10.8h68.6c6,0,10.8-4.8,10.8-10.8V19.6C94.1,13.6,89.3,8.8,83.3,8.8z M14.7,10.8
			h13.7v8.8c0,0.6,0.4,1,1,1s1-0.4,1-1v-8.8h37.2v8.8c0,0.6,0.4,1,1,1s1-0.4,1-1v-8.8h13.7c4.9,0,8.8,3.9,8.8,8.8v18.6H5.9V19.6
			C5.9,14.8,9.8,10.8,14.7,10.8z M83.3,97H14.7c-4.9,0-8.8-3.9-8.8-8.8v-48h86.2v48C92.1,93.1,88.2,97,83.3,97z"/>
	</g>
	<path id="Rectangle_86" class="st2" d="M1314.1,363.6h6.2c0.5,0,0.8,0.4,0.8,0.8v4.6c0,0.5-0.4,0.8-0.8,0.8h-6.2
		c-0.5,0-0.8-0.4-0.8-0.8v-4.6C1313.3,364,1313.7,363.6,1314.1,363.6z"/>
	<path id="Rectangle_93" class="st2" d="M1324.3,363.6h6.2c0.5,0,0.8,0.4,0.8,0.8v4.6c0,0.5-0.4,0.8-0.8,0.8h-6.2
		c-0.5,0-0.8-0.4-0.8-0.8v-4.6C1323.5,364,1323.9,363.6,1324.3,363.6z"/>
	<path id="Rectangle_98" class="st2" d="M1334.5,363.6h6.2c0.5,0,0.8,0.4,0.8,0.8v4.6c0,0.5-0.4,0.8-0.8,0.8h-6.2
		c-0.5,0-0.8-0.4-0.8-0.8v-4.6C1333.7,364,1334.1,363.6,1334.5,363.6z"/>
	<path id="Rectangle_103" class="st2" d="M1344.7,363.6h6.2c0.5,0,0.8,0.4,0.8,0.8v4.6c0,0.5-0.4,0.8-0.8,0.8h-6.2
		c-0.5,0-0.8-0.4-0.8-0.8v-4.6C1343.9,364,1344.2,363.6,1344.7,363.6z"/>
	<path id="Rectangle_108" class="st2" d="M1354.9,363.6h6.2c0.5,0,0.8,0.4,0.8,0.8v4.6c0,0.5-0.4,0.8-0.8,0.8h-6.2
		c-0.5,0-0.8-0.4-0.8-0.8v-4.6C1354.1,364,1354.4,363.6,1354.9,363.6z"/>
	<path id="Rectangle_113" class="st3" d="M1365.1,363.6h6.2c0.5,0,0.8,0.4,0.8,0.8v4.6c0,0.5-0.4,0.8-0.8,0.8h-6.2
		c-0.5,0-0.8-0.4-0.8-0.8v-4.6C1364.3,364,1364.6,363.6,1365.1,363.6z"/>
	<path id="Rectangle_118" class="st3" d="M1375.3,363.6h6.2c0.5,0,0.8,0.4,0.8,0.8v4.6c0,0.5-0.4,0.8-0.8,0.8h-6.2
		c-0.5,0-0.8-0.4-0.8-0.8v-4.6C1374.5,364,1374.8,363.6,1375.3,363.6z"/>
	<path id="Rectangle_87" class="st2" d="M1314.1,371.4h6.2c0.5,0,0.8,0.4,0.8,0.8v4.6c0,0.5-0.4,0.8-0.8,0.8h-6.2
		c-0.5,0-0.8-0.4-0.8-0.8v-4.6C1313.3,371.8,1313.7,371.4,1314.1,371.4z"/>
	<path id="Rectangle_92" class="st2" d="M1324.3,371.4h6.2c0.5,0,0.8,0.4,0.8,0.8v4.6c0,0.5-0.4,0.8-0.8,0.8h-6.2
		c-0.5,0-0.8-0.4-0.8-0.8v-4.6C1323.5,371.8,1323.9,371.4,1324.3,371.4z"/>
	<path id="Rectangle_97" class="st2" d="M1334.5,371.4h6.2c0.5,0,0.8,0.4,0.8,0.8v4.6c0,0.5-0.4,0.8-0.8,0.8h-6.2
		c-0.5,0-0.8-0.4-0.8-0.8v-4.6C1333.7,371.8,1334.1,371.4,1334.5,371.4z"/>
	<path id="Rectangle_102" class="st2" d="M1344.7,371.4h6.2c0.5,0,0.8,0.4,0.8,0.8v4.6c0,0.5-0.4,0.8-0.8,0.8h-6.2
		c-0.5,0-0.8-0.4-0.8-0.8v-4.6C1343.9,371.8,1344.2,371.4,1344.7,371.4z"/>
	<path id="Rectangle_107" class="st2" d="M1354.9,371.4h6.2c0.5,0,0.8,0.4,0.8,0.8v4.6c0,0.5-0.4,0.8-0.8,0.8h-6.2
		c-0.5,0-0.8-0.4-0.8-0.8v-4.6C1354.1,371.8,1354.4,371.4,1354.9,371.4z"/>
	<path id="Rectangle_112" class="st3" d="M1365.1,371.4h6.2c0.5,0,0.8,0.4,0.8,0.8v4.6c0,0.5-0.4,0.8-0.8,0.8h-6.2
		c-0.5,0-0.8-0.4-0.8-0.8v-4.6C1364.3,371.8,1364.6,371.4,1365.1,371.4z"/>
	<path id="Rectangle_117" class="st3" d="M1375.3,371.4h6.2c0.5,0,0.8,0.4,0.8,0.8v4.6c0,0.5-0.4,0.8-0.8,0.8h-6.2
		c-0.5,0-0.8-0.4-0.8-0.8v-4.6C1374.5,371.8,1374.8,371.4,1375.3,371.4z"/>
	<path id="Rectangle_88" class="st2" d="M1314.1,387.1h6.2c0.5,0,0.8,0.4,0.8,0.8v4.6c0,0.5-0.4,0.8-0.8,0.8h-6.2
		c-0.5,0-0.8-0.4-0.8-0.8v-4.6C1313.3,387.5,1313.7,387.1,1314.1,387.1z"/>
	<path id="Rectangle_94" class="st2" d="M1324.3,387.1h6.2c0.5,0,0.8,0.4,0.8,0.8v4.6c0,0.5-0.4,0.8-0.8,0.8h-6.2
		c-0.5,0-0.8-0.4-0.8-0.8v-4.6C1323.5,387.5,1323.9,387.1,1324.3,387.1z"/>
	<path id="Rectangle_99" class="st2" d="M1334.5,387.1h6.2c0.5,0,0.8,0.4,0.8,0.8v4.6c0,0.5-0.4,0.8-0.8,0.8h-6.2
		c-0.5,0-0.8-0.4-0.8-0.8v-4.6C1333.7,387.5,1334.1,387.1,1334.5,387.1z"/>
	<path id="Rectangle_104" class="st2" d="M1344.7,387.1h6.2c0.5,0,0.8,0.4,0.8,0.8v4.6c0,0.5-0.4,0.8-0.8,0.8h-6.2
		c-0.5,0-0.8-0.4-0.8-0.8v-4.6C1343.9,387.5,1344.2,387.1,1344.7,387.1z"/>
	<path id="Rectangle_109" class="st2" d="M1354.9,387.1h6.2c0.5,0,0.8,0.4,0.8,0.8v4.6c0,0.5-0.4,0.8-0.8,0.8h-6.2
		c-0.5,0-0.8-0.4-0.8-0.8v-4.6C1354.1,387.5,1354.4,387.1,1354.9,387.1z"/>
	<path id="Rectangle_114" class="st3" d="M1365.1,387.1h6.2c0.5,0,0.8,0.4,0.8,0.8v4.6c0,0.5-0.4,0.8-0.8,0.8h-6.2
		c-0.5,0-0.8-0.4-0.8-0.8v-4.6C1364.3,387.5,1364.6,387.1,1365.1,387.1z"/>
	<path id="Rectangle_119" class="st3" d="M1375.3,387.1h6.2c0.5,0,0.8,0.4,0.8,0.8v4.6c0,0.5-0.4,0.8-0.8,0.8h-6.2
		c-0.5,0-0.8-0.4-0.8-0.8v-4.6C1374.5,387.5,1374.8,387.1,1375.3,387.1z"/>
	<path id="Rectangle_90" class="st2" d="M1314.1,379.3h6.2c0.5,0,0.8,0.4,0.8,0.8v4.6c0,0.5-0.4,0.8-0.8,0.8h-6.2
		c-0.5,0-0.8-0.4-0.8-0.8v-4.6C1313.3,379.7,1313.7,379.3,1314.1,379.3z"/>
	<path id="Rectangle_91" class="st2" d="M1324.3,379.3h6.2c0.5,0,0.8,0.4,0.8,0.8v4.6c0,0.5-0.4,0.8-0.8,0.8h-6.2
		c-0.5,0-0.8-0.4-0.8-0.8v-4.6C1323.5,379.7,1323.9,379.3,1324.3,379.3z"/>
	<g id="Rectangle_96" transform="translate(1335.48 393.72)">
		<path class="st4" d="M-1-14.4h6.2c0.5,0,0.8,0.4,0.8,0.8V-9c0,0.5-0.4,0.8-0.8,0.8H-1c-0.5,0-0.8-0.4-0.8-0.8v-4.6
			C-1.8-14.1-1.4-14.4-1-14.4z"/>
		<path class="st0" d="M5.2-8.1H-1c-0.5,0-0.9-0.4-0.9-0.9v-4.6c0-0.5,0.4-0.9,0.9-0.9h6.2c0.5,0,0.9,0.4,0.9,0.9V-9
			C6.1-8.5,5.7-8.1,5.2-8.1z M-0.9-9.1h6v-4.5h-6V-9.1z"/>
	</g>
	<path id="Rectangle_101" class="st2" d="M1344.7,379.3h6.2c0.5,0,0.8,0.4,0.8,0.8v4.6c0,0.5-0.4,0.8-0.8,0.8h-6.2
		c-0.5,0-0.8-0.4-0.8-0.8v-4.6C1343.9,379.7,1344.2,379.3,1344.7,379.3z"/>
	<path id="Rectangle_106" class="st2" d="M1354.9,379.3h6.2c0.5,0,0.8,0.4,0.8,0.8v4.6c0,0.5-0.4,0.8-0.8,0.8h-6.2
		c-0.5,0-0.8-0.4-0.8-0.8v-4.6C1354.1,379.7,1354.4,379.3,1354.9,379.3z"/>
	<path id="Rectangle_111" class="st3" d="M1365.1,379.3h6.2c0.5,0,0.8,0.4,0.8,0.8v4.6c0,0.5-0.4,0.8-0.8,0.8h-6.2
		c-0.5,0-0.8-0.4-0.8-0.8v-4.6C1364.3,379.7,1364.6,379.3,1365.1,379.3z"/>
	<path id="Rectangle_116" class="st3" d="M1375.3,379.3h6.2c0.5,0,0.8,0.4,0.8,0.8v4.6c0,0.5-0.4,0.8-0.8,0.8h-6.2
		c-0.5,0-0.8-0.4-0.8-0.8v-4.6C1374.5,379.7,1374.8,379.3,1375.3,379.3z"/>
	<path id="Rectangle_89" class="st2" d="M1314.1,395h6.2c0.5,0,0.8,0.4,0.8,0.8v4.6c0,0.5-0.4,0.8-0.8,0.8h-6.2
		c-0.5,0-0.8-0.4-0.8-0.8v-4.6C1313.3,395.3,1313.7,395,1314.1,395z"/>
	<path id="Rectangle_95" class="st2" d="M1324.3,395h6.2c0.5,0,0.8,0.4,0.8,0.8v4.6c0,0.5-0.4,0.8-0.8,0.8h-6.2
		c-0.5,0-0.8-0.4-0.8-0.8v-4.6C1323.5,395.3,1323.9,395,1324.3,395z"/>
	<path id="Rectangle_100" class="st2" d="M1334.5,395h6.2c0.5,0,0.8,0.4,0.8,0.8v4.6c0,0.5-0.4,0.8-0.8,0.8h-6.2
		c-0.5,0-0.8-0.4-0.8-0.8v-4.6C1333.7,395.3,1334.1,395,1334.5,395z"/>
</g>
</svg>
