<?xml version="1.0" encoding="utf-8"?>
<!-- Generator: Adobe Illustrator 25.0.0, SVG Export Plug-In . SVG Version: 6.00 Build 0)  -->
<svg version="1.1" id="Layer_1" xmlns="http://www.w3.org/2000/svg" xmlns:xlink="http://www.w3.org/1999/xlink" x="0px" y="0px"
	 viewBox="0 0 100 100" style="enable-background:new 0 0 100 100;" xml:space="preserve">
<style type="text/css">
	.st0{fill:#F0EDDA;}
	.st1{fill:#FBB600;}
	.st2{fill:#2C5871;}
	.st3{fill:#FFFFFF;}
	.st4{fill:#1786A3;}
</style>
<g id="c-children" transform="translate(-0.106 0.083)">
	<g id="Group_942" transform="translate(1.112 0.926)">
		<path id="Path_841_1_" class="st0" d="M88.9,95.7l-14.1-6.5c-1.7-0.8-3.7-1-5.5-0.6c-6,1.4-14.6,3.9-19.9,4.9
			c-3.2,0.6-6.5,0.2-9.5-1.1c0,0-24.2-11.6-37.6-25c-2.4-1.9-2.9-5.4-1-7.8c0,0,0,0,0,0c2-2.2,5.3-2.7,7.8-1l0,0l0.4,0.2
			c1.5-1.9,4.3-2.4,6.3-1c3.9,2.4,11,7.1,17.6,11.4l0.1,0.1c0.9-0.3,1.8-0.5,2.8-0.6c2.8-0.4,19.1-3.6,22.2-4.6
			c6.1-2,8.7-2.6,13.1-1.8c2.4,0.4,4.7,1.3,6.7,2.6c1.1,0.6,2.9,2.1,2.9,2.1c0.8,0.7,2.8,2,2.8,2c3.4,2,14.2,6.6,14.2,6.6"/>
		<g>
			<path id="Path_843_1_" class="st1" d="M63.1,16.5c3.3,0.7,6.4-1.4,7.1-4.7c0.7-3.3-1.4-6.4-4.7-7.1c-3.3-0.7-6.4,1.4-7.1,4.7
				c0,0,0,0,0,0C57.8,12.7,59.9,15.8,63.1,16.5C63.1,16.5,63.1,16.5,63.1,16.5z"/>
			<path class="st2" d="M64.3,17.6c-0.5,0-0.9,0-1.4-0.1c0,0,0,0,0,0c-3.8-0.8-6.2-4.5-5.5-8.3c0,0,0,0,0,0l0,0
				c0.4-1.8,1.4-3.4,3-4.4c1.6-1,3.4-1.4,5.3-1c1.8,0.4,3.4,1.4,4.4,3s1.4,3.4,1,5.3C70.5,15.3,67.6,17.6,64.3,17.6z M59.4,9.6
				C59.4,9.6,59.4,9.6,59.4,9.6c-0.6,2.7,1.2,5.4,3.9,5.9l-0.2,1l0.2-1c2.7,0.6,5.4-1.2,5.9-3.9c0.3-1.3,0-2.6-0.7-3.8
				c-0.7-1.1-1.9-1.9-3.2-2.1c-1.3-0.3-2.6,0-3.8,0.7C60.5,7.2,59.7,8.3,59.4,9.6z"/>
		</g>
		<g>
			<path id="Path_844_1_" class="st3" d="M82.6,16.7c-0.8-1.6-2.7-2.2-4.3-1.5l-9.9,4.5l-7.2,0.1l-11-3.4c-1.7-0.5-3.5,0.3-4.1,2
				c-0.6,1.7,0.3,3.5,2,4.1c0,0,0.1,0,0.1,0l10.4,3.2c0,0.2,0.2,11.6,0.2,11.8L57,54.8c-0.1,1.8,0.9,3.3,2.7,3.3c0.1,0,0.1,0,0.2,0
				c1.7,0,2.8-1.4,2.9-3.1l1.2-13.4c0-0.2,1-0.2,1,0l1.6,13.5c0.1,1.7,0.9,3,2.6,3h0.2c2,0,2.6-1.7,2.5-3.5l-1.3-17.4
				c0-0.2-0.1-11.1-0.1-11.3l0,0l10.7-4.8C82.7,20.3,83.4,18.4,82.6,16.7C82.6,16.8,82.6,16.8,82.6,16.7z"/>
			<path class="st2" d="M59.7,59.2c-2.2-0.1-3.8-1.9-3.7-4.4l1.7-17.4c0,0,0-1.5-0.1-3.3c-0.1-4.6-0.1-6.7-0.1-7.6l-9.7-3
				c0,0-0.1,0-0.1,0c-2.2-0.7-3.4-3.1-2.6-5.3c0.8-2.2,3.2-3.3,5.4-2.6l10.9,3.3l6.8-0.1l9.7-4.4c2.1-1,4.6-0.1,5.6,1.9c0,0,0,0,0,0
				c0,0,0,0.1,0.1,0.1c0.5,1,0.5,2.2,0.1,3.2c-0.4,1.1-1.2,1.9-2.2,2.4l-10.1,4.6c0,0.6,0,1.9,0,4.3c0,2.7,0.1,6.1,0.1,6.3l1.3,17.4
				c0.1,1.5-0.2,2.7-1,3.5c-0.6,0.7-1.5,1-2.5,1h-0.2c-2.1,0-3.4-1.5-3.6-3.9l-1-8.7l-0.8,8.7c-0.1,2.3-1.7,4-3.8,4H59.7z
				 M49.1,17.3c-0.9,0-1.8,0.6-2.2,1.5c-0.4,1.1,0.2,2.4,1.4,2.8l10.4,3.2c0.5,0.1,0.8,0.6,0.7,1.1c0,0.3,0.1,5.2,0.1,8.2
				c0.1,3.3,0.1,3.4,0,3.5L58,54.9c0,1,0.4,2.2,1.7,2.2l0.1,0c1.2,0,1.8-1.1,1.9-2.1l1.2-13.5c0-0.1,0.1-1,1.4-1.1
				c1.5,0,1.5,0.9,1.6,1.1L67.5,55c0.2,2.1,1.2,2.1,1.6,2.1h0.2c0.5,0,0.8-0.1,1-0.4c0.4-0.4,0.5-1.1,0.5-2l-1.3-17.4
				c0-0.1,0-1.3-0.1-6.4c0-2.5-0.1-4.7-0.1-4.9c0-0.4,0.3-0.8,0.7-1l10.6-4.8c0.5-0.2,0.9-0.7,1.2-1.2c0.2-0.6,0.2-1.2-0.1-1.7
				l0.9-0.5l-0.9,0.5c-0.6-1.1-1.9-1.5-3-1l-9.9,4.5c-0.1,0.1-0.3,0.1-0.4,0.1l-7.2,0.1c-0.1,0-0.2,0-0.3,0l-11-3.4
				C49.6,17.3,49.4,17.3,49.1,17.3z M63.9,41.8c0,0,0,0.1,0,0.1L63.9,41.8z M64.9,41.7l0,0.2C64.9,41.8,64.9,41.7,64.9,41.7z"/>
		</g>
		<path class="st2" d="M73,46.5H56.8c-0.6,0-1.1-0.2-1.6-0.6c-0.4-0.4-0.6-1-0.6-1.6c0-0.2,0-0.5,0.1-0.7l3-9.3l1.9,0.6l-3,9.3
			c0,0.2,0.1,0.3,0.2,0.3H73c0.2,0,0.2-0.2,0.2-0.3l-3.6-9.2l1.9-0.7l3.6,9.2c0.2,0.5,0.2,1.1,0,1.7c-0.2,0.5-0.7,1-1.2,1.2
			C73.5,46.5,73.3,46.5,73,46.5z"/>
		<g>
			<path id="Path_846_1_" class="st3" d="M70.5,34.7l3.6,9.2c0.2,0.6-0.1,1.3-0.7,1.5c-0.1,0.1-0.3,0.1-0.4,0.1H56.8
				c-0.7,0-1.2-0.5-1.2-1.2c0-0.1,0-0.2,0.1-0.4l3-9.3"/>
			<path class="st2" d="M73,46.5H56.8c-0.6,0-1.1-0.2-1.6-0.6c-0.4-0.4-0.6-1-0.6-1.6c0-0.2,0-0.5,0.1-0.7l3-9.3
				c0.2-0.5,0.7-0.8,1.3-0.6c0.5,0.2,0.8,0.7,0.6,1.3l-3,9.3c0,0.2,0.1,0.3,0.2,0.3H73c0.2,0,0.2-0.2,0.2-0.3l-3.6-9.2
				c-0.2-0.5,0-1.1,0.6-1.3c0.5-0.2,1.1,0,1.3,0.6l3.6,9.2c0.2,0.5,0.2,1.1,0,1.7c-0.2,0.5-0.7,1-1.2,1.2
				C73.5,46.5,73.3,46.5,73,46.5z"/>
		</g>
		<path class="st2" d="M58.5,12.2C58.5,12.2,58.5,12.2,58.5,12.2c-0.4,0-0.8-0.2-1.1-0.5l-2.4-2.4c-0.2-0.2-0.3-0.4-0.4-0.7
			c-0.1-0.4-0.1-0.8,0.2-1.2c0.2-0.4,0.6-0.6,1-0.7l3.3-0.9c0.3-0.1,0.6-0.1,0.8,0c0.4,0.1,0.7,0.4,1,0.7s0.3,0.8,0.2,1.2L60,11
			c-0.1,0.3-0.2,0.5-0.4,0.7C59.3,12,58.9,12.2,58.5,12.2z M56.9,8.4l1.4,1.4l0.5-1.9L56.9,8.4z M59.4,7.7L59.4,7.7
			C59.4,7.7,59.4,7.7,59.4,7.7z"/>
		<g>
			<path id="Path_848_1_" class="st4" d="M59.2,6.8l-3.3,0.9c-0.3,0.1-0.5,0.4-0.4,0.7c0,0.1,0.1,0.2,0.1,0.3L58,11
				c0.2,0.2,0.6,0.2,0.8,0c0.1-0.1,0.1-0.2,0.1-0.3l0.9-3.3c0.1-0.3-0.1-0.6-0.4-0.7C59.4,6.7,59.3,6.7,59.2,6.8z"/>
			<path class="st2" d="M58.5,12.2C58.5,12.2,58.5,12.2,58.5,12.2c-0.4,0-0.8-0.2-1.1-0.5l-2.4-2.4c-0.2-0.2-0.3-0.4-0.4-0.7
				c-0.1-0.4-0.1-0.8,0.2-1.2c0.2-0.4,0.6-0.6,1-0.7l3.3-0.9c0.3-0.1,0.6-0.1,0.8,0c0.4,0.1,0.7,0.4,1,0.7s0.3,0.8,0.2,1.2L60,11
				c-0.1,0.3-0.2,0.5-0.4,0.7C59.3,12,58.9,12.2,58.5,12.2z M56.9,8.4l1.4,1.4l0.5-1.9L56.9,8.4z M59.4,7.7L59.4,7.7L59.4,7.7
				C59.4,7.7,59.4,7.7,59.4,7.7z M59.2,6.8L59.2,6.8L59.2,6.8z"/>
		</g>
		<path class="st2" d="M60.5,7.8c-0.1,0-0.3,0-0.4-0.1c-0.8-0.2-1.3-1.1-1.1-1.9l0.9-3.3C59.9,2.2,60,2,60.2,1.8
			c0.6-0.6,1.6-0.6,2.2,0l2.4,2.4c0.2,0.2,0.3,0.4,0.4,0.7c0.2,0.8-0.3,1.7-1.1,1.9l-3.3,0.9C60.7,7.8,60.6,7.8,60.5,7.8z M61.6,3.7
			l-0.5,1.9l1.9-0.5L61.6,3.7z"/>
		<g>
			<path id="Path_850_1_" class="st4" d="M60.6,6.7l3.3-0.9c0.3-0.1,0.5-0.4,0.4-0.7c0-0.1-0.1-0.2-0.1-0.3l-2.4-2.4
				c-0.2-0.2-0.6-0.2-0.8,0c-0.1,0.1-0.1,0.2-0.1,0.3L59.9,6c-0.1,0.3,0.1,0.6,0.4,0.7C60.4,6.8,60.5,6.8,60.6,6.7z"/>
			<path class="st2" d="M60.5,7.8c-0.1,0-0.3,0-0.4-0.1c-0.8-0.2-1.3-1.1-1.1-1.9l0.9-3.3C59.9,2.2,60,2,60.2,1.8
				c0.6-0.6,1.6-0.6,2.2,0l2.4,2.4c0.2,0.2,0.3,0.4,0.4,0.7c0.2,0.8-0.3,1.7-1.1,1.9l-3.3,0.9c0,0,0,0,0,0
				C60.7,7.8,60.6,7.8,60.5,7.8z M60.6,6.7L60.6,6.7L60.6,6.7z M61.6,3.7l-0.5,1.9l1.9-0.5L61.6,3.7z"/>
		</g>
		<path class="st2" d="M29.6,17.6c-0.5,0-0.9,0-1.4-0.1l0,0c-3.8-0.8-6.2-4.5-5.5-8.3l0,0c0,0,0,0,0,0l0,0c0.4-1.8,1.4-3.4,3-4.4
			c1.6-1,3.4-1.4,5.3-1c1.8,0.4,3.4,1.4,4.4,3s1.4,3.4,1,5.3C35.8,15.3,32.9,17.6,29.6,17.6z M24.7,9.7c-0.5,2.7,1.2,5.3,3.9,5.8
			l-0.2,1l0.2-1c2.7,0.5,5.4-1.2,5.9-3.9c0.3-1.3,0-2.6-0.7-3.8S32,6,30.6,5.7c-1.3-0.3-2.6,0-3.8,0.7C25.8,7.2,25,8.3,24.7,9.7
			L24.7,9.7z"/>
		<g>
			<path id="Path_852_1_" class="st1" d="M28.4,16.5c3.3,0.7,6.4-1.4,7.1-4.7c0.7-3.3-1.4-6.4-4.7-7.1c-3.3-0.7-6.4,1.4-7.1,4.7
				c0,0,0,0,0,0C23.1,12.7,25.2,15.8,28.4,16.5C28.4,16.5,28.4,16.5,28.4,16.5z"/>
			<path class="st2" d="M29.6,17.6c-0.5,0-0.9,0-1.4-0.1c0,0,0,0,0,0c-3.8-0.8-6.2-4.5-5.5-8.3c0,0,0,0,0,0l0,0
				c0.4-1.8,1.4-3.4,3-4.4c1.6-1,3.4-1.4,5.3-1c1.8,0.4,3.4,1.4,4.4,3s1.4,3.4,1,5.3C35.8,15.3,32.9,17.6,29.6,17.6z M24.7,9.6
				C24.7,9.6,24.7,9.6,24.7,9.6c-0.6,2.7,1.2,5.4,3.9,5.9l-0.2,1l0.2-1c2.7,0.5,5.4-1.2,5.9-3.9c0.3-1.3,0-2.6-0.7-3.8
				S32,6,30.6,5.7c-1.3-0.3-2.6,0-3.8,0.7C25.8,7.2,25,8.3,24.7,9.6z"/>
		</g>
		<path class="st2" d="M25.4,59.2c-1.2,0-2.2-0.5-3-1.3s-1.2-1.9-1.1-3L23,37.4c0,0,0-1.5-0.1-3.3c-0.1-4.6-0.1-6.7-0.1-7.6l-9.8-3
			c-1.1-0.4-1.9-1.1-2.4-2.1c-0.5-1-0.6-2.2-0.2-3.2c0.8-2.2,3.2-3.3,5.4-2.6l10.9,3.3l6.8-0.1l9.7-4.4c2.1-1,4.6-0.1,5.6,1.9
			L47,17.2c-0.6-1.1-1.9-1.5-3-1l-10.1,4.6l-7.6,0.1l-11.2-3.4c-1.2-0.4-2.4,0.2-2.9,1.4c-0.2,0.5-0.1,1.1,0.1,1.7
			c0.3,0.5,0.7,0.9,1.3,1.1L24.9,25l-0.1,0.8c0,0.3,0.1,5.2,0.1,8.2c0.1,3.3,0.1,3.4,0.1,3.5l-1.7,17.4c0,0.5,0.2,1.1,0.6,1.5
			c0.4,0.4,0.9,0.7,1.5,0.7l0.1,0c1.2,0,2.1-0.9,2.2-2.1l1.2-13.5c0-0.6,0.5-1.1,1.1-1.1c0.6,0,1.1,0.5,1.2,1.1L32.8,55
			c0.1,1.2,1.1,2.1,2.2,2.1c0,0,0,0,0,0l0.1,0c1.2-0.1,2.2-1.2,2.1-2.4l-2.4-17.4c0-0.2,0-1.1-0.1-6.7c0-2.4-0.1-4.5-0.1-4.7l0-0.7
			l0.7-0.3l10.6-4.8c0.5-0.2,0.9-0.7,1.2-1.2c0.2-0.6,0.2-1.2-0.1-1.7l1.8-0.9l0.1,0.1c0.5,1,0.5,2.2,0.1,3.2
			c-0.4,1.1-1.2,1.9-2.2,2.4l-10.1,4.6c0,0.6,0,1.8,0,4.1c0,2.8,0.1,6.3,0.1,6.5l2.4,17.4c0.2,2.4-1.6,4.4-3.9,4.6
			c-0.1,0-0.2,0-0.3,0c-2.2,0-4-1.7-4.2-3.9l-0.6-5.3l-0.5,5.3c-0.1,2.2-1.9,4-4.2,4H25.4z"/>
		<g>
			<path id="Path_854_1_" class="st3" d="M47.9,16.7c-0.8-1.6-2.7-2.2-4.3-1.5l-9.9,4.5l-7.2,0.1l-11-3.4c-1.7-0.5-3.5,0.3-4.1,2
				c-0.6,1.7,0.3,3.5,2,4.1c0,0,0.1,0,0.1,0l10.4,3.2c0,0.2,0.2,11.6,0.2,11.8l-1.7,17.3c-0.1,1.8,1.3,3.3,3.1,3.3c0,0,0,0,0,0
				c0.1,0,0.1,0,0.2,0c1.7,0,3.1-1.4,3.2-3.1l1.2-13.4c0-0.1,0.1-0.1,0.1-0.1c0.1,0,0.1,0.1,0.1,0.1l1.6,13.5c0.1,1.7,1.5,3,3.2,3
				c0.1,0,0.1,0,0.2,0c1.8-0.1,3.1-1.7,3-3.4l-2.4-17.5c0-0.2-0.1-11.1-0.1-11.3l0,0l10.7-4.8C48,20.3,48.7,18.4,47.9,16.7
				C47.9,16.8,47.9,16.8,47.9,16.7z"/>
			<path class="st2" d="M25.4,59.2c-1.2,0-2.2-0.5-3-1.3s-1.2-1.9-1.1-3L23,37.4c0,0,0-1.5-0.1-3.3c-0.1-4.6-0.1-6.7-0.1-7.6l-9.7-3
				c0,0-0.1,0-0.1,0c-1.1-0.4-1.9-1.1-2.4-2.1c-0.5-1-0.6-2.2-0.2-3.2c0.8-2.2,3.2-3.3,5.4-2.6l10.9,3.3l6.8-0.1l9.7-4.4
				c2.1-1,4.6-0.1,5.6,1.9c0,0,0,0,0,0c0,0,0,0.1,0,0.1c1,2.1,0,4.6-2.1,5.6l-10.1,4.6c0,0.6,0,1.8,0,4.1c0,2.8,0.1,6.3,0.1,6.5
				l2.4,17.4c0.2,2.4-1.6,4.4-3.9,4.6c-0.1,0-0.2,0-0.3,0c-2.2,0-4-1.7-4.2-3.9l-0.6-5.3l-0.5,5.3c-0.1,2.2-1.9,4-4.2,4H25.4z
				 M14.4,17.3c-0.9,0-1.8,0.6-2.2,1.5c-0.2,0.5-0.1,1.1,0.1,1.7c0.3,0.5,0.7,0.9,1.3,1.1l10.4,3.2c0.5,0.1,0.7,0.6,0.7,1.1
				c0,0.3,0.1,5.2,0.1,8.2c0.1,3.3,0.1,3.4,0.1,3.5l-1.7,17.4c0,1.2,0.9,2.2,2.1,2.2l0.1,0c1.2,0,2.1-0.9,2.2-2.1l1.2-13.5
				c0-0.6,0.5-1.1,1.1-1.1c0.6,0,1.1,0.5,1.2,1.1L32.8,55c0.1,1.2,1.1,2.1,2.2,2.1c0,0,0,0,0,0l0.1,0c1.2-0.1,2.2-1.2,2.1-2.4
				l-2.4-17.4c0-0.2,0-1.1-0.1-6.7c0-2.4-0.1-4.5-0.1-4.7c0-0.4,0.2-0.8,0.7-1l10.6-4.8c1.1-0.5,1.6-1.8,1.1-2.9l0.9-0.5L47,17.2
				c-0.6-1.1-1.9-1.5-3-1l-9.9,4.5c-0.1,0.1-0.3,0.1-0.4,0.1l-7.2,0.1c-0.1,0-0.2,0-0.3,0l-11-3.4C14.9,17.3,14.7,17.3,14.4,17.3z
				 M29.2,41.7C29.2,41.7,29.2,41.7,29.2,41.7S29.2,41.7,29.2,41.7z"/>
		</g>
		<path class="st2" d="M98.4,74.6c-0.1,0-10.8-4.5-14-6.5c0,0-1.9-1.3-2.7-2c-0.1-0.1-1.9-1.5-3-2.1c-2.2-1.4-4.6-2.3-7.1-2.8
			C66.8,60.3,64,61.1,58,63c-3,1-19,4.1-22,4.6c-0.8,0.1-1.6,0.3-2.4,0.5c-8.3-5.5-14.1-9.3-17.3-11.2c-2.2-1.4-5.1-1.2-7,0.6
			c-2.9-1.7-6.6-1.1-8.8,1.5c-2.2,2.9-1.7,7,1.2,9.2c13.4,13.4,37.6,25.1,37.9,25.2c3.2,1.4,6.7,1.8,10.1,1.1
			c3.3-0.6,7.7-1.7,12-2.9c2.9-0.8,5.6-1.5,8-2c1.6-0.4,3.4-0.2,4.9,0.5l14.1,6.5c0.1,0.1,0.3,0.1,0.4,0.1c0.4,0,0.7-0.2,0.9-0.6
			c0.2-0.5,0-1.1-0.5-1.3l-14.1-6.5c-1.9-0.9-4.1-1.1-6.2-0.6c-2.4,0.6-5.2,1.3-8.1,2c-4.2,1.1-8.6,2.3-11.8,2.8
			c-3,0.5-6.1,0.2-8.9-1C40,91.4,16,79.8,2.9,66.6c0,0-0.1-0.1-0.1-0.1c-2-1.5-2.4-4.4-0.9-6.4c1.7-1.9,4.5-2.2,6.5-0.8
			c0,0,0,0,0.1,0l0.3,0.2c0,0,0,0,0,0l19.9,13.3c-0.1,0.8-0.1,1.6,0.2,2.5c0.8,2.3,2.6,4,5,4.6c0.7,0.2,1.4,0.3,2.1,0.3
			c0.2,0,0.5,0,0.7,0c0.7,0,18.1-1.1,25.2-2.6c0.5-0.1,0.9-0.7,0.8-1.2c-0.1-0.5-0.7-0.9-1.2-0.8c-6.9,1.5-24.7,2.6-24.9,2.6
			c-0.7,0.1-1.4,0-2.2-0.2c-1.7-0.4-3-1.7-3.5-3.3c-0.5-1.5,0.1-3,1.3-3.9c0.3-0.2,0.7-0.4,1.1-0.6l0.4-0.1c0,0,0,0,0,0
			c0.8-0.3,1.7-0.5,2.6-0.6c2.6-0.4,19.1-3.6,22.3-4.6c6.2-2,8.5-2.5,12.7-1.7c2.3,0.4,4.4,1.2,6.4,2.5c1,0.6,2.8,2,2.8,2h0
			c0.9,0.8,2.9,2.1,2.9,2.1c3.4,2,13.9,6.4,14.3,6.6c0.5,0.2,1.1,0,1.3-0.5C99.1,75.4,98.9,74.8,98.4,74.6z M29.4,71L11,58.6
			c1.2-0.8,2.9-0.9,4.2-0.1c3.1,1.9,8.5,5.4,16.1,10.5c-0.1,0.1-0.2,0.1-0.3,0.2C30.3,69.7,29.8,70.3,29.4,71z"/>
	</g>
</g>
</svg>
