<?xml version="1.0" encoding="utf-8"?>
<!-- Generator: Adobe Illustrator 25.0.0, SVG Export Plug-In . SVG Version: 6.00 Build 0)  -->
<svg version="1.1" id="Layer_1" xmlns="http://www.w3.org/2000/svg" xmlns:xlink="http://www.w3.org/1999/xlink" x="0px" y="0px"
	 viewBox="0 0 100 100" style="enable-background:new 0 0 100 100;" xml:space="preserve">
<style type="text/css">
	.st0{fill:#FBB600;}
	.st1{fill:#1786A3;}
	.st2{fill:#F0EDDA;}
	.st3{fill:#FFFFFF;}
	.st4{fill:#2C5871;}
</style>
<g id="c-circular" transform="translate(-326.831 -82.159)">
	<path id="Path_593" class="st0" d="M337.5,148.1c0.4,6.5,2.2,21.1,8.5,24.3c5,2.5,14.9,0.8,12.5-5.3s-4.4-17.8-4.4-17.8"/>
	<path id="Path_594" class="st1" d="M357,102c0,0-12.4-2.9-19.5,0.7c-5.7,2.9-9.7,12-9.7,22.7c0,10.7,4.1,19.6,9.7,22.7
		c4.9,2.7,15.2,2.3,19.5,0.3"/>
	<path id="Path_595" class="st2" d="M392.3,90.8c-13.9,0-14.1,7.7-29.9,10c-12.7,1.8-15.5,13.8-15.5,24.6s2.9,22.8,15.5,24.6
		c15.8,2.3,16,10,29.9,10"/>
	<ellipse id="Ellipse_37" class="st3" cx="392.3" cy="125.3" rx="16.1" ry="34.6"/>
	<g>
		<path class="st4" d="M392.3,89.8c-7.5,0-11.2,2.2-15.2,4.5c-3.7,2.2-7.5,4.4-14.9,5.5c-1.7,0.3-3.3,0.7-4.8,1.3
			c-0.1,0-0.1-0.1-0.2-0.1c-0.5-0.1-12.9-2.9-20.2,0.8c-6.1,3.1-10.3,12.6-10.3,23.6c0,10.5,3.9,19.7,9.7,23.3
			c0.4,5.5,2,21.1,9.1,24.6c1.6,0.8,3.7,1.2,5.7,1.2c2.7,0,5.4-0.7,7-2.2c1.5-1.4,1.9-3.4,1.1-5.5c-1.9-4.9-3.6-13.8-4.2-16.7
			c0.6-0.2,1.2-0.4,1.7-0.6c1.6,0.7,3.3,1.2,5.2,1.5c7.4,1.1,11.2,3.3,14.9,5.5c4,2.3,7.7,4.5,15.2,4.5c9.6,0,17.1-15.6,17.1-35.6
			C409.4,105.4,401.9,89.8,392.3,89.8z M357.6,167.4c0.5,1.4,0.3,2.5-0.6,3.3c-2.1,1.9-7.3,2.3-10.5,0.7c-4.7-2.3-7.2-12.8-7.9-21.8
			c2.4,0.9,5.6,1.3,8.7,1.3c2.1,0,4.1-0.2,6-0.5C353.9,153.4,355.6,162.3,357.6,167.4z M338,147.2c-5.4-3-9.2-12-9.2-21.8
			c0-10.1,3.8-19.1,9.2-21.8c5-2.5,13-1.6,16.8-1c-5.8,3.9-8.9,11.7-8.9,22.8c0,11.1,3,18.8,8.8,22.8
			C349.9,149.4,341.8,149.3,338,147.2z M378.2,154.7c-3.7-2.1-7.8-4.6-15.6-5.7c-9.7-1.4-14.7-9.4-14.7-23.6
			c0-14.3,4.9-22.2,14.7-23.6c7.8-1.1,12-3.6,15.6-5.7c2.3-1.4,4.5-2.6,7.4-3.4c-6.1,5.4-10.3,17.9-10.3,32.8
			c0,14.9,4.2,27.4,10.3,32.8C382.7,157.3,380.5,156.1,378.2,154.7z M377.2,125.3c0-4.2,0.4-8.3,1.1-12.1c0.1,0.1,0.3,0.1,0.5,0.1
			c2.4,0,5,4.9,5,12c0,7-2.6,12-5,12c-0.2,0-0.3,0.1-0.5,0.1C377.6,133.7,377.2,129.6,377.2,125.3z M392.3,158.9
			c-6,0-11.2-8.2-13.7-19.7c0,0,0.1,0,0.1,0c3.9,0,7-6.1,7-14c0-7.8-3.1-14-7-14c0,0-0.1,0-0.1,0c2.4-11.5,7.7-19.7,13.7-19.7
			c8.2,0,15.1,15.4,15.1,33.6C407.4,143.5,400.5,158.9,392.3,158.9z"/>
		<path class="st4" d="M425.8,124.6h-9.8c-0.6,0-1,0.4-1,1s0.4,1,1,1h9.8c0.6,0,1-0.4,1-1S426.4,124.6,425.8,124.6z"/>
		<path class="st4" d="M409.5,97.7c0.2,0,0.3,0,0.5-0.1l8.3-4.6c0.5-0.3,0.7-0.9,0.4-1.4c-0.3-0.5-0.9-0.7-1.4-0.4l-8.3,4.6
			c-0.5,0.3-0.7,0.9-0.4,1.4C408.8,97.5,409.2,97.7,409.5,97.7z"/>
		<path class="st4" d="M418.3,158.3l-8.3-4.6c-0.5-0.3-1.1-0.1-1.4,0.4c-0.3,0.5-0.1,1.1,0.4,1.4l8.3,4.6c0.2,0.1,0.3,0.1,0.5,0.1
			c0.4,0,0.7-0.2,0.9-0.5C418.9,159.2,418.8,158.6,418.3,158.3z"/>
	</g>
</g>
</svg>
