<?xml version="1.0" encoding="utf-8"?>
<!-- Generator: Adobe Illustrator 25.0.0, SVG Export Plug-In . SVG Version: 6.00 Build 0)  -->
<svg version="1.1" id="Layer_1" xmlns="http://www.w3.org/2000/svg" xmlns:xlink="http://www.w3.org/1999/xlink" x="0px" y="0px"
	 viewBox="0 0 100 100" style="enable-background:new 0 0 100 100;" xml:space="preserve">
<style type="text/css">
	.st0{fill:#F0EDDA;}
	.st1{fill:#1786A3;}
	.st2{fill:#FBB600;}
	.st3{fill:#2C5871;}
</style>
<g id="c-class-timetable" transform="translate(-1.944 -2.077)">
	<path id="Path_833" class="st0" d="M35,76.4l8.5-12.7h27.7L58.4,84.9H29.7"/>
	<path id="Path_832" class="st1" d="M3,91.2c0,0,1.4-11.8,2.1-17c0.7-5.2,3.8-8.5,8.5-8.5h4.3l14.9,17h12.8c0,0,1,8.5-6.4,8.5H3"/>
	<path id="Path_828_1_" class="st2" d="M20,59.4c-5,0-8.5-4.1-8.5-9.1v-3c0-5,3.5-9.1,8.5-9.1s8.5,4.1,8.5,9.1v3
		C28.6,55.4,25.1,59.4,20,59.4z"/>
	<g>
		<path class="st3" d="M69,18.2c-0.6,0-1,0.4-1,1v26l13.2,8.8c0.2,0.1,0.4,0.2,0.6,0.2c0.3,0,0.6-0.2,0.8-0.4
			c0.3-0.5,0.2-1.1-0.3-1.4L70,44.1V19.2C70,18.6,69.6,18.2,69,18.2z"/>
		<path class="st3" d="M20,60.4c5.4,0,9.5-4.3,9.5-10.1v-3c0-5.7-4.1-10.1-9.5-10.1c-5.4,0-9.5,4.3-9.5,10.1v3
			C10.5,56.1,14.6,60.4,20,60.4z M12.5,47.3c0-4.6,3.2-8.1,7.5-8.1s7.5,3.5,7.5,8.1v3c0,4.6-3.2,8.1-7.5,8.1s-7.5-3.5-7.5-8.1V47.3z
			"/>
		<path class="st3" d="M35.8,76.9L44,64.7h25.4L57.8,83.9h-8c-0.6,0-1,0.4-1,1c0,0.6,0.4,1,1,1h8.5c0.4,0,0.7-0.2,0.9-0.5L72,64.2
			c0.2-0.3,0.2-0.7,0-1c-0.2-0.3-0.5-0.5-0.9-0.5H43.5c-0.3,0-0.6,0.2-0.8,0.4l-8.5,12.7c-0.3,0.5-0.2,1.1,0.3,1.4
			C34.9,77.5,35.5,77.4,35.8,76.9z"/>
		<path class="st3" d="M77.6,90.2H44.4c0.1-0.1,0.1-0.1,0.2-0.2c2.5-2.8,2-7.2,2-7.4l-0.1-0.9H33.2l-14.9-17h-4.7
			c-5.1,0-8.7,3.6-9.5,9.3C3.4,79.3,2,91,2,91.1c-0.1,0.5,0.3,1,0.9,1.1c0,0,0.1,0,0.1,0c0.5,0,0.9-0.4,1-0.9
			c0-0.1,1.4-11.8,2.1-16.9c0.7-4.8,3.5-7.6,7.5-7.6h3.8l14.9,17h12.3c0,1.2-0.2,3.5-1.6,5c-0.9,1-2.2,1.5-3.9,1.5H26.9L16.5,77.9
			c-0.4-0.4-1-0.5-1.4-0.1c-0.4,0.4-0.5,1-0.1,1.4l9.3,11.1h-6.4c-0.6,0-1,0.4-1,1s0.4,1,1,1h59.7c0.6,0,1-0.4,1-1
			S78.1,90.2,77.6,90.2z"/>
		<path class="st3" d="M69.2,11.8c-0.1,0-0.1,0-0.2,0c-4,0-7.9,0.7-11.7,2.1c-16.9,6.3-25.5,25.3-19.2,42.2c0.2,0.5,0.8,0.8,1.3,0.6
			c0.5-0.2,0.8-0.8,0.6-1.3c-6-15.9,2.1-33.7,18-39.6c3.5-1.3,7.1-2,10.8-2c0.1,0,0.2,0,0.3,0c16.9,0,30.7,13.7,30.8,30.6
			c0.1,16.3-12.6,29.9-28.9,30.9c-0.6,0-1,0.5-0.9,1.1c0,0.5,0.5,0.9,1,0.9c0,0,0,0,0.1,0c17.3-1.1,30.8-15.5,30.8-32.9
			C101.9,26.4,87.2,11.8,69.2,11.8z"/>
	</g>
</g>
</svg>
