<?xml version="1.0" encoding="utf-8"?>
<!-- Generator: Adobe Illustrator 25.0.0, SVG Export Plug-In . SVG Version: 6.00 Build 0)  -->
<svg version="1.1" id="Layer_1" xmlns="http://www.w3.org/2000/svg" xmlns:xlink="http://www.w3.org/1999/xlink" x="0px" y="0px"
	 viewBox="0 0 100 100" style="enable-background:new 0 0 100 100;" xml:space="preserve">
<style type="text/css">
	.st0{fill:#F0EDDA;}
	.st1{fill:#1786A3;}
	.st2{fill:#FBB600;}
	.st3{fill:#2C5871;}
</style>
<g id="c-classes" transform="translate(-323.288 -104.272)">
	<path id="Path_256" class="st0" d="M347.2,127.1c5.3,0.1,9.7-4,9.8-9.3c0,0,0,0,0-0.1v-3.1c-0.3-5.4-4.9-9.6-10.3-9.3
		c-5,0.2-9.1,4.3-9.3,9.3v3.1C337.5,123,341.8,127.2,347.2,127.1C347.1,127.1,347.1,127.1,347.2,127.1z"/>
	<path id="Path_257" class="st1" d="M373.9,140.1l7-17.4h39.2l-10.5,26.1h-38.8"/>
	<path id="Path_258" class="st2" d="M354.8,151v13.1h10.9c4.6,0,8.7,2.9,10.3,7.3l10.5,31.9h-9.9l-13.1-24h-15.2
		c-7.2,0-13.1-5.8-13.1-13.1v-24c0-4.8,3.9-8.7,8.7-8.7c0,0,0,0,0,0h8.7l10.9,13.1h15.2c0,0,1.3,8.7-8.7,8.7H357l-8.7-8.7"/>
	<g>
		<path class="st3" d="M417.9,154.4h-41.2c0.4-0.3,0.7-0.6,1-0.9c2.5-2.9,2-6.8,2-6.9c-0.1-0.5-0.5-0.9-1-0.9H364l-10.6-12.7
			c-0.2-0.2-0.5-0.4-0.8-0.4h-8.7c-2.6,0-5,1-6.9,2.8c-1.8,1.8-2.8,4.3-2.8,6.9v24c0,7.8,6.3,14.1,14.1,14.1h14.6l12.8,23.4
			c0.2,0.3,0.5,0.5,0.9,0.5h9.9c0.3,0,0.6-0.2,0.8-0.4c0.2-0.3,0.2-0.6,0.1-0.9L376.9,171c-1.7-4.8-6.2-8-11.2-8h-9.9v-6.7h62.2
			c0.6,0,1-0.4,1-1S418.5,154.4,417.9,154.4z M365.7,165.1c4.2,0,7.9,2.7,9.3,6.6l10.1,30.6h-7.9l-12.8-23.4
			c-0.2-0.3-0.5-0.5-0.9-0.5h-15.2c-6.7,0-12.1-5.4-12.1-12.1v-24c0-2.1,0.8-4,2.3-5.5c1.5-1.5,3.4-2.3,5.5-2.3h8.2l10.6,12.7
			c0.2,0.2,0.5,0.4,0.8,0.4h14.3c0,1.1-0.2,3-1.5,4.5c-1.3,1.5-3.4,2.2-6.2,2.2h-12.7l-1.6-1.6V151c0-0.6-0.4-1-1-1
			c-0.5,0-0.9,0.3-1,0.8l-4.8-4.8c-0.4-0.4-1-0.4-1.4,0s-0.4,1,0,1.4l6.2,6.2v10.5c0,0.6,0.4,1,1,1H365.7z"/>
		<path class="st3" d="M359.1,189c0.6,0,1-0.4,1-1c0-0.6-0.4-1-1-1h-15.2c-9.1,0-16.4-7.4-16.4-16.4v-32.7c0-0.6-0.4-1-1-1
			c-0.6,0-1,0.4-1,1v32.7c0,10.2,8.3,18.4,18.4,18.4h1.2v9.5l-3.8,3.8H333c-0.6,0-1,0.4-1,1c0,0.6,0.4,1,1,1h8.7
			c0.3,0,0.5-0.1,0.7-0.3l3.6-3.6l3.6,3.6c0.2,0.2,0.4,0.3,0.7,0.3h8.7c0.6,0,1-0.4,1-1c0-0.6-0.4-1-1-1h-8.3l-3.8-3.8V189H359.1z"
			/>
		<path class="st3" d="M346.9,128.1c0.1,0,0.1,0,0.2,0l0,0c0.1,0,0.2,0,0.3,0c5.7,0,10.4-4.5,10.5-10.3l0-3.2
			c-0.1-2.9-1.4-5.5-3.5-7.5c-2.1-1.9-4.9-2.9-7.8-2.8c-5.6,0.3-10,4.7-10.3,10.3v3.1C336.5,123.5,341.2,128.1,346.9,128.1z
			 M338.4,114.7c0.2-4.6,3.8-8.2,8.4-8.4c2.4-0.1,4.6,0.7,6.3,2.3s2.8,3.7,2.9,6.1l0,3.2c-0.1,4.7-4.1,8.4-8.8,8.3c0,0,0,0,0,0
			c0,0-0.1,0-0.1,0c-4.7,0.1-8.6-3.6-8.7-8.3L338.4,114.7z"/>
		<path class="st3" d="M420.9,122.1c-0.2-0.3-0.5-0.4-0.8-0.4h-39.2c-0.4,0-0.8,0.2-0.9,0.6l-7,17.4c-0.2,0.5,0,1.1,0.6,1.3
			c0.5,0.2,1.1,0,1.3-0.6l6.7-16.8h37l-9.7,24.1h-23.7c-0.6,0-1,0.4-1,1s0.4,1,1,1h24.4c0.4,0,0.8-0.2,0.9-0.6l10.5-26.1
			C421.2,122.8,421.1,122.4,420.9,122.1z"/>
	</g>
</g>
</svg>
