<?xml version="1.0" encoding="utf-8"?>
<!-- Generator: Adobe Illustrator 25.0.0, SVG Export Plug-In . SVG Version: 6.00 Build 0)  -->
<svg version="1.1" id="Layer_1" xmlns="http://www.w3.org/2000/svg" xmlns:xlink="http://www.w3.org/1999/xlink" x="0px" y="0px"
	 viewBox="0 0 100 100" style="enable-background:new 0 0 100 100;" xml:space="preserve">
<style type="text/css">
	.st0{fill:#F0EDDA;}
	.st1{fill:#CCEEF5;}
	.st2{fill:#FBB600;}
	.st3{fill:#1786A3;}
	.st4{fill:#2C5871;}
</style>
<g id="c-class-spliting" transform="translate(-311.931 -103.606)">
	<path id="Path_533" class="st0" d="M372.6,193.4v-9.8c0-6-4.7-8.7-10.7-8.7s-10.7,2.7-10.7,8.7v9.8L372.6,193.4z"/>
	<path id="Path_534" class="st1" d="M351.3,193.4v-9.8c0-6-4.7-8.7-10.7-8.7c-5.9,0-10.7,2.7-10.7,8.7v9.8L351.3,193.4z"/>
	<path id="Path_535" class="st1" d="M393.9,193.9v-10.3c0-6-4.7-8.7-10.7-8.7c-5.9,0-10.7,2.7-10.7,8.7v10.3L393.9,193.9z"/>
	<path id="Path_536" class="st1" d="M361.9,198.3v-4c0-6-4.7-8.7-10.7-8.7c-5.9,0-10.7,2.7-10.7,8.7v4"/>
	<path id="Path_537" class="st1" d="M404.5,198.3v-4c0-6-4.7-8.7-10.7-8.7c-5.9,0-10.7,2.7-10.7,8.7v4"/>
	<path id="Path_538" class="st0" d="M340.6,198.3v-4c0-6-4.7-8.7-10.7-8.7c-5.9,0-10.7,2.7-10.7,8.7v4"/>
	<path id="Path_539" class="st0" d="M383.2,198.3v-4c0-6-4.7-8.7-10.7-8.7c-5.9,0-10.7,2.7-10.7,8.7v4"/>
	<path id="Path_540" class="st2" d="M379,149.3c3.5,0,6.4-2.8,6.4-6.3c0,0,0,0,0-0.1v-2.1c0-3.5-2.8-6.4-6.3-6.5
		c-3.5,0-6.4,2.8-6.5,6.3c0,0,0,0.1,0,0.1v2.1C372.6,146.5,375.4,149.3,379,149.3C378.9,149.3,379,149.3,379,149.3z"/>
	<path id="Path_541" class="st3" d="M389.6,170.6v-6.4c0-4.7-3.8-8.5-8.5-8.5h-4.3c-4.7,0-8.5,3.8-8.5,8.5v6.4"/>
	<g>
		<path class="st4" d="M315.1,178h8.5c0.6,0,1-0.4,1-1s-0.4-1-1-1h-7.5v-66.2h91.7V176h-7.5c-0.6,0-1,0.4-1,1s0.4,1,1,1h8.5
			c0.6,0,1-0.4,1-1v-68.2c0-0.6-0.4-1-1-1h-93.7c-0.6,0-1,0.4-1,1V177C314.1,177.6,314.5,178,315.1,178z"/>
		<path class="st4" d="M410.9,197.3h-5.4v-3c0-5.7-4.1-9.4-10.7-9.7v-0.9c0-6-4.5-9.7-11.7-9.7c-5.2,0-9,2-10.7,5.3
			c-1.7-3.4-5.5-5.3-10.7-5.3c-5.2,0-9,2-10.7,5.3c-1.7-3.4-5.5-5.3-10.7-5.3c-7.2,0-11.7,3.7-11.7,9.7v0.9
			c-6.6,0.3-10.7,4-10.7,9.7v3h-5.4c-0.6,0-1,0.4-1,1s0.4,1,1,1h98c0.6,0,1-0.4,1-1S411.5,197.3,410.9,197.3z M403.5,194.3v3h-19.3
			v-3c0-7,6.8-7.7,9.7-7.7S403.5,187.3,403.5,194.3z M341.6,194.3c0-7,6.8-7.7,9.7-7.7c2.9,0,9.7,0.8,9.7,7.7v3h-19.3L341.6,194.3
			C341.6,194.3,341.6,194.3,341.6,194.3z M372.6,186.6c2.9,0,9.7,0.8,9.7,7.7v3h-19.3v-3C362.9,187.3,369.7,186.6,372.6,186.6z
			 M383.2,175.9c2.9,0,9.7,0.8,9.7,7.7v0.9c-4.7,0.2-8.1,2.1-9.7,5.3c-1.6-3.1-5-5-9.7-5.3v-0.9c0,0,0,0,0,0
			C373.6,176.7,380.3,175.9,383.2,175.9z M361.9,175.9c2.9,0,9.6,0.8,9.7,7.7c0,0,0,0,0,0v0.9c-4.7,0.2-8.1,2.1-9.7,5.3
			c-1.6-3.1-5-5-9.7-5.3v-0.9C352.3,176.7,359,175.9,361.9,175.9z M340.6,175.9c2.9,0,9.7,0.8,9.7,7.7v0.9c-4.7,0.2-8.1,2.1-9.7,5.3
			c-1.6-3.1-5-5-9.7-5.3v-0.9C331,176.7,337.7,175.9,340.6,175.9z M320.3,194.3c0-7,6.8-7.7,9.7-7.7c2.9,0,9.6,0.8,9.7,7.7
			c0,0,0,0,0,0v3h-19.3V194.3z"/>
		<path class="st4" d="M389.6,171.6c0.6,0,1-0.4,1-1v-6.4c0-5.3-4.3-9.5-9.5-9.5h-4.3c-5.2,0-9.5,4.3-9.5,9.5v6.4c0,0.6,0.4,1,1,1
			s1-0.4,1-1v-6.4c0-4.1,3.4-7.5,7.5-7.5h4.3c4.1,0,7.5,3.4,7.5,7.5v6.4C388.6,171.2,389.1,171.6,389.6,171.6z"/>
		<path class="st4" d="M379,150.3C379,150.3,379,150.3,379,150.3c4.1,0,7.4-3.3,7.4-7.4v-2.1c0-4.1-3.2-7.4-7.3-7.5
			c-2,0-3.8,0.7-5.2,2.1c-1.4,1.4-2.2,3.2-2.2,5.2v2.3c0,2,0.8,3.8,2.1,5.2C375.1,149.6,377,150.3,379,150.3
			C378.9,150.3,378.9,150.3,379,150.3z M373.6,143v-2.1c0,0,0-0.1,0-0.1c0-1.4,0.6-2.8,1.6-3.8c1-1,2.4-1.5,3.8-1.5c0,0,0,0,0.1,0
			c3,0,5.4,2.5,5.3,5.5v2.2c0,3-2.4,5.3-5.4,5.3c0,0,0,0,0,0h0c-1.4,0-2.8-0.6-3.8-1.6C374.1,145.7,373.6,144.4,373.6,143z"/>
	</g>
</g>
</svg>
