<?xml version="1.0" encoding="utf-8"?>
<!-- Generator: Adobe Illustrator 25.0.0, SVG Export Plug-In . SVG Version: 6.00 Build 0)  -->
<svg version="1.1" id="Layer_1" xmlns="http://www.w3.org/2000/svg" xmlns:xlink="http://www.w3.org/1999/xlink" x="0px" y="0px"
	 viewBox="0 0 100 100" style="enable-background:new 0 0 100 100;" xml:space="preserve">
<style type="text/css">
	.st0{fill:#66CDE1;}
	.st1{fill:#1786A3;}
	.st2{fill:#F0EDDA;}
	.st3{fill:#FBB600;}
	.st4{fill:#FFFFFF;}
	.st5{fill:#2C5871;}
</style>
<g id="c-competetion" transform="translate(-35.527 -844.101)">
	<path id="Path_743_1_" class="st0" d="M64.3,921.4H39.5l-3-7.1h27.8"/>
	<path id="Path_744_1_" class="st1" d="M100.8,905.8v37.3H70.3v-37.3"/>
	<path id="Path_746_1_" class="st2" d="M105.2,905.8H65.8l-3-7.1h45.3L105.2,905.8z"/>
	<path id="Path_747_1_" class="st0" d="M106.7,921.4h27.8l-3,7.1h-24.8"/>
	<path id="Path_748_1_" class="st3" d="M87.9,846.6l5.3,10.7c0.4,0.8,1.1,1.3,2,1.5l11.9,1.7c1.5,0.2,2.5,1.5,2.3,3
		c-0.1,0.6-0.4,1.1-0.8,1.5l-8.6,8.4c-0.6,0.6-0.9,1.5-0.8,2.4l2,11.8c0.2,1.5-0.7,2.8-2.2,3.1c-0.6,0.1-1.2,0-1.7-0.3l-10.7-5.6
		c-0.8-0.4-1.7-0.4-2.5,0l-10.7,5.6c-1.3,0.7-2.9,0.2-3.6-1.1c-0.3-0.5-0.4-1.1-0.3-1.7l2-11.8c0.1-0.9-0.1-1.7-0.8-2.4l-8.6-8.4
		c-1.1-1-1.1-2.7-0.1-3.8c0.4-0.4,1-0.7,1.5-0.8l11.9-1.7c0.9-0.1,1.6-0.7,2-1.5l5.3-10.7c0.7-1.3,2.3-1.9,3.6-1.2
		C87.3,845.7,87.7,846.1,87.9,846.6z"/>
	<g>
		<rect id="Rectangle_435_1_" x="79.9" y="914.3" class="st4" width="11.2" height="7.1"/>
		<g>
			<path class="st5" d="M65.3,914.3c0-0.6-0.4-1-1-1H36.5c-0.3,0-0.6,0.2-0.8,0.4c-0.2,0.3-0.2,0.6-0.1,0.9l3,7.1
				c0.2,0.4,0.5,0.6,0.9,0.6h3.4v20.7c0,0.6,0.4,1,1,1h20.4c0.6,0,1-0.4,1-1s-0.4-1-1-1H44.9v-19.7h19.4c0.6,0,1-0.4,1-1s-0.4-1-1-1
				H40.2l-2.1-5.1h26.3C64.9,915.3,65.3,914.9,65.3,914.3z"/>
			<path class="st5" d="M106.1,906.2l3-7.1c0.1-0.3,0.1-0.7-0.1-0.9c-0.2-0.3-0.5-0.4-0.8-0.4H62.9c-0.3,0-0.6,0.2-0.8,0.4
				c-0.2,0.3-0.2,0.6-0.1,0.9l3,7.1c0.2,0.4,0.5,0.6,0.9,0.6h3.4v36.3c0,0.6,0.4,1,1,1h30.5c0.6,0,1-0.4,1-1v-36.3h3.4
				C105.6,906.8,106,906.6,106.1,906.2z M99.8,942.1H71.3v-35.3h28.5V942.1z M100.8,904.8C100.8,904.8,100.8,904.8,100.8,904.8
				C100.8,904.8,100.8,904.8,100.8,904.8H70.3c0,0,0,0,0,0s0,0,0,0h-3.8l-2.1-5.1h42.3l-2.1,5.1H100.8z"/>
			<path class="st5" d="M135.4,920.9c-0.2-0.3-0.5-0.4-0.8-0.4h-27.8c-0.6,0-1,0.4-1,1s0.4,1,1,1H133l-2.1,5.1h-24.2
				c-0.6,0-1,0.4-1,1s0.4,1,1,1h19.4v12.6h-19.4c-0.6,0-1,0.4-1,1s0.4,1,1,1h20.4c0.6,0,1-0.4,1-1v-13.6h3.4c0.4,0,0.8-0.2,0.9-0.6
				l3-7.1C135.6,921.5,135.5,921.2,135.4,920.9z"/>
			<path class="st5" d="M70.3,874.1c0.4,0.4,0.6,0.9,0.5,1.5l-2,11.8c-0.1,0.8,0,1.6,0.4,2.3c0.5,0.9,1.2,1.5,2.2,1.8
				c0.4,0.1,0.7,0.2,1.1,0.2c0.6,0,1.2-0.1,1.7-0.4l10.7-5.6c0.5-0.3,1.1-0.3,1.6,0l10.7,5.6c0.7,0.4,1.5,0.5,2.3,0.4
				c2-0.3,3.4-2.2,3-4.2l-2-11.8c-0.1-0.5,0.1-1.1,0.5-1.5l8.6-8.4c0.6-0.6,1-1.3,1.1-2.1c0.1-1-0.1-1.9-0.7-2.7s-1.4-1.3-2.4-1.4
				l-11.9-1.7c-0.5-0.1-1-0.4-1.3-0.9l-5.3-10.7c0,0,0,0,0,0c-0.4-0.7-0.9-1.3-1.6-1.6c-0.9-0.4-1.9-0.5-2.8-0.2
				c-0.9,0.3-1.7,1-2.1,1.8l-5.3,10.7c-0.2,0.5-0.7,0.8-1.3,0.9l-11.9,1.7c-0.8,0.1-1.6,0.5-2.1,1.1c-1.4,1.4-1.4,3.8,0.1,5.2
				L70.3,874.1z M63,862c0.3-0.3,0.6-0.4,1-0.5l11.9-1.7c1.2-0.2,2.2-0.9,2.8-2L84,847c0.2-0.4,0.6-0.7,1-0.8
				c0.2-0.1,0.4-0.1,0.5-0.1c0.3,0,0.5,0.1,0.8,0.2c0.3,0.2,0.6,0.4,0.7,0.7l5.3,10.7c0.5,1.1,1.6,1.8,2.8,2l11.9,1.7
				c0.4,0.1,0.8,0.3,1.1,0.6c0.3,0.4,0.4,0.8,0.3,1.2c0,0.4-0.2,0.7-0.5,1l-8.6,8.4c-0.9,0.8-1.3,2.1-1.1,3.2l2,11.8
				c0.1,0.9-0.5,1.8-1.4,1.9c-0.4,0.1-0.7,0-1.1-0.2l-10.7-5.6c-1.1-0.6-2.3-0.6-3.4,0l-10.7,5.6c-0.4,0.2-0.8,0.3-1.3,0.1
				c-0.4-0.1-0.8-0.4-1-0.8c-0.2-0.3-0.2-0.7-0.2-1l2-11.8c0.2-1.2-0.2-2.4-1.1-3.2l-8.6-8.4C62.4,863.7,62.4,862.6,63,862z"/>
			<path class="st5" d="M115.6,868.9h1.4c0.6,0,1-0.4,1-1s-0.4-1-1-1h-1.4c-0.6,0-1,0.4-1,1S115,868.9,115.6,868.9z"/>
			<path class="st5" d="M108.4,886.4c-0.4,0.4-0.4,1,0,1.4l2.1,2.1c0.2,0.2,0.4,0.3,0.7,0.3c0.3,0,0.5-0.1,0.7-0.3
				c0.4-0.4,0.4-1,0-1.4l-2.1-2.1C109.5,886,108.8,886,108.4,886.4z"/>
			<path class="st5" d="M106.5,848.3c0.3,0,0.5-0.1,0.7-0.3l2.2-2.2c0.4-0.4,0.4-1,0-1.4c-0.4-0.4-1-0.4-1.4,0l-2.2,2.2
				c-0.4,0.4-0.4,1,0,1.4C106,848.2,106.3,848.3,106.5,848.3z"/>
			<path class="st5" d="M54,868.9h1.4c0.6,0,1-0.4,1-1s-0.4-1-1-1H54c-0.6,0-1,0.4-1,1S53.5,868.9,54,868.9z"/>
			<path class="st5" d="M59.8,890.2c0.3,0,0.5-0.1,0.7-0.3l2.1-2.1c0.4-0.4,0.4-1,0-1.4c-0.4-0.4-1-0.4-1.4,0l-2.1,2.1
				c-0.4,0.4-0.4,1,0,1.4C59.2,890.1,59.5,890.2,59.8,890.2z"/>
			<path class="st5" d="M63.8,848c0.2,0.2,0.4,0.3,0.7,0.3c0.3,0,0.5-0.1,0.7-0.3c0.4-0.4,0.4-1,0-1.4l-2.2-2.2
				c-0.4-0.4-1-0.4-1.4,0c-0.4,0.4-0.4,1,0,1.4L63.8,848z"/>
			<path class="st5" d="M79.9,922.4h11.2c0.6,0,1-0.4,1-1v-7.1c0-0.6-0.4-1-1-1H79.9c-0.6,0-1,0.4-1,1v7.1
				C78.9,922,79.4,922.4,79.9,922.4z M80.9,915.3h9.2v5.1h-9.2V915.3z"/>
		</g>
	</g>
	<path class="st2" d="M89,929.7h-6.9c-0.6,0-1-0.4-1-1s0.4-1,1-1H89c0.6,0,1,0.4,1,1S89.5,929.7,89,929.7z"/>
	<path class="st2" d="M89,936.3h-6.9c-0.6,0-1-0.4-1-1s0.4-1,1-1H89c0.6,0,1,0.4,1,1S89.5,936.3,89,936.3z"/>
</g>
</svg>
