<?xml version="1.0" encoding="utf-8"?>
<!-- Generator: Adobe Illustrator 25.0.0, SVG Export Plug-In . SVG Version: 6.00 Build 0)  -->
<svg version="1.1" id="Layer_1" xmlns="http://www.w3.org/2000/svg" xmlns:xlink="http://www.w3.org/1999/xlink" x="0px" y="0px"
	 viewBox="0 0 100 100" style="enable-background:new 0 0 100 100;" xml:space="preserve">
<style type="text/css">
	.st0{fill:#F0EDDA;}
	.st1{fill:#FBB600;}
	.st2{fill:#1786A3;}
	.st3{fill:#2C5871;}
</style>
<g id="c-create-home-work" transform="translate(17906.5 4745)">
	<g id="Group_899" transform="translate(-17906 -4745)">
		<g id="Group_898">
			<g id="Group_900">
				<path id="Path_782_1_" class="st0" d="M1.6,98.4c0-9.5,7.7-17.2,17.2-17.2S36,88.9,36,98.4"/>
				<circle id="Ellipse_44_1_" class="st0" cx="9.5" cy="43.8" r="7.8"/>
				<path id="Path_788_1_" class="st1" d="M69.8,34.7c1.6,4-0.3,8.5-4.3,10.1c-3.9,1.6-8.3-0.2-10-4"/>
				<path id="Path_789_1_" class="st1" d="M98.5,82.8H57.9c-4.3,0-7.8,3.5-7.8,7.8c0,4.3,3.5,7.8,7.8,7.8h40.6
					C98.5,98.4,91.5,92.2,98.5,82.8z"/>
				<path id="Path_790_1_" class="st2" d="M92.3,82.8H46.9c-4.3,0-7.8-3.5-7.8-7.8s3.5-7.8,7.8-7.8h45.3
					C84.9,76.6,92.3,82.8,92.3,82.8z"/>
			</g>
		</g>
		<g>
			<path class="st3" d="M19.6,80.3l-7.4-28.2c3.5-1.2,6.1-4.5,6.1-8.4c0-2.1-0.7-4-1.9-5.5l26.5-17.1c0.2-0.1,0.3-0.2,0.3-0.4
				l1.9,4.6C38.9,33,37.8,43.9,43,52.8c0,0,0,0,0,0c0.7,1.2,1.4,2.3,2.3,3.3c0.1,0.1,0.2,0.2,0.4,0.3c1.3,0.6,3,0.8,5.1,0.8
				c4.9,0,11.6-1.6,18.4-4.4C79.2,48.5,86.9,42.6,88.3,38c0-0.1,0.1-0.3,0-0.4c-0.1-1.1-0.4-2.2-0.7-3.3c0,0,0,0,0,0c0,0,0,0,0,0
				c0,0,0,0,0,0c0,0,0,0,0,0C85.2,24.7,77,17.6,67.2,16.4l-3.5-8.5C61.1,2,54.2-0.9,48.2,1.5C42.1,4,39.1,11,41.6,17.1l1,2.3
				c-0.3-0.1-0.6-0.1-0.8,0.1L15.2,36.7c-0.1,0.1-0.2,0.1-0.2,0.2c-1.5-1.2-3.4-1.9-5.5-1.9c-4.9,0-8.8,4-8.8,8.8
				c0,4.9,4,8.8,8.8,8.8c0.3,0,0.5,0,0.8,0l7.3,27.8C8.1,81,0.6,88.8,0.6,98.4c0,0.6,0.4,1,1,1s1-0.4,1-1c0-1.8,0.3-3.6,0.9-5.2h2.8
				c0.6,0,1-0.4,1-1s-0.4-1-1-1h-2c2.7-5.3,8.1-8.9,14.4-8.9s11.8,3.6,14.4,8.9h-16c-0.6,0-1,0.4-1,1s0.4,1,1,1h16.9
				c0.6,1.6,0.9,3.4,0.9,5.2c0,0.6,0.4,1,1,1s1-0.4,1-1C37,88.7,29.3,80.7,19.6,80.3z M68.3,51c-8.9,3.7-17.7,5.2-21.7,3.7
				c-0.6-0.8-1.2-1.7-1.7-2.5c0.4-2.6,4.3-6.5,10.2-10c1.6,2.6,4.5,4.2,7.5,4.2c1.1,0,2.2-0.2,3.3-0.6c2.2-0.9,3.9-2.5,4.8-4.7
				c0.8-1.8,0.9-3.8,0.4-5.7c7.9-2.2,13-1.7,14.7-0.3c0.2,0.8,0.4,1.7,0.5,2.6C85.1,41,78.6,46.6,68.3,51z M69.2,35.9
				c0.4,1.4,0.2,2.9-0.3,4.3c-0.7,1.7-2,3-3.7,3.6c-3.1,1.2-6.5,0.1-8.3-2.7C60.8,39,64.9,37.2,69.2,35.9z M49,3.4
				c5-2,10.8,0.4,12.9,5.3l3.7,9c0,0,0.1,0.1,0.1,0.1c0,0.1,0.1,0.1,0.1,0.2c0,0,0.1,0.1,0.2,0.1c0,0,0.1,0.1,0.1,0.1
				c0.1,0,0.1,0,0.2,0.1c0,0,0.1,0,0.1,0C74.8,19.1,82,24.7,85,32.4c-3.3-1.1-8.8-0.6-15.4,1.3c-5.1,1.5-10,3.6-14.5,6.2
				c-5.7,3.3-9.7,6.8-11.3,9.8c-4.5-10.1-1-22,8.5-28.1c0.5-0.3,0.6-0.9,0.3-1.4c-0.3-0.5-0.9-0.6-1.4-0.3c-1.7,1.1-3.2,2.3-4.6,3.7
				l-3.1-7.4C41.4,11.2,43.9,5.4,49,3.4z M2.6,43.8c0-3.8,3.1-6.8,6.8-6.8c3.8,0,6.8,3.1,6.8,6.8c0,3.8-3.1,6.8-6.8,6.8
				C5.7,50.6,2.6,47.5,2.6,43.8z"/>
			<path class="st3" d="M99.3,83.4c0.2-0.3,0.3-0.7,0.1-1s-0.5-0.6-0.9-0.6h-5.9c-1.2-1.2-5.5-6.4,0.4-14c0.2-0.3,0.3-0.7,0.1-1.1
				c-0.2-0.3-0.5-0.6-0.9-0.6H46.9c-4.9,0-8.8,4-8.8,8.8c0,4.9,4,8.8,8.8,8.8h5.4c-2,1.6-3.2,4.1-3.2,6.8c0,4.9,4,8.8,8.8,8.8h40.6
				c0.4,0,0.8-0.3,0.9-0.6c0.1-0.4,0-0.8-0.3-1.1C98.9,97.5,93,91.9,99.3,83.4z M46.9,81.8c-3.8,0-6.8-3.1-6.8-6.8
				c0-3.8,3.1-6.8,6.8-6.8h43.4c-4,6.3-1.9,11.2-0.2,13.6H57.9H46.9z M57.9,97.4c-3.8,0-6.8-3.1-6.8-6.8c0-3.8,3.1-6.8,6.8-6.8h34.4
				h4.4c-3.8,6.3-1.8,11.2-0.2,13.6H57.9z"/>
		</g>
	</g>
	<path class="st2" d="M-17880.5-4731.4h-11.5v-11.5c0-0.6-0.4-1-1-1c-0.6,0-1,0.4-1,1v11.5h-11.5c-0.6,0-1,0.4-1,1s0.4,1,1,1h11.5
		v11.5c0,0.6,0.4,1,1,1c0.6,0,1-0.4,1-1v-11.5h11.5c0.6,0,1-0.4,1-1S-17880-4731.4-17880.5-4731.4z"/>
</g>
</svg>
