<?xml version="1.0" encoding="utf-8"?>
<!-- Generator: Adobe Illustrator 25.0.0, SVG Export Plug-In . SVG Version: 6.00 Build 0)  -->
<svg version="1.1" id="Layer_1" xmlns="http://www.w3.org/2000/svg" xmlns:xlink="http://www.w3.org/1999/xlink" x="0px" y="0px"
	 viewBox="0 0 100 100" style="enable-background:new 0 0 100 100;" xml:space="preserve">
<style type="text/css">
	.st0{fill:#2C5871;}
	.st1{fill:#1786A3;}
	.st2{fill:#FBB600;}
</style>
<g id="c-create-exam" transform="translate(17955.984 4848)">
	<g id="Group_887" transform="translate(-17935 -4848)">
		<g>
			<g id="Group_886">
				<path class="st0" d="M72.7,80.3c-0.6,0-1-0.4-1-1V40.7c0-2.4-1.9-4.3-4.3-4.3c-0.6,0-1-0.4-1-1s0.4-1,1-1c3.5,0,6.3,2.8,6.3,6.3
					v38.6C73.7,79.8,73.2,80.3,72.7,80.3z"/>
				<path class="st0" d="M0.8,80.3c-0.6,0-1-0.4-1-1V40.7c0-3.5,2.8-6.3,6.3-6.3c0.6,0,1,0.4,1,1s-0.4,1-1,1c-2.4,0-4.3,1.9-4.3,4.3
					v38.6C1.8,79.8,1.4,80.3,0.8,80.3z"/>
				<g>
					<path id="Path_771_1_" class="st1" d="M70,91.2H3.5c-4.4,0-8-3.6-8-8h31.9v2.7h18.6v-2.7H78C78,87.7,74.4,91.2,70,91.2z"/>
					<path class="st0" d="M70,92.2L70,92.2H3.5c-5,0-9-4-9-9c0-0.3,0.1-0.5,0.3-0.7s0.4-0.3,0.7-0.3h31.9c0.6,0,1,0.4,1,1v1.7h16.6
						v-1.7c0-0.6,0.4-1,1-1H78c0.3,0,0.5,0.1,0.7,0.3S79,83,79,83.3C79,88.2,75,92.2,70,92.2z M-3.4,84.3c0.5,3.4,3.4,6,6.9,6H70
						c3.5,0,6.4-2.6,6.9-6H47.1v1.7c0,0.6-0.4,1-1,1H27.5c-0.6,0-1-0.4-1-1v-1.7H-3.4z"/>
				</g>
				<path class="st0" d="M63.4,74.9c-0.6,0-1-0.4-1-1V11.4c0-0.9-0.7-1.7-1.7-1.7H12.8c-0.9,0-1.7,0.7-1.7,1.7v62.5c0,0.6-0.4,1-1,1
					s-1-0.4-1-1V11.4c0-2,1.6-3.7,3.7-3.7h47.9c2,0,3.7,1.6,3.7,3.7v62.5C64.4,74.5,63.9,74.9,63.4,74.9z"/>
				<g>
					<rect id="Rectangle_678_1_" x="20.8" y="20.7" class="st2" width="9.3" height="9.3"/>
					<path class="st0" d="M30.1,31h-9.3c-0.6,0-1-0.4-1-1v-9.3c0-0.6,0.4-1,1-1h9.3c0.6,0,1,0.4,1,1V30C31.1,30.6,30.7,31,30.1,31z
						 M21.8,29h7.3v-7.3h-7.3V29z"/>
				</g>
				<path class="st0" d="M54.1,27.1h-16c-0.6,0-1-0.4-1-1s0.4-1,1-1h16c0.6,0,1,0.4,1,1S54.6,27.1,54.1,27.1z"/>
				<g>
					<rect id="Rectangle_679_1_" x="20.8" y="59.3" class="st2" width="9.3" height="9.3"/>
					<path class="st0" d="M30.1,69.6h-9.3c-0.6,0-1-0.4-1-1v-9.3c0-0.6,0.4-1,1-1h9.3c0.6,0,1,0.4,1,1v9.3
						C31.1,69.2,30.7,69.6,30.1,69.6z M21.8,67.6h7.3v-7.3h-7.3V67.6z"/>
				</g>
				<path class="st0" d="M54.1,64.3h-16c-0.6,0-1-0.4-1-1s0.4-1,1-1h16c0.6,0,1,0.4,1,1S54.6,64.3,54.1,64.3z"/>
				<path class="st2" d="M24.8,48.3c-0.3,0-0.5-0.1-0.7-0.3l-4-4c-0.4-0.4-0.4-1,0-1.4s1-0.4,1.4,0l3.1,3.1l4.6-7
					c0.3-0.5,0.9-0.6,1.4-0.3c0.5,0.3,0.6,0.9,0.3,1.4l-5.3,8C25.5,48.1,25.2,48.3,24.8,48.3C24.9,48.3,24.8,48.3,24.8,48.3z"/>
				<path class="st0" d="M54.1,45.7h-16c-0.6,0-1-0.4-1-1s0.4-1,1-1h16c0.6,0,1,0.4,1,1S54.6,45.7,54.1,45.7z"/>
			</g>
		</g>
	</g>
	<path class="st1" d="M-17929.8-4827.5h-11.6v-11.6c0-0.6-0.4-1-1-1s-1,0.4-1,1v11.6h-11.6c-0.6,0-1,0.4-1,1s0.4,1,1,1h11.6v11.6
		c0,0.6,0.4,1,1,1s1-0.4,1-1v-11.6h11.6c0.6,0,1-0.4,1-1S-17929.2-4827.5-17929.8-4827.5z"/>
</g>
</svg>
