<?xml version="1.0" encoding="utf-8"?>
<!-- Generator: Adobe Illustrator 25.0.0, SVG Export Plug-In . SVG Version: 6.00 Build 0)  -->
<svg version="1.1" id="Layer_1" xmlns="http://www.w3.org/2000/svg" xmlns:xlink="http://www.w3.org/1999/xlink" x="0px" y="0px"
	 viewBox="0 0 100 100" style="enable-background:new 0 0 100 100;" xml:space="preserve">
<style type="text/css">
	.st0{fill:#CCEEF5;}
	.st1{fill:none;}
	.st2{fill:#1786A3;}
	.st3{fill:#F4DA80;}
	.st4{fill:#2C5871;}
</style>
<g id="c-day-lesson" transform="translate(-346.146 -45.301)">
	<path id="Path_231" class="st0" d="M442,112.7L442,112.7c1.7,0,3.2,1.4,3.2,3.2v4.7h-98v-4.7c0-1.7,1.4-3.2,3.2-3.2l0,0"/>
	<path id="Path_232" class="st1" d="M353.5,112.7h-3.2V47.9H442v64.8h-77.5"/>
	<path id="Path_234" class="st2" d="M369.3,142.7l14.2-22.1H374l-14.2,22.1H369.3z"/>
	<path id="Path_235" class="st2" d="M432.5,142.7l-14.2-22.1h-9.5l14.2,22.1H432.5z"/>
	<path id="Rectangle_133" class="st3" d="M421.9,106.4h5.5c2.9,0,5.2,2.3,5.2,5.2c0,0,0,0,0,0v1.1l0,0h-15.8l0,0v-1.1
		C416.7,108.7,419,106.4,421.9,106.4C421.9,106.4,421.9,106.4,421.9,106.4z"/>
	<g>
		<path class="st4" d="M443,111.8V47.9c0-0.6-0.4-1-1-1h-91.7c-0.6,0-1,0.4-1,1v63.9c-1.8,0.5-3.2,2.1-3.2,4v4.7c0,0.6,0.4,1,1,1h25
			L359,142.2c-0.2,0.3-0.2,0.7,0,1c0.2,0.3,0.5,0.5,0.9,0.5h9.5c0.3,0,0.7-0.2,0.8-0.5l5.8-9h40.5l5.8,9c0.2,0.3,0.5,0.5,0.8,0.5
			h9.5c0.4,0,0.7-0.2,0.9-0.5c0.2-0.3,0.2-0.7,0-1l-13.2-20.6h25c0.6,0,1-0.4,1-1v-4.7C446.1,113.9,444.8,112.3,443,111.8z
			 M368.7,141.7h-7.1l12.9-20.1h7.1L368.7,141.7z M377.2,132.2l6.8-10.6h24.2l6.8,10.6H377.2z M430.7,141.7h-7.1l-12.9-20.1h7.1
			L430.7,141.7z M444.1,119.6h-25.9c0,0,0,0,0,0h-9.5c0,0,0,0,0,0h-25.3c0,0,0,0,0,0H374c0,0,0,0,0,0h-25.9v-3.7
			c0-1.2,1-2.2,2.2-2.2c0,0,0,0,0,0h3.2c0.6,0,1-0.4,1-1s-0.4-1-1-1h-2.2V48.9H441v62.8h-7.5v-0.1c0-1.6-0.6-3.2-1.8-4.4
			c-1.2-1.2-2.7-1.8-4.4-1.8c0,0,0,0,0,0h-5.5c-3.4,0-6.2,2.8-6.2,6.2v0.1h-51.2c-0.6,0-1,0.4-1,1s0.4,1,1,1h52.2c0,0,0,0,0,0h15.8
			c0,0,0,0,0,0h9.5c0,0,0,0,0,0c1.2,0,2.2,1,2.2,2.2V119.6z M417.7,111.7v-0.1c0-2.3,1.9-4.2,4.2-4.2h5.5c0,0,0,0,0,0
			c1.1,0,2.2,0.4,2.9,1.2s1.2,1.8,1.2,3v0.1H417.7z"/>
		<path class="st4" d="M368.9,93.1c0.5,0.2,1.1,0,1.3-0.6l2.9-7.3h11.3l2.9,7.3c0.2,0.4,0.5,0.6,0.9,0.6c0.1,0,0.2,0,0.4-0.1
			c0.5-0.2,0.8-0.8,0.6-1.3l-9.5-23.7c-0.2-0.4-0.5-0.6-0.9-0.6s-0.8,0.2-0.9,0.6l-6.3,15.8c0,0,0,0,0,0l-3.2,7.9
			C368.1,92.3,368.4,92.9,368.9,93.1z M378.8,71.1l4.8,12.1h-9.7L378.8,71.1z"/>
		<path class="st4" d="M402.5,72.6h16.3c-0.3,5.4-2.7,10.2-6.1,13.6c-2.3-2.4-4.1-5.5-5.1-8.5c-0.2-0.5-0.7-0.8-1.3-0.6
			c-0.5,0.2-0.8,0.7-0.6,1.3c1.3,3.9,3.2,7,5.5,9.3c-2.7,2.3-5.9,3.6-8.8,3.6c-0.6,0-1,0.4-1,1s0.4,1,1,1c3.8,0,7.3-1.6,10.2-4.2
			c3.3,2.8,7.1,4.2,10.3,4.2c0.6,0,1-0.4,1-1s-0.4-1-1-1c-3.3,0-6.3-1.4-8.8-3.6c3.8-4.1,6.4-9.7,6.6-14.9h2.2c0.6,0,1-0.4,1-1
			s-0.4-1-1-1h-8.5v-2.2c0-0.6-0.4-1-1-1s-1,0.4-1,1v2.2h-10.1c-0.6,0-1,0.4-1,1S401.9,72.6,402.5,72.6z"/>
	</g>
</g>
</svg>
