<?xml version="1.0" encoding="utf-8"?>
<!-- Generator: Adobe Illustrator 25.0.0, SVG Export Plug-In . SVG Version: 6.00 Build 0)  -->
<svg version="1.1" id="Layer_1" xmlns="http://www.w3.org/2000/svg" xmlns:xlink="http://www.w3.org/1999/xlink" x="0px" y="0px"
	 viewBox="0 0 100 100" style="enable-background:new 0 0 100 100;" xml:space="preserve">
<style type="text/css">
	.st0{fill:#2C5871;}
	.st1{fill:#FBB600;}
	.st2{fill:#F0EDDA;}
	.st3{fill:#1786A3;}
</style>
<g id="c-discussion-group" transform="translate(-0.639 -0.875)">
	<g id="Group_913" transform="translate(1.876 1.875)">
		<path class="st0" d="M28.2,99c-0.6,0-1-0.4-1-1c0-1.1-1.5-2.5-4.2-3.8l-5.9-3c-2.5,1-5.2,1.5-7.9,1.5c-2.8,0-5.6-0.5-8.3-1.7
			c-0.5-0.2-0.7-0.8-0.5-1.3c0.2-0.5,0.8-0.7,1.3-0.5c2.4,1,4.9,1.5,7.5,1.5c2.6,0,5.1-0.5,7.5-1.5c0.3-0.1,0.6-0.1,0.8,0l6.3,3.2
			c3.6,1.8,5.3,3.6,5.3,5.6C29.2,98.6,28.8,99,28.2,99z"/>
		<g>
			<path id="Path_796_1_" class="st1" d="M13.3,85.4c3.7-2.5,3.4-4.1,3.8-7.7c0.2-2,0.3-4.1-0.6-5.8c-0.9-1.6-2.4-2.8-4.2-3.4
				c-2-0.7-4.1-0.7-6.1,0C4.4,69,3,70.2,2,71.8c-0.9,1.8-0.9,3.9-0.6,5.8c0.4,3.6,0.1,5.2,3.8,7.7"/>
			<path class="st0" d="M5.2,86.4c-0.2,0-0.4-0.1-0.6-0.2c-3.6-2.4-3.8-4.3-4.1-7.1c0-0.4-0.1-0.8-0.1-1.3c-0.2-2-0.3-4.4,0.7-6.4
				c1.1-1.9,2.7-3.2,4.8-3.8c2.1-0.7,4.5-0.7,6.7,0c2,0.6,3.7,2,4.7,3.8c1.1,2.1,1,4.4,0.8,6.5c-0.1,0.5-0.1,0.9-0.1,1.3
				c-0.3,2.8-0.5,4.7-4.1,7.1c-0.5,0.3-1.1,0.2-1.4-0.3c-0.3-0.5-0.2-1.1,0.3-1.4c2.9-1.9,3-3,3.2-5.7c0-0.4,0.1-0.8,0.1-1.3
				c0.2-1.7,0.3-3.7-0.5-5.3c-0.8-1.4-2.1-2.4-3.6-2.9c-1.8-0.6-3.7-0.6-5.5,0c-1.6,0.5-2.8,1.5-3.6,2.9c-0.8,1.6-0.7,3.5-0.5,5.2
				c0.1,0.5,0.1,0.9,0.1,1.3c0.3,2.7,0.4,3.8,3.2,5.7c0.5,0.3,0.6,0.9,0.3,1.4C5.9,86.2,5.6,86.4,5.2,86.4z"/>
		</g>
		<path class="st0" d="M34.5,94.3c-0.3,0-0.5-0.1-0.7-0.3c-0.4-0.4-0.4-1,0-1.4l4.6-4.6h-8.6c-0.6,0-1-0.4-1-1s0.4-1,1-1h11.1
			c0.4,0,0.8,0.2,0.9,0.6s0.1,0.8-0.2,1.1L35.2,94C35.1,94.2,34.8,94.3,34.5,94.3z"/>
		<path class="st0" d="M40.9,87.9c-0.6,0-1-0.4-1-1V71.1c0-1.2-1-2.2-2.2-2.2H23.5c-0.6,0-1-0.4-1-1s0.4-1,1-1h14.2
			c2.3,0,4.2,1.9,4.2,4.2v15.8C41.9,87.5,41.4,87.9,40.9,87.9z"/>
		<g>
			<path id="Path_799_1_" class="st1" d="M92.3,85.4c3.7-2.5,3.4-4.1,3.8-7.7c0.2-2,0.3-4.1-0.6-5.8c-0.9-1.6-2.4-2.8-4.2-3.4
				c-2-0.7-4.1-0.7-6.1,0c-1.8,0.5-3.3,1.7-4.2,3.4c-0.9,1.8-0.9,3.9-0.6,5.8c0.4,3.6,0.1,5.2,3.8,7.7"/>
			<path class="st0" d="M92.3,86.4c-0.3,0-0.6-0.2-0.8-0.4c-0.3-0.5-0.2-1.1,0.3-1.4c2.9-1.9,3-3,3.2-5.7c0-0.4,0.1-0.8,0.1-1.3
				c0.2-1.7,0.3-3.7-0.5-5.3c-0.8-1.4-2.1-2.4-3.6-2.9c-1.8-0.6-3.7-0.6-5.5,0c-1.6,0.5-2.8,1.5-3.6,2.9c-0.8,1.6-0.7,3.5-0.5,5.2
				c0.1,0.5,0.1,0.9,0.1,1.3c0.3,2.7,0.4,3.8,3.2,5.7c0.5,0.3,0.6,0.9,0.3,1.4c-0.3,0.5-0.9,0.6-1.4,0.3c-3.6-2.4-3.8-4.3-4.1-7.1
				c0-0.4-0.1-0.8-0.1-1.3c-0.2-2-0.4-4.4,0.7-6.4c1.1-1.9,2.7-3.2,4.8-3.8c2.1-0.7,4.5-0.7,6.7,0c2,0.6,3.7,2,4.7,3.8
				c1.1,2.1,1,4.4,0.8,6.5C97.1,78.2,97,78.7,97,79c-0.3,2.8-0.5,4.7-4.1,7.1C92.7,86.3,92.5,86.4,92.3,86.4z"/>
		</g>
		<path class="st0" d="M69.3,99c-0.6,0-1-0.4-1-1c0-2,1.7-3.9,5.3-5.6l6.3-3.2c0.3-0.1,0.6-0.1,0.8,0c4.8,2,10.3,2,15,0
			c0.5-0.2,1.1,0,1.3,0.5s0,1.1-0.5,1.3c-5.1,2.1-11,2.2-16.1,0.2l-5.9,3c-2.7,1.3-4.2,2.7-4.2,3.8C70.3,98.6,69.9,99,69.3,99z"/>
		<path class="st0" d="M63,94.3c-0.3,0-0.5-0.1-0.7-0.3L56,87.6c-0.3-0.3-0.4-0.7-0.2-1.1c0.2-0.4,0.5-0.6,0.9-0.6h11.1
			c0.6,0,1,0.4,1,1s-0.4,1-1,1h-8.6l4.6,4.6c0.4,0.4,0.4,1,0,1.4C63.5,94.2,63.2,94.3,63,94.3z"/>
		<path class="st0" d="M56.7,87.9c-0.6,0-1-0.4-1-1V71.1c0-2.3,1.9-4.2,4.2-4.2h14.2c0.6,0,1,0.4,1,1s-0.4,1-1,1H59.8
			c-1.2,0-2.2,1-2.2,2.2v15.8C57.7,87.5,57.2,87.9,56.7,87.9z"/>
		<g>
			<path id="Path_803_1_" class="st2" d="M91.4,31.6H63l-12.6,9.5V3.2c0-1.7,1.4-3.2,3.2-3.2h37.9c1.7,0,3.2,1.4,3.2,3.2v25.3
				C94.6,30.2,93.2,31.6,91.4,31.6z"/>
			<path class="st0" d="M50.3,42.1c-0.2,0-0.3,0-0.4-0.1c-0.3-0.2-0.6-0.5-0.6-0.9V3.2c0-2.3,1.9-4.2,4.2-4.2h37.9
				c2.3,0,4.2,1.9,4.2,4.2v25.3c0,2.3-1.9,4.2-4.2,4.2l0,0H63.3l-12.4,9.3C50.8,42,50.6,42.1,50.3,42.1z M53.5,1
				c-1.2,0-2.2,1-2.2,2.2v35.9l11-8.3c0.2-0.1,0.4-0.2,0.6-0.2h28.5c1.2,0,2.2-1,2.2-2.2V3.2c0-1.2-1-2.2-2.2-2.2H53.5z"/>
		</g>
		<path id="Path_804" class="st3" d="M66.2,15.8c0,1.7-1.4,3.2-3.2,3.2c-1.7,0-3.2-1.4-3.2-3.2c0-1.7,1.4-3.2,3.2-3.2
			C64.7,12.6,66.2,14.1,66.2,15.8C66.2,15.8,66.2,15.8,66.2,15.8"/>
		<path id="Path_805" class="st3" d="M75.6,15.8c0,1.7-1.4,3.2-3.2,3.2c-1.7,0-3.2-1.4-3.2-3.2c0-1.7,1.4-3.2,3.2-3.2
			C74.2,12.6,75.6,14.1,75.6,15.8C75.6,15.8,75.6,15.8,75.6,15.8"/>
		<path id="Path_806" class="st3" d="M85.1,15.8c0,1.7-1.4,3.2-3.2,3.2c-1.7,0-3.2-1.4-3.2-3.2c0-1.7,1.4-3.2,3.2-3.2
			C83.7,12.6,85.1,14.1,85.1,15.8C85.1,15.8,85.1,15.8,85.1,15.8"/>
		<path class="st0" d="M91.4,62.6c-0.6,0-1-0.4-1-1V41.1c0-0.6,0.4-1,1-1s1,0.4,1,1v20.5C92.4,62.2,92,62.6,91.4,62.6z"/>
		<path class="st0" d="M6.1,62.6c-0.6,0-1-0.4-1-1V20.5c0-4,3.3-7.3,7.3-7.3h28.5c0.6,0,1,0.4,1,1s-0.4,1-1,1H12.4
			c-2.9,0-5.3,2.4-5.3,5.3v41.1C7.1,62.2,6.6,62.6,6.1,62.6z"/>
		<g>
			<path id="Path_808_1_" class="st1" d="M37,45.8c3.7-2.5,3.4-4.1,3.8-7.7c0.2-2,0.3-4.1-0.6-5.8c-0.9-1.6-2.4-2.8-4.2-3.4
				c-2-0.7-4.1-0.7-6.1,0c-1.8,0.5-3.3,1.7-4.2,3.4c-0.9,1.8-0.9,3.9-0.6,5.8c0.4,3.6,0.1,5.2,3.8,7.7"/>
			<path class="st0" d="M37,46.8c-0.3,0-0.6-0.2-0.8-0.4c-0.3-0.5-0.2-1.1,0.3-1.4c2.9-1.9,3-3,3.2-5.7c0-0.4,0.1-0.8,0.1-1.3
				c0.2-1.7,0.3-3.7-0.5-5.3c-0.8-1.4-2.1-2.4-3.6-2.9c-1.8-0.6-3.7-0.6-5.5,0c-1.6,0.5-2.8,1.5-3.6,2.9c-0.8,1.6-0.7,3.5-0.5,5.2
				c0.1,0.5,0.1,0.9,0.1,1.3c0.3,2.7,0.4,3.8,3.2,5.7c0.5,0.3,0.6,0.9,0.3,1.4c-0.3,0.5-0.9,0.6-1.4,0.3c-3.6-2.4-3.8-4.3-4.1-7.1
				c0-0.4-0.1-0.8-0.1-1.3c-0.2-2-0.4-4.4,0.7-6.4c1.1-1.9,2.7-3.2,4.8-3.8c2.1-0.7,4.5-0.7,6.7,0c2,0.6,3.7,2,4.7,3.8
				c1.1,2.1,1,4.4,0.8,6.5c-0.1,0.5-0.1,0.9-0.1,1.3c-0.3,2.8-0.5,4.7-4.1,7.1C37.4,46.8,37.2,46.8,37,46.8z"/>
		</g>
		<path class="st0" d="M51.9,61.1c-0.6,0-1-0.4-1-1c0-2.5-1.1-3.9-4.2-5.4l-5.9-3c-2.5,1-5.2,1.5-7.9,1.5c-2.7,0-5.3-0.5-7.9-1.5
			l-5.9,3C16,56.2,15,57.6,15,60.1c0,0.6-0.4,1-1,1s-1-0.4-1-1c0-3.8,2.1-5.6,5.3-7.2l6.3-3.2c0.3-0.1,0.6-0.1,0.8,0
			c2.4,1,4.9,1.5,7.5,1.5c2.6,0,5.1-0.5,7.5-1.5c0.3-0.1,0.6-0.1,0.8,0l6.3,3.2c3.2,1.6,5.3,3.4,5.3,7.2
			C52.9,60.6,52.5,61.1,51.9,61.1z"/>
	</g>
</g>
</svg>
