<?xml version="1.0" encoding="utf-8"?>
<!-- Generator: Adobe Illustrator 25.0.0, SVG Export Plug-In . SVG Version: 6.00 Build 0)  -->
<svg version="1.1" id="Layer_1" xmlns="http://www.w3.org/2000/svg" xmlns:xlink="http://www.w3.org/1999/xlink" x="0px" y="0px"
	 viewBox="0 0 100 100" style="enable-background:new 0 0 100 100;" xml:space="preserve">
<style type="text/css">
	.st0{fill:#1786A3;}
	.st1{fill:#FBB600;}
	.st2{fill:#CCEEF5;}
	.st3{fill:#FFFFFF;}
	.st4{fill:#2C5871;}
</style>
<g id="c-e-books" transform="translate(-835 -616)">
	<path id="Path_310" class="st0" d="M934,682.1v-58.5c0-1.3-1.1-2.4-2.5-2.4h-93.1c-1.3,0-2.5,1-2.5,2.4l0,0v58.5H934z"/>
	<path id="Path_316" class="st1" d="M882.1,706.7h-0.4c0.3,0.6,1,1.2,1,1.9c0,0.7-0.9,1.3-1.2,1.8h45.5c0.6-1.1,0.6-2.5,0-3.7
		C924.6,706.7,882.1,706.7,882.1,706.7L882.1,706.7z"/>
	<rect id="Rectangle_136_1_" x="840.5" y="673.8" class="st2" width="88.8" height="4.8"/>
	<path id="Path_319_1_" class="st3" d="M884.9,677v-46.8c0-0.2,0-0.4,0-0.5c0.2-2.3,2.7-4.1,5.6-4.1h38.8v48.6h-38.7
		C888.3,674.1,886.2,675.2,884.9,677z"/>
	<path id="Path_320_1_" class="st3" d="M884.9,677v-46.8c0-0.1,0-0.4,0-0.5c-0.2-2.3-2.7-4.1-5.6-4.1h-38.8v48.6h38.8
		C881.5,674.1,883.6,675.2,884.9,677z"/>
	<path id="Path_321_1_" class="st2" d="M884.6,629.7c-0.3-1.7-1.5-3.1-3.1-3.7v48.6c1.3,0.4,2.4,1.2,3.1,2.3v-46.8
		C884.6,630,884.6,629.8,884.6,629.7z"/>
	<rect id="Rectangle_137_1_" x="846.1" y="631.6" class="st2" width="20.2" height="1.4"/>
</g>
<g>
	<path class="st4" d="M95.9,4.2H4.1C1.8,4.2,0,6,0,8.2v57.8v0.1v7.5c0,2.2,1.8,4.1,4.1,4.1h31.8l-1.6,4.6h-0.5
		c-1.8,0.1-3.1,1.7-3,3.4V87c0,0.6,0.4,1,1,1h36.4c0.6,0,1-0.4,1-1l0-1.2c0.1-1.8-1.2-3.3-3.1-3.4h-0.3l-1.6-4.6h31.7
		c2.3,0,4.1-1.8,4.1-4.1v-7.5v-0.1V8.2C100,6,98.2,4.2,95.9,4.2z M67.2,85.7V86H32.8l0-0.3c0-0.7,0.5-1.3,1.1-1.3l1.1,0c0,0,0,0,0,0
		h30.1c0,0,0,0,0,0l0.9,0C66.7,84.4,67.2,84.9,67.2,85.7z M4.1,6.2h91.9c1.1,0,2.1,0.9,2.1,2.1v56.8H2V8.2C2,7.1,2.9,6.2,4.1,6.2z
		 M63.7,82.3H36.4l1.6-4.6h24.2L63.7,82.3z M95.9,75.7H62.8H37.2H4.1c-1.1,0-2.1-0.9-2.1-2.1v-6.5h96v6.5
		C98,74.8,97.1,75.7,95.9,75.7z"/>
	<path class="st4" d="M91.9,89.8h-2.1c-0.1,0-0.2-0.1-0.2-0.1s-0.2,0-0.2,0.1H47.1c-0.1,0-0.2,0-0.3,0.1c0,0,0,0,0,0l-0.1,0
		c-0.1,0-0.3,0-0.4,0.1c0,0-0.1,0.1-0.1,0.1L45,90.6c-0.1,0-0.3,0-0.4,0.1c0,0,0,0.1-0.1,0.1l-2.1,0.8c-0.2,0-0.4,0.2-0.5,0.4
		c-0.2,0.2-0.2,0.5-0.1,0.8c0.1,0.3,0.3,0.5,0.5,0.6l3.2,1.3c0.1,0.1,0.2,0.2,0.4,0.2c0,0,0.1,0,0.1,0l0.5,0.2
		c0.1,0.1,0.2,0.2,0.5,0.2h44.8c0.3,0,0.7-0.2,0.9-0.5c0.7-1.4,0.7-3.2,0-4.6C92.6,89.9,92.2,89.8,91.9,89.8z M45.6,93.7
		c0.2-0.3,0.3-0.6,0.4-0.9c0.1-0.5-0.1-1-0.3-1.4l0.7-0.3c0.2,0.4,0.6,1.1,0.4,1.8c-0.1,0.4-0.4,0.7-0.8,0.9L45.6,93.7z M44.8,91.8
		c0.1,0.3,0.3,0.6,0.2,0.9c0,0.2-0.1,0.4-0.4,0.6l-1.8-0.7L44.8,91.8z M47.1,94.3L47.1,94.3c0.3-0.3,0.6-0.7,0.7-1.2
		c0.2-0.9-0.1-1.8-0.4-2.4l41.6,0v3.6L47.1,94.3C47.2,94.3,47.2,94.3,47.1,94.3z M91.9,94.3H90v-3.6l1.9,0
		C92.5,91.8,92.5,93.2,91.9,94.3z"/>
	<path class="st4" d="M5.5,63h88.8c0.3,0,0.5-0.2,0.5-0.5v-4.8c0-0.1,0-0.2-0.1-0.2V9.6c0-0.3-0.2-0.5-0.5-0.5H55.5
		c-2.4,0-4.6,1.2-5.6,2.9c-1-1.7-3.1-2.9-5.6-2.9H5.5C5.2,9.1,5,9.3,5,9.6v48.2v0.4v4.3C5,62.8,5.2,63,5.5,63z M6,62v-3.3h38.3
		c0.6,0,1.2,0.1,1.8,0.2c0.1,0.1,0.2,0.2,0.3,0.2c1.2,0.3,2.2,1.1,2.9,2.1c0.1,0.1,0.3,0.2,0.4,0.2c0,0,0.1,0,0.1,0c0,0,0.1,0,0.1,0
		c0,0,0,0,0,0c0,0,0,0,0,0c0.1,0,0.1,0,0.2,0c0.2-0.1,0.2-0.2,0.3-0.3c1.3-1.6,3.2-2.5,5.2-2.4h38.3V62H6z M49.1,59.4
		c-0.6-0.5-1.2-0.9-1.9-1.2h1.9V59.4z M50.4,58.3h2.2c-0.8,0.3-1.5,0.8-2.2,1.3V58.3z M49.1,13.7v43.5H47V10.8
		C48.1,11.4,48.9,12.4,49.1,13.7z M55.5,10.1h38.3v47.2H50.4v-43l0-0.6c0,0,0-0.1,0-0.1C50.7,11.6,52.9,10.1,55.5,10.1z M44.3,10.1
		c0.6,0,1.1,0.1,1.7,0.2v46.9H6V10.1H44.3z"/>
	<path class="st4" d="M11.1,17.5h20.2c0.3,0,0.5-0.2,0.5-0.5v-1.4c0-0.3-0.2-0.5-0.5-0.5H11.1c-0.3,0-0.5,0.2-0.5,0.5V17
		C10.6,17.3,10.8,17.5,11.1,17.5z M11.6,16.1h19.2v0.4H11.6V16.1z"/>
	<path class="st4" d="M10.5,20.8h32.9c0.3,0,0.5-0.2,0.5-0.5s-0.2-0.5-0.5-0.5H10.5c-0.3,0-0.5,0.2-0.5,0.5S10.2,20.8,10.5,20.8z"/>
	<path class="st4" d="M10.5,24.1h32.9c0.3,0,0.5-0.2,0.5-0.5s-0.2-0.5-0.5-0.5H10.5c-0.3,0-0.5,0.2-0.5,0.5S10.2,24.1,10.5,24.1z"/>
	<path class="st4" d="M10.5,26.8h32.9c0.3,0,0.5-0.2,0.5-0.5s-0.2-0.5-0.5-0.5H10.5c-0.3,0-0.5,0.2-0.5,0.5S10.2,26.8,10.5,26.8z"/>
	<path class="st4" d="M10.5,29.6h32.9c0.3,0,0.5-0.2,0.5-0.5s-0.2-0.5-0.5-0.5H10.5c-0.3,0-0.5,0.2-0.5,0.5S10.2,29.6,10.5,29.6z"/>
	<path class="st4" d="M10.5,32.3h32.9c0.3,0,0.5-0.2,0.5-0.5s-0.2-0.5-0.5-0.5H10.5c-0.3,0-0.5,0.2-0.5,0.5S10.2,32.3,10.5,32.3z"/>
	<path class="st4" d="M10.5,35h32.9c0.3,0,0.5-0.2,0.5-0.5S43.6,34,43.4,34H10.5c-0.3,0-0.5,0.2-0.5,0.5S10.2,35,10.5,35z"/>
	<path class="st4" d="M10.5,37.8h32.9c0.3,0,0.5-0.2,0.5-0.5s-0.2-0.5-0.5-0.5H10.5c-0.3,0-0.5,0.2-0.5,0.5S10.2,37.8,10.5,37.8z"/>
	<path class="st4" d="M10.5,40.6h32.9c0.3,0,0.5-0.2,0.5-0.5s-0.2-0.5-0.5-0.5H10.5c-0.3,0-0.5,0.2-0.5,0.5S10.2,40.6,10.5,40.6z"/>
	<path class="st4" d="M10.5,43.3h32.9c0.3,0,0.5-0.2,0.5-0.5s-0.2-0.5-0.5-0.5H10.5c-0.3,0-0.5,0.2-0.5,0.5S10.2,43.3,10.5,43.3z"/>
	<path class="st4" d="M10.5,46.1h32.9c0.3,0,0.5-0.2,0.5-0.5s-0.2-0.5-0.5-0.5H10.5c-0.3,0-0.5,0.2-0.5,0.5S10.2,46.1,10.5,46.1z"/>
	<path class="st4" d="M10.5,48.9h32.9c0.3,0,0.5-0.2,0.5-0.5s-0.2-0.5-0.5-0.5H10.5c-0.3,0-0.5,0.2-0.5,0.5S10.2,48.9,10.5,48.9z"/>
	<path class="st4" d="M10.5,51.6h32.9c0.3,0,0.5-0.2,0.5-0.5s-0.2-0.5-0.5-0.5H10.5c-0.3,0-0.5,0.2-0.5,0.5S10.2,51.6,10.5,51.6z"/>
	<path class="st4" d="M56.1,20.8H89c0.3,0,0.5-0.2,0.5-0.5s-0.2-0.5-0.5-0.5H56.1c-0.3,0-0.5,0.2-0.5,0.5S55.8,20.8,56.1,20.8z"/>
	<path class="st4" d="M56.1,24.1H89c0.3,0,0.5-0.2,0.5-0.5s-0.2-0.5-0.5-0.5H56.1c-0.3,0-0.5,0.2-0.5,0.5S55.8,24.1,56.1,24.1z"/>
	<path class="st4" d="M56.1,26.8H89c0.3,0,0.5-0.2,0.5-0.5s-0.2-0.5-0.5-0.5H56.1c-0.3,0-0.5,0.2-0.5,0.5S55.8,26.8,56.1,26.8z"/>
	<path class="st4" d="M56.1,29.6H89c0.3,0,0.5-0.2,0.5-0.5s-0.2-0.5-0.5-0.5H56.1c-0.3,0-0.5,0.2-0.5,0.5S55.8,29.6,56.1,29.6z"/>
	<path class="st4" d="M56.1,32.3H89c0.3,0,0.5-0.2,0.5-0.5s-0.2-0.5-0.5-0.5H56.1c-0.3,0-0.5,0.2-0.5,0.5S55.8,32.3,56.1,32.3z"/>
	<path class="st4" d="M56.1,35H89c0.3,0,0.5-0.2,0.5-0.5S89.3,34,89,34H56.1c-0.3,0-0.5,0.2-0.5,0.5S55.8,35,56.1,35z"/>
	<path class="st4" d="M56.1,37.8H89c0.3,0,0.5-0.2,0.5-0.5s-0.2-0.5-0.5-0.5H56.1c-0.3,0-0.5,0.2-0.5,0.5S55.8,37.8,56.1,37.8z"/>
	<path class="st4" d="M56.1,40.6H89c0.3,0,0.5-0.2,0.5-0.5s-0.2-0.5-0.5-0.5H56.1c-0.3,0-0.5,0.2-0.5,0.5S55.8,40.6,56.1,40.6z"/>
	<path class="st4" d="M56.1,43.3H89c0.3,0,0.5-0.2,0.5-0.5s-0.2-0.5-0.5-0.5H56.1c-0.3,0-0.5,0.2-0.5,0.5S55.8,43.3,56.1,43.3z"/>
	<path class="st4" d="M56.1,46.1H89c0.3,0,0.5-0.2,0.5-0.5s-0.2-0.5-0.5-0.5H56.1c-0.3,0-0.5,0.2-0.5,0.5S55.8,46.1,56.1,46.1z"/>
	<path class="st4" d="M56.1,48.9H89c0.3,0,0.5-0.2,0.5-0.5s-0.2-0.5-0.5-0.5H56.1c-0.3,0-0.5,0.2-0.5,0.5S55.8,48.9,56.1,48.9z"/>
	<path class="st4" d="M56.1,51.6H89c0.3,0,0.5-0.2,0.5-0.5s-0.2-0.5-0.5-0.5H56.1c-0.3,0-0.5,0.2-0.5,0.5S55.8,51.6,56.1,51.6z"/>
</g>
</svg>
