<?xml version="1.0" encoding="utf-8"?>
<!-- Generator: Adobe Illustrator 25.0.0, SVG Export Plug-In . SVG Version: 6.00 Build 0)  -->
<svg version="1.1" id="c-exam-timetable" xmlns="http://www.w3.org/2000/svg" xmlns:xlink="http://www.w3.org/1999/xlink" x="0px"
	 y="0px" viewBox="0 0 100 100" style="enable-background:new 0 0 100 100;" xml:space="preserve">
<style type="text/css">
	.st0{fill:#F0EDDA;}
	.st1{fill:#1786A3;}
	.st2{fill:#FBB600;}
	.st3{fill:#2C5871;}
</style>
<g id="Group_929">
	<path id="Path_835" class="st0" d="M33.7,80.5l8.7-13.1h34.8L64.1,89.2H27.9"/>
	<path id="Path_834" class="st1" d="M1,95.8c0,0,1.4-12.1,2.2-17.4c0.7-5.3,3.9-8.7,8.7-8.7h4.4l15.2,17.4h13.1c0,0,1,8.7-6.5,8.7H1
		"/>
	<path id="Path_824_1_" class="st2" d="M20.6,63.1c-5.1,0-8.7-4.2-8.7-9.3v-3.1c0-5.2,3.6-9.3,8.7-9.3s8.7,4.2,8.7,9.3v3.1
		C29.3,58.9,25.7,63.1,20.6,63.1z"/>
	<g>
		<path class="st3" d="M63.1,52.2c0,0.6,0.4,1,1,1c0.6,0,1-0.4,1-1V30.4c0-0.6-0.4-1-1-1c-0.6,0-1,0.4-1,1V52.2z"/>
		<path class="st3" d="M87.9,21.1L91,18c0.1-0.1,0.2-0.3,0.3-0.5l2.7,2.7c0.2,0.2,0.5,0.3,0.7,0.3s0.5-0.1,0.7-0.3
			c0.4-0.4,0.4-1,0-1.4l-6.5-6.5c-0.4-0.4-1-0.4-1.4,0c-0.4,0.4-0.4,1,0,1.4l2.7,2.7c-0.2,0-0.4,0.1-0.5,0.3l-3.2,3.2
			c-3.9-3.1-8.4-5.4-13.5-6.7c-2.6-0.6-5.2-1-7.7-1.1V5.2h5.5c0.6,0,1-0.4,1-1s-0.4-1-1-1H57.6c-0.6,0-1,0.4-1,1s0.4,1,1,1h5.5V12
			c-6.1,0.2-12,1.9-17.4,5.1c-1.4,0.8-2.6,1.7-3.9,2.7l-3.2-3.2c-0.1-0.1-0.3-0.2-0.5-0.3l2.7-2.7c0.4-0.4,0.4-1,0-1.4s-1-0.4-1.4,0
			L33,18.8c-0.4,0.4-0.4,1,0,1.4c0.2,0.2,0.5,0.3,0.7,0.3c0.3,0,0.5-0.1,0.7-0.3l2.7-2.7c0,0.2,0.1,0.4,0.3,0.5l3,3
			c-5.4,4.7-9.2,11-11,18.1c-0.1,0.5,0.2,1.1,0.7,1.2c0.5,0.1,1.1-0.2,1.2-0.7c1.7-6.7,5.3-12.7,10.5-17.2c0.2,0.1,0.4,0.2,0.6,0.2
			c0.3,0,0.5-0.1,0.7-0.3c0.3-0.3,0.4-0.8,0.2-1.1c1.1-0.9,2.3-1.7,3.5-2.4c7.8-4.6,16.9-6,25.6-3.8c4.7,1.2,9,3.4,12.6,6.2
			c-0.2,0.4-0.1,0.8,0.2,1.1c0.2,0.2,0.5,0.3,0.7,0.3c0.2,0,0.4-0.1,0.6-0.2c9.2,8.1,13.7,21,10.5,33.7
			c-2.6,10.4-10.2,19.1-20.1,23.1c-0.5,0.2-0.8,0.8-0.6,1.3c0.2,0.4,0.5,0.6,0.9,0.6c0.1,0,0.3,0,0.4-0.1
			c10.6-4.3,18.5-13.4,21.3-24.5C102.3,43.2,97.6,29.7,87.9,21.1z"/>
		<path class="st3" d="M20.6,64.1c5.5,0,9.7-4.4,9.7-10.3v-3.1c0-5.9-4.2-10.3-9.7-10.3c-5.5,0-9.7,4.4-9.7,10.3v3.1
			C10.9,59.6,15.1,64.1,20.6,64.1z M12.9,50.6c0-4.8,3.3-8.3,7.7-8.3c4.4,0,7.7,3.6,7.7,8.3v3.1c0,4.8-3.3,8.3-7.7,8.3
			c-4.4,0-7.7-3.6-7.7-8.3V50.6z"/>
		<path class="st3" d="M33.1,81.4c0.5,0.3,1.1,0.2,1.4-0.3l8.4-12.6h32.5L63.6,88.2H48.9c-0.6,0-1,0.4-1,1c0,0.6,0.4,1,1,1h15.2
			c0.4,0,0.7-0.2,0.9-0.5L78.1,68c0.2-0.3,0.2-0.7,0-1c-0.2-0.3-0.5-0.5-0.9-0.5H42.4c-0.3,0-0.6,0.2-0.8,0.4L32.8,80
			C32.5,80.4,32.6,81.1,33.1,81.4z"/>
		<path class="st3" d="M81.6,94.8H43.2c0.1-0.1,0.1-0.1,0.2-0.2c2.6-2.9,2.1-7.4,2.1-7.6l-0.1-0.9H31.9L16.7,68.6h-4.8
			c-5.2,0-8.9,3.7-9.7,9.6C1.4,83.5,0,95.6,0,95.7c-0.1,0.5,0.3,1,0.9,1.1c0,0,0.1,0,0.1,0c0.5,0,0.9-0.4,1-0.9
			c0-0.1,1.4-12.2,2.2-17.4c0.7-4.9,3.6-7.9,7.7-7.9h3.9L31,88.1h12.6c0,1.3-0.2,3.6-1.6,5.2c-0.9,1-2.2,1.5-4,1.5H25.4L14.8,82.1
			c-0.4-0.4-1-0.5-1.4-0.1c-0.4,0.4-0.5,1-0.1,1.4l9.5,11.4h-6.6c-0.6,0-1,0.4-1,1c0,0.6,0.4,1,1,1h65.3c0.6,0,1-0.4,1-1
			C82.6,95.2,82.1,94.8,81.6,94.8z"/>
		<path class="st3" d="M64.1,27c0.6,0,1-0.4,1-1v-6.5c0-0.6-0.4-1-1-1c-0.6,0-1,0.4-1,1V26C63.1,26.6,63.6,27,64.1,27z"/>
		<path class="st3" d="M50.2,32.1c0.2,0,0.5-0.1,0.6-0.2c0.4-0.4,0.5-1,0.1-1.4l-4.2-5c-0.4-0.4-1-0.5-1.4-0.1
			c-0.4,0.4-0.5,1-0.1,1.4l4.2,5C49.6,32,49.9,32.1,50.2,32.1z"/>
		<path class="st3" d="M42.5,45c0.1,0,0.1,0,0.2,0c0.5,0,0.9-0.3,1-0.8c0.1-0.5-0.3-1.1-0.8-1.2l-6.4-1.1c-0.5-0.1-1.1,0.3-1.2,0.8
			c-0.1,0.5,0.3,1.1,0.8,1.2L42.5,45z"/>
		<path class="st3" d="M82.1,58.2c-0.3,0.5-0.1,1.1,0.4,1.4l5.7,3.3c0.2,0.1,0.3,0.1,0.5,0.1c0.3,0,0.7-0.2,0.9-0.5
			c0.3-0.5,0.1-1.1-0.4-1.4l-5.7-3.3C83,57.6,82.4,57.7,82.1,58.2z"/>
		<path class="st3" d="M85.8,45l6.4-1.1c0.5-0.1,0.9-0.6,0.8-1.2c-0.1-0.5-0.6-0.9-1.2-0.8L85.4,43c-0.5,0.1-0.9,0.6-0.8,1.2
			c0.1,0.5,0.5,0.8,1,0.8C85.6,45,85.7,45,85.8,45z"/>
		<path class="st3" d="M81.6,25.5l-4.2,5c-0.4,0.4-0.3,1.1,0.1,1.4c0.2,0.2,0.4,0.2,0.6,0.2c0.3,0,0.6-0.1,0.8-0.4l4.2-5
			c0.4-0.4,0.3-1.1-0.1-1.4C82.6,25,81.9,25,81.6,25.5z"/>
	</g>
</g>
</svg>
