<?xml version="1.0" encoding="utf-8"?>
<!-- Generator: Adobe Illustrator 25.0.0, SVG Export Plug-In . SVG Version: 6.00 Build 0)  -->
<svg version="1.1" id="Layer_1" xmlns="http://www.w3.org/2000/svg" xmlns:xlink="http://www.w3.org/1999/xlink" x="0px" y="0px"
	 viewBox="0 0 100 100" style="enable-background:new 0 0 100 100;" xml:space="preserve">
<style type="text/css">
	.st0{fill:#F0EDDA;}
	.st1{fill:#CCEEF5;}
	.st2{fill:#1786A3;}
	.st3{fill:#FBB600;}
	.st4{fill:#2C5871;}
</style>
<g id="c-grades" transform="translate(-60.41 -103.606)">
	<path id="Path_505" class="st0" d="M92.3,129.5l3.4,6.8c0.2,0.5,0.7,0.8,1.3,0.9l7.5,1.1c0.9,0.1,1.6,1,1.4,1.9
		c-0.1,0.4-0.2,0.7-0.5,1l-5.4,5.3c-0.4,0.4-0.6,0.9-0.5,1.5l1.3,7.5c0.2,0.9-0.5,1.8-1.4,1.9c-0.4,0.1-0.7,0-1.1-0.2l-6.7-3.5
		c-0.5-0.3-1.1-0.3-1.6,0l-6.7,3.5c-0.8,0.4-1.8,0.1-2.3-0.7c-0.2-0.3-0.2-0.7-0.2-1.1l1.3-7.5c0.1-0.5-0.1-1.1-0.5-1.5l-5.4-5.3
		c-0.7-0.6-0.7-1.7,0-2.4c0.3-0.3,0.6-0.4,1-0.5l7.5-1.1c0.5-0.1,1-0.4,1.3-0.9l3.4-6.8c0.4-0.8,1.4-1.2,2.3-0.8
		C91.9,128.9,92.2,129.2,92.3,129.5z"/>
	<path id="Path_506" class="st1" d="M144.6,202.6h-15.4v-60.2h15.4v5.8"/>
	<path id="Path_507" class="st2" d="M117.9,202.6h-15.4v-37.2h15.4v6.3"/>
	<path id="Path_508" class="st3" d="M91.2,202.6H75.9v-29.9h15.4v6.3"/>
	<path class="st4" d="M91.2,203.6H75.9c-0.6,0-1-0.4-1-1v-29.9c0-0.6,0.4-1,1-1h15.4c0.6,0,1,0.4,1,1v6.3c0,0.6-0.4,1-1,1
		s-1-0.4-1-1v-5.3H76.9v27.9h14.4c0.6,0,1,0.4,1,1S91.8,203.6,91.2,203.6z"/>
	<path class="st4" d="M117.9,203.6h-15.4c-0.6,0-1-0.4-1-1v-37.2c0-0.6,0.4-1,1-1h15.4c0.6,0,1,0.4,1,1v6.3c0,0.6-0.4,1-1,1
		s-1-0.4-1-1v-5.3h-13.4v35.2h14.4c0.6,0,1,0.4,1,1S118.5,203.6,117.9,203.6z"/>
	<path class="st4" d="M144.6,203.6h-15.4c-0.6,0-1-0.4-1-1v-60.2c0-0.6,0.4-1,1-1h15.4c0.6,0,1,0.4,1,1v5.8c0,0.6-0.4,1-1,1
		s-1-0.4-1-1v-4.8h-13.4v58.2h14.4c0.6,0,1,0.4,1,1S145.2,203.6,144.6,203.6z"/>
	<path class="st4" d="M91.2,196.7c-0.6,0-1-0.4-1-1V194c0-0.6,0.4-1,1-1s1,0.4,1,1v1.6C92.2,196.2,91.8,196.7,91.2,196.7z
		 M91.2,188.5c-0.6,0-1-0.4-1-1v-1.6c0-0.6,0.4-1,1-1s1,0.4,1,1v1.6C92.2,188.1,91.8,188.5,91.2,188.5z"/>
	<path class="st4" d="M117.9,196.7c-0.6,0-1-0.4-1-1V194c0-0.6,0.4-1,1-1s1,0.4,1,1v1.6C118.9,196.2,118.5,196.7,117.9,196.7z
		 M117.9,188.5c-0.6,0-1-0.4-1-1v-1.6c0-0.6,0.4-1,1-1s1,0.4,1,1v1.6C118.9,188.1,118.5,188.5,117.9,188.5z M117.9,180.3
		c-0.6,0-1-0.4-1-1v-1.6c0-0.6,0.4-1,1-1s1,0.4,1,1v1.6C118.9,179.9,118.5,180.3,117.9,180.3z"/>
	<path class="st4" d="M144.6,196.7c-0.6,0-1-0.4-1-1V194c0-0.6,0.4-1,1-1s1,0.4,1,1v1.6C145.6,196.2,145.2,196.7,144.6,196.7z
		 M144.6,188.5c-0.6,0-1-0.4-1-1v-1.6c0-0.6,0.4-1,1-1s1,0.4,1,1v1.6C145.6,188.1,145.2,188.5,144.6,188.5z M144.6,180.3
		c-0.6,0-1-0.4-1-1v-1.6c0-0.6,0.4-1,1-1s1,0.4,1,1v1.6C145.6,179.9,145.2,180.3,144.6,180.3z M144.6,172.2c-0.6,0-1-0.4-1-1v-1.6
		c0-0.6,0.4-1,1-1s1,0.4,1,1v1.6C145.6,171.7,145.2,172.2,144.6,172.2z M144.6,164c-0.6,0-1-0.4-1-1v-1.6c0-0.6,0.4-1,1-1s1,0.4,1,1
		v1.6C145.6,163.6,145.2,164,144.6,164z M144.6,155.8c-0.6,0-1-0.4-1-1v-1.3c0-0.6,0.4-1,1-1s1,0.4,1,1v1.3
		C145.6,155.4,145.2,155.8,144.6,155.8z"/>
	<path class="st4" d="M114.6,160.1c-0.6,0-1-0.4-1-1V127h-11c-0.4,0-0.8-0.2-0.9-0.6c-0.2-0.4-0.1-0.8,0.2-1.1l21-21.4
		c0.2-0.2,0.4-0.3,0.7-0.3l0,0c0.3,0,0.5,0.1,0.7,0.3l21,21.4c0.3,0.3,0.4,0.7,0.2,1.1c-0.2,0.4-0.5,0.6-0.9,0.6h-11v8.9
		c0,0.6-0.4,1-1,1s-1-0.4-1-1V126c0-0.6,0.4-1,1-1h9.7l-18.6-19l-18.7,19h9.7c0.6,0,1,0.4,1,1v33.1
		C115.6,159.6,115.2,160.1,114.6,160.1z"/>
	<path class="st4" d="M82.5,158.4c-1,0-1.9-0.5-2.4-1.4c-0.3-0.5-0.4-1.1-0.3-1.7l1.3-7.5c0-0.2,0-0.5-0.2-0.6l-5.4-5.3
		c-0.5-0.5-0.8-1.2-0.8-1.9c0-0.7,0.3-1.4,0.8-1.9c0.4-0.4,1-0.7,1.5-0.8l7.5-1.1c0.2,0,0.4-0.2,0.5-0.4l3.4-6.8
		c0.3-0.6,0.9-1.1,1.5-1.4c0.7-0.2,1.4-0.2,2.1,0.1c0.5,0.3,1,0.7,1.2,1.2l3.4,6.8c0.1,0.2,0.3,0.3,0.5,0.4l7.5,1.1
		c0.7,0.1,1.3,0.5,1.8,1.1c0.4,0.6,0.6,1.3,0.5,2c-0.1,0.6-0.4,1.1-0.8,1.5l-5.4,5.3c-0.2,0.2-0.2,0.4-0.2,0.6l1.3,7.5
		c0.1,0.7,0,1.4-0.5,2s-1,1-1.7,1.1c-0.6,0.1-1.2,0-1.7-0.3l-6.7-3.5c-0.2-0.1-0.4-0.1-0.6,0l-6.7,3.5
		C83.4,158.3,82.9,158.4,82.5,158.4z M90.8,129.5c-0.1,0-0.1,0-0.2,0c-0.2,0.1-0.3,0.2-0.4,0.3l-3.4,6.8c-0.4,0.8-1.1,1.3-2,1.5
		l-7.5,1.1c-0.1,0-0.3,0.1-0.4,0.2c-0.1,0.1-0.2,0.3-0.2,0.5c0,0.2,0.1,0.4,0.2,0.5l5.4,5.3c0.6,0.6,0.9,1.5,0.8,2.4l-1.3,7.5
		c0,0.1,0,0.3,0.1,0.4c0.1,0.2,0.2,0.3,0.4,0.3c0.2,0.1,0.4,0,0.5,0l6.7-3.5c0.8-0.4,1.7-0.4,2.5,0l6.7,3.5c0.1,0.1,0.3,0.1,0.4,0.1
		c0.2,0,0.3-0.1,0.4-0.3c0.1-0.2,0.1-0.3,0.1-0.5l-1.3-7.5c-0.1-0.9,0.1-1.8,0.8-2.4l5.4-5.3c0.1-0.1,0.2-0.2,0.2-0.4
		c0-0.2,0-0.4-0.1-0.5c-0.1-0.1-0.3-0.2-0.5-0.3l-7.5-1.1c-0.9-0.1-1.6-0.7-2-1.5l-3.4-6.8c0,0,0,0,0,0c-0.1-0.1-0.2-0.2-0.3-0.3
		C91,129.6,90.9,129.5,90.8,129.5z"/>
</g>
</svg>
