<?xml version="1.0" encoding="utf-8"?>
<!-- Generator: Adobe Illustrator 25.0.0, SVG Export Plug-In . SVG Version: 6.00 Build 0)  -->
<svg version="1.1" id="Layer_1" xmlns="http://www.w3.org/2000/svg" xmlns:xlink="http://www.w3.org/1999/xlink" x="0px" y="0px"
	 viewBox="0 0 100 100" style="enable-background:new 0 0 100 100;" xml:space="preserve">
<style type="text/css">
	.st0{fill:#F0EDDA;}
	.st1{fill:#66CDE1;}
	.st2{fill:#CCEEF5;}
	.st3{fill:#FBB600;}
	.st4{fill:#1786A3;}
	.st5{fill:#2C5871;}
</style>
<g id="c-homework" transform="translate(-16.116 -578.013)">
	<path id="Path_733" class="st0" d="M25.7,610c-4.7-0.1-8.5,3.7-8.6,8.4c0.1,4.7,3.9,8.4,8.6,8.4c4.7,0.1,8.5-3.7,8.6-8.4
		C34.3,613.7,30.4,609.9,25.7,610z"/>
	<path id="Path_732" class="st1" d="M60.2,583.1c-4.1,2.3-3.1,11.6,2.3,20.6l0.7,1.1l21.3-11.9l-0.7-1.1c-5.4-9-13.1-14.5-17.2-12.2
		L60.2,583.1z"/>
	<path id="Path_731" class="st2" d="M81.1,594.8L66.5,603c-9.6,5.4-10.4,21.5-1.8,35.9l1.1,1.8l49.4-27.7l-1.1-1.8
		C105.5,596.8,90.7,589.4,81.1,594.8z"/>
	<path id="Path_730" class="st3" d="M103,620.5c6.1,13.6-14.5,27.1-26.3,14.7"/>
	<path id="Path_729" class="st4" d="M25,668.4h42.4c2.4-0.1,4.4,1.7,4.5,4.1c0.1,2.4-1.7,4.4-4.1,4.5c-0.1,0-0.3,0-0.4,0H25
		c-2.4,0.1-4.4-1.7-4.5-4.1c-0.1-2.4,1.7-4.4,4.1-4.5C24.7,668.4,24.9,668.4,25,668.4z"/>
	<path class="st5" d="M116,612.5l-1.1-1.8c-7.6-12.8-20-20.1-29.7-18.4l-0.6-1c-5.7-9.7-13.9-15.2-18.6-12.6l-6.3,3.5
		c-1.3,0.7-2.2,2-2.7,3.7c-0.7,2.6-0.4,6.2,0.9,10l-26,15.2c-1.7-1.4-3.8-2.2-6.1-2.2c-0.1,0-0.2,0-0.2,0c-5.2,0-9.4,4.2-9.5,9.4
		c0.1,5.2,4.3,9.4,9.5,9.4c0.1,0,0.2,0,0.3,0c0.8,0,1.5-0.1,2.2-0.3l16.8,39.9H25c-0.2,0-0.3,0-0.5,0c-2.9,0.2-5.2,2.7-5,5.6
		c0.1,2.8,2.5,5.1,5.3,5.1c0.1,0,0.2,0,0.3,0l42.4,0c0.2,0,0.4,0,0.5,0c1.4-0.1,2.7-0.7,3.7-1.8c1-1.1,1.4-2.4,1.4-3.8
		c-0.1-1.4-0.7-2.7-1.8-3.7c-1.1-1-2.4-1.4-3.8-1.4H47.1L30,626.8c3.1-1.5,5.3-4.7,5.4-8.4c0-2.1-0.8-4.1-2-5.6l25.2-14.8
		c0.8,2.1,1.8,4.2,3.1,6.3l0.6,1c-1.7,1.9-2.9,4.3-3.6,7.1c-2.1,7.9-0.2,18.1,5.2,27.1l1.1,1.8c0.2,0.3,0.5,0.5,0.9,0.5
		c0.2,0,0.3,0,0.5-0.1l9.9-5.6c3,3.7,7.2,5.2,11.4,5.2c3.6,0,7.3-1.1,10.3-3c8.2-5.2,8.5-12.7,6.1-17.8l11.6-6.5
		c0.2-0.1,0.4-0.4,0.5-0.6C116.2,613,116.1,612.8,116,612.5z M67.5,669.4c0.9,0,1.7,0.3,2.4,0.9c0.7,0.6,1,1.4,1.1,2.3
		c0,0.9-0.3,1.7-0.9,2.4c-0.6,0.7-1.4,1-2.3,1.1c-0.1,0-0.2,0-0.4,0L25,676c-1.9,0.1-3.4-1.3-3.5-3.2c-0.1-1.8,1.3-3.4,3.2-3.5
		c0.1,0,0.1,0,0.2,0s0.1,0,0.2,0c0,0,0,0,0.1,0l21.4,0c0,0,0,0,0,0c0,0,0,0,0,0L67.5,669.4z M25.7,625.7c-4.1,0-7.5-3.3-7.6-7.4
		c0.1-4.1,3.5-7.4,7.6-7.4c0,0,0,0,0,0c4.1,0,7.5,3.3,7.6,7.4C33.3,622.5,29.8,625.8,25.7,625.7z M59,586.5c0.3-1.2,0.9-2.1,1.7-2.5
		c0,0,0,0,0,0l6.3-3.5c0.5-0.3,1.1-0.4,1.7-0.4c4.1,0,10.4,5.9,14.2,12.3l0.2,0.3l-19.5,11l-0.2-0.3C59.6,597,57.9,590.4,59,586.5z
		 M96.8,636.5c-5.6,3.6-14,4.1-18.9-1.5l24.3-13.6C105.3,628.1,101.3,633.7,96.8,636.5z M66.1,639.4l-0.6-1c-5.1-8.6-7-18.2-5-25.6
		c1.1-4.1,3.3-7.2,6.5-8.9l14.7-8.2c9.1-5.1,23.3,2.1,31.6,16.1l0.6,0.9L66.1,639.4z"/>
</g>
</svg>
