<?xml version="1.0" encoding="utf-8"?>
<!-- Generator: Adobe Illustrator 25.0.0, SVG Export Plug-In . SVG Version: 6.00 Build 0)  -->
<svg version="1.1" id="Layer_1" xmlns="http://www.w3.org/2000/svg" xmlns:xlink="http://www.w3.org/1999/xlink" x="0px" y="0px"
	 viewBox="0 0 100 100" style="enable-background:new 0 0 100 100;" xml:space="preserve">
<style type="text/css">
	.st0{fill:#FBB600;}
	.st1{fill:#F0EDDA;}
	.st2{fill:#1786A3;}
	.st3{fill:#FFFFFF;}
	.st4{fill:#2C5871;}
</style>
<g id="c-my-profile" transform="translate(-1.341 -1.342)">
	<path id="Path_836_1_" class="st0" d="M19.5,30.2L19.5,30.2c-3.6,0-6.5-2.9-6.6-6.6v-4.9c0-3.6,2.9-6.6,6.6-6.6s6.6,2.9,6.6,6.6
		v4.9C26.1,27.3,23.1,30.2,19.5,30.2z"/>
	<path id="Path_839_1_" class="st1" d="M28.5,45.8v45.9h-18V45.8"/>
	<circle id="Ellipse_45_1_" class="st2" cx="64.6" cy="46.2" r="20.9"/>
	<g>
		<circle id="Ellipse_46_1_" class="st3" cx="64.6" cy="46.2" r="10.7"/>
		<g>
			<path class="st4" d="M19.5,31.2C19.5,31.2,19.5,31.2,19.5,31.2C19.5,31.2,19.5,31.2,19.5,31.2c4.2,0,7.5-3.4,7.6-7.6v-4.9
				c0-4.2-3.4-7.6-7.6-7.6c-4.2,0-7.6,3.4-7.6,7.6v4.9C12,27.8,15.4,31.2,19.5,31.2z M14,18.8c0-3.1,2.5-5.6,5.6-5.6
				s5.6,2.5,5.6,5.6v4.9c0,3.1-2.5,5.6-5.6,5.6c-3.1,0-5.5-2.5-5.6-5.6V18.8z"/>
			<path class="st4" d="M32.7,32.5h-4.1c-0.6,0-1,0.4-1,1c0,0.6,0.4,1,1,1h4.1c0.8,0,1.6,0.3,2.2,0.9c0.6,0.6,0.9,1.4,0.9,2.2v20.3
				c0,3.2-2.6,5.8-5.8,5.8h-0.4V45.8c0-0.6-0.4-1-1-1c-0.6,0-1,0.4-1,1v44.9h-7V60.6c0-0.6-0.4-1-1-1s-1,0.4-1,1v30.2h-7V64.7
				c0,0,0,0,0,0s0,0,0,0V45.8c0-0.6-0.4-1-1-1s-1,0.4-1,1v17.9H7.8c-2.5,0-4.4-2-4.5-4.4V37.6c0-1.7,1.4-3.1,3.1-3.1h4.1
				c0.6,0,1-0.4,1-1c0-0.6-0.4-1-1-1H6.4c-2.8,0-5.1,2.3-5.1,5.1v21.6c0,3.6,2.9,6.4,6.5,6.4h1.7v26.1c0,0.6,0.4,1,1,1h18
				c0.6,0,1-0.4,1-1V65.7h0.4c4.3,0,7.8-3.5,7.8-7.8V37.6c0-1.4-0.5-2.6-1.5-3.6C35.3,33,34,32.5,32.7,32.5z"/>
			<path class="st4" d="M99.2,49.4l-4-1.7c-0.2-0.1-0.3-0.2-0.3-0.3c-0.1-0.3,0-0.7,0.3-0.8l4.5-1.9c1.3-0.5,1.9-1.9,1.5-3.2
				l-3.6-11.2c-0.4-1.3-1.8-2.1-3.1-1.8l-4.2,1c-0.2,0-0.3,0-0.5-0.1c-0.3-0.2-0.4-0.6-0.2-0.9l2.5-4.2c0.7-1.2,0.4-2.7-0.7-3.5
				l-9.5-6.9c-1.1-0.8-2.7-0.6-3.5,0.4l-2.8,3.3c-0.1,0.1-0.3,0.2-0.4,0.2c-0.4,0-0.7-0.2-0.7-0.6l-0.4-4.9C73.8,11,72.7,10,71.3,10
				H59.6c-1.4,0-2.5,1.1-2.6,2.4l-0.4,4.3c0,0.2-0.1,0.3-0.2,0.4c-0.1,0.1-0.3,0.2-0.5,0.2c-0.2,0-0.3-0.1-0.4-0.2l-3.2-3.7
				c-0.9-1-2.4-1.2-3.6-0.4l-9.5,6.9c-1.1,0.8-1.4,2.3-0.7,3.5l2.2,3.7c0.3,0.5,0.9,0.6,1.4,0.3c0.5-0.3,0.6-0.9,0.3-1.4l-2.2-3.7
				c-0.2-0.3-0.1-0.7,0.2-0.9l9.5-6.9c0.3-0.2,0.6-0.2,0.9,0.1l3.2,3.7c0.5,0.5,1.1,0.9,1.8,0.9c0.7,0.1,1.4-0.2,1.9-0.6
				c0.5-0.5,0.8-1.1,0.9-1.8l0.4-4.3c0-0.3,0.3-0.6,0.6-0.6h11.7c0.3,0,0.6,0.3,0.6,0.6l0.4,4.9c0.1,1.4,1.4,2.5,2.8,2.4
				c0.7-0.1,1.3-0.4,1.8-0.9l2.8-3.3c0.2-0.3,0.6-0.3,0.9-0.1l9.5,6.9c0.3,0.2,0.3,0.6,0.2,0.9l-2.5,4.2c-0.8,1.2-0.4,2.9,0.9,3.6
				c0.6,0.4,1.3,0.5,2,0.3l4.2-1c0.3-0.1,0.7,0.1,0.8,0.4L99.3,42c0.1,0.3-0.1,0.7-0.4,0.8l-4.5,1.9c-1.3,0.6-2,2.1-1.4,3.5
				c0.3,0.6,0.8,1.1,1.4,1.4l4,1.7c0.3,0.1,0.5,0.5,0.4,0.8l-3.6,11.2c-0.1,0.3-0.4,0.5-0.8,0.4l-4.8-1.1c-0.7-0.2-1.4,0-2,0.3
				c-0.6,0.4-1,1-1.2,1.6c-0.2,0.7,0,1.4,0.3,2l2.2,3.7c0.2,0.3,0.1,0.7-0.2,0.8l-9.5,6.9c-0.3,0.2-0.6,0.2-0.9-0.1l-3.2-3.7
				c-1-1.1-2.6-1.2-3.7-0.3c-0.5,0.5-0.8,1.1-0.9,1.8l-0.4,4.3c0,0.3-0.3,0.6-0.6,0.6H57.9h0c-0.3,0-0.6-0.3-0.6-0.6L56.9,75
				c-0.1-1.4-1.4-2.5-2.9-2.4c-0.7,0.1-1.3,0.4-1.8,0.9l-2.8,3.3c-0.2,0.2-0.6,0.3-0.9,0.1L41,71.4c-0.4-0.3-1.1-0.2-1.4,0.2
				c-0.3,0.4-0.2,1.1,0.2,1.4l7.6,5.5c1.1,0.8,2.7,0.6,3.6-0.4l2.8-3.3c0.1-0.1,0.3-0.2,0.4-0.2c0.3,0,0.7,0.2,0.7,0.6l0.4,4.9
				c0.1,1.4,1.3,2.4,2.6,2.4c0,0,0,0,0,0h11.7c1.4,0,2.5-1.1,2.6-2.4l0.4-4.3c0-0.2,0.1-0.3,0.2-0.4c0.3-0.2,0.7-0.2,0.9,0.1
				l3.2,3.7c0.9,1,2.4,1.2,3.6,0.4l9.5-6.9c1.1-0.8,1.4-2.3,0.7-3.5l-2.2-3.7c-0.1-0.1-0.1-0.3-0.1-0.5c0-0.2,0.1-0.3,0.3-0.4
				c0.1-0.1,0.3-0.1,0.5-0.1l4.8,1.1c1.3,0.3,2.7-0.5,3.1-1.8l3.6-11.2C101.1,51.3,100.4,49.9,99.2,49.4z"/>
			<path class="st4" d="M64.6,68.1c12.1,0,21.9-9.8,21.9-21.9c0-12.1-9.8-21.9-21.9-21.9s-21.9,9.8-21.9,21.9
				C42.7,58.3,52.5,68.1,64.6,68.1z M64.6,26.3c11,0,19.9,8.9,19.9,19.9c0,11-8.9,19.9-19.9,19.9s-19.9-8.9-19.9-19.9
				C44.7,35.2,53.6,26.3,64.6,26.3z"/>
			<path class="st4" d="M64.6,57.9c6.4,0,11.7-5.2,11.7-11.7S71,34.6,64.6,34.6S53,39.8,53,46.2S58.2,57.9,64.6,57.9z M64.6,36.6
				c5.3,0,9.7,4.3,9.7,9.7s-4.3,9.7-9.7,9.7S55,51.5,55,46.2S59.3,36.6,64.6,36.6z"/>
		</g>
	</g>
</g>
</svg>
