<?xml version="1.0" encoding="utf-8"?>
<!-- Generator: Adobe Illustrator 25.0.0, SVG Export Plug-In . SVG Version: 6.00 Build 0)  -->
<svg version="1.1" id="Layer_1" xmlns="http://www.w3.org/2000/svg" xmlns:xlink="http://www.w3.org/1999/xlink" x="0px" y="0px"
	 viewBox="0 0 100 100" style="enable-background:new 0 0 100 100;" xml:space="preserve">
<style type="text/css">
	.st0{fill:#2C5871;}
	.st1{fill:#FBB600;}
	.st2{fill:#1786A3;}
	.st3{enable-background:new    ;}
	.st4{fill:#FFFFFF;}
</style>
<g id="c-notification" transform="translate(-1700.968 -795.039)">
	<g id="Group_682" transform="translate(1702.039 796.04)">
		<path class="st0" d="M13.5,79.1c-1.7,0-3.3-0.9-4.1-2.4c-0.9-1.6-0.8-3.5,0.2-5c0-0.1,0.1-0.1,0.1-0.2l7.4-9.4
			c1-1.3,1.6-2.9,1.6-4.5c0-17.9,0-20.6,0-21h0C19,23.1,28.3,11.6,41.3,8.2V6.6c0-4.2,3.4-7.7,7.7-7.7s7.7,3.4,7.7,7.7v1.6
			C58,8.6,59.3,9,60.6,9.6c0.5,0.2,0.8,0.8,0.5,1.3c-0.2,0.5-0.8,0.8-1.3,0.5c-1.5-0.6-3-1.1-4.5-1.4l-0.8-0.2V6.6
			C54.6,3.5,52,1,48.9,1c-3.1,0-5.7,2.5-5.7,5.7v3.2L42.5,10C30,12.8,21,23.8,20.7,36.7l0,0c0,0.5,0,13.9,0,21c0,2.1-0.7,4.1-2,5.8
			l-7.5,9.5c-0.6,0.9-0.7,2-0.2,2.9c0.5,0.9,1.4,1.4,2.4,1.4h70.8c1,0,2-0.5,2.5-1.4c0.5-0.9,0.4-2-0.1-2.8l-7.5-9.5
			c-1.3-1.6-2-3.7-2-5.8V39.5c0-0.6,0.4-1,1-1s1,0.4,1,1v18.2c0,1.6,0.6,3.2,1.6,4.5l7.6,9.6c1,1.5,1.1,3.4,0.2,5
			c-0.9,1.5-2.5,2.4-4.2,2.4H13.5C13.5,79.1,13.5,79.1,13.5,79.1z"/>
		<g>
			<ellipse id="Ellipse_42_1_" class="st1" cx="73.5" cy="21.8" rx="14.2" ry="14.1"/>
			<path class="st0" d="M73.5,36.8c-8.4,0-15.2-6.8-15.2-15.1S65.1,6.7,73.5,6.7s15.2,6.8,15.2,15.1S81.9,36.8,73.5,36.8z M73.5,8.7
				c-7.3,0-13.2,5.9-13.2,13.1s5.9,13.1,13.2,13.1S86.7,29,86.7,21.8S80.8,8.7,73.5,8.7z"/>
		</g>
		<g>
			<path id="Path_753_1_" class="st2" d="M48.9,98c-7.9,0-14.3-6.3-14.3-14.2c0-0.9,0.7-1.6,1.7-1.6c0,0,0,0,0,0h25.4
				c0.9,0,1.7,0.7,1.7,1.6v0C63.2,91.6,56.8,98,48.9,98z"/>
			<path class="st0" d="M48.9,99c-8.4,0-15.2-6.8-15.3-15.2c0-0.7,0.3-1.4,0.8-1.9c0.5-0.5,1.2-0.7,1.9-0.8h25.4
				c0.7,0,1.4,0.3,1.9,0.8c0.5,0.5,0.8,1.2,0.8,1.9C64.2,92.1,57.4,99,49,99C48.9,99,48.9,99,48.9,99z M36.2,83.1
				c-0.2,0-0.3,0.1-0.5,0.2c-0.1,0.1-0.2,0.3-0.2,0.5c0,7.3,6,13.2,13.3,13.2c0,0,0,0,0.1,0h0c0,0,0,0,0.1,0
				c7.3,0,13.2-5.9,13.3-13.2c0-0.2-0.1-0.3-0.2-0.4c-0.1-0.1-0.3-0.2-0.5-0.2c0,0,0,0,0,0H36.2C36.2,83.1,36.2,83.1,36.2,83.1z"/>
		</g>
	</g>
	<g class="st3">
		<path class="st4" d="M1775.9,817.7c1.2-1.3,1.7-2.5,1.7-3.6c0-0.7-0.2-1.2-0.5-1.7s-0.9-0.6-1.7-0.6c-0.8,0-1.4,0.3-1.8,0.8
			s-0.6,1.2-0.7,2.1h-1.5c0.1-1.3,0.5-2.4,1.3-3.1s1.7-1.1,2.9-1.1c1.1,0,2,0.3,2.7,0.9c0.7,0.6,1,1.5,1,2.6c0,0.9-0.3,1.8-0.9,2.8
			c-0.6,0.9-1.3,1.8-2.2,2.6c-0.9,0.8-1.8,1.5-2.7,2h6.1v1.3h-8.3v-1.1C1773.2,820.3,1774.7,819,1775.9,817.7z"/>
	</g>
</g>
</svg>
