<?xml version="1.0" encoding="utf-8"?>
<!-- Generator: Adobe Illustrator 25.0.0, SVG Export Plug-In . SVG Version: 6.00 Build 0)  -->
<svg version="1.1" id="Layer_1" xmlns="http://www.w3.org/2000/svg" xmlns:xlink="http://www.w3.org/1999/xlink" x="0px" y="0px"
	 viewBox="0 0 100 100" style="enable-background:new 0 0 100 100;" xml:space="preserve">
<style type="text/css">
	.st0{fill:#FBB600;}
	.st1{fill:#1786A3;}
	.st2{fill:#CCEEF5;}
	.st3{fill:#F0EDDA;}
	.st4{fill:#2C5871;}
</style>
<g id="c-periods" transform="translate(-427.343 -103.991)">
	<circle id="Ellipse_24" class="st0" cx="458.7" cy="152.1" r="5"/>
	<circle id="Ellipse_25" class="st0" cx="458.7" cy="185.7" r="5"/>
	<circle id="Ellipse_26" class="st1" cx="458.7" cy="134.9" r="5"/>
	<circle id="Ellipse_27" class="st1" cx="458.7" cy="168.9" r="5"/>
	<path id="Path_517" class="st2" d="M471.3,112.2c0-2.6,2.1-4.7,4.7-4.7c2.6,0,4.7,2.1,4.7,4.7"/>
	<path id="Path_518" class="st1" d="M457.2,117.9v-2.7c0-1.7,1.4-3,3-3l0,0h31.4c1.7,0,3,1.4,3,3v0v2.7"/>
	<path id="Path_519" class="st3" d="M439.5,191.6h-2.8c-1.4,0-2.5-1.1-2.5-2.5v-57c0-1.4,1.1-2.5,2.5-2.5c0,0,0,0,0,0h2.8"/>
	<path id="Path_520" class="st0" d="M445.1,197.3h-2.8c-1.4,0-2.5-1.1-2.5-2.5v-68.3c0-1.4,1.1-2.5,2.5-2.5h2.8"/>
	<g id="Group_432" transform="translate(456.516 160.76)">
		<g id="Group_431">
			<path id="Path_523" class="st4" d="M0.6,25.1c0-0.8,0.7-1.5,1.5-1.5s1.5,0.7,1.5,1.5c0,0.8-0.7,1.5-1.5,1.5l0,0
				C1.3,26.6,0.6,25.9,0.6,25.1z"/>
		</g>
	</g>
	<g>
		<path class="st4" d="M501.1,116.9h-5.5v-1.7c0-2.2-1.8-4-4-4h-10c-0.5-2.7-2.8-4.7-5.6-4.7s-5.1,2-5.6,4.7h-10.2c-2.2,0-4,1.8-4,4
			v1.7h-5.3c-3.5,0-6.3,2.6-6.7,6h-1.9c-1.9,0-3.5,1.6-3.5,3.5v2.1h-2.1c-1.9,0-3.5,1.6-3.5,3.5v57c0,1.9,1.6,3.5,3.5,3.5h2.1v2.1
			c0,1.9,1.6,3.5,3.5,3.5h1.9c0.5,3.2,3.3,5.7,6.6,5.7h50.3c3.7,0,6.7-3,6.7-6.7v-73.6C507.8,119.9,504.8,116.9,501.1,116.9z
			 M476,108.5c1.7,0,3.1,1.1,3.5,2.7h-7.1C472.9,109.6,474.3,108.5,476,108.5z M458.2,115.2c0-1.1,0.9-2,2-2h31.4c1.1,0,2,0.9,2,2
			v1.7h-35.5V115.2z M436.7,190.6c-0.8,0-1.5-0.7-1.5-1.5v-57c0-0.4,0.2-0.8,0.4-1.1c0.3-0.3,0.7-0.4,1.1-0.4h2.1v60H436.7z
			 M440.8,194.8v-68.3c0-0.8,0.7-1.5,1.5-1.5h1.8v71.4h-1.8C441.5,196.3,440.8,195.6,440.8,194.8z M505.8,197.3
			c0,2.6-2.1,4.7-4.7,4.7h-50.3c-2.6,0-4.7-2.1-4.7-4.7v-73.6c0-2.6,2.1-4.7,4.7-4.7h50.3c2.6,0,4.7,2.1,4.7,4.7V197.3z"/>
		<path class="st4" d="M496.9,133.9h-25.3c-0.6,0-1,0.4-1,1s0.4,1,1,1h25.3c0.6,0,1-0.4,1-1S497.5,133.9,496.9,133.9z"/>
		<path class="st4" d="M496.9,150.9h-25.3c-0.6,0-1,0.4-1,1s0.4,1,1,1h25.3c0.6,0,1-0.4,1-1S497.5,150.9,496.9,150.9z"/>
		<path class="st4" d="M496.9,167.9h-25.3c-0.6,0-1,0.4-1,1s0.4,1,1,1h25.3c0.6,0,1-0.4,1-1S497.5,167.9,496.9,167.9z"/>
		<path class="st4" d="M496.9,184.8h-25.3c-0.6,0-1,0.4-1,1s0.4,1,1,1h25.3c0.6,0,1-0.4,1-1S497.5,184.8,496.9,184.8z"/>
		<path class="st4" d="M458.7,128.9c-3.3,0-6,2.7-6,6s2.7,6,6,6s6-2.7,6-6S462,128.9,458.7,128.9z M458.7,138.9c-2.2,0-4-1.8-4-4
			s1.8-4,4-4s4,1.8,4,4S460.9,138.9,458.7,138.9z"/>
		<path class="st4" d="M458.7,146c-3.3,0-6,2.7-6,6c0,3.3,2.7,6,6,6s6-2.7,6-6C464.7,148.7,462,146,458.7,146z M458.7,156.1
			c-2.2,0-4-1.8-4-4c0-2.2,1.8-4,4-4s4,1.8,4,4C462.7,154.3,460.9,156.1,458.7,156.1z"/>
		<path class="st4" d="M458.7,162.8c-3.3,0-6,2.7-6,6c0,3.3,2.7,6,6,6s6-2.7,6-6C464.7,165.5,462,162.8,458.7,162.8z M458.7,172.9
			c-2.2,0-4-1.8-4-4c0-2.2,1.8-4,4-4s4,1.8,4,4C462.7,171.1,460.9,172.9,458.7,172.9z"/>
		<path class="st4" d="M458.7,179.6c-3.3,0-6,2.7-6,6c0,3.3,2.7,6,6,6s6-2.7,6-6C464.7,182.3,462,179.6,458.7,179.6z M458.7,189.7
			c-2.2,0-4-1.8-4-4c0-2.2,1.8-4,4-4s4,1.8,4,4C462.7,187.9,460.9,189.7,458.7,189.7z"/>
		<path class="st4" d="M520.5,118.2h-10c-0.6,0-1,0.4-1,1s0.4,1,1,1h10c0.6,0,1-0.4,1-1S521.1,118.2,520.5,118.2z"/>
		<path class="st4" d="M510.8,115.3c0.3,0,0.5-0.1,0.7-0.3l7.1-7.1c0.4-0.4,0.4-1,0-1.4s-1-0.4-1.4,0l-7.1,7.1c-0.4,0.4-0.4,1,0,1.4
			C510.3,115.2,510.6,115.3,510.8,115.3z"/>
		<path class="st4" d="M505.3,115.5c0.6,0,1-0.4,1-1V105c0-0.6-0.4-1-1-1s-1,0.4-1,1v9.5C504.3,115.1,504.7,115.5,505.3,115.5z"/>
	</g>
</g>
<path id="Path_521" class="st4" d="M29.8,48.1c0-0.8,0.7-1.5,1.5-1.5c0.8,0,1.5,0.7,1.5,1.5c0,0.8-0.7,1.5-1.5,1.5l0,0
	C30.5,49.6,29.8,48.9,29.8,48.1z"/>
</svg>
