<?xml version="1.0" encoding="utf-8"?>
<!-- Generator: Adobe Illustrator 25.0.0, SVG Export Plug-In . SVG Version: 6.00 Build 0)  -->
<svg version="1.1" id="Layer_1" xmlns="http://www.w3.org/2000/svg" xmlns:xlink="http://www.w3.org/1999/xlink" x="0px" y="0px"
	 viewBox="0 0 100 100" style="enable-background:new 0 0 100 100;" xml:space="preserve">
<style type="text/css">
	.st0{fill:#2C5871;}
	.st1{fill:#FBB600;}
	.st2{fill:#F0EDDA;}
	.st3{fill:#1786A3;}
</style>
<g id="c-portion" transform="translate(-17 -526)">
	<path class="st0" d="M26.6,626c-1.9,0-3.7-0.7-5-2.1c-1.3-1.3-2.1-3.1-2.1-5v-85.8c0-3.9,3.2-7.1,7.1-7.1c0,0,0,0,0,0h62.9
		c0,0,0,0,0,0c3.9,0,7.1,3.2,7.1,7.1v23.5c0,0.6-0.4,1-1,1c-0.6,0-1-0.4-1-1v-23.5c0-2.8-2.3-5.1-5.1-5.1c0,0,0,0,0,0H26.6
		c0,0,0,0,0,0c-2.8,0-5.1,2.3-5.1,5.1v85.8c0,1.4,0.5,2.7,1.5,3.6c1,1,2.3,1.5,3.6,1.5c0,0,0,0,0,0h62.9c0,0,0,0,0,0
		c1.4,0,2.7-0.5,3.6-1.5c1-1,1.5-2.3,1.5-3.6v-2.5c0-0.6,0.4-1,1-1c0.6,0,1,0.4,1,1v2.5c0,1.9-0.7,3.7-2.1,5c-1.3,1.3-3.1,2.1-5,2.1
		c0,0,0,0,0,0H26.6C26.6,626,26.6,626,26.6,626z"/>
	<g>
		<path id="Path_735_1_" class="st1" d="M97.4,562L97.4,562c0.8,2.1,3.1,3.2,5.2,2.5c0.1,0,0.3-0.1,0.4-0.2c2-1,4.5-0.1,5.5,1.9
			c0.5,1.1,0.5,2.4,0,3.5c-1,2-0.1,4.5,1.9,5.4c0.1,0.1,0.3,0.1,0.4,0.2c2.1,0.7,3.2,3.1,2.5,5.2c-0.4,1.2-1.3,2.1-2.5,2.5
			c-2.1,0.8-3.2,3.1-2.5,5.2c0,0.1,0.1,0.3,0.2,0.4c1,2,0.1,4.5-1.9,5.4c-1.1,0.5-2.4,0.5-3.5,0c-2-1-4.5-0.1-5.5,1.9
			c-0.1,0.1-0.1,0.2-0.2,0.4c-0.8,2.1-3.1,3.2-5.2,2.5c-1.2-0.4-2.1-1.3-2.5-2.5c-0.8-2.1-3.1-3.2-5.2-2.5c-0.1,0-0.3,0.1-0.4,0.2
			c-2,1-4.5,0.1-5.5-1.9c-0.5-1.1-0.5-2.4,0-3.5c1-2,0.1-4.5-1.9-5.4c-0.1-0.1-0.3-0.1-0.4-0.2c-2.1-0.7-3.2-3.1-2.5-5.2
			c0.4-1.2,1.3-2.1,2.5-2.5c2.1-0.8,3.2-3.1,2.5-5.2c0-0.1-0.1-0.3-0.2-0.4c-1-2-0.1-4.5,1.9-5.4c1.1-0.5,2.4-0.5,3.5,0
			c2,1,4.5,0.1,5.5-1.9c0.1-0.1,0.1-0.2,0.2-0.4c0.8-2.1,3.1-3.2,5.2-2.5C96.1,559.9,97,560.8,97.4,562z"/>
		<path class="st0" d="M93.6,600.1c-0.6,0-1.2-0.1-1.7-0.3c-1.4-0.5-2.6-1.6-3.1-3.1c-0.3-0.8-0.8-1.4-1.6-1.8
			c-0.7-0.4-1.6-0.4-2.4-0.1c-0.1,0-0.2,0.1-0.3,0.1c-1.2,0.6-2.6,0.7-3.9,0.2c-1.3-0.5-2.3-1.4-2.9-2.6c-0.7-1.4-0.7-3,0-4.4
			c0.4-0.7,0.4-1.6,0.1-2.4c-0.3-0.8-0.8-1.4-1.6-1.8c-0.1,0-0.2-0.1-0.3-0.1c-1.3-0.5-2.3-1.4-2.9-2.6c-0.6-1.2-0.7-2.6-0.2-3.9
			c0.5-1.5,1.6-2.6,3.1-3.1c0.8-0.3,1.4-0.8,1.8-1.6s0.4-1.6,0.1-2.4c0-0.1-0.1-0.2-0.1-0.3c-0.6-1.2-0.7-2.6-0.2-3.9
			c0.5-1.3,1.4-2.3,2.6-2.9c1.4-0.7,3-0.7,4.4,0c0.7,0.4,1.6,0.4,2.4,0.1c0.8-0.3,1.4-0.8,1.8-1.6c0-0.1,0.1-0.2,0.1-0.3
			c1-2.7,3.9-4,6.5-3.1c1.4,0.5,2.6,1.6,3.1,3.1c0,0,0,0,0,0c0.6,1.6,2.4,2.4,4,1.9c0.1,0,0.2-0.1,0.3-0.1c2.5-1.2,5.6-0.1,6.8,2.4
			c0.7,1.4,0.7,3,0,4.4c-0.7,1.5-0.1,3.4,1.5,4.1c0.1,0,0.2,0.1,0.3,0.1c1.3,0.5,2.3,1.4,2.9,2.6c0.6,1.2,0.7,2.6,0.2,3.9
			c-0.5,1.5-1.6,2.6-3.1,3.1c-0.8,0.3-1.4,0.8-1.8,1.6s-0.4,1.6-0.1,2.4c0,0.1,0.1,0.2,0.1,0.3c0.6,1.2,0.7,2.6,0.2,3.9
			c-0.5,1.3-1.4,2.3-2.6,2.9c-1.4,0.7-3,0.7-4.4,0c-1.5-0.7-3.4-0.1-4.1,1.5c0,0.1-0.1,0.2-0.1,0.3c-0.5,1.3-1.4,2.3-2.6,2.9
			C95.1,599.9,94.3,600.1,93.6,600.1z M85.9,592.6c0.7,0,1.5,0.2,2.2,0.5c1.2,0.6,2.2,1.6,2.6,2.9c0.3,0.9,1,1.6,1.9,1.9
			c0.8,0.3,1.6,0.2,2.4-0.1c0.7-0.4,1.3-1,1.6-1.8c0.1-0.2,0.1-0.3,0.2-0.5c1.2-2.5,4.3-3.6,6.8-2.4c0.8,0.4,1.8,0.4,2.7,0
			c0.7-0.4,1.3-1,1.6-1.8c0.3-0.8,0.2-1.6-0.1-2.4c-0.1-0.2-0.1-0.3-0.2-0.5c-0.5-1.3-0.4-2.7,0.2-3.9s1.6-2.2,2.9-2.6
			c0.9-0.3,1.6-1,1.9-1.9c0.3-0.8,0.2-1.6-0.1-2.4c-0.4-0.7-1-1.3-1.8-1.6c-0.2-0.1-0.3-0.1-0.5-0.2c-2.5-1.2-3.6-4.2-2.4-6.8
			c0.4-0.8,0.4-1.8,0-2.7c-0.7-1.5-2.6-2.2-4.1-1.5c-0.2,0.1-0.3,0.1-0.5,0.2c-1.3,0.5-2.7,0.4-3.9-0.2c-1.2-0.6-2.2-1.6-2.6-2.9
			c-0.3-0.9-1-1.6-1.9-1.9c-1.6-0.6-3.4,0.3-4,1.9c-0.1,0.2-0.1,0.3-0.2,0.5c-0.6,1.2-1.6,2.2-2.9,2.6c-1.3,0.5-2.7,0.4-3.9-0.2
			c-0.8-0.4-1.8-0.4-2.7,0c-0.7,0.4-1.3,1-1.6,1.8c-0.3,0.8-0.2,1.6,0.1,2.4c0.1,0.2,0.1,0.3,0.2,0.5c0.5,1.3,0.4,2.7-0.2,3.9
			c-0.6,1.2-1.6,2.1-2.9,2.6c-0.9,0.3-1.6,1-1.9,1.9c-0.3,0.8-0.2,1.6,0.1,2.4c0.4,0.7,1,1.3,1.8,1.6c0.2,0.1,0.3,0.1,0.5,0.2
			c1.2,0.6,2.2,1.6,2.6,2.9c0.5,1.3,0.4,2.7-0.2,3.9c-0.4,0.8-0.4,1.8,0,2.6c0.4,0.7,1,1.3,1.8,1.6c0.8,0.3,1.6,0.2,2.4-0.1
			c0.2-0.1,0.3-0.1,0.5-0.2C84.7,592.8,85.3,592.6,85.9,592.6z"/>
	</g>
	<g>
		<path id="Path_736_1_" class="st2" d="M99.6,616.8l-6.1-4.7l-7,5c-1,0.7-2.4,0.5-3.1-0.5c-0.3-0.4-0.4-0.8-0.4-1.3v-15.9
			c0-0.6,0.5-1.2,1.2-1.2c0.2,0,0.4,0.1,0.6,0.2l4.8,3.9c2.2,1.3,4.9,1.3,7.1,0l4.8-3.9c0.6-0.3,1.3-0.1,1.6,0.4
			c0.1,0.2,0.2,0.4,0.2,0.6V615c0,1.2-1,2.2-2.2,2.2C100.5,617.2,100,617.1,99.6,616.8z"/>
		<path class="st0" d="M85.3,618.4c-0.2,0-0.3,0-0.5,0c-0.8-0.1-1.6-0.6-2.1-1.3c-0.4-0.5-0.6-1.2-0.6-1.9v-15.9
			c0-0.6,0.2-1.1,0.6-1.5c0.4-0.4,0.9-0.6,1.5-0.6c0,0,0,0,0,0c0.4,0,0.8,0.1,1.1,0.3c0,0,0.1,0.1,0.1,0.1l4.7,3.8
			c1.8,1,4.1,1,5.9,0l4.7-3.8c0,0,0.1-0.1,0.1-0.1c0.5-0.3,1.1-0.4,1.6-0.2c0.6,0.1,1,0.5,1.3,1c0.2,0.3,0.3,0.7,0.3,1.1V615
			c0,1.8-1.4,3.2-3.2,3.2c0,0,0,0,0,0c-0.7,0-1.4-0.2-2-0.7l-5.5-4.3l-6.4,4.6C86.6,618.2,86,618.4,85.3,618.4z M84.3,599.2
			c-0.1,0-0.1,0-0.1,0c0,0,0,0.1,0,0.1v15.9c0,0.3,0.1,0.5,0.2,0.7c0.2,0.3,0.5,0.4,0.8,0.5c0.3,0,0.6,0,0.9-0.2l7-5
			c0.4-0.3,0.9-0.2,1.2,0l6.1,4.7c0,0,0,0,0,0c0.2,0.2,0.5,0.3,0.7,0.3c0,0,0,0,0,0c0.7,0,1.2-0.5,1.2-1.2v-15.7
			c-0.1-0.1-0.1-0.2-0.2-0.1l-4.7,3.8c0,0-0.1,0.1-0.1,0.1c-2.5,1.5-5.6,1.5-8.1,0c0,0-0.1-0.1-0.1-0.1L84.3,599.2
			C84.3,599.2,84.3,599.2,84.3,599.2z"/>
	</g>
	<path class="st0" d="M91.3,550.4H76.9c-2.5-0.1-4.5-2.2-4.4-4.7l0-14.6c0-0.6,0.4-1,1-1c0.6,0,1,0.4,1,1v14.7
		c-0.1,1.4,1,2.6,2.5,2.7l14.3,0c0.6,0,1,0.4,1,1S91.9,550.4,91.3,550.4z"/>
	<path class="st0" d="M73.6,563.8H30.7c-0.6,0-1-0.4-1-1s0.4-1,1-1h42.9c0.6,0,1,0.4,1,1S74.1,563.8,73.6,563.8z"/>
	<path class="st0" d="M68.9,579.3H30.7c-0.6,0-1-0.4-1-1s0.4-1,1-1h38.2c0.6,0,1,0.4,1,1S69.4,579.3,68.9,579.3z"/>
	<path class="st0" d="M74.5,594.9H30.7c-0.6,0-1-0.4-1-1s0.4-1,1-1h43.8c0.6,0,1,0.4,1,1S75.1,594.9,74.5,594.9z"/>
	<path class="st0" d="M79.2,610.5H30.7c-0.6,0-1-0.4-1-1s0.4-1,1-1h48.5c0.6,0,1,0.4,1,1S79.8,610.5,79.2,610.5z"/>
	<g>
		<path class="st3" d="M41.5,538.5c-0.1-0.4-0.5-0.7-0.9-0.7h-1.2c-0.4,0-0.8,0.3-0.9,0.7L33.3,553c-0.2,0.5,0.1,1.1,0.6,1.3
			c0.1,0,0.2,0.1,0.3,0.1c0.4,0,0.8-0.3,0.9-0.7l1.7-4.7h6.2l1.7,4.7c0.2,0.5,0.8,0.8,1.3,0.6c0.5-0.2,0.8-0.8,0.6-1.3L41.5,538.5z
			 M37.5,546.9l2.4-6.8l2.4,6.8H37.5z"/>
		<path class="st3" d="M60.1,546.5h-4.9v-4.9c0-0.6-0.4-1-1-1c-0.6,0-1,0.4-1,1v4.9h-4.9c-0.6,0-1,0.4-1,1s0.4,1,1,1h4.9v4.9
			c0,0.6,0.4,1,1,1c0.6,0,1-0.4,1-1v-4.9h4.9c0.6,0,1-0.4,1-1S60.6,546.5,60.1,546.5z"/>
	</g>
</g>
</svg>
