<?xml version="1.0" encoding="utf-8"?>
<!-- Generator: Adobe Illustrator 25.0.0, SVG Export Plug-In . SVG Version: 6.00 Build 0)  -->
<svg version="1.1" id="Layer_1" xmlns="http://www.w3.org/2000/svg" xmlns:xlink="http://www.w3.org/1999/xlink" x="0px" y="0px"
	 viewBox="0 0 100 100" style="enable-background:new 0 0 100 100;" xml:space="preserve">
<style type="text/css">
	.st0{fill:#1786A3;}
	.st1{fill:#2C5871;}
	.st2{fill:#FBB600;}
</style>
<g id="c-preview-complaints" transform="translate(-430.679 -103.306)">
	<path id="Path_281" class="st0" d="M482.8,202.3v-12.9c0-7.1-12.5-10.7-19.2-10.7s-19.2,3.6-19.2,10.7v12.9"/>
	<path class="st1" d="M482.8,203.3c-0.6,0-1-0.4-1-1v-12.9c0-6.3-12-9.7-18.2-9.7c-6.2,0-18.2,3.4-18.2,9.7v12.9c0,0.6-0.4,1-1,1
		s-1-0.4-1-1v-12.9c0-7.8,12.9-11.7,20.2-11.7c7.2,0,20.2,3.9,20.2,11.7v12.9C483.8,202.9,483.4,203.3,482.8,203.3z"/>
	<path class="st1" d="M476.4,128.7c-0.6,0-1-0.4-1-1v-10.7c0-0.6,0.4-1,1-1s1,0.4,1,1v10.7C477.4,128.3,477,128.7,476.4,128.7z"/>
	<path class="st1" d="M487.1,128.7c-0.6,0-1-0.4-1-1v-10.7c0-0.6,0.4-1,1-1s1,0.4,1,1v10.7C488.1,128.3,487.6,128.7,487.1,128.7z"/>
	<path class="st1" d="M494.5,143.7c-0.4,0-0.8-0.2-0.9-0.6c-1.3-3.2-3.8-5.6-7-6.9c-3.2-1.3-6.7-1.3-9.8,0.1
		c-3.1,1.3-5.5,3.7-6.8,6.8c-0.2,0.5-0.8,0.7-1.3,0.5c-0.5-0.2-0.7-0.8-0.5-1.3c1.5-3.6,4.3-6.4,7.9-7.9c3.7-1.5,7.7-1.6,11.4-0.1
		c3.7,1.5,6.6,4.3,8.1,8c0.2,0.5,0,1.1-0.5,1.3C494.8,143.6,494.6,143.7,494.5,143.7z"/>
	<path id="Path_286" class="st2" d="M463.6,172.5L463.6,172.5c-5.9,0-10.6-4.8-10.7-10.7v-2.1c0-5.9,4.8-10.6,10.7-10.7l0,0
		c5.9,0,10.6,4.8,10.7,10.7v2.1C474.3,167.7,469.5,172.5,463.6,172.5z"/>
	<path class="st1" d="M463.6,173.5C463.6,173.5,463.6,173.5,463.6,173.5c-6.4,0-11.6-5.2-11.7-11.6v-2.1c0-6.4,5.2-11.6,11.6-11.7
		c6.4,0,11.6,5.2,11.7,11.6v2.1C475.3,168.2,470,173.5,463.6,173.5C463.6,173.5,463.6,173.5,463.6,173.5z M463.6,150
		c-5.3,0-9.6,4.3-9.6,9.7v2.1c0,5.3,4.3,9.6,9.7,9.7c5.3,0,9.6-4.3,9.7-9.7v-2.1C473.3,154.4,468.9,150.1,463.6,150z"/>
</g>
<path class="st1" d="M56.4,72.2c-0.9,0-1.7-0.4-2.4-1.1c-0.5-0.6-0.7-1.3-0.7-2V55.3h-5.4c-0.6,0-1-0.4-1-1c0-0.6,0.4-1,1-1h6.4
	c0.6,0,1,0.4,1,1v14.9c0,0.2,0.1,0.5,0.3,0.7c0.4,0.4,1.1,0.5,1.5,0.2l15-16.4c0.2-0.2,0.5-0.3,0.7-0.3h13.4c3,0,5.4-2.4,5.4-5.4
	V7.4c0-3-2.4-5.4-5.4-5.4H13.8c-3,0-5.4,2.4-5.4,5.4v40.5c0,3,2.4,5.4,5.4,5.4H18c0.6,0,1,0.4,1,1c0,0.6-0.4,1-1,1h-4.3
	c-4.1,0-7.4-3.3-7.4-7.4V7.4C6.4,3.3,9.7,0,13.8,0h72.4c4.1,0,7.4,3.3,7.4,7.4v40.5c0,4.1-3.3,7.4-7.4,7.4h-13L58.5,71.4
	c0,0-0.1,0.1-0.1,0.1C57.8,72,57.1,72.2,56.4,72.2z"/>
</svg>
