<?xml version="1.0" encoding="utf-8"?>
<!-- Generator: Adobe Illustrator 25.0.0, SVG Export Plug-In . SVG Version: 6.00 Build 0)  -->
<svg version="1.1" id="Layer_1" xmlns="http://www.w3.org/2000/svg" xmlns:xlink="http://www.w3.org/1999/xlink" x="0px" y="0px"
	 viewBox="0 0 100 100" style="enable-background:new 0 0 100 100;" xml:space="preserve">
<style type="text/css">
	.st0{fill:#FBB600;}
	.st1{fill:#F0EDDA;}
	.st2{fill:#1786A3;}
	.st3{fill:#2C5871;}
</style>
<g id="c-preview-message" transform="translate(-1425.887 -780.887)">
	<path id="Path_749_1_" class="st0" d="M1466.2,822.2h-17.4c-2.1,0-3.9-1.7-3.9-3.8v-32.7c0-2.1,1.7-3.8,3.9-3.8h54
		c2.1,0,3.9,1.7,3.9,3.8v32.7c0,2.1-1.7,3.8-3.9,3.8h-1.9v7.7c0,1.1-0.9,1.9-1.9,1.9c-0.6,0-1.2-0.3-1.5-0.8l-8.1-8.8h-3.9"/>
	<path id="Path_750_1_" class="st1" d="M1470.1,873.6v-3.4c0-1.6-5.5-6.4-6.8-8.5c-0.8-1.3-6.7-18-6.7-18c0-1.9,4.7-4.2,7.8,0l5,7.8
		l2.6-2.5v-28.8c0-2.1,1.7-3.9,3.9-3.9c2.1,0,3.9,1.7,3.9,3.9v13.5h3.9c1.5,0.1,2.9,0.8,3.9,1.9h3.9c2.1,0.1,3.8,1.8,3.9,3.8h3.9
		c2.1,0.1,3.8,1.8,3.9,3.8v19.2c0,3.9-3.9,7-3.9,9.6v1.6"/>
	<path id="Path_751_1_" class="st2" d="M1502.9,879.9v-5.8h-36.7v5.8"/>
	<g>
		<path class="st3" d="M1502.9,780.9C1502.9,780.9,1502.9,780.9,1502.9,780.9h-54c0,0,0,0,0,0c-2.7,0-4.8,2.2-4.8,4.8v32.7
			c0,2.7,2.2,4.8,4.9,4.8c0,0,0,0,0,0h17.4c0.6,0,1-0.4,1-1s-0.4-1-1-1h-17.4c0,0,0,0,0,0c-1.6,0-2.9-1.3-2.9-2.8v-32.7
			c0-1.6,1.3-2.8,2.9-2.8c0,0,0,0,0,0h54c0,0,0,0,0,0c1.6,0,2.8,1.3,2.8,2.8v32.7c0,1.6-1.3,2.8-2.9,2.8c0,0,0,0,0,0h-1.9
			c-0.6,0-1,0.4-1,1v7.7c0,0.5-0.4,0.9-0.9,0.9c0,0,0,0,0,0c-0.3,0-0.6-0.1-0.8-0.4l-8.1-8.8c-0.2-0.2-0.5-0.3-0.7-0.3h-3.9
			c-0.6,0-1,0.4-1,1s0.4,1,1,1h3.4l7.7,8.4c0.5,0.7,1.4,1.2,2.3,1.2c0,0,0,0,0,0c1.6,0,2.9-1.3,2.9-2.9v-6.7h0.9c0,0,0,0,0,0
			c2.7,0,4.8-2.2,4.9-4.8v-32.7C1507.7,783.1,1505.6,780.9,1502.9,780.9z"/>
		<path class="st3" d="M1501.5,868.9c1.1-1.8,2.4-3.9,2.4-6.3l0-19.3c-0.1-2.6-2.2-4.7-4.9-4.8h-3c-0.5-2.1-2.4-3.7-4.7-3.8h-3.4
			c-1.1-1.2-2.7-1.9-4.3-1.9h-2.9v-12.5c0-2.7-2.2-4.9-4.9-4.9c0,0,0,0,0,0c-1.3,0-2.5,0.5-3.4,1.4c-0.9,0.9-1.4,2.1-1.4,3.4v28.4
			l-1.4,1.3l-4.4-6.8c-1.7-2.4-4.3-3.3-6.8-2.5c-1.7,0.6-2.9,1.8-2.9,3.1c0,0.1,0,0.2,0.1,0.3c1,2.8,5.9,16.9,6.8,18.2
			c0.6,0.9,1.8,2.1,3,3.5c1.3,1.4,3.6,3.8,3.6,4.5v2.8h-2.9c-0.6,0-1,0.4-1,1v5.8c0,0.6,0.4,1,1,1s1-0.4,1-1v-4.8h34.7v4.8
			c0,0.6,0.4,1,1,1s1-0.4,1-1v-5.8c0-0.6-0.4-1-1-1h-2.9v-0.9C1500,871.3,1500.8,870.1,1501.5,868.9z M1471.1,873.1v-2.8
			c0-1.3-1.6-3.1-4.2-5.8c-1.1-1.2-2.3-2.4-2.8-3.2c-0.6-0.9-4.3-11.2-6.5-17.6c0.1-0.3,0.6-0.8,1.5-1.1c0.8-0.3,2.8-0.6,4.5,1.7
			l5,7.8c0.2,0.2,0.4,0.4,0.7,0.4c0.3,0,0.6-0.1,0.8-0.3l2.6-2.5c0.2-0.2,0.3-0.4,0.3-0.7v-28.8c0-1.6,1.3-2.9,2.9-2.9c0,0,0,0,0,0
			c1.6,0,2.9,1.3,2.9,2.9v13.5c0,0.6,0.4,1,1,1l3.8,0c1.1,0,2.1,0.5,2.9,1.3v9.2c0,0.6,0.4,1,1,1s1-0.4,1-1v-8.6l2.8,0
			c1.6,0.1,2.8,1.3,2.9,2.9v7.6c0,0.6,0.4,1,1,1s1-0.4,1-1v-6.7l2.8,0c1.6,0.1,2.8,1.3,2.9,2.8v19.2c0,1.9-1.1,3.6-2.1,5.2
			c-0.9,1.5-1.8,2.9-1.8,4.4v0.9H1471.1z"/>
	</g>
</g>
</svg>
