<?xml version="1.0" encoding="utf-8"?>
<!-- Generator: Adobe Illustrator 25.0.0, SVG Export Plug-In . SVG Version: 6.00 Build 0)  -->
<svg version="1.1" id="Layer_1" xmlns="http://www.w3.org/2000/svg" xmlns:xlink="http://www.w3.org/1999/xlink" x="0px" y="0px"
	 viewBox="0 0 100 100" style="enable-background:new 0 0 100 100;" xml:space="preserve">
<style type="text/css">
	.st0{fill:#FBB600;}
	.st1{fill:#1786A3;}
	.st2{fill:#2C5871;}
</style>
<g id="c-preview-survey" transform="translate(-478.753 -102.786)">
	<rect id="Rectangle_135" x="518.1" y="175.9" class="st0" width="22.8" height="5"/>
	<path id="Path_289" class="st1" d="M577.8,176.2h-38.3l-4.3,4.3h-10.7l-6.4-4.3h-38.3v4.3c0,4.7,3.8,8.5,8.5,8.5c0,0,0,0,0,0h81
		c4.7,0,8.5-3.8,8.5-8.5V176.2z"/>
	<path class="st0" d="M507.4,136.7L507.4,136.7c-0.3,0-0.5-0.1-0.7-0.3l-4.3-4.3c-0.4-0.4-0.4-1,0-1.4c0.4-0.4,1-0.4,1.4,0l3.6,3.6
		l7.8-7.8c0.4-0.4,1-0.4,1.4,0s0.4,1,0,1.4l-8.5,8.5C508,136.6,507.7,136.7,507.4,136.7z"/>
	<path class="st0" d="M507.4,151.7C507.4,151.7,507.4,151.7,507.4,151.7c-0.3,0-0.5-0.1-0.7-0.3l-4.3-4.3c-0.4-0.4-0.4-1,0-1.4
		c0.4-0.4,1-0.4,1.4,0l3.6,3.6l7.8-7.8c0.4-0.4,1-0.4,1.4,0s0.4,1,0,1.4l-8.5,8.5C508,151.6,507.7,151.7,507.4,151.7z"/>
	<path class="st0" d="M507.4,166.6c-0.3,0-0.5-0.1-0.7-0.3l-4.3-4.3c-0.4-0.4-0.4-1,0-1.4s1-0.4,1.4,0l3.6,3.6l7.8-7.8
		c0.4-0.4,1-0.4,1.4,0s0.4,1,0,1.4l-8.5,8.5C508,166.5,507.7,166.6,507.4,166.6z"/>
	<g>
		<path class="st2" d="M577.8,175.2h-5.4v-54.4c0-2.9-2.4-5.3-5.3-5.3h-76.7c-2.9,0-5.3,2.4-5.3,5.3v54.4h-5.4c-0.6,0-1,0.4-1,1v4.3
			c0,5.3,4.3,9.5,9.5,9.5h81c5.2,0,9.5-4.3,9.5-9.5v-4.3C578.8,175.7,578.3,175.2,577.8,175.2z M487.1,120.8c0-1.8,1.5-3.3,3.3-3.3
			h76.7c1.8,0,3.3,1.5,3.3,3.3v54.4h-31c-0.3,0-0.5,0.1-0.7,0.3l-4,4h-9.9l-6.1-4.1c-0.2-0.1-0.4-0.2-0.6-0.2h-31V120.8z
			 M576.8,180.5c0,4.1-3.4,7.5-7.5,7.5h-81c-4.1,0-7.5-3.4-7.5-7.5v-3.3h37l6.1,4.1c0.2,0.1,0.4,0.2,0.6,0.2h10.7
			c0.3,0,0.5-0.1,0.7-0.3l4-4h36.9V180.5z"/>
		<path class="st2" d="M522.4,132.5h29.8c0.6,0,1-0.4,1-1s-0.4-1-1-1h-29.8c-0.6,0-1,0.4-1,1S521.8,132.5,522.4,132.5z"/>
		<path class="st2" d="M522.4,147.4h29.8c0.6,0,1-0.4,1-1s-0.4-1-1-1h-29.8c-0.6,0-1,0.4-1,1S521.8,147.4,522.4,147.4z"/>
		<path class="st2" d="M522.4,162.3h29.8c0.6,0,1-0.4,1-1s-0.4-1-1-1h-29.8c-0.6,0-1,0.4-1,1S521.8,162.3,522.4,162.3z"/>
	</g>
</g>
</svg>
