<?xml version="1.0" encoding="utf-8"?>
<!-- Generator: Adobe Illustrator 25.0.0, SVG Export Plug-In . SVG Version: 6.00 Build 0)  -->
<svg version="1.1" id="c-quiz-report" xmlns="http://www.w3.org/2000/svg" xmlns:xlink="http://www.w3.org/1999/xlink" x="0px"
	 y="0px" viewBox="0 0 100 100" style="enable-background:new 0 0 100 100;" xml:space="preserve">
<style type="text/css">
	.st0{fill:#1786A3;}
	.st1{fill:#F0EDDA;}
	.st2{fill:#FBB600;}
	.st3{fill:#2C5871;}
</style>
<rect id="Rectangle_684" x="1.3" y="4.5" class="st0" width="74.3" height="12.8"/>
<path id="Path_792_1_" class="st1" d="M24.4,48.9H9.5V27.6h14.9"/>
<g id="Group_908">
	<g>
		<g id="Group_907">
			<path id="Path_793_1_" class="st2" d="M94.7,27.6H35.1c-2.4,0-4.3,1.9-4.3,4.3v32c0,2.4,1.9,4.3,4.3,4.3h8.5L50,78.8l6.4-10.7
				h38.3c2.4,0,4.3-1.9,4.3-4.3v-32C99,29.5,97.1,27.6,94.7,27.6z"/>
			<g>
				<path class="st3" d="M75.6,71.4c-0.6,0-1,0.4-1,1v22.4H2V18h72.6v5.4c0,0.6,0.4,1,1,1s1-0.4,1-1V4.2c0-0.6-0.4-1-1-1H1
					c-0.6,0-1,0.4-1,1v91.6c0,0.6,0.4,1,1,1h74.6c0.6,0,1-0.4,1-1V72.4C76.6,71.8,76.1,71.4,75.6,71.4z M74.6,5.2V16H2V5.2H74.6z"/>
				<path class="st3" d="M7.4,11.6h4.3c0.6,0,1-0.4,1-1s-0.4-1-1-1H7.4c-0.6,0-1,0.4-1,1S6.8,11.6,7.4,11.6z"/>
				<path class="st3" d="M13.8,11.6H18c0.6,0,1-0.4,1-1s-0.4-1-1-1h-4.3c-0.6,0-1,0.4-1,1S13.2,11.6,13.8,11.6z"/>
				<path class="st3" d="M24.4,28.6c0.6,0,1-0.4,1-1s-0.4-1-1-1H9.5c-0.6,0-1,0.4-1,1v21.3c0,0.6,0.4,1,1,1h14.9c0.6,0,1-0.4,1-1
					s-0.4-1-1-1H10.5V28.6H24.4z"/>
				<path class="st3" d="M7.4,60.6h17c0.6,0,1-0.4,1-1s-0.4-1-1-1h-17c-0.6,0-1,0.4-1,1S6.8,60.6,7.4,60.6z"/>
				<path class="st3" d="M7.4,69.1h17c0.6,0,1-0.4,1-1s-0.4-1-1-1h-17c-0.6,0-1,0.4-1,1S6.8,69.1,7.4,69.1z"/>
				<path class="st3" d="M35.1,75.6H7.4c-0.6,0-1,0.4-1,1s0.4,1,1,1h27.7c0.6,0,1-0.4,1-1S35.6,75.6,35.1,75.6z"/>
				<path class="st3" d="M35.1,84.2H7.4c-0.6,0-1,0.4-1,1s0.4,1,1,1h27.7c0.6,0,1-0.4,1-1S35.6,84.2,35.1,84.2z"/>
				<path class="st3" d="M94.7,26.6H35.1c-2.9,0-5.3,2.4-5.3,5.3v32c0,2.9,2.4,5.3,5.3,5.3h8l6.1,10.2c0.2,0.3,0.5,0.5,0.9,0.5
					s0.7-0.2,0.9-0.5L57,69.1h37.8c2.9,0,5.3-2.4,5.3-5.3v-32C100,29,97.6,26.6,94.7,26.6z M98,63.8c0,1.8-1.5,3.3-3.3,3.3H56.4
					c-0.4,0-0.7,0.2-0.9,0.5L50,76.8l-5.5-9.2c-0.2-0.3-0.5-0.5-0.9-0.5h-8.5c-1.8,0-3.3-1.5-3.3-3.3v-32c0-1.8,1.5-3.3,3.3-3.3
					h59.7c1.8,0,3.3,1.5,3.3,3.3V63.8z"/>
				<path class="st3" d="M86.9,39.7c-0.4-0.4-1-0.4-1.4,0l-6.7,6.7L72,39.7c-0.4-0.4-1-0.4-1.4,0s-0.4,1,0,1.4l6.7,6.7l-6.7,6.7
					c-0.4,0.4-0.4,1,0,1.4c0.2,0.2,0.5,0.3,0.7,0.3s0.5-0.1,0.7-0.3l6.7-6.7l6.7,6.7c0.2,0.2,0.5,0.3,0.7,0.3s0.5-0.1,0.7-0.3
					c0.4-0.4,0.4-1,0-1.4l-6.7-6.7l6.7-6.7C87.3,40.7,87.3,40.1,86.9,39.7z"/>
				<path class="st3" d="M59.8,39.8l-10,14l-5.6-5.6c-0.4-0.4-1-0.4-1.4,0s-0.4,1,0,1.4l6.4,6.4c0.2,0.2,0.4,0.3,0.7,0.3
					c0,0,0.1,0,0.1,0c0.3,0,0.6-0.2,0.7-0.4L61.5,41c0.3-0.4,0.2-1.1-0.2-1.4C60.8,39.3,60.2,39.4,59.8,39.8z"/>
			</g>
		</g>
	</g>
</g>
</svg>
