<?xml version="1.0" encoding="utf-8"?>
<!-- Generator: Adobe Illustrator 25.0.0, SVG Export Plug-In . SVG Version: 6.00 Build 0)  -->
<svg version="1.1" id="Layer_1" xmlns="http://www.w3.org/2000/svg" xmlns:xlink="http://www.w3.org/1999/xlink" x="0px" y="0px"
	 viewBox="0 0 100 100" style="enable-background:new 0 0 100 100;" xml:space="preserve">
<style type="text/css">
	.st0{fill:#1786A3;}
	.st1{fill:#F0EDDA;}
	.st2{fill:#FBB600;}
	.st3{fill:#CCEEF5;}
	.st4{fill:#2C5871;}
</style>
<g id="c-reports" transform="translate(-1.174 -1.174)">
	<g id="Group_624" transform="translate(2.174 2.174)">
		<path id="Path_711" class="st0" d="M26.7,86.9v-20h8.9v20"/>
		<path id="Path_710" class="st1" d="M8.9,86.9V53.5h8.9v33.4"/>
		<path id="Path_712" class="st2" d="M44.8,51.2V38.1H98v13.1"/>
		<path id="Path_713" class="st3" d="M44.8,84.6V51.4H98v33.2"/>
		<g>
			<path class="st4" d="M73.5,90.3c-0.6,0-1,0.4-1,1v2.2c0,1.9-1.6,3.5-3.5,3.5H4.5C2.6,97,1,95.4,1,93.5V4.5C1,2.6,2.6,1,4.5,1
				h50.8l17.2,17.2v12.9c0,0.6,0.4,1,1,1s1-0.4,1-1V17.8c0-0.3-0.1-0.5-0.3-0.7L56.4-0.7C56.2-0.9,55.9-1,55.7-1H4.5
				C1.4-1-1,1.4-1,4.5v89.1c0,3,2.4,5.5,5.5,5.5H69c3,0,5.5-2.4,5.5-5.5v-2.2C74.5,90.8,74.1,90.3,73.5,90.3z"/>
			<path class="st4" d="M53.5,5.7c-0.6,0-1,0.4-1,1V20c0,0.6,0.4,1,1,1h13.4c0.6,0,1-0.4,1-1s-0.4-1-1-1H54.5V6.7
				C54.5,6.1,54,5.7,53.5,5.7z"/>
			<path class="st4" d="M98,36.9H87.9v-5.7c0-0.6-0.4-1-1-1s-1,0.4-1,1v5.7H56.7v-5.7c0-0.6-0.4-1-1-1s-1,0.4-1,1v5.7H44.5
				c-0.6,0-1,0.4-1,1v46.8c0,0.6,0.4,1,1,1H98c0.6,0,1-0.4,1-1V37.9C99,37.3,98.6,36.9,98,36.9z M54.7,38.9v3.5c0,0.6,0.4,1,1,1
				s1-0.4,1-1v-3.5h29.2v3.5c0,0.6,0.4,1,1,1s1-0.4,1-1v-3.5H97v11.4H45.5V38.9H54.7z M45.5,83.6V52.2H97v31.4H45.5z"/>
			<path class="st4" d="M17.8,87.9c0.6,0,1-0.4,1-1V53.5c0-0.6-0.4-1-1-1H8.9c-0.6,0-1,0.4-1,1v33.4c0,0.6,0.4,1,1,1s1-0.4,1-1V54.5
				h6.9v32.4C16.8,87.4,17.3,87.9,17.8,87.9z"/>
			<path class="st4" d="M35.6,87.9c0.6,0,1-0.4,1-1v-20c0-0.6-0.4-1-1-1h-8.9c-0.6,0-1,0.4-1,1v20c0,0.6,0.4,1,1,1s1-0.4,1-1v-19
				h6.9v19C34.6,87.4,35.1,87.9,35.6,87.9z"/>
			<path class="st4" d="M30,42.3c0-0.6-0.4-1-1-1H6.7c-0.6,0-1,0.4-1,1s0.4,1,1,1H29C29.5,43.3,30,42.9,30,42.3z"/>
			<path class="st4" d="M35.6,32.4h-29c-0.6,0-1,0.4-1,1s0.4,1,1,1h29c0.6,0,1-0.4,1-1S36.2,32.4,35.6,32.4z"/>
			<path class="st4" d="M35.6,23.5h-29c-0.6,0-1,0.4-1,1s0.4,1,1,1h29c0.6,0,1-0.4,1-1S36.2,23.5,35.6,23.5z"/>
		</g>
	</g>
</g>
</svg>
