<?xml version="1.0" encoding="utf-8"?>
<!-- Generator: Adobe Illustrator 25.0.0, SVG Export Plug-In . SVG Version: 6.00 Build 0)  -->
<svg version="1.1" id="Layer_1" xmlns="http://www.w3.org/2000/svg" xmlns:xlink="http://www.w3.org/1999/xlink" x="0px" y="0px"
	 viewBox="0 0 100 100" style="enable-background:new 0 0 100 100;" xml:space="preserve">
<style type="text/css">
	.st0{fill:#1786A3;}
	.st1{fill:#F0EDDA;}
	.st2{fill:#FBB600;}
	.st3{fill:#2C5871;}
</style>
<g id="c-report-card" transform="translate(-0.875 -0.875)">
	<path class="st0" d="M17.3,85.1c-0.1,0-0.3,0-0.4-0.1c-0.5-0.2-0.7-0.8-0.5-1.3l6.8-15.8c0.2-0.4,0.5-0.6,0.9-0.6l0,0
		c0.4,0,0.8,0.2,0.9,0.6l6.8,15.8c0.2,0.5,0,1.1-0.5,1.3c-0.5,0.2-1.1,0-1.3-0.5L24,70.8l-5.9,13.7C18,84.8,17.7,85.1,17.3,85.1z"/>
	<path class="st0" d="M27.8,79h-7.5c-0.6,0-1-0.4-1-1s0.4-1,1-1h7.5c0.6,0,1,0.4,1,1S28.4,79,27.8,79z"/>
	<path class="st0" d="M33.8,75.3c-0.6,0-1-0.4-1-1v-6c0-0.6,0.4-1,1-1s1,0.4,1,1v6C34.8,74.8,34.4,75.3,33.8,75.3z"/>
	<path class="st0" d="M36.8,72.3h-6c-0.6,0-1-0.4-1-1s0.4-1,1-1h6c0.6,0,1,0.4,1,1S37.4,72.3,36.8,72.3z"/>
	<g id="Group_892">
		<g id="Group_894">
			<path id="Path_777_1_" class="st1" d="M31.9,31.9v3.2H16.1V19.3h15.8"/>
			<path id="Path_779_1_" class="st1" d="M31.9,57.2v3.2H16.1V44.6h15.8"/>
			<path id="Path_781_1_" class="st2" d="M90.4,95.1l-9.5-15.8V25.6c0-4.4,3.5-7.9,7.9-7.9H92c4.4,0,7.9,3.5,7.9,7.9v53.7L90.4,95.1
				z"/>
			<g>
				<path class="st3" d="M68.3,0.9H5C2.7,0.9,0.9,2.7,0.9,5v91.7c0,2.3,1.9,4.2,4.2,4.2h45.8c0.3,0,0.5-0.1,0.7-0.3L72.1,80
					c0.1-0.1,0.2-0.2,0.2-0.3c0.1-0.1,0.1-0.3,0.1-0.4V5C72.4,2.7,70.6,0.9,68.3,0.9z M50.5,98.9H5c-1.2,0-2.2-1-2.2-2.2V5
					c0-1.2,1-2.2,2.2-2.2h63.2c1.2,0,2.2,1,2.2,2.2v73.3h-18c-1.4,0-2.6,1.2-2.6,2.6v4.7c0,0.6,0.4,1,1,1s1-0.4,1-1v-4.7
					c0-0.3,0.3-0.6,0.6-0.6H69L50.5,98.9z"/>
				<path class="st3" d="M32.8,19.3c0-0.5-0.4-0.8-0.8-0.8H16.1c-0.5,0-0.8,0.4-0.8,0.8v15.8c0,0.5,0.4,0.8,0.8,0.8h15.8
					c0.5,0,0.8-0.4,0.8-0.8v-3.2c0-0.5-0.4-0.8-0.8-0.8s-0.8,0.4-0.8,0.8v2.3H16.9V20.1h15C32.4,20.1,32.8,19.7,32.8,19.3z"/>
				<path class="st3" d="M29.5,22.7l-5.3,6.7l-0.9-1.8c-0.2-0.5-0.8-0.7-1.3-0.4c-0.5,0.2-0.7,0.8-0.4,1.3l1.6,3.2
					c0.2,0.3,0.5,0.5,0.8,0.5c0,0,0.1,0,0.1,0c0.3,0,0.6-0.1,0.8-0.4l6.3-7.9c0.3-0.4,0.3-1.1-0.2-1.4
					C30.5,22.2,29.9,22.3,29.5,22.7z"/>
				<path class="st3" d="M41.4,26.6h7.9c0.6,0,1-0.4,1-1s-0.4-1-1-1h-7.9c-0.6,0-1,0.4-1,1S40.8,26.6,41.4,26.6z"/>
				<path class="st3" d="M41.4,36.1h17.4c0.6,0,1-0.4,1-1s-0.4-1-1-1H41.4c-0.6,0-1,0.4-1,1S40.8,36.1,41.4,36.1z"/>
				<path class="st3" d="M32.8,44.6c0-0.5-0.4-0.8-0.8-0.8H16.1c-0.5,0-0.8,0.4-0.8,0.8v15.8c0,0.5,0.4,0.8,0.8,0.8h15.8
					c0.5,0,0.8-0.4,0.8-0.8v-3.2c0-0.5-0.4-0.8-0.8-0.8s-0.8,0.4-0.8,0.8v2.3H16.9V45.4h15C32.4,45.4,32.8,45,32.8,44.6z"/>
				<path class="st3" d="M29.5,48l-5.3,6.7L23.3,53c-0.2-0.5-0.8-0.7-1.3-0.4c-0.5,0.2-0.7,0.8-0.4,1.3l1.6,3.2
					c0.2,0.3,0.5,0.5,0.8,0.5c0,0,0.1,0,0.1,0c0.3,0,0.6-0.1,0.8-0.4l6.3-7.9c0.3-0.4,0.3-1.1-0.2-1.4C30.5,47.5,29.9,47.6,29.5,48z
					"/>
				<path class="st3" d="M41.4,51.9h7.9c0.6,0,1-0.4,1-1c0-0.6-0.4-1-1-1h-7.9c-0.6,0-1,0.4-1,1C40.4,51.4,40.8,51.9,41.4,51.9z"/>
				<path class="st3" d="M59.8,60.4c0-0.6-0.4-1-1-1H41.4c-0.6,0-1,0.4-1,1s0.4,1,1,1h17.4C59.3,61.4,59.8,60.9,59.8,60.4z"/>
				<path class="st3" d="M100.9,39.8c0-0.2-0.1-0.4-0.2-0.5v-6.9c0.1-0.2,0.2-0.3,0.2-0.5s-0.1-0.4-0.2-0.5v-5.8
					c0-4.8-3.9-8.7-8.7-8.7h-3.2c-4.8,0-8.7,3.9-8.7,8.7v53.7c0,0.2,0,0.3,0.1,0.4l9.5,15.8c0.2,0.3,0.4,0.4,0.7,0.4
					s0.6-0.2,0.7-0.4l9.2-15.4c0.3-0.2,0.5-0.5,0.5-0.9c0-0.2-0.1-0.4-0.2-0.5V40.3C100.8,40.2,100.9,40,100.9,39.8z M91.4,78.3
					V40.8H99v37.5H91.4z M81.8,25.6c0-3.9,3.2-7.1,7.1-7.1H92c3.9,0,7.1,3.2,7.1,7.1v5.3h-8.6c-0.6,0-1,0.4-1,1s0.4,1,1,1H99v5.9
					H87.2c-0.6,0-1,0.4-1,1s0.4,1,1,1h2.2v37.5h-2.2c-0.6,0-1,0.4-1,1s0.4,1,1,1h11.1L91.9,91h-3l-7.1-11.9V25.6z M90.1,93h0.6
					l-0.3,0.5L90.1,93z"/>
			</g>
		</g>
	</g>
</g>
</svg>
