<?xml version="1.0" encoding="utf-8"?>
<!-- Generator: Adobe Illustrator 25.0.0, SVG Export Plug-In . SVG Version: 6.00 Build 0)  -->
<svg version="1.1" id="Layer_1" xmlns="http://www.w3.org/2000/svg" xmlns:xlink="http://www.w3.org/1999/xlink" x="0px" y="0px"
	 viewBox="0 0 100 100" style="enable-background:new 0 0 100 100;" xml:space="preserve">
<style type="text/css">
	.st0{fill:#1786A3;}
	.st1{fill:#FBB600;}
	.st2{fill:#2C5871;}
	.st3{fill:#F0EDDA;}
</style>
<g id="c-school-calendar" transform="translate(-397.869 -138.874)">
	<path id="Rectangle_244" class="st0" d="M401.8,149.7h74.8c1.6,0,2.9,1.3,2.9,2.9v14.5h-80.6v-14.5
		C398.9,151,400.2,149.7,401.8,149.7z"/>
	<g id="Group_450" transform="translate(398.869 139.874)">
		<circle id="Ellipse_39" class="st1" cx="74" cy="71.1" r="24"/>
		<path class="st2" d="M74,95.7c-13.8,0-25-11.2-25-25s11.2-25,25-25s25,11.2,25,25S87.8,95.7,74,95.7z M74,47.8
			c-12.7,0-23,10.3-23,23c0,12.7,10.3,23,23,23s23-10.3,23-23C97,58.1,86.7,47.8,74,47.8z"/>
		<path class="st2" d="M78.4,8.8H67.5c-0.6,0-1,0.4-1,1c0,0.6,0.4,1,1,1h10.9c0.6,0,1.2,0.5,1.2,1.2v14.2H1V12
			c0-0.6,0.5-1.2,1.2-1.2h10.9c0.6,0,1-0.4,1-1c0-0.6-0.4-1-1-1H2.2C0.4,8.8-1,10.2-1,12v58.8c0,0.8,0.3,1.6,0.9,2.2
			C0.5,73.6,1.3,74,2.2,74c0,0,0,0,0,0h43.6c0.6,0,1-0.4,1-1c0-0.6-0.4-1-1-1H2.2c0,0,0,0,0,0c-0.3,0-0.6-0.1-0.8-0.3
			C1.1,71.4,1,71.1,1,70.8V28.2h78.6v14.2c0,0.6,0.4,1,1,1c0.6,0,1-0.4,1-1V12C81.6,10.2,80.2,8.8,78.4,8.8z"/>
		<path class="st2" d="M74,78.2c-0.2,0-0.4-0.1-0.6-0.2l-8.7-6.5c-0.4-0.3-0.5-1-0.2-1.4c0.3-0.4,1-0.5,1.4-0.2l8,6l10.3-12.3
			c0.4-0.4,1-0.5,1.4-0.1c0.4,0.4,0.5,1,0.1,1.4L74.8,77.8C74.6,78,74.3,78.2,74,78.2z"/>
		<path class="st2" d="M63.2,17.3c-0.6,0-1-0.4-1-1V3.3c0-0.6,0.4-1,1-1s1,0.4,1,1v13.1C64.2,16.9,63.7,17.3,63.2,17.3z"/>
		<path class="st2" d="M58.8,10.8h-37c-0.6,0-1-0.4-1-1s0.4-1,1-1h37c0.6,0,1,0.4,1,1S59.4,10.8,58.8,10.8z"/>
		<path class="st2" d="M17.4,17.3c-0.6,0-1-0.4-1-1V3.3c0-0.6,0.4-1,1-1c0.6,0,1,0.4,1,1v13.1C18.4,16.9,18,17.3,17.4,17.3z"/>
		<path class="st3" d="M30.5,39.1H24c-0.6,0-1-0.4-1-1s0.4-1,1-1h6.5c0.6,0,1,0.4,1,1S31,39.1,30.5,39.1z"/>
		<path class="st3" d="M19.8,39.1h-6.5c-0.6,0-1-0.4-1-1s0.4-1,1-1h6.5c0.6,0,1,0.4,1,1S20.3,39.1,19.8,39.1z"/>
		<path class="st3" d="M41.4,39.1h-6.5c-0.6,0-1-0.4-1-1s0.4-1,1-1h6.5c0.6,0,1,0.4,1,1S41.9,39.1,41.4,39.1z"/>
		<path class="st3" d="M52.3,39.1h-6.5c-0.6,0-1-0.4-1-1s0.4-1,1-1h6.5c0.6,0,1,0.4,1,1S52.8,39.1,52.3,39.1z"/>
		<path class="st3" d="M63.2,39.1h-6.5c-0.6,0-1-0.4-1-1s0.4-1,1-1h6.5c0.6,0,1,0.4,1,1S63.7,39.1,63.2,39.1z"/>
		<path class="st3" d="M19.6,50h-6.5c-0.6,0-1-0.4-1-1c0-0.6,0.4-1,1-1h6.5c0.6,0,1,0.4,1,1C20.6,49.6,20.2,50,19.6,50z"/>
		<path class="st3" d="M30.5,50H24c-0.6,0-1-0.4-1-1c0-0.6,0.4-1,1-1h6.5c0.6,0,1,0.4,1,1C31.5,49.6,31,50,30.5,50z"/>
		<path class="st3" d="M41.4,50h-6.5c-0.6,0-1-0.4-1-1c0-0.6,0.4-1,1-1h6.5c0.6,0,1,0.4,1,1C42.4,49.6,41.9,50,41.4,50z"/>
		<path class="st3" d="M52.3,50h-6.5c-0.6,0-1-0.4-1-1c0-0.6,0.4-1,1-1h6.5c0.6,0,1,0.4,1,1C53.3,49.6,52.8,50,52.3,50z"/>
		<path class="st3" d="M19.6,60.9h-6.5c-0.6,0-1-0.4-1-1s0.4-1,1-1h6.5c0.6,0,1,0.4,1,1S20.2,60.9,19.6,60.9z"/>
		<path class="st3" d="M30.5,60.9H24c-0.6,0-1-0.4-1-1s0.4-1,1-1h6.5c0.6,0,1,0.4,1,1S31,60.9,30.5,60.9z"/>
		<path class="st3" d="M41.4,60.9h-6.5c-0.6,0-1-0.4-1-1s0.4-1,1-1h6.5c0.6,0,1,0.4,1,1S41.9,60.9,41.4,60.9z"/>
	</g>
</g>
</svg>
