<?xml version="1.0" encoding="utf-8"?>
<!-- Generator: Adobe Illustrator 25.0.0, SVG Export Plug-In . SVG Version: 6.00 Build 0)  -->
<svg version="1.1" id="Layer_1" xmlns="http://www.w3.org/2000/svg" xmlns:xlink="http://www.w3.org/1999/xlink" x="0px" y="0px"
	 viewBox="0 0 100 100" style="enable-background:new 0 0 100 100;" xml:space="preserve">
<style type="text/css">
	.st0{fill:#FBB600;}
	.st1{fill:#CCEEF5;}
	.st2{fill:#1786A3;}
	.st3{fill:#2C5871;}
	.st4{fill:none;stroke:#2C5871;stroke-width:2.0001;stroke-linecap:round;stroke-linejoin:round;}
</style>
<g id="c-school-timing" transform="translate(-349.884 -118.026)">
	<circle id="Ellipse_33" class="st0" cx="399.9" cy="168" r="4.3"/>
	<path id="Path_577" class="st1" d="M421.2,168v-25.6c0-2.4,1.9-4.3,4.3-4.3l0,0c2.4,0,4.3,1.9,4.3,4.3V168"/>
	<path id="Path_578" class="st2" d="M448.9,208.5h-44.7V200l0,0c2.3,0,4.3-1.9,4.3-4.2c0,0,0,0,0,0v-10.1c0-10,8.1-18.1,18.1-18.1
		l0,0l0,0c10,0,18.1,8.1,18.1,18.1v10.1c0,2.3,1.9,4.3,4.3,4.3c0,0,0,0,0,0h0L448.9,208.5z"/>
	<circle id="Ellipse_34" class="st0" cx="427.6" cy="212.7" r="4.3"/>
	<g>
		<path class="st3" d="M357.3,167c-0.6,0-1,0.4-1,1c0,0.6,0.4,1,1,1h4.3c0.6,0,1-0.4,1-1c0-0.6-0.4-1-1-1H357.3z"/>
		<path class="st3" d="M399.9,130.7c0.6,0,1-0.4,1-1v-4.3c0-0.6-0.4-1-1-1s-1,0.4-1,1v4.3C398.9,130.2,399.3,130.7,399.9,130.7z"/>
		<path class="st3" d="M412.9,214.2c-25.5,7.2-52-7.7-59.2-33.1c-3.5-12.3-2-25.3,4.3-36.5c6.3-11.2,16.5-19.3,28.8-22.8
			c25.5-7.2,52,7.7,59.2,33.1c1.2,4.2,1.8,8.6,1.8,13c0,1.9-0.1,3.8-0.3,5.7c-0.1,0.5,0.3,1,0.9,1.1c0.6,0.1,1-0.3,1.1-0.9
			c0.2-2,0.4-4,0.4-6c0-4.6-0.6-9.2-1.9-13.6c-7.5-26.5-35.2-42-61.7-34.5c-12.8,3.6-23.5,12.1-30,23.7c-6.5,11.7-8.1,25.2-4.5,38
			c6.2,22,26.3,36.4,48.1,36.4c4.5,0,9.1-0.6,13.6-1.9c0.5-0.1,0.8-0.7,0.7-1.2C414,214.4,413.5,214.1,412.9,214.2z"/>
		<path class="st3" d="M399.9,179.7c0.6,0,1-0.4,1-1v-5.5c2.1-0.4,3.8-2.1,4.2-4.2h5.5c0.6,0,1-0.4,1-1c0-0.6-0.4-1-1-1h-5.5
			c-0.4-2.1-2.1-3.8-4.2-4.2v-20.4c0-0.6-0.4-1-1-1s-1,0.4-1,1v20.4c-2.1,0.4-3.8,2.1-4.2,4.2H368c-0.6,0-1,0.4-1,1c0,0.6,0.4,1,1,1
			h26.8c0.4,2.1,2.1,3.8,4.2,4.2v5.5C398.9,179.2,399.3,179.7,399.9,179.7z M396.6,168c0-1.8,1.5-3.3,3.3-3.3s3.3,1.5,3.3,3.3
			s-1.5,3.3-3.3,3.3S396.6,169.8,396.6,168z"/>
		<path class="st3" d="M449.9,200c0-0.6-0.5-1-1-1c-1.8,0-3.3-1.5-3.3-3.3v-10.1c0-9.1-6.4-16.7-14.9-18.6v-24.5
			c0-2.9-2.4-5.3-5.3-5.3c-2.9,0-5.3,2.4-5.3,5.3v25.1c-7.4,2.6-12.8,9.7-12.8,18v10.1c0,1.8-1.5,3.2-3.3,3.2c0,0,0,0,0,0h0
			c-0.3,0-0.5,0.1-0.7,0.3c-0.2,0.2-0.3,0.4-0.3,0.7v8.5c0,0.6,0.4,1,1,1h19.3c-0.7,0.9-1.2,2-1.2,3.3c0,2.9,2.4,5.3,5.3,5.3
			c2.9,0,5.3-2.4,5.3-5.3c0-1.2-0.4-2.4-1.2-3.3h17.2c0.3,0,0.5-0.1,0.7-0.3s0.3-0.4,0.3-0.7L449.9,200z M422.2,142.5
			c0-1.8,1.5-3.3,3.3-3.3c1.8,0,3.3,1.5,3.3,3.3v24.2c-0.7-0.1-1.4-0.1-2.2-0.1c-1.5,0-2.9,0.2-4.3,0.5V142.5z M430.8,212.7
			c0,1.8-1.5,3.3-3.3,3.3c-1.8,0-3.3-1.5-3.3-3.3s1.5-3.3,3.3-3.3C429.4,209.5,430.8,210.9,430.8,212.7z M405.2,207.5v-6.6
			c2.4-0.5,4.3-2.6,4.3-5.2v-10.1c0-9.4,7.7-17.1,17.1-17.1c0.8,0,1.7,0.1,2.5,0.2c0.2,0.2,0.4,0.3,0.7,0.3c0.2,0,0.3,0,0.5-0.1
			c7.7,1.7,13.5,8.5,13.5,16.7v10.1c0,2.6,1.8,4.7,4.3,5.2l0,6.6H405.2z"/>
		<path class="st3" d="M427.8,175.8c-0.5-0.1-1.1,0.2-1.2,0.8c-0.1,0.5,0.2,1.1,0.8,1.2c4.5,0.9,7.7,4.9,7.7,9.5v10.7
			c0,0.6,0.4,1,1,1s1-0.4,1-1v-10.7C437.1,181.7,433.2,176.9,427.8,175.8z"/>
	</g>
	<path id="Path_583" class="st4" d="M425.5,176.5"/>
</g>
</svg>
