<?xml version="1.0" encoding="utf-8"?>
<!-- Generator: Adobe Illustrator 25.0.0, SVG Export Plug-In . SVG Version: 6.00 Build 0)  -->
<svg version="1.1" id="Layer_1" xmlns="http://www.w3.org/2000/svg" xmlns:xlink="http://www.w3.org/1999/xlink" x="0px" y="0px"
	 viewBox="0 0 100 100" style="enable-background:new 0 0 100 100;" xml:space="preserve">
<style type="text/css">
	.st0{fill:#1786A3;}
	.st1{fill:#FBB600;}
	.st2{fill:#2C5871;}
	.st3{fill:#F0EDDA;}
</style>
<g id="c-schedule" transform="translate(-2.002 -228)">
	<g id="Group_671" transform="translate(3.002 237.539)">
		<path id="Rectangle_244" class="st0" d="M2.3,1.3h76c1.3,0,2.3,1,2.3,2.3v15.1l0,0H0l0,0V3.6C0,2.3,1,1.3,2.3,1.3z"/>
	</g>
	<g id="Group_672" transform="translate(3.002 229)">
		<circle id="Ellipse_39" class="st1" cx="74" cy="71.2" r="24"/>
		<path class="st2" d="M74,95.8c-13.8,0-25-11.2-25-25s11.2-25,25-25s25,11.2,25,25S87.8,95.8,74,95.8z M74,47.9
			c-12.7,0-23,10.3-23,23c0,12.7,10.3,23,23,23s23-10.3,23-23C97,58.2,86.7,47.9,74,47.9z"/>
		<path class="st2" d="M78.4,8.9H67.5c-0.6,0-1,0.4-1,1s0.4,1,1,1h10.9c0.6,0,1.2,0.5,1.2,1.2v14.2H1V12c0-0.6,0.5-1.2,1.2-1.2h10.9
			c0.6,0,1-0.4,1-1s-0.4-1-1-1H2.2C0.4,8.9-1,10.3-1,12v58.8c0,0.8,0.3,1.6,0.9,2.2C0.5,73.7,1.3,74,2.2,74c0,0,0,0,0,0h43.6
			c0.6,0,1-0.4,1-1c0-0.6-0.4-1-1-1H2.2c0,0,0,0,0,0c-0.3,0-0.6-0.1-0.8-0.3C1.1,71.4,1,71.1,1,70.8V28.3h78.6v14.2c0,0.6,0.4,1,1,1
			c0.6,0,1-0.4,1-1V12C81.6,10.3,80.2,8.9,78.4,8.9z"/>
		<path class="st2" d="M63.2,17.4c-0.6,0-1-0.4-1-1V3.3c0-0.6,0.4-1,1-1s1,0.4,1,1v13.1C64.2,16.9,63.7,17.4,63.2,17.4z"/>
		<path class="st2" d="M58.8,10.9h-37c-0.6,0-1-0.4-1-1s0.4-1,1-1h37c0.6,0,1,0.4,1,1S59.4,10.9,58.8,10.9z"/>
		<path class="st2" d="M17.4,17.4c-0.6,0-1-0.4-1-1V3.3c0-0.6,0.4-1,1-1c0.6,0,1,0.4,1,1v13.1C18.4,16.9,18,17.4,17.4,17.4z"/>
		<path class="st3" d="M30.5,39.2H24c-0.6,0-1-0.4-1-1c0-0.6,0.4-1,1-1h6.5c0.6,0,1,0.4,1,1C31.5,38.7,31,39.2,30.5,39.2z"/>
		<path class="st3" d="M19.5,39.2h-6.5c-0.6,0-1-0.4-1-1c0-0.6,0.4-1,1-1h6.5c0.6,0,1,0.4,1,1C20.5,38.7,20,39.2,19.5,39.2z"/>
		<path class="st3" d="M41.4,39.2h-6.5c-0.6,0-1-0.4-1-1c0-0.6,0.4-1,1-1h6.5c0.6,0,1,0.4,1,1C42.4,38.7,41.9,39.2,41.4,39.2z"/>
		<path class="st3" d="M52.3,39.2h-6.5c-0.6,0-1-0.4-1-1c0-0.6,0.4-1,1-1h6.5c0.6,0,1,0.4,1,1C53.3,38.7,52.8,39.2,52.3,39.2z"/>
		<path class="st3" d="M63.2,39.2h-6.5c-0.6,0-1-0.4-1-1c0-0.6,0.4-1,1-1h6.5c0.6,0,1,0.4,1,1C64.2,38.7,63.7,39.2,63.2,39.2z"/>
		<path class="st3" d="M19.6,50.1h-6.5c-0.6,0-1-0.4-1-1c0-0.6,0.4-1,1-1h6.5c0.6,0,1,0.4,1,1C20.6,49.6,20.2,50.1,19.6,50.1z"/>
		<path class="st3" d="M30.5,50.1H24c-0.6,0-1-0.4-1-1c0-0.6,0.4-1,1-1h6.5c0.6,0,1,0.4,1,1C31.5,49.6,31,50.1,30.5,50.1z"/>
		<path class="st3" d="M41.4,50.1h-6.5c-0.6,0-1-0.4-1-1c0-0.6,0.4-1,1-1h6.5c0.6,0,1,0.4,1,1C42.4,49.6,41.9,50.1,41.4,50.1z"/>
		<path class="st3" d="M52.3,50.1h-6.5c-0.6,0-1-0.4-1-1c0-0.6,0.4-1,1-1h6.5c0.6,0,1,0.4,1,1C53.3,49.6,52.8,50.1,52.3,50.1z"/>
		<path class="st3" d="M19.6,60.9h-6.5c-0.6,0-1-0.4-1-1s0.4-1,1-1h6.5c0.6,0,1,0.4,1,1S20.2,60.9,19.6,60.9z"/>
		<path class="st3" d="M30.5,60.9H24c-0.6,0-1-0.4-1-1s0.4-1,1-1h6.5c0.6,0,1,0.4,1,1S31,60.9,30.5,60.9z"/>
		<path class="st3" d="M41.4,60.9h-6.5c-0.6,0-1-0.4-1-1s0.4-1,1-1h6.5c0.6,0,1,0.4,1,1S41.9,60.9,41.4,60.9z"/>
		<path class="st2" d="M91.7,73.1H73.4c-0.6,0-1-0.4-1-1V53.8c0-0.6,0.4-1,1-1c0.6,0,1,0.4,1,1v17.3h17.3c0.6,0,1,0.4,1,1
			C92.7,72.7,92.2,73.1,91.7,73.1z"/>
	</g>
</g>
</svg>
