<?xml version="1.0" encoding="utf-8"?>
<!-- Generator: Adobe Illustrator 25.0.0, SVG Export Plug-In . SVG Version: 6.00 Build 0)  -->
<svg version="1.1" id="Layer_1" xmlns="http://www.w3.org/2000/svg" xmlns:xlink="http://www.w3.org/1999/xlink" x="0px" y="0px"
	 viewBox="0 0 100 100" style="enable-background:new 0 0 100 100;" xml:space="preserve">
<style type="text/css">
	.st0{fill:#F0EDDA;}
	.st1{fill:#1786A3;}
	.st2{fill:#FBB600;}
	.st3{fill:#FFFFFF;}
	.st4{fill:#2C5871;}
</style>
<g id="c-school" transform="translate(-294.41 -103.605)">
	<path id="Path_224" class="st0" d="M368.1,201v-30h9.5l-33.2-31.6L311.2,171h9.5v30H368.1z"/>
	<rect id="Rectangle_73" x="336.5" y="185.2" class="st1" width="15.8" height="15.8"/>
	<circle id="Ellipse_10" class="st0" cx="344.4" cy="166.3" r="6.3"/>
	<rect id="Rectangle_74" x="333.3" y="106.2" class="st2" width="11.1" height="7.9"/>
	<path id="Path_225" class="st1" d="M344.4,117.3l-15.8,14.2h31.6L344.4,117.3z"/>
	<circle id="Ellipse_11_1_" class="st3" cx="344.4" cy="166.3" r="6.3"/>
	<g>
		<path class="st4" d="M394.4,162.8l-6.3-22.1c-0.1-0.4-0.5-0.7-1-0.7h-29v-7.5h2.2c0.4,0,0.8-0.3,0.9-0.6c0.1-0.4,0-0.8-0.3-1.1
			l-15.5-13.9v-10.6c0-0.6-0.4-1-1-1h-11.1c-0.6,0-1,0.4-1,1v7.9c0,0.6,0.4,1,1,1h10.1v1.7l-15.5,13.9c-0.3,0.3-0.4,0.7-0.3,1.1
			c0.1,0.4,0.5,0.6,0.9,0.6h27.5v8.5c0,0.6,0.4,1,1,1h29.3l6.1,21.3v6.8h-1.6h-2.2c-0.6,0-1,0.4-1,1s0.4,1,1,1h2.2v28h-21.7v-28h8.5
			c0.4,0,0.8-0.2,0.9-0.6c0.2-0.4,0.1-0.8-0.2-1.1l-33.2-31.6c-0.4-0.4-1-0.4-1.4,0l-33.2,31.6c-0.3,0.3-0.4,0.7-0.2,1.1
			c0.2,0.4,0.5,0.6,0.9,0.6h8.5v28H298v-28h2.2c0.6,0,1-0.4,1-1s-0.4-1-1-1h-3.7v-8.3l6.1-19.7h29.3c0.6,0,1-0.4,1-1v-3.2
			c0-0.6-0.4-1-1-1s-1,0.4-1,1v2.2h-29c-0.4,0-0.8,0.3-1,0.7l-6.3,20.5c0,0.1,0,0.2,0,0.3v9.5c0,0.6,0.4,1,1,1h0.6v29
			c0,0.6,0.4,1,1,1h94.8c0.6,0,1-0.4,1-1v-29h0.6c0.6,0,1-0.4,1-1v-7.9C394.4,163,394.4,162.9,394.4,162.8z M334.3,113.1v-5.9h9.1
			v5.9H334.3z M344.4,118.6l13.2,11.9h-26.4L344.4,118.6z M337.5,200v-13.8h13.8V200H337.5z M353.3,200v-14.8c0-0.6-0.4-1-1-1h-15.8
			c-0.6,0-1,0.4-1,1V200h-13.8v-29c0-0.6-0.4-1-1-1h-7l30.7-29.2l30.7,29.2h-7c-0.6,0-1,0.4-1,1v29H353.3z"/>
		<path class="st4" d="M344.4,158.9c-4,0-7.3,3.3-7.3,7.3c0,4,3.3,7.3,7.3,7.3c4,0,7.3-3.3,7.3-7.3
			C351.7,162.2,348.4,158.9,344.4,158.9z M344.4,171.6c-2.9,0-5.3-2.4-5.3-5.3c0-2.9,2.4-5.3,5.3-5.3c2.9,0,5.3,2.4,5.3,5.3
			C349.7,169.2,347.3,171.6,344.4,171.6z"/>
		<path class="st4" d="M305.9,182.1c0-0.6-0.4-1-1-1s-1,0.4-1,1v3.2c0,0.6,0.4,1,1,1s1-0.4,1-1V182.1z"/>
		<path class="st4" d="M312.8,186.2c0.6,0,1-0.4,1-1v-3.2c0-0.6-0.4-1-1-1c-0.6,0-1,0.4-1,1v3.2
			C311.8,185.8,312.2,186.2,312.8,186.2z"/>
		<path class="st4" d="M304.9,192.1c-0.6,0-1,0.4-1,1v3.2c0,0.6,0.4,1,1,1s1-0.4,1-1v-3.2C305.9,192.6,305.4,192.1,304.9,192.1z"/>
		<path class="st4" d="M311.8,196.3c0,0.6,0.4,1,1,1c0.6,0,1-0.4,1-1v-3.2c0-0.6-0.4-1-1-1c-0.6,0-1,0.4-1,1V196.3z"/>
		<path class="st4" d="M377,182.1c0-0.6-0.4-1-1-1c-0.6,0-1,0.4-1,1v3.2c0,0.6,0.4,1,1,1c0.6,0,1-0.4,1-1V182.1z"/>
		<path class="st4" d="M383.9,186.2c0.6,0,1-0.4,1-1v-3.2c0-0.6-0.4-1-1-1s-1,0.4-1,1v3.2C382.9,185.8,383.4,186.2,383.9,186.2z"/>
		<path class="st4" d="M376,192.1c-0.6,0-1,0.4-1,1v3.2c0,0.6,0.4,1,1,1c0.6,0,1-0.4,1-1v-3.2C377,192.6,376.6,192.1,376,192.1z"/>
		<path class="st4" d="M382.9,196.3c0,0.6,0.4,1,1,1s1-0.4,1-1v-3.2c0-0.6-0.4-1-1-1s-1,0.4-1,1V196.3z"/>
	</g>
</g>
</svg>
