<?xml version="1.0" encoding="utf-8"?>
<!-- Generator: Adobe Illustrator 25.0.0, SVG Export Plug-In . SVG Version: 6.00 Build 0)  -->
<svg version="1.1" id="Layer_1" xmlns="http://www.w3.org/2000/svg" xmlns:xlink="http://www.w3.org/1999/xlink" x="0px" y="0px"
	 viewBox="0 0 100 100" style="enable-background:new 0 0 100 100;" xml:space="preserve">
<style type="text/css">
	.st0{fill:#F0EDDA;}
	.st1{fill:#1786A3;}
	.st2{fill:#FBB600;}
	.st3{fill:#CCEEF5;}
	.st4{fill:#2C5871;}
</style>
<g id="c-stages" transform="translate(-104.221 -62.109)">
	<path id="Path_242" class="st0" d="M117.1,161.1H106v-28.5h11.1v6"/>
	<path id="Path_243" class="st1" d="M127.8,120v-10.8h7.1l-12.4-12.6l-12.4,12.6h7.1v17.1"/>
	<path id="Path_244" class="st2" d="M140.2,161.1h-12.3v-35.4h12.3v6"/>
	<path id="Path_245" class="st3" d="M165.6,161.1h-14.6v-50.3h14.6v5.6"/>
	<path class="st4" d="M139.3,120.7c-0.6,0-1-0.4-1-1V83.2h-10.5c-0.4,0-0.8-0.2-0.9-0.6c-0.2-0.4-0.1-0.8,0.2-1.1l17.5-19.1
		c0.4-0.4,1.1-0.4,1.5,0l17.5,19.1c0.3,0.3,0.3,0.7,0.2,1.1c-0.2,0.4-0.5,0.6-0.9,0.6h-10.5v21.6c0,0.6-0.4,1-1,1c-0.6,0-1-0.4-1-1
		V82.2c0-0.6,0.4-1,1-1h9.2l-15.2-16.6l-15.2,16.6h9.2c0.6,0,1,0.4,1,1v37.5C140.3,120.2,139.9,120.7,139.3,120.7z"/>
	<path id="Path_247" class="st1" d="M185.4,96c-4.7,0-8.5-3.8-8.5-8.5c0-4.7,3.8-8.5,8.5-8.5c4.7,0,8.5,3.8,8.5,8.5l0,0
		C194,92.2,190.2,96,185.4,96z"/>
	<path id="Path_248" class="st2" d="M195.4,126.7c0,2.1,1.6,3.8,3.7,3.8c2.1,0,3.4-1.7,3.4-3.8v-17.5c0-4.4-3.5-7.9-7.9-7.9h-16.4
		c-1.5,0-2.9-0.6-3.9-1.6l-9.5-9.5c-1.5-1.5-3.8-1.5-5.3-0.1c-1.5,1.5-1.2,3.6,0.3,5.1l13.1,13.1c1.7,1.7,2.7,4,2.7,6.5V157
		c0,2.3,1.5,4.1,3.7,4.1c2.2,0,4-1.9,4-4.1v-20.8c0-1.2,1-2.2,2.2-2.2l0,0c1.2,0,2.2,1,2.2,2.2V157c0,2.2,1.8,4.1,4,4.1
		c2.2,0,3.7-1.8,3.7-4.1v-46.6"/>
	<path class="st4" d="M117.1,162.1H106c-0.6,0-1-0.4-1-1v-28.5c0-0.6,0.4-1,1-1h11.1c0.6,0,1,0.4,1,1v6c0,0.6-0.4,1-1,1
		c-0.6,0-1-0.4-1-1v-5H107v26.5h10.1c0.6,0,1,0.4,1,1C118.1,161.7,117.7,162.1,117.1,162.1z"/>
	<path class="st4" d="M140.2,162.1h-12.3c-0.6,0-1-0.4-1-1v-35.4c0-0.6,0.4-1,1-1h12.3c0.6,0,1,0.4,1,1v6c0,0.6-0.4,1-1,1
		c-0.6,0-1-0.4-1-1v-5h-10.3v33.4h11.3c0.6,0,1,0.4,1,1C141.2,161.7,140.7,162.1,140.2,162.1z"/>
	<path class="st4" d="M165.6,162.1h-14.6c-0.6,0-1-0.4-1-1v-50.3c0-0.6,0.4-1,1-1h14.6c0.6,0,1,0.4,1,1v5.6c0,0.6-0.4,1-1,1
		c-0.6,0-1-0.4-1-1v-4.6h-12.6v48.3h13.6c0.6,0,1,0.4,1,1C166.6,161.7,166.1,162.1,165.6,162.1z"/>
	<path class="st4" d="M117.1,155.5c-0.6,0-1-0.4-1-1v-10c0-0.6,0.4-1,1-1c0.6,0,1,0.4,1,1v10C118.1,155.1,117.7,155.5,117.1,155.5z"
		/>
	<path class="st4" d="M140.2,155.5c-0.6,0-1-0.4-1-1v-18.3c0-0.6,0.4-1,1-1c0.6,0,1,0.4,1,1v18.3
		C141.2,155.1,140.7,155.5,140.2,155.5z"/>
	<path class="st4" d="M165.6,155.5c-0.6,0-1-0.4-1-1v-33.1c0-0.6,0.4-1,1-1c0.6,0,1,0.4,1,1v33.1
		C166.6,155.1,166.1,155.5,165.6,155.5z"/>
	<path class="st4" d="M139.3,120.7c-0.6,0-1-0.4-1-1V83.2h-10.5c-0.4,0-0.8-0.2-0.9-0.6c-0.2-0.4-0.1-0.8,0.2-1.1l17.5-19.1
		c0.4-0.4,1.1-0.4,1.5,0l17.5,19.1c0.3,0.3,0.3,0.7,0.2,1.1c-0.2,0.4-0.5,0.6-0.9,0.6h-10.5v21.6c0,0.6-0.4,1-1,1c-0.6,0-1-0.4-1-1
		V82.2c0-0.6,0.4-1,1-1h9.2l-15.2-16.6l-15.2,16.6h9.2c0.6,0,1,0.4,1,1v37.5C140.3,120.2,139.9,120.7,139.3,120.7z"/>
	<path class="st4" d="M117.2,127.3c-0.6,0-1-0.4-1-1v-16.1h-6.1c-0.4,0-0.8-0.2-0.9-0.6c-0.2-0.4-0.1-0.8,0.2-1.1l12.4-12.6
		c0.2-0.2,0.4-0.3,0.7-0.3l0,0c0.3,0,0.5,0.1,0.7,0.3l12.4,12.6c0.3,0.3,0.4,0.7,0.2,1.1c-0.2,0.4-0.5,0.6-0.9,0.6h-6.1v9.8
		c0,0.6-0.4,1-1,1c-0.6,0-1-0.4-1-1v-10.8c0-0.6,0.4-1,1-1h4.7l-10-10.2l-10,10.2h4.7c0.6,0,1,0.4,1,1v17.1
		C118.2,126.8,117.8,127.3,117.2,127.3z"/>
	<path class="st4" d="M185.4,97c-5.3,0-9.5-4.3-9.5-9.5c0-5.3,4.3-9.5,9.5-9.5c5.3,0,9.5,4.3,9.5,9.5C195,92.7,190.7,97,185.4,97z
		 M185.4,79.9c-4.2,0-7.5,3.4-7.5,7.5s3.4,7.5,7.5,7.5c4.2,0,7.5-3.4,7.5-7.5S189.6,79.9,185.4,79.9z"/>
	<path class="st4" d="M191.7,162.1c-2.8,0-5.1-2.3-5-5.1v-20.8c0-0.7-0.5-1.2-1.2-1.2c-0.7,0-1.2,0.5-1.2,1.2V157
		c0,2.8-2.2,5.1-5,5.1c-2.7,0-4.7-2.2-4.7-5.1v-42.2c0-2.1-0.9-4.2-2.4-5.8L159,95.9c-1.9-1.9-2.1-4.7-0.3-6.5
		c0.9-0.9,2.1-1.4,3.3-1.4c0,0,0,0,0.1,0c1.3,0,2.5,0.5,3.4,1.4l9.5,9.5c0.9,0.9,2,1.3,3.2,1.3h16.4c4.9,0,8.9,4,8.9,8.9v17.5
		c0,2.7-1.9,4.8-4.4,4.8c-1,0-2-0.3-2.7-0.9V157C196.3,159.9,194.3,162.1,191.7,162.1z M185.4,133c1.8,0,3.2,1.4,3.2,3.2V157
		c0,0.8,0.3,1.6,0.9,2.2c0.6,0.6,1.3,0.9,2.2,0.9c1.8,0,2.7-1.6,2.7-3.1v-46.6c0-0.6,0.4-1,1-1c0.6,0,1,0.4,1,1v16.2
		c0,0,0,0.1,0,0.1c0,1.5,1.2,2.8,2.7,2.8c1.6,0,2.4-1.5,2.4-2.8v-17.5c0-3.8-3.1-6.9-6.9-6.9h-16.4c-1.7,0-3.4-0.7-4.6-1.9l-9.5-9.5
		c-0.5-0.5-1.2-0.8-2-0.8c-0.7,0-1.4,0.3-2,0.8c-1.2,1.2-0.7,2.7,0.3,3.7l13.1,13.1c1.9,1.9,3,4.5,3,7.2V157c0,1.5,0.8,3.1,2.7,3.1
		c1.7,0,3-1.4,3-3.1v-20.9C182.2,134.4,183.7,133,185.4,133z"/>
</g>
</svg>
