<?xml version="1.0" encoding="utf-8"?>
<!-- Generator: Adobe Illustrator 25.0.0, SVG Export Plug-In . SVG Version: 6.00 Build 0)  -->
<svg version="1.1" id="Layer_1" xmlns="http://www.w3.org/2000/svg" xmlns:xlink="http://www.w3.org/1999/xlink" x="0px" y="0px"
	 viewBox="0 0 100 100" style="enable-background:new 0 0 100 100;" xml:space="preserve">
<style type="text/css">
	.st0{fill:#1786A3;}
	.st1{fill:#CCEEF5;}
	.st2{fill:#F0EDDA;}
	.st3{fill:#FBB600;}
	.st4{fill:#2C5871;}
</style>
<g id="c-subject-groups" transform="translate(-957.212 -102.656)">
	<rect id="Rectangle_145" x="958.2" y="190.6" class="st0" width="98" height="11.1"/>
	<path id="Path_364" class="st1" d="M978.8,119.5h-14.2c-0.9,0-1.6,0.7-1.6,1.6c0,0,0,0,0,0v69.5h15.8"/>
	<circle id="Ellipse_12" class="st0" cx="1023" cy="174.8" r="3.2"/>
	<path id="Path_368" class="st2" d="M978.8,105.2v85.4h22.1v-85.4c0-0.9-0.7-1.6-1.6-1.6c0,0,0,0,0,0h-19
		C979.5,103.7,978.8,104.4,978.8,105.2z"/>
	<path id="Path_371" class="st3" d="M1037.2,130.5v60.1h14.2v-60.1c0-0.9-0.7-1.6-1.6-1.6c0,0,0,0,0,0h-11.1
		C1038,128.9,1037.2,129.7,1037.2,130.5z"/>
	<g>
		<path class="st4" d="M1056.2,189.6h-3.7v-59.1c0-1.4-1.2-2.6-2.6-2.6h-11.1c-1.4,0-2.6,1.2-2.6,2.6v59.1h-34.4v-84.4
			c0-1.4-1.2-2.6-2.6-2.6h-19c-1.4,0-2.6,1.2-2.6,2.6v13.2h-13.2c0,0,0,0,0,0c-0.7,0-1.3,0.3-1.8,0.8c-0.5,0.5-0.8,1.1-0.8,1.8v68.5
			h-3.7c-0.6,0-1,0.4-1,1v11.1c0,0.6,0.4,1,1,1h98c0.6,0,1-0.4,1-1v-11.1C1057.2,190,1056.8,189.6,1056.2,189.6z M1038.2,130.5
			c0-0.3,0.3-0.6,0.6-0.6h11.1c0.3,0,0.6,0.3,0.6,0.6v10.1h-6.9c-0.6,0-1,0.4-1,1s0.4,1,1,1h6.9v12.2h-6.9c-0.6,0-1,0.4-1,1
			s0.4,1,1,1h6.9v32.8h-12.2V130.5z M979.8,105.2c0-0.3,0.3-0.6,0.6-0.6h19c0.3,0,0.6,0.3,0.6,0.6v84.4h-20.1v-16.4c0,0,0,0,0,0
			s0,0,0,0v-17.4c0,0,0,0,0,0s0,0,0,0V105.2z M964,121c0-0.3,0.3-0.6,0.6-0.6c0,0,0,0,0,0h13.2v34.4h-8.5c-0.6,0-1,0.4-1,1
			s0.4,1,1,1h8.5v15.4h-8.5c-0.6,0-1,0.4-1,1s0.4,1,1,1h8.5v15.4H964V121z M1055.2,200.7h-96v-9.1h96V200.7z"/>
		<path class="st4" d="M1009,118.1l13-2.2c0.6-0.1,1.1,0,1.6,0.4c0.5,0.3,0.8,0.8,0.9,1.4l7,42.2c0.1,0.5,0.5,0.8,1,0.8
			c0.1,0,0.1,0,0.2,0c0.5-0.1,0.9-0.6,0.8-1.2l-7-42.2c-0.2-1.1-0.8-2.1-1.7-2.7c-0.9-0.6-2-0.9-3.1-0.7l-13,2.2
			c-0.5,0.1-0.9,0.6-0.8,1.2S1008.4,118.2,1009,118.1z"/>
		<path class="st4" d="M1015.8,189c0.2,0,0.5,0,0.7-0.1l13.8-2.3c0.5-0.1,0.9-0.6,0.8-1.2c-0.1-0.5-0.6-0.9-1.2-0.8l-13.8,2.3
			c-1.2,0.2-2.3-0.6-2.5-1.8l-6.2-37.5c-0.1-0.5-0.6-0.9-1.2-0.8c-0.5,0.1-0.9,0.6-0.8,1.2l6.2,37.5
			C1012,187.6,1013.8,189,1015.8,189z"/>
		<path class="st4" d="M1019.9,156.8c0.1,0,0.1,0,0.2,0c0.5-0.1,0.9-0.6,0.8-1.2l-3.2-17.4c-0.1-0.5-0.6-0.9-1.2-0.8
			c-0.5,0.1-0.9,0.6-0.8,1.2l3.2,17.4C1019,156.5,1019.4,156.8,1019.9,156.8z"/>
		<path class="st4" d="M1023,178.9c2.3,0,4.2-1.9,4.2-4.2s-1.9-4.2-4.2-4.2c-2.3,0-4.2,1.9-4.2,4.2S1020.7,178.9,1023,178.9z
			 M1023,172.6c1.2,0,2.2,1,2.2,2.2s-1,2.2-2.2,2.2c-1.2,0-2.2-1-2.2-2.2S1021.8,172.6,1023,172.6z"/>
		<path class="st4" d="M985.1,156.8h9.5c0.6,0,1-0.4,1-1v-31.6c0-0.6-0.4-1-1-1h-7.9c-0.6,0-1,0.4-1,1s0.4,1,1,1h6.9v29.6h-8.5
			c-0.6,0-1,0.4-1,1S984.5,156.8,985.1,156.8z"/>
		<path class="st4" d="M986.7,115.7h7.9c0.6,0,1-0.4,1-1s-0.4-1-1-1h-7.9c-0.6,0-1,0.4-1,1S986.1,115.7,986.7,115.7z"/>
	</g>
</g>
</svg>
