<?xml version="1.0" encoding="utf-8"?>
<!-- Generator: Adobe Illustrator 25.0.0, SVG Export Plug-In . SVG Version: 6.00 Build 0)  -->
<svg version="1.1" id="Layer_1" xmlns="http://www.w3.org/2000/svg" xmlns:xlink="http://www.w3.org/1999/xlink" x="0px" y="0px"
	 viewBox="0 0 100 100" style="enable-background:new 0 0 100 100;" xml:space="preserve">
<style type="text/css">
	.st0{fill:#FBB600;}
	.st1{fill:#CCEEF5;}
	.st2{fill:#1786A3;}
	.st3{fill:#2C5871;}
</style>
<g id="c-survey-setup" transform="translate(-732.636 -99.947)">
	<rect id="Rectangle_139" x="736.8" y="100.9" class="st0" width="89.5" height="12.8"/>
	<rect id="Rectangle_140" x="749.6" y="160.6" class="st1" width="23.4" height="21.3"/>
	<path id="Path_346" class="st0" d="M798.6,188.3v-6.4c-5.2-4.1-6.8-9.4-8.5-12.8l-4.3-8.5c0-2.1,4.4-4.3,6.6-2.1
		c2.2,2.2,4.2,4.3,4.2,4.3h2v-23.4c0-2.4,2-4.3,4.4-4.3h-0.1c2.3,0,4.2,1.9,4.2,4.2c0,0,0,0,0,0v14.9l14.8,3.1
		c3.6,0.7,6.5,3.3,6.5,7.6v10.7c0,2.4-2.1,4.2-2.1,6.4v6.4L798.6,188.3z"/>
	<rect id="Rectangle_142" x="794.4" y="188.3" class="st2" width="34.1" height="10.7"/>
	<g>
		<path class="st3" d="M828.2,179.3c0.6-1.1,1.2-2.3,1.2-3.8v-10.7c0-4.4-2.8-7.7-7.3-8.6l-14-2.9v-14.1c0-2.8-2.3-5.2-5.1-5.2
			c0,0,0,0-0.1,0c0,0,0,0,0,0c0,0,0,0,0,0c0,0,0,0,0,0c-2.9,0-5.2,2.4-5.3,5.3v22.4H797c-0.6-0.7-2.2-2.3-3.9-4
			c-1.3-1.3-3.3-1.5-5.3-0.7c-1.8,0.8-3,2.1-3,3.5c0,0.2,0,0.3,0.1,0.4l4.3,8.5c0.3,0.6,0.6,1.3,0.9,2c1.4,3.1,3.3,7.4,7.5,10.8v4.9
			h-3.3c-0.6,0-1,0.4-1,1v10.7c0,0.6,0.4,1,1,1h34.1c0.6,0,1-0.4,1-1v-10.7c0-0.6-0.4-1-1-1h-1.1v-5.4
			C827.3,181.1,827.8,180.2,828.2,179.3z M827.4,197.9h-32.1v-8.7h3.3l27.7,0c0,0,0,0,0,0h1.1V197.9z M799.6,187.3v-5.4
			c0-0.3-0.1-0.6-0.4-0.8c-4.1-3.2-5.8-7.1-7.3-10.3c-0.3-0.8-0.7-1.5-1-2.1l-4.1-8.3c0.1-0.5,0.8-1.1,1.7-1.5
			c1-0.4,2.3-0.5,3.1,0.3c2.2,2.1,4.1,4.2,4.1,4.2c0.2,0.2,0.5,0.3,0.7,0.3h2c0.6,0,1-0.4,1-1v-23.4c0-1.8,1.5-3.3,3.3-3.3
			c1.8,0,3.2,1.5,3.2,3.3v14.9c0,0.5,0.3,0.9,0.8,1l14.8,3.1c3.6,0.7,5.7,3.2,5.7,6.6v10.7c0,1-0.5,1.9-1,2.9
			c-0.6,1.1-1.1,2.2-1.1,3.5v5.4H799.6z"/>
		<path class="st3" d="M788,193.7h-50.1v-79h87.5v35.2c0,0.6,0.4,1,1,1s1-0.4,1-1v-36.2c0,0,0,0,0,0s0,0,0,0v-12.8c0-0.6-0.4-1-1-1
			h-89.5c-0.6,0-1,0.4-1,1v93.7c0,0.6,0.4,1,1,1H788c0.6,0,1-0.4,1-1C789,194.1,788.5,193.7,788,193.7z M825.3,101.9v10.8h-87.5
			v-10.8H825.3z"/>
		<path class="st3" d="M743.2,108.3h4.3c0.6,0,1-0.4,1-1c0-0.6-0.4-1-1-1h-4.3c-0.6,0-1,0.4-1,1
			C742.2,107.9,742.7,108.3,743.2,108.3z"/>
		<path class="st3" d="M751.7,108.3h4.3c0.6,0,1-0.4,1-1c0-0.6-0.4-1-1-1h-4.3c-0.6,0-1,0.4-1,1
			C750.7,107.9,751.2,108.3,751.7,108.3z"/>
		<path class="st3" d="M774,139.3c0-0.6-0.4-1-1-1s-1,0.4-1,1v7.5h-21.4v-19.3h16c0.6,0,1-0.4,1-1c0-0.6-0.4-1-1-1h-17
			c-0.6,0-1,0.4-1,1v21.3c0,0.6,0.4,1,1,1H773c0.6,0,1-0.4,1-1V139.3z"/>
		<path class="st3" d="M773,159.6h-23.4c-0.6,0-1,0.4-1,1v21.3c0,0.6,0.4,1,1,1H773c0.6,0,1-0.4,1-1v-21.3
			C774,160,773.6,159.6,773,159.6z M772,180.9h-21.4v-19.3H772V180.9z"/>
		<path class="st3" d="M775.8,125.8c-0.4-0.4-1.1-0.3-1.4,0.1L762.3,140l-5.6-5.6c-0.4-0.4-1-0.4-1.4,0s-0.4,1,0,1.4l6.4,6.4
			c0.2,0.2,0.4,0.3,0.7,0.3c0,0,0,0,0,0c0.3,0,0.5-0.1,0.7-0.3l12.8-14.9C776.3,126.7,776.3,126.1,775.8,125.8z"/>
		<path class="st3" d="M818.8,128.6c0-0.6-0.4-1-1-1h-34.1c-0.6,0-1,0.4-1,1c0,0.6,0.4,1,1,1h34.1
			C818.3,129.6,818.8,129.2,818.8,128.6z"/>
		<path class="st3" d="M792.2,136.2h-8.5c-0.6,0-1,0.4-1,1s0.4,1,1,1h8.5c0.6,0,1-0.4,1-1S792.8,136.2,792.2,136.2z"/>
		<path class="st3" d="M792.2,144.7h-8.5c-0.6,0-1,0.4-1,1s0.4,1,1,1h8.5c0.6,0,1-0.4,1-1S792.8,144.7,792.2,144.7z"/>
	</g>
</g>
</svg>
