<?xml version="1.0" encoding="utf-8"?>
<!-- Generator: Adobe Illustrator 25.0.0, SVG Export Plug-In . SVG Version: 6.00 Build 0)  -->
<svg version="1.1" id="Layer_1" xmlns="http://www.w3.org/2000/svg" xmlns:xlink="http://www.w3.org/1999/xlink" x="0px" y="0px"
	 viewBox="0 0 100 100" style="enable-background:new 0 0 100 100;" xml:space="preserve">
<style type="text/css">
	.st0{fill:#1786A3;}
	.st1{fill:#CCEEF5;}
	.st2{fill:#F0EDDA;}
	.st3{fill:#FBB600;}
	.st4{fill:#2C5871;}
</style>
<g id="c-t-timetable" transform="translate(-348.169 -104.361)">
	<rect id="Rectangle_240" x="350.2" y="176.3" class="st0" width="95.9" height="8.3"/>
	<path id="Path_552" class="st1" d="M375.6,176.3h-18c-3.8,0-6.8-3-6.8-6.8c0,0,0,0,0,0l0,0c0-2.1,1-4,2.6-5.3
		c0,0,14.9-15.5,17.7-16.3l15.5-4.7l1.7-0.2V137l12.5-0.4v6.1l16.5,3.6c2.8,0.6,5.2,2.3,6.6,4.8l0.8,25"/>
	<path id="Path_553" class="st2" d="M394.2,139.3c0.5,0,1.1-0.1,1.6-0.2l0,0c2.6-0.8,4.9-2.2,6.7-4.2l0,0c1.9-2.1,3.1-4.6,3.6-7.3
		l0-0.3c0.2-1.2,0.3-2.3,0.3-3.5v-4.9v-0.9c0-6.9-5.6-12.5-12.5-12.5l0,0c-6.9,0-12.5,5.6-12.5,12.5v5.7c0,1.2,0.1,2.4,0.3,3.5
		l0,0.3c0.5,2.7,1.7,5.3,3.6,7.3l0,0l0.5,0.6c0.1,0.1,0.2,0.2,0.4,0.3l0,0c1.1,0.9,1.7,2.3,1.7,3.7v0.7"/>
	<path id="Path_558" class="st2" d="M408.6,159.6h25v-8.3h-25c-2.3,0-4.2,1.9-4.2,4.2c0,0,0,0,0,0l0,0
		C404.4,157.7,406.3,159.6,408.6,159.6z"/>
	<path id="Path_560" class="st1" d="M433.6,167.9h-25v-8.3h25c2.3,0,4.2,1.9,4.2,4.2l0,0C437.8,166,435.9,167.9,433.6,167.9
		C433.6,167.9,433.6,167.9,433.6,167.9z"/>
	<path id="Path_562" class="st3" d="M429.4,176.3h-25v-8.3h25c2.3,0,4.2,1.9,4.2,4.2c0,0,0,0,0,0l0,0
		C433.6,174.4,431.7,176.3,429.4,176.3z"/>
	<g>
		<path class="st4" d="M446.1,175.3h-12.6c0.7-0.9,1.1-2,1.1-3.2c0-1.2-0.4-2.3-1.1-3.2h0.1h0c1.4,0,2.7-0.5,3.7-1.5
			c1-1,1.5-2.3,1.5-3.7c0-2.5-1.8-4.6-4.2-5.1v-7.4c0-0.6-0.4-1-1-1h-9.9c-1.5-2.5-3.9-4.2-6.8-4.8l-15.7-3.4v-4.9
			c0.6-0.5,1.2-1,1.7-1.6c2-2.2,3.3-4.9,3.9-7.8l0.1-0.7c0.2-0.9,0.3-1.9,0.3-2.8v-6.3c0-7.4-6.1-13.5-13.5-13.5
			c-7.4,0-13.5,6.1-13.5,13.5v6.1c0,0.9,0.1,1.9,0.3,2.8l0.1,0.7c0.5,2.9,1.9,5.6,3.9,7.8l0.7,0.7c0,0,0,0,0.1,0.1l1.6,1.3v4.5
			l-0.8,0.1c-0.1,0-0.1,0-0.2,0l-15.5,4.7c-2.9,0.9-15.4,13.8-18.1,16.5c-1.9,1.5-2.9,3.7-2.9,6.1c0,2.1,0.8,4,2.3,5.5
			c0.1,0.1,0.2,0.2,0.3,0.3h-1.7c-0.6,0-1,0.4-1,1v8.3c0,0.6,0.4,1,1,1h3.2v17.8c0,0.6,0.4,1,1,1s1-0.4,1-1v-17.8H441v17.8
			c0,0.6,0.4,1,1,1s1-0.4,1-1v-17.8h3.2c0.6,0,1-0.4,1-1v-8.3C447.1,175.7,446.7,175.3,446.1,175.3z M431.7,169.8
			c0.6,0.6,0.9,1.4,0.9,2.2c0,1.7-1.4,3.2-3.2,3.2h-24v-6.3h3.2h20.8h0C430.3,168.9,431.1,169.2,431.7,169.8z M436.8,163.7
			c0,0.8-0.3,1.6-0.9,2.2c-0.6,0.6-1.4,0.9-2.2,0.9h-4.2h0h-19.8v-6.3h24C435.4,160.6,436.8,162,436.8,163.7z M432.6,158.6h-24h0
			c-1.7,0-3.2-1.4-3.2-3.2c0-1.7,1.4-3.2,3.2-3.2c0,0,0,0,0,0h14.6c0,0,0,0,0,0c0,0,0,0,0,0h9.4V158.6z M351.3,169.5
			c0-1.8,0.8-3.4,2.2-4.5c0,0,0.1-0.1,0.1-0.1c7.1-7.4,15.6-15.6,17.2-16.1l15.4-4.7l1.6-0.2c0.5-0.1,0.9-0.5,0.9-1V137
			c0-0.3-0.1-0.6-0.4-0.8l-1.9-1.6l-0.6-0.7c-1.7-1.9-2.9-4.3-3.4-6.8l-0.1-0.7c-0.1-0.8-0.2-1.6-0.2-2.5v-6.1
			c0-6.3,5.2-11.5,11.5-11.5c6.3,0,11.5,5.2,11.5,11.5v6.3c0,0.8-0.1,1.7-0.2,2.5l-0.1,0.7c-0.5,2.5-1.6,4.9-3.4,6.8
			c-1.7,1.9-3.8,3.2-6.3,3.9c-0.4,0.1-0.9,0.2-1.3,0.2c-0.6,0-1,0.5-1,1c0,0.6,0.5,1,1,1c0.6,0,1.3-0.1,1.9-0.3
			c1.2-0.4,2.4-0.9,3.5-1.5v4.3c0,0.5,0.3,0.9,0.8,1l16.5,3.6c1.9,0.4,3.5,1.4,4.7,2.9h-12.7c0,0,0,0,0,0c-2.8,0-5.2,2.3-5.2,5.2
			c0,2.5,1.8,4.6,4.2,5.1v6.4h-3.2c-0.6,0-1,0.4-1,1v7.3h-16.8v-3.2v-10.7c0-0.6-0.4-1-1-1s-1,0.4-1,1v9.1l-6.9-3.4
			c-0.1-0.1-0.3-0.1-0.4-0.1h-4.3c0,0,0,0,0,0h-12.4c-0.6,0-1,0.4-1,1s0.4,1,1,1h9.4c0,0,0,0,0,0h3c0.6,0,1.1,0.5,1.1,1.1v5.3h-17
			c-1.5,0-3-0.6-4.1-1.7C351.9,172.5,351.3,171,351.3,169.5z M375.9,168.9h1.2l7.6,3.8v2.6h-8.6V170
			C376.1,169.6,376,169.3,375.9,168.9z M445.1,183.6H443v-1.1c0-0.6-0.4-1-1-1s-1,0.4-1,1v1.1h-85.6v-1.1c0-0.6-0.4-1-1-1
			s-1,0.4-1,1v1.1h-2.2v-6.3h53.2h25h15.7V183.6z"/>
		<path class="st4" d="M391.9,194h-4.2c-0.6,0-1,0.4-1,1s0.4,1,1,1h4.2c0.6,0,1-0.4,1-1S392.5,194,391.9,194z"/>
		<path class="st4" d="M400.3,194h-4.2c-0.6,0-1,0.4-1,1s0.4,1,1,1h4.2c0.6,0,1-0.4,1-1S400.8,194,400.3,194z"/>
		<path class="st4" d="M408.6,194h-4.2c-0.6,0-1,0.4-1,1s0.4,1,1,1h4.2c0.6,0,1-0.4,1-1S409.1,194,408.6,194z"/>
		<path class="st4" d="M431.5,135.6c8.6,0,15.6-7,15.6-15.6c0-8.6-7-15.6-15.6-15.6c-8.6,0-15.6,7-15.6,15.6
			C415.9,128.6,422.9,135.6,431.5,135.6z M431.5,106.4c7.5,0,13.6,6.1,13.6,13.6s-6.1,13.6-13.6,13.6c-7.5,0-13.6-6.1-13.6-13.6
			S424,106.4,431.5,106.4z"/>
		<path class="st4" d="M431.5,121h8.3c0.6,0,1-0.4,1-1s-0.4-1-1-1h-7.3v-7.3c0-0.6-0.4-1-1-1s-1,0.4-1,1v8.3
			C430.5,120.5,431,121,431.5,121z"/>
	</g>
</g>
</svg>
