<?xml version="1.0" encoding="utf-8"?>
<!-- Generator: Adobe Illustrator 25.0.0, SVG Export Plug-In . SVG Version: 6.00 Build 0)  -->
<svg version="1.1" id="Layer_1" xmlns="http://www.w3.org/2000/svg" xmlns:xlink="http://www.w3.org/1999/xlink" x="0px" y="0px"
	 viewBox="0 0 100 100" style="enable-background:new 0 0 100 100;" xml:space="preserve">
<style type="text/css">
	.st0{fill:#F0EDDA;}
	.st1{fill:#CCEEF5;}
	.st2{fill:#FBB600;}
	.st3{fill:#1786A3;}
	.st4{fill:#2C5871;}
</style>
<g id="c-teacher-data" transform="translate(-418.619 -109.374)">
	<path id="Path_604" class="st0" d="M478.2,202v-17h8.5v17"/>
	<path id="Path_605" class="st1" d="M461.2,202v-34.1h8.5V202"/>
	<path id="Path_606" class="st2" d="M444.1,202v-27.7h8.5V202"/>
	<path id="Path_607" class="st2" d="M454.8,142.3c3.4,0.1,6.3-2.6,6.4-6c0-0.1,0-0.3,0-0.4v-2.1c0-3.5-2.9-6.4-6.4-6.4
		s-6.4,2.9-6.4,6.4v2.1c-0.1,3.4,2.6,6.3,6,6.4C454.5,142.3,454.6,142.3,454.8,142.3z"/>
	<path id="Path_608" class="st3" d="M465.4,155.1v-6.4c0-4.3-5.9-6.4-10.7-6.4s-10.7,2.1-10.7,6.4v6.4H465.4z"/>
	<g>
		<path class="st4" d="M444.1,156.1h21.3c0.6,0,1-0.4,1-1v-6.4c0-3.5-3.2-5.8-7.1-6.8c1.7-1.3,2.8-3.3,2.9-5.5c0-0.1,0-0.3,0-0.4
			v-2.1c0-4.1-3.3-7.4-7.4-7.4s-7.4,3.3-7.4,7.4l0,2.1c-0.1,2.4,1.1,4.6,2.9,6c-3.9,1-7.1,3.3-7.1,6.8v6.4
			C443.1,155.7,443.6,156.1,444.1,156.1z M454.4,141.3c-1.4,0-2.7-0.6-3.6-1.6c-1-1-1.5-2.3-1.4-3.8v-2.1c0-3,2.4-5.4,5.4-5.4
			s5.4,2.4,5.4,5.4l0,2.2c0,0.1,0,0.2,0,0.3c-0.1,2.9-2.5,5.1-5.4,5c0,0,0,0,0,0c0,0,0,0-0.1,0C454.6,141.3,454.5,141.3,454.4,141.3
			z M445.1,148.7c0-3.3,5-5.4,9.6-5.4c0,0,0,0,0,0c0,0,0.1,0,0.1,0c4.6,0,9.6,2.1,9.6,5.4v5.4h-19.3V148.7z"/>
		<path class="st4" d="M495.3,137.1h-23.4c-0.6,0-1,0.4-1,1s0.4,1,1,1h23.4c0.6,0,1-0.4,1-1S495.8,137.1,495.3,137.1z"/>
		<path class="st4" d="M495.3,145.6h-23.4c-0.6,0-1,0.4-1,1s0.4,1,1,1h23.4c0.6,0,1-0.4,1-1S495.8,145.6,495.3,145.6z"/>
		<path class="st4" d="M488.9,154.1h-17c-0.6,0-1,0.4-1,1s0.4,1,1,1h17c0.6,0,1-0.4,1-1S489.4,154.1,488.9,154.1z"/>
		<path class="st4" d="M452.6,173.3h-8.5c-0.6,0-1,0.4-1,1V202c0,0.6,0.4,1,1,1s1-0.4,1-1v-26.7h6.5V202c0,0.6,0.4,1,1,1s1-0.4,1-1
			v-27.7C453.6,173.7,453.2,173.3,452.6,173.3z"/>
		<path class="st4" d="M469.7,166.9h-8.5c-0.6,0-1,0.4-1,1V202c0,0.6,0.4,1,1,1s1-0.4,1-1v-33.1h6.5V202c0,0.6,0.4,1,1,1
			c0.6,0,1-0.4,1-1v-34.1C470.7,167.3,470.2,166.9,469.7,166.9z"/>
		<path class="st4" d="M486.7,183.9h-8.5c-0.6,0-1,0.4-1,1v17c0,0.6,0.4,1,1,1s1-0.4,1-1v-16h6.5v16c0,0.6,0.4,1,1,1s1-0.4,1-1v-17
			C487.7,184.4,487.3,183.9,486.7,183.9z"/>
		<path class="st4" d="M504.5,120.3l-10.7-10.7c-0.2-0.2-0.4-0.3-0.7-0.3h-59.7c-0.6,0-1,0.4-1,1v98c0,0.6,0.4,1,1,1h70.3
			c0.6,0,1-0.4,1-1V121C504.8,120.8,504.7,120.5,504.5,120.3z M502.8,207.4h-68.3v-96h58.2l10.1,10.1V207.4z"/>
		<path class="st4" d="M489.9,114.6c0-0.6-0.4-1-1-1s-1,0.4-1,1v10.7c0,0.6,0.4,1,1,1h10.7c0.6,0,1-0.4,1-1s-0.4-1-1-1h-9.7V114.6z"
			/>
	</g>
</g>
</svg>
