<?xml version="1.0" encoding="utf-8"?>
<!-- Generator: Adobe Illustrator 25.0.0, SVG Export Plug-In . SVG Version: 6.00 Build 0)  -->
<svg version="1.1" id="Layer_1" xmlns="http://www.w3.org/2000/svg" xmlns:xlink="http://www.w3.org/1999/xlink" x="0px" y="0px"
	 viewBox="0 0 100 100" style="enable-background:new 0 0 100 100;" xml:space="preserve">
<style type="text/css">
	.st0{fill:#FBB600;}
	.st1{fill:#1786A3;}
	.st2{fill:#2C5871;}
</style>
<g id="c-teachers" transform="translate(-309.619 -103.606)">
	<path id="Path_529" class="st0" d="M372.4,104.6c7.1,0,12.8,4.2,12.8,16c0,11.8-5.7,16-12.8,16s-12.8-4.2-12.8-16
		S365.3,104.6,372.4,104.6"/>
	<path id="Path_530" class="st1" d="M375.5,200.5l-13.9-20.7l24.3-15.7l9.2,14.2c-0.3,0.9-3.3,3-4.8,4.2c-1.8-1.1-4.8-0.8-5.5-0.7
		c-0.9,0.1-3.3,3.8-3.8,4.4c-0.2,0.1-3.4,2.3-3.4,3c0.2,4.2,3.5,7.7,5.6,7.1c6-1.9,17.1-7.9,22.9-14.1c3-3.2,3.4-7,0.8-10.5l-13-21
		c-3.8-5.2-16.8-7.7-23-7.7c-6,0-19.5,3.1-23.3,8c-3.3,4.3-10.7,14.5-13.7,17.1l-8.5-4.7c-1.3-2.5,0.5-3.4,0.2-5.7
		c-0.1-1-6.9-6.8-7.8-7c-4.5-0.9-8.4,7.1-6.8,10.1c1.1,2.2,2.5,4.3,4.2,6c14.9,17.6,15.2,19.2,20,19.5c5.1,0.3,14.4-9.2,15.9-11.3
		v27.7"/>
	<g>
		<path class="st2" d="M407.7,171.1L394.7,150c-4.2-5.7-17.8-8.1-23.8-8.1c-6.2,0-20,3.2-24.1,8.3c-0.8,1.1-1.9,2.5-3.1,4.1
			c-3.2,4.3-7.6,10.1-10,12.4l-7.6-4.2c-0.4-0.9-0.2-1.5,0-2.3c0.2-0.7,0.5-1.6,0.4-2.8c-0.2-1.5-7.4-7.6-8.6-7.9c0,0,0,0,0,0v-36.4
			c0-0.6-0.4-1-1-1s-1,0.4-1,1v36.5c-1.4,0.3-2.8,1.3-4,2.9c-1.8,2.4-3.1,6.3-1.9,8.6c1.1,2.3,2.6,4.4,4.4,6.3
			c2.7,3.2,4.9,5.9,6.8,8.1c8.5,10.2,9.6,11.5,13.9,11.8c4.5,0.3,11.6-6,14.9-9.6v25c0,0.6,0.4,1,1,1s1-0.4,1-1v-27.7
			c0-0.4-0.3-0.8-0.7-1c-0.4-0.1-0.9,0-1.1,0.4c-1.7,2.4-10.6,11.2-15,10.9c-3.4-0.2-4.1-1-12.5-11.1c-1.9-2.2-4.1-4.9-6.8-8.1
			c-1.6-1.7-3-3.7-4.1-5.8c-0.7-1.3,0.1-4.4,1.7-6.5c0.5-0.7,1.7-2,3.2-2.2c0.1,0,0.1,0,0.2,0c0.1,0,0.2,0,0.2,0c0.1,0,0.2,0,0.3,0
			c1.1,0.5,6.4,5.2,7.1,6.3c0.1,0.7-0.1,1.2-0.3,1.8c-0.3,1-0.7,2.2,0.2,4.1c0.1,0.2,0.2,0.3,0.4,0.4l8.5,4.7
			c0.4,0.2,0.8,0.2,1.1-0.1c2.3-2,7-8.2,10.8-13.2c1.2-1.6,2.2-3,3.1-4c3.5-4.4,16.7-7.6,22.5-7.6c6,0,18.6,2.4,22.1,7.2l13.1,21.1
			c2.2,3,2,6.3-0.7,9.2c-5.7,6.2-16.9,12.1-22.5,13.8c-0.4,0.1-0.9,0-1.4-0.4c-1.3-0.9-2.7-3-2.9-5.5c0.2-0.2,0.8-0.8,2.8-2.2
			c0.1-0.1,0.2-0.1,0.2-0.1c0.1-0.1,0.1-0.1,0.2-0.2c0.1-0.1,0.2-0.3,0.4-0.5c1.8-2.5,2.5-3.3,2.9-3.5c0.9-0.1,3.3-0.2,4.7,0.6
			c0.4,0.2,0.8,0.2,1.2-0.1c0.4-0.4,1-0.8,1.6-1.3c2.1-1.7,3.2-2.5,3.4-3.3c0.1-0.3,0.1-0.6-0.1-0.9l-9.2-14.2
			c-0.1-0.2-0.4-0.4-0.6-0.4c-0.3-0.1-0.5,0-0.8,0.1L361,178.9c-0.2,0.1-0.4,0.4-0.4,0.6c-0.1,0.3,0,0.5,0.2,0.8l13.9,20.7
			c0.3,0.5,0.9,0.6,1.4,0.3c0.5-0.3,0.6-0.9,0.3-1.4L363,180.1l22.6-14.6l8.3,12.8c-0.6,0.6-1.8,1.5-2.5,2.1
			c-0.4,0.3-0.8,0.6-1.2,0.9c-1.9-0.8-4.4-0.6-5.4-0.5c-0.9,0.1-1.9,1.2-4.1,4.3c-0.1,0.1-0.2,0.2-0.2,0.3l0,0
			c-3.1,2.2-3.7,3-3.6,3.8c0.2,3.4,2,6.1,3.8,7.3c1.1,0.7,2.2,1,3.2,0.7c5.9-1.8,17.3-7.9,23.3-14.4
			C410.2,179.2,410.5,174.9,407.7,171.1z"/>
		<path class="st2" d="M372.4,137.6c5.1,0,13.8-2.2,13.8-17c0-5.8-1.3-10.2-4-13.1c-2.3-2.6-5.7-3.9-9.8-3.9c0,0,0,0,0,0
			c-5.1,0-13.8,2.2-13.8,17C358.6,135.4,367.2,137.6,372.4,137.6z M372.4,105.6C372.4,105.6,372.4,105.6,372.4,105.6
			c3.5,0,6.3,1.1,8.3,3.3c2.3,2.5,3.5,6.5,3.5,11.7c0,9.8-4.1,15-11.8,15c-7.7,0-11.8-5.2-11.8-15
			C360.6,110.8,364.7,105.6,372.4,105.6z"/>
	</g>
</g>
</svg>
