<?xml version="1.0" encoding="utf-8"?>
<!-- Generator: Adobe Illustrator 25.0.0, SVG Export Plug-In . SVG Version: 6.00 Build 0)  -->
<svg version="1.1" id="Layer_1" xmlns="http://www.w3.org/2000/svg" xmlns:xlink="http://www.w3.org/1999/xlink" x="0px" y="0px"
	 viewBox="0 0 100 100" style="enable-background:new 0 0 100 100;" xml:space="preserve">
<style type="text/css">
	.st0{fill:#FBB600;}
	.st1{fill:#CCEEF5;}
	.st2{fill:#F4DA80;}
	.st3{fill:#1786A3;}
	.st4{fill:#F0EDDA;}
	.st5{fill:#2C5871;}
</style>
<g id="c-user-profile" transform="translate(-181.269 -103.306)">
	<path id="Path_264" class="st0" d="M193.3,202.2v-26.9c0-9.6,7.8-17.4,17.4-17.4h7.9v44.3L193.3,202.2z"/>
	<path id="Path_265" class="st0" d="M269.2,202.2v-26.9c0-9.6-7.8-17.4-17.4-17.4h-7.9v44.3L269.2,202.2z"/>
	<path id="Path_266" class="st1" d="M231.3,169l12.6-6.3l3.2,3.2l6.3,3.4v33h-44.3v-33l6.3-3.4l3.2-3.2L231.3,169z"/>
	<g id="student" transform="translate(182.269 104.306)">
		<g id="Group_112" transform="translate(52.258 92.903)">
			<path id="Path_267" class="st2" d="M1.5-17.1l-1.6,4.7L3.1,5H-9.6l3.2-17.4L-8-17.1H1.5z"/>
		</g>
		<g id="Group_116" transform="translate(0 65.806)">
			<path id="Path_272" class="st3" d="M19,32.1V2.5l-6.3,2.7C0,11.6,0,32.1,0,32.1"/>
			<path id="Path_275" class="st3" d="M79,32.1V2.5l6.3,2.7C98,11.6,98,32.1,98,32.1"/>
		</g>
		<g id="Group_117" transform="translate(29.032)">
			<path id="Path_278" class="st4" d="M27.9,50.2c5.8-3,9.5-9,9.5-15.5v-9.9c-5.1-1.3-8.8-5.6-9.4-10.8C22,22,12.6,26.8,2.6,26.8
				v7.9c0,6.5,3.7,12.5,9.5,15.5l-4.8-3.1c-12.1-7-16.2-22.5-9.3-34.6C5,0.5,20.5-3.7,32.6,3.3s16.2,22.5,9.3,34.6
				c-2.2,3.8-5.4,7-9.3,9.3L27.9,50.2z"/>
			<g>
				<path class="st5" d="M16.2,75.5c-0.2-0.5-0.7-0.8-1.3-0.6c-0.5,0.2-0.8,0.7-0.6,1.3l1.5,4.5l-3.1,17.1c-0.1,0.5,0.3,1.1,0.8,1.2
					c0.1,0,0.1,0,0.2,0c0.5,0,0.9-0.3,1-0.8l3.2-17.4c0-0.2,0-0.3,0-0.5L16.2,75.5z"/>
				<path class="st5" d="M25.7,76.1c0.2-0.5-0.1-1.1-0.6-1.3c-0.5-0.2-1.1,0.1-1.3,0.6l-1.6,4.7c-0.1,0.2-0.1,0.3,0,0.5l3.2,17.4
					c0.1,0.5,0.5,0.8,1,0.8c0.1,0,0.1,0,0.2,0c0.5-0.1,0.9-0.6,0.8-1.2l-3.1-17.1L25.7,76.1z"/>
				<path class="st5" d="M68.4,86.6c-1.9-7-5.1-12.2-9.5-15.2c0-0.1,0.1-0.2,0.1-0.3c0-10.1-8.2-18.4-18.4-18.4h-6.9v-5
					c3.8-2.3,6.9-5.5,9.1-9.3c3.5-6.1,4.4-13.2,2.6-20S39.2,6,33.1,2.4C20.6-4.8,4.4-0.5-2.8,12.1c-3.5,6.1-4.4,13.2-2.6,20
					c1.8,6.6,5.9,12.1,11.7,15.7v5h-6.9c-10.1,0-18.4,8.2-18.4,18.4c0,0.1,0,0.2,0.1,0.3c-4.4,3-7.7,8.2-9.5,15.2
					c-1.6,6-1.6,11.1-1.6,11.3c0,0.6,0.4,1,1,1c0.6,0,1-0.4,1-1c0-0.2,0.1-20,12-26l4.9-2.1v28.1c0,0.6,0.4,1,1,1c0.6,0,1-0.4,1-1
					V68.3c0-0.1,0-0.2,0-0.3c0-0.1,0-0.1,0-0.2v-1.6c0-0.6-0.4-1-1-1c-0.6,0-1,0.4-1,1v1.4l-5.8,2.5c0,0-0.1,0-0.1,0
					c0.4-8.6,7.6-15.5,16.3-15.5h6.9V58l-2.8,2.8l-4.7,2.5v-0.1c0-0.6-0.4-1-1-1s-1,0.4-1,1v1.8c0,0,0,0,0,0v33c0,0.6,0.4,1,1,1
					s1-0.4,1-1V66.3c0,0,0,0,0,0v-0.8l5.8-3.1c0.1,0,0.2-0.1,0.2-0.2l2.7-2.7l10.7,5.3l-8.7,7.5l-1.2-4.8c-0.1-0.5-0.7-0.9-1.2-0.7
					c-0.5,0.1-0.9,0.7-0.7,1.2l1.6,6.3c0.1,0.3,0.3,0.6,0.7,0.7c0.3,0.1,0.7,0,1-0.2L20,66L30.4,75c0.3,0.2,0.6,0.3,1,0.2
					c0.3-0.1,0.6-0.4,0.7-0.7l1.6-6.3c0.1-0.5-0.2-1.1-0.7-1.2c-0.5-0.1-1.1,0.2-1.2,0.7l-1.2,4.8l-8.7-7.5l10.7-5.3l2.7,2.7
					c0.1,0.1,0.1,0.1,0.2,0.2l5.8,3.1v0.8c0,0,0,0,0,0v31.6c0,0.6,0.4,1,1,1s1-0.4,1-1V65c0,0,0,0,0,0v-1.8c0-0.6-0.4-1-1-1
					s-1,0.4-1,1v0.1l-4.7-2.5L33.6,58v-3.3h6.9c8.8,0,15.9,6.9,16.3,15.5c0,0-0.1-0.1-0.1-0.1L51,67.7v-1.4c0-0.6-0.4-1-1-1
					s-1,0.4-1,1v1.6c0,0.1,0,0.1,0,0.2c0,0.1,0,0.2,0,0.3v29.6c0,0.6,0.4,1,1,1s1-0.4,1-1V69.9l4.9,2.1c11.9,6,12.1,25.8,12.1,26
					c0,0.6,0.4,1,1,1c0.6,0,1-0.4,1-1C70,97.7,69.9,92.6,68.4,86.6z M-3.5,31.5c-1.7-6.3-0.8-12.8,2.4-18.4
					C5.6,1.5,20.5-2.5,32.1,4.2c5.6,3.2,9.6,8.5,11.3,14.8c1.7,6.3,0.8,12.8-2.4,18.4c-1.3,2.2-2.9,4.1-4.7,5.8
					c1.3-2.6,2.1-5.5,2.1-8.5v-9.9c0-0.5-0.3-0.9-0.7-1c-4.6-1.2-8.1-5.2-8.7-10c0-0.4-0.3-0.7-0.7-0.9c-0.4-0.1-0.8,0-1.1,0.4
					c-5.7,7.8-14.9,12.4-24.6,12.4c-0.6,0-1,0.4-1,1v7.9c0,3,0.7,5.9,2.1,8.5C0.2,40.1-2.3,36.1-3.5,31.5z M20,63.6L8.3,57.8v-8.9
					c1,0.8,2.1,1.5,3.3,2.2c0.1,0.1,0.3,0.1,0.5,0.1c0.4,0,0.7-0.2,0.9-0.5c0.3-0.5,0.1-1.1-0.4-1.3c-5.5-2.8-9-8.4-8.9-14.6v-6.9
					c9.2-0.3,17.9-4.5,23.8-11.5c1.2,4.3,4.6,7.9,9,9.3v9.1c0,6.2-3.4,11.8-8.9,14.6c-0.5,0.3-0.7,0.9-0.4,1.3
					c0.2,0.5,0.8,0.7,1.3,0.4c1.2-0.6,2.3-1.3,3.3-2.1v8.9L20,63.6z"/>
			</g>
		</g>
	</g>
</g>
</svg>
