<?xml version="1.0" encoding="utf-8"?>
<!-- Generator: Adobe Illustrator 25.0.0, SVG Export Plug-In . SVG Version: 6.00 Build 0)  -->
<svg version="1.1" id="Layer_1" xmlns="http://www.w3.org/2000/svg" xmlns:xlink="http://www.w3.org/1999/xlink" x="0px" y="0px"
	 viewBox="0 0 100 100" style="enable-background:new 0 0 100 100;" xml:space="preserve">
<style type="text/css">
	.st0{fill:#2C5871;}
	.st1{fill:#1786A3;}
	.st2{fill:#CCEEF5;}
	.st3{fill:#F0EDDA;}
	.st4{fill:#FBB600;}
</style>
<g id="c-virtual-classes" transform="translate(-357.033 -95.183)">
	<path class="st0" d="M449.6,169.6c-0.6,0-1-0.4-1-1v-55.4c0-1.8-1.5-3.3-3.3-3.3c0,0,0,0,0,0h-76.7c-0.9,0-1.7,0.3-2.3,1
		c-0.6,0.6-1,1.4-1,2.3v55.4c0,0.6-0.4,1-1,1s-1-0.4-1-1v-55.4c0-1.4,0.5-2.7,1.5-3.7c1-1,2.3-1.5,3.7-1.5h76.7h0
		c2.9,0,5.3,2.4,5.3,5.3v55.4C450.6,169.2,450.2,169.6,449.6,169.6z"/>
	<g>
		<path id="Path_589_1_" class="st1" d="M456,168.6h-38.3l-4.3,4.3h-10.7l-6.4-4.3H358v4.3c0,4.7,3.8,8.5,8.5,8.5l0,0h81
			c4.7,0,8.5-3.8,8.5-8.5l0,0V168.6z"/>
		<path class="st0" d="M447.5,182.4h-81c-5.3,0-9.5-4.3-9.5-9.5v-4.3c0-0.6,0.4-1,1-1h38.3c0.2,0,0.4,0.1,0.6,0.2l6.1,4.1h9.9l4-4
			c0.2-0.2,0.4-0.3,0.7-0.3H456c0.6,0,1,0.4,1,1v4.3C457,178.1,452.8,182.4,447.5,182.4z M359,169.6v3.3c0,4.1,3.4,7.5,7.5,7.5h81
			c4.1,0,7.5-3.4,7.5-7.5v-3.3h-36.9l-4,4c-0.2,0.2-0.4,0.3-0.7,0.3h-10.7c-0.2,0-0.4-0.1-0.6-0.2l-6.1-4.1H359z"/>
	</g>
	<g>
		<path id="Path_590_1_" class="st2" d="M402.8,136.7v-14.9H439V158h-36.2v-4.3"/>
		<path class="st0" d="M439,159h-36.2c-0.6,0-1-0.4-1-1v-4.3c0-0.6,0.4-1,1-1s1,0.4,1,1v3.3H438v-34.2h-34.2v13.9c0,0.6-0.4,1-1,1
			s-1-0.4-1-1v-14.9c0-0.6,0.4-1,1-1H439c0.6,0,1,0.4,1,1V158C440,158.5,439.5,159,439,159z"/>
	</g>
	<g>
		<path id="Path_591_1_" class="st3" d="M383.6,134.5c3.7,0,6.4-3.3,6.4-7.3v-2.4c0-4-2.7-7.3-6.4-7.3s-6.4,3.3-6.4,7.3v2.4
			C377.2,131.3,379.9,134.5,383.6,134.5z"/>
		<path class="st0" d="M383.6,135.5c-4.1,0-7.4-3.6-7.4-8.3v-2.4c0-4.7,3.2-8.3,7.4-8.3c4.1,0,7.4,3.6,7.4,8.3v2.4
			C391,131.9,387.7,135.5,383.6,135.5z M383.6,118.5c-3,0-5.4,2.8-5.4,6.3v2.4c0,3.5,2.4,6.3,5.4,6.3c3,0,5.4-2.8,5.4-6.3v-2.4
			C389,121.3,386.6,118.5,383.6,118.5z"/>
	</g>
	<g>
		<path id="Path_592_1_" class="st4" d="M394.3,162.2v-12.8H407c6.4,0,8.5-3.8,8.5-8.5h-34.1c-3,0-8.5,2.3-8.5,8.5v12.8"/>
		<path class="st0" d="M394.3,163.2c-0.6,0-1-0.4-1-1v-12.8c0-0.6,0.4-1,1-1H407c4.7,0,7.2-2.1,7.5-6.5h-33.1
			c-2.5,0-7.5,1.8-7.5,7.5v12.8c0,0.6-0.4,1-1,1c-0.6,0-1-0.4-1-1v-12.8c0-4,3-9.5,9.5-9.5h34.1c0.6,0,1,0.4,1,1
			c0,6.1-3.4,9.5-9.5,9.5h-11.8v11.8C395.3,162.8,394.8,163.2,394.3,163.2z"/>
	</g>
</g>
</svg>
