<?xml version="1.0" encoding="utf-8"?>
<!-- Generator: Adobe Illustrator 25.0.0, SVG Export Plug-In . SVG Version: 6.00 Build 0)  -->
<svg version="1.1" id="Layer_1" xmlns="http://www.w3.org/2000/svg" xmlns:xlink="http://www.w3.org/1999/xlink" x="0px" y="0px"
	 viewBox="0 0 100 100" style="enable-background:new 0 0 100 100;" xml:space="preserve">
<style type="text/css">
	.st0{fill:#F0EDDA;}
	.st1{fill:#CCEEF5;}
	.st2{fill:#1786A3;}
	.st3{fill:#FBB600;}
	.st4{fill:#2C5871;}
</style>
<g id="c-videos" transform="translate(17925.438 -3739.564)">
	<rect id="Rectangle_430" x="-17924.1" y="3749.4" class="st0" width="68.2" height="12.5"/>
	<path id="Path_721" class="st1" d="M-17898.9,3789.6v21.3l17-10.7L-17898.9,3789.6z"/>
	<path id="Path_720" class="st2" d="M-17847.7,3830.1v-25.6h-12.8c-6.4,0-8.5-4.3-8.5-8.5h34.1c3,0,8.5,2.3,8.5,8.5v25.6"/>
	<path id="Path_719" class="st3" d="M-17838.2,3787.4c4.3,0,7.5-3.7,7.5-8.2v-2.7c0-4.5-3.2-8.2-7.5-8.2c-4.3,0-7.5,3.7-7.5,8.2v2.7
		C-17845.6,3783.8-17842.4,3787.4-17838.2,3787.4z"/>
	<g>
		<path class="st4" d="M-17835,3795h-34.1c-0.6,0-1,0.4-1,1c0,6,3.6,9.5,9.5,9.5h11.8v24.6c0,0.6,0.4,1,1,1s1-0.4,1-1v-25.6
			c0-0.6-0.4-1-1-1h-12.8c-5.8,0-7.2-3.7-7.5-6.5h33c2.5,0,7.5,1.8,7.5,7.5v25.6c0,0.6,0.4,1,1,1s1-0.4,1-1v-25.6
			C-17825.4,3797.9-17831,3795-17835,3795z"/>
		<path class="st4" d="M-17838.2,3788.4c4.7,0,8.5-4,8.5-9.2v-2.7c0-2.5-0.8-4.8-2.4-6.5c-1.6-1.8-3.7-2.7-6.1-2.7
			c-4.7,0-8.5,4-8.5,9.2v2.7C-17846.6,3784.4-17842.9,3788.4-17838.2,3788.4z M-17844.6,3776.5c0-4,2.8-7.2,6.5-7.2
			c1.8,0,3.4,0.7,4.6,2.1c1.2,1.4,1.9,3.2,1.9,5.1v2.7c0,4-2.8,7.2-6.5,7.2s-6.5-3.2-6.5-7.2V3776.5z"/>
		<path class="st4" d="M-17864.8,3792.7c0.6,0,1-0.4,1-1v-12.8c0-0.6-0.4-1-1-1h-51.1c-0.6,0-1,0.4-1,1v40.5c0,0.6,0.4,1,1,1h51.1
			c0.6,0,1-0.4,1-1v-10.7c0-0.6-0.4-1-1-1s-1,0.4-1,1v9.7h-49.1v-38.5h49.1v11.8C-17865.8,3792.2-17865.3,3792.7-17864.8,3792.7z"/>
		<path class="st4" d="M-17898.3,3788.7c-0.3-0.2-0.7-0.2-1,0c-0.3,0.2-0.5,0.5-0.5,0.9v21.3c0,0.4,0.2,0.7,0.5,0.9
			c0.2,0.1,0.3,0.1,0.5,0.1c0.2,0,0.4-0.1,0.5-0.2l17-10.7c0.3-0.2,0.5-0.5,0.5-0.8s-0.2-0.7-0.5-0.8L-17898.3,3788.7z
			 M-17897.9,3809.1v-17.7l14.2,8.9L-17897.9,3809.1z"/>
		<path class="st4" d="M-17856.3,3807.7c-0.6,0-1,0.4-1,1v18.2h-66.2v-64.1h66.2v28.8c0,0.6,0.4,1,1,1s1-0.4,1-1v-42.6
			c0-0.6-0.4-1-1-1h-68.2c-0.6,0-1,0.4-1,1v78.9c0,0.6,0.4,1,1,1h68.2c0.6,0,1-0.4,1-1v-19.2
			C-17855.3,3808.2-17855.7,3807.7-17856.3,3807.7z M-17857.3,3750.1v10.8h-66.2v-10.8H-17857.3z"/>
		<path class="st4" d="M-17918,3756.5h4.3c0.6,0,1-0.4,1-1s-0.4-1-1-1h-4.3c-0.6,0-1,0.4-1,1S-17918.6,3756.5-17918,3756.5z"/>
		<path class="st4" d="M-17909.5,3756.5h4.3c0.6,0,1-0.4,1-1s-0.4-1-1-1h-4.3c-0.6,0-1,0.4-1,1S-17910.1,3756.5-17909.5,3756.5z"/>
		<path class="st4" d="M-17887.2,3770.4c0-0.6-0.4-1-1-1h-29.8c-0.6,0-1,0.4-1,1s0.4,1,1,1h29.8
			C-17887.7,3771.4-17887.2,3770.9-17887.2,3770.4z"/>
	</g>
</g>
</svg>
