<?xml version="1.0" encoding="utf-8"?>
<!-- Generator: Adobe Illustrator 25.0.0, SVG Export Plug-In . SVG Version: 6.00 Build 0)  -->
<svg version="1.1" id="Layer_1" xmlns="http://www.w3.org/2000/svg" xmlns:xlink="http://www.w3.org/1999/xlink" x="0px" y="0px"
	 viewBox="0 0 100 100" style="enable-background:new 0 0 100 100;" xml:space="preserve">
<style type="text/css">
	.st0{fill:#1786A3;}
	.st1{fill:#2C5871;}
	.st2{fill:#F0EDDA;}
	.st3{fill:#FBB600;}
</style>
<g id="c-weeks-setup" transform="translate(-256.109 -118.52)">
	<path id="Rectangle_83" class="st0" d="M263.5,127.7h71.2c3.5,0,6.4,2.9,6.4,6.4v10l0,0h-84l0,0v-10
		C257.1,130.5,260,127.7,263.5,127.7z"/>
	<path class="st1" d="M334.1,126.7h-6v-6c0-0.6-0.4-1-1-1s-1,0.4-1,1v6h-12v-6c0-0.6-0.4-1-1-1s-1,0.4-1,1v6h-12v-6c0-0.6-0.4-1-1-1
		s-1,0.4-1,1v6h-12v-6c0-0.6-0.4-1-1-1s-1,0.4-1,1v6h-12v-6c0-0.6-0.4-1-1-1s-1,0.4-1,1v6h-6c0,0,0,0,0,0c-4.4,0-8,3.6-8,8v9.3
		c0,0,0,0,0,0s0,0,0,0v49c0,2.1,0.8,4.1,2.3,5.7c1.5,1.5,3.5,2.4,5.7,2.4h35c0.6,0,1-0.4,1-1s-0.4-1-1-1h-35c-1.6,0-3.1-0.6-4.2-1.8
		c-1.1-1.1-1.8-2.6-1.7-4.2v-48h82v15.3c0,0.6,0.4,1,1,1s1-0.4,1-1v-25.6C342.1,130.3,338.5,126.7,334.1,126.7z M258.1,143v-8.3
		c0-3.3,2.7-6,6-6c0,0,0,0,0,0h6v6c0,0.6,0.4,1,1,1s1-0.4,1-1v-6h12v6c0,0.6,0.4,1,1,1s1-0.4,1-1v-6h12v6c0,0.6,0.4,1,1,1s1-0.4,1-1
		v-6h12v6c0,0.6,0.4,1,1,1s1-0.4,1-1v-6h12v6c0,0.6,0.4,1,1,1s1-0.4,1-1v-6h6c3.3,0,6,2.7,6,6v8.3H258.1z"/>
	<g>
		<circle id="Ellipse_2-2_1_" class="st2" cx="329.4" cy="190.7" r="25.7"/>
		<path class="st1" d="M329.4,217.4c-14.7,0-26.7-12-26.7-26.7s12-26.7,26.7-26.7s26.7,12,26.7,26.7S344.1,217.4,329.4,217.4z
			 M329.4,166c-13.6,0-24.7,11.1-24.7,24.7c0,13.6,11.1,24.7,24.7,24.7s24.7-11.1,24.7-24.7C354.1,177.1,343,166,329.4,166z"/>
	</g>
	<g>
		<path id="Path_15-2_1_" class="st3" d="M314.1,186.4l1.5-3.6l1-0.5l1.8,0.6l0.9-0.3c0.6-0.8,1.4-1.5,2.2-2.2l0.3-0.9l-0.6-1.8
			l0.5-1l3.6-1.5l1,0.4l0.8,1.7l0.8,0.4c1-0.1,2.1-0.1,3.1,0l0.8-0.4l0.8-1.7l1-0.4l3.6,1.5l0.5,1l-0.6,1.8l0.3,0.9
			c0.8,0.6,1.5,1.4,2.2,2.2l0.9,0.3l1.8-0.6l1,0.5l1.5,3.6l-0.4,1l-1.7,0.8l-0.4,0.8c0.1,1,0.1,2.1,0,3.1l0.4,0.8l1.7,0.8l0.4,1
			l-1.5,3.6l-1,0.5l-1.8-0.6l-0.9,0.3c-0.6,0.8-1.4,1.5-2.2,2.2l-0.3,0.9l0.6,1.8l-0.5,1l-3.6,1.5l-1-0.4l-0.8-1.7l-0.8-0.4
			c-1,0.1-2.1,0.1-3.1,0l-0.8,0.4l-0.8,1.7l-1,0.4l-3.6-1.5l-0.5-1l0.6-1.8l-0.3-0.9c-0.8-0.6-1.5-1.4-2.2-2.2l-0.9-0.3l-1.8,0.6
			l-1-0.5l-1.5-3.6l0.4-1l1.7-0.8l0.4-0.8c-0.1-1-0.1-2.1,0-3.1l-0.4-0.8l-1.7-0.8L314.1,186.4z"/>
		<path class="st1" d="M333.7,207.1c-0.1,0-0.2,0-0.3-0.1l-1-0.4c-0.2-0.1-0.4-0.3-0.5-0.5l-0.7-1.4l-0.3-0.1
			c-0.9,0.1-1.8,0.1-2.7,0l-0.3,0.1l-0.7,1.4c-0.1,0.2-0.3,0.4-0.5,0.5l-1,0.4c-0.2,0.1-0.5,0.1-0.7,0l-3.6-1.5
			c-0.2-0.1-0.4-0.3-0.5-0.5l-0.5-1c-0.1-0.2-0.1-0.5,0-0.7l0.5-1.4l-0.1-0.3c-0.7-0.6-1.3-1.2-1.9-1.9l-0.3-0.1l-1.5,0.5
			c-0.2,0.1-0.5,0.1-0.7,0l-1-0.5c-0.2-0.1-0.4-0.3-0.5-0.5l-1.5-3.6c-0.1-0.2-0.1-0.5,0-0.7l0.4-1c0.1-0.2,0.3-0.4,0.5-0.5l1.4-0.7
			l0.2-0.3c-0.1-0.9-0.1-1.8,0-2.7l-0.1-0.3l-1.4-0.7c-0.2-0.1-0.4-0.3-0.5-0.5l-0.4-1c-0.1-0.2-0.1-0.5,0-0.7l1.5-3.6
			c0.1-0.2,0.3-0.4,0.5-0.5l1-0.5c0.2-0.1,0.5-0.1,0.7,0l1.4,0.5l0.3-0.1c0.6-0.7,1.2-1.3,1.9-1.9l0.1-0.3l-0.5-1.5
			c-0.1-0.2-0.1-0.5,0-0.7l0.5-1c0.1-0.2,0.3-0.4,0.5-0.5l3.6-1.5c0.2-0.1,0.5-0.1,0.7,0l1,0.4c0.2,0.1,0.4,0.3,0.5,0.5l0.7,1.4
			l0.3,0.2c0.9-0.1,1.8-0.1,2.7,0l0.3-0.1l0.7-1.4c0.1-0.2,0.3-0.4,0.5-0.5l1-0.4c0.2-0.1,0.5-0.1,0.7,0l3.6,1.5
			c0.2,0.1,0.4,0.3,0.5,0.5l0.5,1c0.1,0.2,0.1,0.5,0,0.7l-0.5,1.4l0.1,0.3c0.7,0.6,1.3,1.2,1.9,1.9l0.3,0.1l1.5-0.5
			c0.2-0.1,0.5-0.1,0.7,0l1,0.5c0.2,0.1,0.4,0.3,0.5,0.5l1.5,3.6c0.1,0.2,0.1,0.5,0,0.7l-0.4,1c-0.1,0.2-0.3,0.4-0.5,0.5l-1.4,0.7
			l-0.2,0.3c0.1,0.9,0.1,1.8,0,2.7l0.1,0.3l1.4,0.7c0.2,0.1,0.4,0.3,0.5,0.5l0.4,1c0.1,0.2,0.1,0.5,0,0.7l-1.5,3.6
			c-0.1,0.2-0.3,0.4-0.5,0.5l-1,0.5c-0.2,0.1-0.5,0.1-0.7,0l-1.4-0.5l-0.3,0.1c-0.6,0.7-1.2,1.3-1.9,1.9l-0.1,0.3l0.5,1.5
			c0.1,0.2,0.1,0.5,0,0.7l-0.5,1c-0.1,0.2-0.3,0.4-0.5,0.5l-3.6,1.5C334,207,333.8,207.1,333.7,207.1z M333.4,204.9l0.3,0.1l2.9-1.2
			l0.1-0.3l-0.5-1.4c-0.1-0.2-0.1-0.4,0-0.6l0.3-0.9c0.1-0.2,0.2-0.4,0.3-0.5c0.8-0.6,1.4-1.3,2-2c0.1-0.2,0.3-0.3,0.5-0.3l0.9-0.3
			c0.2-0.1,0.4-0.1,0.6,0l1.4,0.5l0.3-0.1l1.2-2.9l-0.1-0.3l-1.3-0.7c-0.2-0.1-0.3-0.2-0.4-0.4l-0.4-0.8c-0.1-0.2-0.1-0.4-0.1-0.6
			c0.1-0.9,0.1-1.9,0-2.9c0-0.2,0-0.4,0.1-0.6l0.4-0.8c0.1-0.2,0.3-0.3,0.4-0.4l1.3-0.7l0.1-0.3l-1.2-2.8l-0.3-0.1l-1.4,0.5
			c-0.2,0.1-0.4,0.1-0.6,0l-0.9-0.3c-0.2-0.1-0.4-0.2-0.5-0.3c-0.6-0.7-1.3-1.4-2-2c-0.2-0.1-0.3-0.3-0.3-0.5l-0.3-0.9
			c-0.1-0.2-0.1-0.4,0-0.6l0.5-1.4l-0.1-0.3l-2.9-1.2l-0.3,0.1l-0.7,1.3c-0.1,0.2-0.2,0.3-0.4,0.4l-0.8,0.4
			c-0.2,0.1-0.4,0.1-0.6,0.1c-0.9-0.1-1.9-0.1-2.9,0c-0.2,0-0.4,0-0.6-0.1l-0.8-0.4c-0.2-0.1-0.3-0.3-0.4-0.4l-0.7-1.3l-0.3-0.1
			l-2.9,1.2l-0.1,0.3l0.5,1.4c0.1,0.2,0.1,0.4,0,0.6l-0.3,0.9c-0.1,0.2-0.2,0.4-0.3,0.5c-0.8,0.6-1.4,1.3-2,2
			c-0.1,0.2-0.3,0.3-0.5,0.3l-0.9,0.3c-0.2,0.1-0.4,0.1-0.6,0l-1.4-0.5l-0.3,0.1l-1.2,2.8l0.1,0.3l1.3,0.7c0.2,0.1,0.3,0.2,0.4,0.4
			l0.4,0.8c0.1,0.2,0.1,0.4,0.1,0.6c-0.1,0.9-0.1,1.9,0,2.9c0,0.2,0,0.4-0.1,0.6l-0.4,0.8c-0.1,0.2-0.3,0.3-0.4,0.4l-1.3,0.7
			l-0.1,0.3l1.2,2.9l0.3,0.1l1.4-0.5c0.2-0.1,0.4-0.1,0.6,0l0.9,0.3c0.2,0.1,0.4,0.2,0.5,0.3c0.6,0.8,1.3,1.4,2,2
			c0.2,0.1,0.3,0.3,0.3,0.5l0.3,0.9c0.1,0.2,0.1,0.4,0,0.6l-0.5,1.4l0.1,0.3l2.9,1.2l0.3-0.1l0.7-1.3c0.1-0.2,0.2-0.3,0.4-0.4
			l0.8-0.4c0.2-0.1,0.4-0.1,0.6-0.1c0.9,0.1,1.9,0.1,2.9,0c0.2,0,0.4,0,0.6,0.1l0.8,0.4c0.2,0.1,0.3,0.3,0.4,0.4L333.4,204.9z"/>
	</g>
</g>
</svg>
