<?xml version="1.0" encoding="utf-8"?>
<!-- Generator: Adobe Illustrator 25.0.0, SVG Export Plug-In . SVG Version: 6.00 Build 0)  -->
<svg version="1.1" id="Layer_1" xmlns="http://www.w3.org/2000/svg" xmlns:xlink="http://www.w3.org/1999/xlink" x="0px" y="0px"
	 viewBox="0 0 100 100" style="enable-background:new 0 0 100 100;" xml:space="preserve">
<style type="text/css">
	.st0{fill:#1786A3;}
	.st1{fill:#2C5871;}
	.st2{fill:#FBB600;}
	.st3{fill:#F0EDDA;}
</style>
<g id="c-week-days" transform="translate(-1298 -314.001)">
	<path id="Rectangle_80" class="st0" d="M1313.2,324.8h69.4c5.1,0,9.3,4.1,9.3,9.3v20.1l0,0h-87.9l0,0v-20.1
		C1303.9,328.9,1308,324.8,1313.2,324.8z"/>
	<path class="st1" d="M1382.3,323.8h-13.7V315c0-0.6-0.4-1-1-1s-1,0.4-1,1v8.8h-37.2V315c0-0.6-0.4-1-1-1s-1,0.4-1,1v8.8h-13.7
		c-6,0-10.8,4.8-10.8,10.8v68.6c0,6,4.8,10.8,10.8,10.8h68.6c6,0,10.8-4.8,10.8-10.8v-68.6C1393.1,328.6,1388.3,323.8,1382.3,323.8z
		 M1313.7,325.8h13.7v8.8c0,0.6,0.4,1,1,1s1-0.4,1-1v-8.8h37.2v8.8c0,0.6,0.4,1,1,1s1-0.4,1-1v-8.8h13.7c4.9,0,8.8,3.9,8.8,8.8v18.6
		h-86.2v-18.6C1304.9,329.8,1308.8,325.8,1313.7,325.8z M1382.3,412h-68.6c-4.9,0-8.8-3.9-8.8-8.8v-48h86.2v48
		C1391.1,408.1,1387.2,412,1382.3,412z"/>
	<path id="Rectangle_86" class="st2" d="M1314.1,363.6h6.2c0.5,0,0.8,0.4,0.8,0.8v4.6c0,0.5-0.4,0.8-0.8,0.8h-6.2
		c-0.5,0-0.8-0.4-0.8-0.8v-4.6C1313.3,364,1313.7,363.6,1314.1,363.6z"/>
	<path id="Rectangle_93" class="st2" d="M1324.3,363.6h6.2c0.5,0,0.8,0.4,0.8,0.8v4.6c0,0.5-0.4,0.8-0.8,0.8h-6.2
		c-0.5,0-0.8-0.4-0.8-0.8v-4.6C1323.5,364,1323.9,363.6,1324.3,363.6z"/>
	<path id="Rectangle_98" class="st2" d="M1334.5,363.6h6.2c0.5,0,0.8,0.4,0.8,0.8v4.6c0,0.5-0.4,0.8-0.8,0.8h-6.2
		c-0.5,0-0.8-0.4-0.8-0.8v-4.6C1333.7,364,1334.1,363.6,1334.5,363.6z"/>
	<path id="Rectangle_103" class="st2" d="M1344.7,363.6h6.2c0.5,0,0.8,0.4,0.8,0.8v4.6c0,0.5-0.4,0.8-0.8,0.8h-6.2
		c-0.5,0-0.8-0.4-0.8-0.8v-4.6C1343.9,364,1344.2,363.6,1344.7,363.6z"/>
	<path id="Rectangle_108" class="st2" d="M1354.9,363.6h6.2c0.5,0,0.8,0.4,0.8,0.8v4.6c0,0.5-0.4,0.8-0.8,0.8h-6.2
		c-0.5,0-0.8-0.4-0.8-0.8v-4.6C1354.1,364,1354.4,363.6,1354.9,363.6z"/>
	<path id="Rectangle_113" class="st3" d="M1365.1,363.6h6.2c0.5,0,0.8,0.4,0.8,0.8v4.6c0,0.5-0.4,0.8-0.8,0.8h-6.2
		c-0.5,0-0.8-0.4-0.8-0.8v-4.6C1364.3,364,1364.6,363.6,1365.1,363.6z"/>
	<path id="Rectangle_118" class="st3" d="M1375.3,363.6h6.2c0.5,0,0.8,0.4,0.8,0.8v4.6c0,0.5-0.4,0.8-0.8,0.8h-6.2
		c-0.5,0-0.8-0.4-0.8-0.8v-4.6C1374.5,364,1374.8,363.6,1375.3,363.6z"/>
	<path id="Rectangle_87" class="st2" d="M1314.1,371.4h6.2c0.5,0,0.8,0.4,0.8,0.8v4.6c0,0.5-0.4,0.8-0.8,0.8h-6.2
		c-0.5,0-0.8-0.4-0.8-0.8v-4.6C1313.3,371.8,1313.7,371.4,1314.1,371.4z"/>
	<path id="Rectangle_92" class="st2" d="M1324.3,371.4h6.2c0.5,0,0.8,0.4,0.8,0.8v4.6c0,0.5-0.4,0.8-0.8,0.8h-6.2
		c-0.5,0-0.8-0.4-0.8-0.8v-4.6C1323.5,371.8,1323.9,371.4,1324.3,371.4z"/>
	<path id="Rectangle_97" class="st2" d="M1334.5,371.4h6.2c0.5,0,0.8,0.4,0.8,0.8v4.6c0,0.5-0.4,0.8-0.8,0.8h-6.2
		c-0.5,0-0.8-0.4-0.8-0.8v-4.6C1333.7,371.8,1334.1,371.4,1334.5,371.4z"/>
	<path id="Rectangle_102" class="st2" d="M1344.7,371.4h6.2c0.5,0,0.8,0.4,0.8,0.8v4.6c0,0.5-0.4,0.8-0.8,0.8h-6.2
		c-0.5,0-0.8-0.4-0.8-0.8v-4.6C1343.9,371.8,1344.2,371.4,1344.7,371.4z"/>
	<path id="Rectangle_107" class="st2" d="M1354.9,371.4h6.2c0.5,0,0.8,0.4,0.8,0.8v4.6c0,0.5-0.4,0.8-0.8,0.8h-6.2
		c-0.5,0-0.8-0.4-0.8-0.8v-4.6C1354.1,371.8,1354.4,371.4,1354.9,371.4z"/>
	<path id="Rectangle_112" class="st3" d="M1365.1,371.4h6.2c0.5,0,0.8,0.4,0.8,0.8v4.6c0,0.5-0.4,0.8-0.8,0.8h-6.2
		c-0.5,0-0.8-0.4-0.8-0.8v-4.6C1364.3,371.8,1364.6,371.4,1365.1,371.4z"/>
	<path id="Rectangle_117" class="st3" d="M1375.3,371.4h6.2c0.5,0,0.8,0.4,0.8,0.8v4.6c0,0.5-0.4,0.8-0.8,0.8h-6.2
		c-0.5,0-0.8-0.4-0.8-0.8v-4.6C1374.5,371.8,1374.8,371.4,1375.3,371.4z"/>
	<path id="Rectangle_88" class="st2" d="M1314.1,387.1h6.2c0.5,0,0.8,0.4,0.8,0.8v4.6c0,0.5-0.4,0.8-0.8,0.8h-6.2
		c-0.5,0-0.8-0.4-0.8-0.8v-4.6C1313.3,387.5,1313.7,387.1,1314.1,387.1z"/>
	<path id="Rectangle_94" class="st2" d="M1324.3,387.1h6.2c0.5,0,0.8,0.4,0.8,0.8v4.6c0,0.5-0.4,0.8-0.8,0.8h-6.2
		c-0.5,0-0.8-0.4-0.8-0.8v-4.6C1323.5,387.5,1323.9,387.1,1324.3,387.1z"/>
	<path id="Rectangle_99" class="st2" d="M1334.5,387.1h6.2c0.5,0,0.8,0.4,0.8,0.8v4.6c0,0.5-0.4,0.8-0.8,0.8h-6.2
		c-0.5,0-0.8-0.4-0.8-0.8v-4.6C1333.7,387.5,1334.1,387.1,1334.5,387.1z"/>
	<path id="Rectangle_104" class="st2" d="M1344.7,387.1h6.2c0.5,0,0.8,0.4,0.8,0.8v4.6c0,0.5-0.4,0.8-0.8,0.8h-6.2
		c-0.5,0-0.8-0.4-0.8-0.8v-4.6C1343.9,387.5,1344.2,387.1,1344.7,387.1z"/>
	<path id="Rectangle_109" class="st2" d="M1354.9,387.1h6.2c0.5,0,0.8,0.4,0.8,0.8v4.6c0,0.5-0.4,0.8-0.8,0.8h-6.2
		c-0.5,0-0.8-0.4-0.8-0.8v-4.6C1354.1,387.5,1354.4,387.1,1354.9,387.1z"/>
	<path id="Rectangle_114" class="st3" d="M1365.1,387.1h6.2c0.5,0,0.8,0.4,0.8,0.8v4.6c0,0.5-0.4,0.8-0.8,0.8h-6.2
		c-0.5,0-0.8-0.4-0.8-0.8v-4.6C1364.3,387.5,1364.6,387.1,1365.1,387.1z"/>
	<path id="Rectangle_119" class="st3" d="M1375.3,387.1h6.2c0.5,0,0.8,0.4,0.8,0.8v4.6c0,0.5-0.4,0.8-0.8,0.8h-6.2
		c-0.5,0-0.8-0.4-0.8-0.8v-4.6C1374.5,387.5,1374.8,387.1,1375.3,387.1z"/>
	<path id="Rectangle_90" class="st2" d="M1314.1,379.3h6.2c0.5,0,0.8,0.4,0.8,0.8v4.6c0,0.5-0.4,0.8-0.8,0.8h-6.2
		c-0.5,0-0.8-0.4-0.8-0.8v-4.6C1313.3,379.7,1313.7,379.3,1314.1,379.3z"/>
	<path id="Rectangle_91" class="st2" d="M1324.3,379.3h6.2c0.5,0,0.8,0.4,0.8,0.8v4.6c0,0.5-0.4,0.8-0.8,0.8h-6.2
		c-0.5,0-0.8-0.4-0.8-0.8v-4.6C1323.5,379.7,1323.9,379.3,1324.3,379.3z"/>
	<path id="Rectangle_96" class="st2" d="M1334.5,379.3h6.2c0.5,0,0.8,0.4,0.8,0.8v4.6c0,0.5-0.4,0.8-0.8,0.8h-6.2
		c-0.5,0-0.8-0.4-0.8-0.8v-4.6C1333.7,379.7,1334.1,379.3,1334.5,379.3z"/>
	<path id="Rectangle_101" class="st2" d="M1344.7,379.3h6.2c0.5,0,0.8,0.4,0.8,0.8v4.6c0,0.5-0.4,0.8-0.8,0.8h-6.2
		c-0.5,0-0.8-0.4-0.8-0.8v-4.6C1343.9,379.7,1344.2,379.3,1344.7,379.3z"/>
	<path id="Rectangle_106" class="st2" d="M1354.9,379.3h6.2c0.5,0,0.8,0.4,0.8,0.8v4.6c0,0.5-0.4,0.8-0.8,0.8h-6.2
		c-0.5,0-0.8-0.4-0.8-0.8v-4.6C1354.1,379.7,1354.4,379.3,1354.9,379.3z"/>
	<path id="Rectangle_111" class="st3" d="M1365.1,379.3h6.2c0.5,0,0.8,0.4,0.8,0.8v4.6c0,0.5-0.4,0.8-0.8,0.8h-6.2
		c-0.5,0-0.8-0.4-0.8-0.8v-4.6C1364.3,379.7,1364.6,379.3,1365.1,379.3z"/>
	<path id="Rectangle_116" class="st3" d="M1375.3,379.3h6.2c0.5,0,0.8,0.4,0.8,0.8v4.6c0,0.5-0.4,0.8-0.8,0.8h-6.2
		c-0.5,0-0.8-0.4-0.8-0.8v-4.6C1374.5,379.7,1374.8,379.3,1375.3,379.3z"/>
	<path id="Rectangle_89" class="st2" d="M1314.1,395h6.2c0.5,0,0.8,0.4,0.8,0.8v4.6c0,0.5-0.4,0.8-0.8,0.8h-6.2
		c-0.5,0-0.8-0.4-0.8-0.8v-4.6C1313.3,395.3,1313.7,395,1314.1,395z"/>
	<path id="Rectangle_95" class="st2" d="M1324.3,395h6.2c0.5,0,0.8,0.4,0.8,0.8v4.6c0,0.5-0.4,0.8-0.8,0.8h-6.2
		c-0.5,0-0.8-0.4-0.8-0.8v-4.6C1323.5,395.3,1323.9,395,1324.3,395z"/>
	<path id="Rectangle_100" class="st2" d="M1334.5,395h6.2c0.5,0,0.8,0.4,0.8,0.8v4.6c0,0.5-0.4,0.8-0.8,0.8h-6.2
		c-0.5,0-0.8-0.4-0.8-0.8v-4.6C1333.7,395.3,1334.1,395,1334.5,395z"/>
</g>
</svg>
