<?xml version="1.0" encoding="utf-8"?>
<!-- Generator: Adobe Illustrator 25.0.0, SVG Export Plug-In . SVG Version: 6.00 Build 0)  -->
<svg version="1.1" id="Layer_1" xmlns="http://www.w3.org/2000/svg" xmlns:xlink="http://www.w3.org/1999/xlink" x="0px" y="0px"
	 viewBox="0 0 100 100" style="enable-background:new 0 0 100 100;" xml:space="preserve">
<style type="text/css">
	.st0{fill:#1786A3;}
	.st1{fill:#2C5871;}
	.st2{fill:#FBB600;}
</style>
<g id="c-weeks" transform="translate(-302.934 -67.233)">
	<path id="Rectangle_80" class="st0" d="M317,78h71.5c4.5,0,8.2,3.7,8.2,8.2v21.2l0,0h-87.9l0,0V86.2C308.8,81.7,312.5,78,317,78z"
		/>
	<path class="st1" d="M387.2,77h-13.7v-8.8c0-0.6-0.4-1-1-1s-1,0.4-1,1V77h-37.2v-8.8c0-0.6-0.4-1-1-1s-1,0.4-1,1V77h-13.7
		c-6,0-10.8,4.8-10.8,10.8v68.6c0,6,4.8,10.8,10.8,10.8h68.6c6,0,10.8-4.8,10.8-10.8V87.8C398,81.9,393.2,77,387.2,77z M318.6,79
		h13.7v8.8c0,0.6,0.4,1,1,1s1-0.4,1-1V79h37.2v8.8c0,0.6,0.4,1,1,1s1-0.4,1-1V79h13.7c4.9,0,8.8,3.9,8.8,8.8v18.8h-86.2V87.8
		C309.8,83,313.8,79,318.6,79z M387.2,165.2h-68.6c-4.9,0-8.8-3.9-8.8-8.8v-48.2H396v48.2C396,161.3,392.1,165.2,387.2,165.2z"/>
	<path id="Path_901" class="st2" d="M359.9,127.1l-8.3,19.8h-3l8.4-19.6h-11.5V125h14.3V127.1z"/>
</g>
</svg>
