<?xml version="1.0" encoding="utf-8"?>
<!-- Generator: Adobe Illustrator 25.0.0, SVG Export Plug-In . SVG Version: 6.00 Build 0)  -->
<svg version="1.1" id="Layer_1" xmlns="http://www.w3.org/2000/svg" xmlns:xlink="http://www.w3.org/1999/xlink" x="0px" y="0px"
	 viewBox="0 0 100 100" style="enable-background:new 0 0 100 100;" xml:space="preserve">
<style type="text/css">
	.st0{fill:#1786A3;}
	.st1{fill:#2C5871;}
	.st2{fill:#F0EDDA;}
	.st3{fill:#FBB600;}
</style>
<g id="c-weekly-plan" transform="translate(-29 -304)">
	<g id="Group_86" transform="translate(30 305)">
		<path id="Rectangle_80" class="st0" d="M14.6,9.8h68.5c5.3,0,9.7,4.3,9.7,9.7v19.7l0,0H4.9l0,0V19.5C4.9,14.1,9.2,9.8,14.6,9.8z"
			/>
		<path class="st1" d="M83.3,8.8H69.6V0c0-0.6-0.4-1-1-1s-1,0.4-1,1v8.8H30.4V0c0-0.6-0.4-1-1-1s-1,0.4-1,1v8.8H14.7
			c-6,0-10.8,4.8-10.8,10.8v68.6c0,6,4.8,10.8,10.8,10.8h68.6c6,0,10.8-4.8,10.8-10.8V19.6C94.1,13.6,89.3,8.8,83.3,8.8z M14.7,10.8
			h13.7v8.8c0,0.6,0.4,1,1,1s1-0.4,1-1v-8.8h37.2v8.8c0,0.6,0.4,1,1,1s1-0.4,1-1v-8.8h13.7c4.9,0,8.8,3.9,8.8,8.8v18.6H5.9V19.6
			C5.9,14.7,9.8,10.8,14.7,10.8z M83.3,97H14.7c-4.9,0-8.8-3.9-8.8-8.8v-48h86.2v48C92.1,93.1,88.2,97,83.3,97z"/>
	</g>
	<g id="Group_674" transform="translate(42.72 366.92)">
		<path id="Rectangle_86" class="st2" d="M3.4-11.4h13.1c0.5,0,0.8,0.4,0.8,0.8V2.5c0,0.5-0.4,0.8-0.8,0.8H3.4
			C2.9,3.3,2.6,3,2.6,2.5v-13.1C2.6-11,2.9-11.4,3.4-11.4z"/>
		<path id="Rectangle_431" class="st2" d="M21-11.4h13.1c0.5,0,0.8,0.4,0.8,0.8V2.5c0,0.5-0.4,0.8-0.8,0.8H21
			c-0.5,0-0.8-0.4-0.8-0.8v-13.1C20.2-11,20.6-11.4,21-11.4z"/>
		<path id="Rectangle_432" class="st2" d="M38.7-11.4h13.1c0.5,0,0.8,0.4,0.8,0.8V2.5c0,0.5-0.4,0.8-0.8,0.8H38.7
			c-0.5,0-0.8-0.4-0.8-0.8v-13.1C37.8-11,38.2-11.4,38.7-11.4z"/>
		<path id="Rectangle_433" class="st2" d="M56.3-11.4h13.1c0.5,0,0.8,0.4,0.8,0.8V2.5c0,0.5-0.4,0.8-0.8,0.8H56.3
			c-0.5,0-0.8-0.4-0.8-0.8v-13.1C55.5-11,55.9-11.4,56.3-11.4z"/>
	</g>
	<g id="Group_675" transform="translate(42.72 388.52)">
		<path id="Rectangle_86-2" class="st2" d="M3.4-15.3h13.1c0.5,0,0.8,0.4,0.8,0.8v13.1c0,0.5-0.4,0.8-0.8,0.8H3.4
			C2.9-0.6,2.6-1,2.6-1.4v-13.1C2.6-14.9,2.9-15.3,3.4-15.3z"/>
		<g id="Rectangle_431-2" transform="translate(21.6)">
			<g>
				<path class="st3" d="M-0.6-14.9h13.1c0.2,0,0.4,0.2,0.4,0.4v13.1c0,0.2-0.2,0.4-0.4,0.4H-0.6C-0.8-1-1-1.2-1-1.4v-13.1
					C-1-14.7-0.8-14.9-0.6-14.9z"/>
				<path class="st0" d="M12.5-0.5H-0.6c-0.5,0-0.9-0.4-0.9-0.9v-13.1c0-0.5,0.4-0.9,0.9-0.9h13.1c0.5,0,0.9,0.4,0.9,0.9v13.1
					C13.4-0.9,13-0.5,12.5-0.5z M-0.5-1.5h12.9v-12.9H-0.5V-1.5z"/>
			</g>
		</g>
		<path id="Rectangle_432-2" class="st2" d="M38.7-15.3h13.1c0.5,0,0.8,0.4,0.8,0.8v13.1c0,0.5-0.4,0.8-0.8,0.8H38.7
			c-0.5,0-0.8-0.4-0.8-0.8v-13.1C37.8-14.9,38.2-15.3,38.7-15.3z"/>
		<path id="Rectangle_433-2" class="st2" d="M56.3-15.3h13.1c0.5,0,0.8,0.4,0.8,0.8v13.1c0,0.5-0.4,0.8-0.8,0.8H56.3
			c-0.5,0-0.8-0.4-0.8-0.8v-13.1C55.5-14.9,55.9-15.3,56.3-15.3z"/>
		<path class="st0" d="M26.5-3.9c-0.1,0-0.3-0.1-0.4-0.1l-2.8-2.8c-0.2-0.2-0.2-0.5,0-0.7s0.5-0.2,0.7,0l2.4,2.4l5.3-6.2
			c0.2-0.2,0.5-0.2,0.7-0.1c0.2,0.2,0.2,0.5,0.1,0.7L26.8-4C26.8-3.9,26.6-3.9,26.5-3.9C26.5-3.9,26.5-3.9,26.5-3.9z"/>
	</g>
</g>
</svg>
