<?xml version="1.0" encoding="utf-8"?>
<!-- Generator: Adobe Illustrator 25.0.0, SVG Export Plug-In . SVG Version: 6.00 Build 0)  -->
<svg version="1.1" id="Layer_1" xmlns="http://www.w3.org/2000/svg" xmlns:xlink="http://www.w3.org/1999/xlink" x="0px" y="0px"
	 viewBox="0 0 100 100" style="enable-background:new 0 0 100 100;" xml:space="preserve">
<style type="text/css">
	.st0{fill:#1786A3;}
	.st1{fill:#2C5871;}
	.st2{fill:#FBB600;}
</style>
<g id="c-years" transform="translate(-302.934 -67.233)">
	<path id="Rectangle_80" class="st0" d="M317,78h71.5c4.5,0,8.2,3.7,8.2,8.2v21.2l0,0h-87.9l0,0V86.2C308.8,81.7,312.5,78,317,78z"
		/>
	<path class="st1" d="M387.2,77h-13.7v-8.8c0-0.6-0.4-1-1-1s-1,0.4-1,1V77h-37.2v-8.8c0-0.6-0.4-1-1-1s-1,0.4-1,1V77h-13.7
		c-6,0-10.8,4.8-10.8,10.8v68.6c0,6,4.8,10.8,10.8,10.8h68.6c6,0,10.8-4.8,10.8-10.8V87.8C398,81.9,393.2,77,387.2,77z M318.6,79
		h13.7v8.8c0,0.6,0.4,1,1,1s1-0.4,1-1V79h37.2v8.8c0,0.6,0.4,1,1,1s1-0.4,1-1V79h13.7c4.9,0,8.8,3.9,8.8,8.8v18.6h-86.2V87.8
		C309.8,83,313.8,79,318.6,79z M387.2,165.2h-68.6c-4.9,0-8.8-3.9-8.8-8.8v-48H396v48C396,161.3,392.1,165.2,387.2,165.2z"/>
	<path id="Path_902" class="st2" d="M332.4,124.6c1.2,0,2.4,0.2,3.5,0.7c0.9,0.4,1.7,1.1,2.2,2c0.5,0.9,0.8,1.9,0.8,2.9
		c0,1.3-0.4,2.5-1.2,3.5c-1,1-2.3,1.6-3.7,1.7v0.2c1.4,0.3,2.8,1,3.9,1.9c1,1,1.5,2.3,1.4,3.6c0.1,1.6-0.6,3.2-1.8,4.3
		c-1.2,1.1-2.9,1.7-5.1,1.7c-1.9,0.1-3.8-0.5-5.4-1.7c-1.4-1.3-2.3-3.1-2.4-5h2.1c0.2,1.3,0.8,2.6,1.8,3.5c1.1,0.9,2.4,1.4,3.8,1.3
		c1.3,0.1,2.6-0.3,3.6-1.2c0.8-0.8,1.3-1.9,1.2-3.1c0.1-1.4-0.6-2.7-1.8-3.4c-1.5-0.9-3.2-1.3-4.9-1.2h-0.7v-1.8h0.7
		c4.2,0,6.3-1.4,6.3-4.2c0.1-1.1-0.4-2.2-1.2-2.9c-0.9-0.8-2.1-1.2-3.3-1.1c-1.3,0-2.5,0.4-3.5,1.1c-1,0.9-1.6,2.1-1.7,3.4h-2.1
		c0.1-1.8,0.8-3.5,2.2-4.7C328.7,125.1,330.6,124.5,332.4,124.6z M355.9,130.9c-0.1-1.2-0.6-2.4-1.5-3.3c-0.9-0.8-2.1-1.2-3.3-1.2
		c-1.7-0.1-3.4,0.7-4.4,2.2c-1,1.4-1.5,3.8-1.5,6.9c0,0.6,0,1.1,0,1.4c0.3-1.3,1.1-2.5,2.2-3.2c1.2-0.8,2.7-1.2,4.2-1.2
		c1.9-0.1,3.8,0.6,5.2,2c1.3,1.5,2,3.5,1.9,5.5c0,1.3-0.2,2.5-0.8,3.7c-0.5,1.1-1.4,2-2.4,2.6c-1.2,0.7-2.7,1-4.1,1
		c-3.1,0-5.3-1-6.4-2.9c-1.1-2-1.7-4.6-1.7-8c0-3.8,0.6-6.7,1.9-8.7c1.2-2,3.3-3,6.1-3c1.7-0.1,3.4,0.5,4.7,1.7
		c1.2,1.2,1.9,2.8,2,4.5H355.9z M345.6,139.4c0,1,0.2,2,0.6,2.9c0.4,0.9,1.1,1.7,1.9,2.2c1,0.6,2.1,0.9,3.3,0.8
		c1.4,0.1,2.8-0.5,3.8-1.4c1-1.1,1.5-2.5,1.4-4c0.1-1.5-0.4-3.1-1.4-4.2c-1.1-1-2.5-1.5-4-1.5c-0.9,0-1.9,0.2-2.7,0.6
		c-0.9,0.4-1.6,1-2.1,1.8C345.9,137.4,345.6,138.4,345.6,139.4z M376.8,126.8h-11.6v8.1c0.6-0.8,1.5-1.4,2.4-1.8
		c1.1-0.5,2.2-0.7,3.3-0.7c2.3,0,4.1,0.7,5.2,2c1.2,1.4,1.8,3.2,1.7,5.1c0.1,2-0.6,3.9-1.9,5.5c-1.2,1.4-3.1,2.1-5.5,2.1
		c-1.9,0.1-3.8-0.5-5.2-1.7c-1.4-1.2-2.2-2.9-2.3-4.7h2.1c0.2,1.3,0.8,2.5,1.8,3.3c1,0.8,2.2,1.2,3.5,1.2c1.5,0.1,3-0.5,4-1.6
		c0.9-1.2,1.4-2.6,1.3-4.1c0.1-1.4-0.4-2.8-1.4-3.9c-1.1-1-2.5-1.5-3.9-1.4c-1.1,0-2.2,0.2-3.1,0.7c-0.9,0.5-1.6,1.2-2.1,2h-2.1
		v-12.1h13.6V126.8z"/>
</g>
</svg>
