<svg xmlns="http://www.w3.org/2000/svg" width="125.999" height="122.001" viewBox="0 0 125.999 122.001">
  <g id="c-school" transform="translate(-294.41 -103.605)">
    <path id="Path_224" data-name="Path 224" d="M400.136,251.331v-38h12l-42-40-42,40h12v38Z" transform="translate(-12.727 -26.725)" fill="#f0edda"/>
    <rect id="Rectangle_73" data-name="Rectangle 73" width="20" height="20" transform="translate(347.41 204.606)" fill="#1786a3"/>
    <circle id="Ellipse_10" data-name="Ellipse 10" cx="8" cy="8" r="8" transform="translate(349.41 172.606)" fill="#f0edda"/>
    <rect id="Rectangle_74" data-name="Rectangle 74" width="14" height="10" transform="translate(343.41 104.606)" fill="#fbb600"/>
    <path id="Path_225" data-name="Path 225" d="M384.135,127.514l-20,18h40Z" transform="translate(-26.726 -8.908)" fill="#1786a3"/>
    <path id="Path_226" data-name="Path 226" d="M301.41,212.058h-6v-12l8-26h38v-4" transform="translate(0 -25.453)" fill="none" stroke="#ffffff" stroke-linecap="round" stroke-linejoin="round" stroke-width="2"/>
    <path id="Path_227" data-name="Path 227" d="M463.042,206.968h6v-10l-8-28h-38v-12" transform="translate(-49.633 -20.362)" fill="none" stroke="#ffffff" stroke-linecap="round" stroke-linejoin="round" stroke-width="2"/>
    <path id="Path_228" data-name="Path 228" d="M384.135,127.514l-20,18h40Z" transform="translate(-26.726 -8.908)" fill="none" stroke="#ffffff" stroke-linecap="round" stroke-linejoin="round" stroke-width="2"/>
    <line id="Line_9" data-name="Line 9" y2="14" transform="translate(357.41 104.606)" fill="none" stroke="#ffffff" stroke-linecap="round" stroke-linejoin="round" stroke-width="2"/>
    <rect id="Rectangle_75" data-name="Rectangle 75" width="14" height="10" transform="translate(343.41 104.606)" fill="none" stroke="#ffffff" stroke-linecap="round" stroke-linejoin="round" stroke-width="2"/>
    <path id="Path_229" data-name="Path 229" d="M400.136,251.331v-38h12l-42-40-42,40h12v38Z" transform="translate(-12.727 -26.725)" fill="none" stroke="#ffffff" stroke-linecap="square" stroke-linejoin="round" stroke-width="2"/>
    <rect id="Rectangle_76" data-name="Rectangle 76" width="20" height="20" transform="translate(347.41 204.606)" fill="none" stroke="#ffffff" stroke-linecap="square" stroke-linejoin="round" stroke-width="2"/>
    <path id="Path_230" data-name="Path 230" d="M418.682,238.784v38h-120v-38" transform="translate(-1.272 -52.178)" fill="none" stroke="#ffffff" stroke-linecap="square" stroke-linejoin="round" stroke-width="2"/>
    <circle id="Ellipse_11" data-name="Ellipse 11" cx="8" cy="8" r="8" transform="translate(349.41 172.606)" fill="#fff" stroke="#ffffff" stroke-linecap="round" stroke-linejoin="round" stroke-width="2"/>
    <line id="Line_10" data-name="Line 10" y2="4" transform="translate(307.41 200.606)" fill="none" stroke="#ffffff" stroke-linecap="round" stroke-linejoin="round" stroke-width="3"/>
    <line id="Line_11" data-name="Line 11" y2="4" transform="translate(317.41 200.606)" fill="none" stroke="#ffffff" stroke-linecap="round" stroke-linejoin="round" stroke-width="3"/>
    <line id="Line_12" data-name="Line 12" y2="4" transform="translate(307.41 214.606)" fill="none" stroke="#ffffff" stroke-linecap="round" stroke-linejoin="round" stroke-width="3"/>
    <line id="Line_13" data-name="Line 13" y2="4" transform="translate(317.41 214.606)" fill="none" stroke="#ffffff" stroke-linecap="round" stroke-linejoin="round" stroke-width="3"/>
    <line id="Line_14" data-name="Line 14" y2="4" transform="translate(397.41 200.606)" fill="none" stroke="#ffffff" stroke-linecap="round" stroke-linejoin="round" stroke-width="3"/>
    <line id="Line_15" data-name="Line 15" y2="4" transform="translate(407.41 200.606)" fill="none" stroke="#ffffff" stroke-linecap="round" stroke-linejoin="round" stroke-width="3"/>
    <line id="Line_16" data-name="Line 16" y2="4" transform="translate(397.41 214.606)" fill="none" stroke="#ffffff" stroke-linecap="round" stroke-linejoin="round" stroke-width="3"/>
    <line id="Line_17" data-name="Line 17" y2="4" transform="translate(407.41 214.606)" fill="none" stroke="#ffffff" stroke-linecap="round" stroke-linejoin="round" stroke-width="3"/>
  </g>
</svg>
