<svg xmlns="http://www.w3.org/2000/svg" width="110.001" height="121.999" viewBox="0 0 110.001 121.999">
  <g id="c-years" transform="translate(-302.934 -67.233)">
    <path id="Rectangle_80" data-name="Rectangle 80" d="M10,0H97.609a10,10,0,0,1,10,10V36a0,0,0,0,1,0,0H0a0,0,0,0,1,0,0V10A10,10,0,0,1,10,0Z" transform="translate(303.934 80.233)" fill="#1786a3"/>
    <path id="Path_1" data-name="Path 1" d="M315.934,88.6h84a12,12,0,0,1,12,12v84a12,12,0,0,1-12,12h-84a12,12,0,0,1-12-12v-84A12,12,0,0,1,315.934,88.6Z" transform="translate(0 -8.365)" fill="none" stroke="#ffffff" stroke-linejoin="round" stroke-width="2"/>
    <path id="Path_2" data-name="Path 2" d="M436.308,68.233v24" transform="translate(-54.374)" fill="none" stroke="#ffffff" stroke-linecap="round" stroke-linejoin="round" stroke-width="2"/>
    <path id="Path_3" data-name="Path 3" d="M354.847,68.233v24" transform="translate(-20.913)" fill="none" stroke="#ffffff" stroke-linecap="round" stroke-linejoin="round" stroke-width="2"/>
    <path id="Path_4" data-name="Path 4" d="M303.934,149.693h108" transform="translate(0 -33.46)" fill="none" stroke="#ffffff" stroke-linejoin="round" stroke-width="2"/>
    <path id="Path_902" data-name="Path 902" d="M-23.085-27.36a9.606,9.606,0,0,1,4.332.893,6.407,6.407,0,0,1,2.717,2.451,6.756,6.756,0,0,1,.931,3.534,6.359,6.359,0,0,1-1.482,4.256,6.5,6.5,0,0,1-4.522,2.052v.228a10.627,10.627,0,0,1,4.769,2.375,5.811,5.811,0,0,1,1.729,4.465,7.028,7.028,0,0,1-2.147,5.32Q-18.9.266-23.009.266a9.871,9.871,0,0,1-6.574-2.109,9.1,9.1,0,0,1-3-6.137h2.622a7.107,7.107,0,0,0,2.185,4.313,6.686,6.686,0,0,0,4.693,1.615A6.033,6.033,0,0,0-18.734-3.5a4.985,4.985,0,0,0,1.5-3.762,4.681,4.681,0,0,0-2.147-4.161,10.913,10.913,0,0,0-6.061-1.425h-.836v-2.242h.836q7.714,0,7.714-5.13a4.62,4.62,0,0,0-1.444-3.572,5.666,5.666,0,0,0-3.99-1.33,6.575,6.575,0,0,0-4.256,1.406,6.092,6.092,0,0,0-2.09,4.218h-2.622a8.258,8.258,0,0,1,2.66-5.8A9.328,9.328,0,0,1-23.085-27.36ZM5.643-19.722a6.67,6.67,0,0,0-1.786-4.009,5.434,5.434,0,0,0-3.99-1.425A6.092,6.092,0,0,0-5.472-22.5q-1.843,2.66-1.843,8.474,0,1.1.038,1.672a6.186,6.186,0,0,1,2.7-3.971,8.945,8.945,0,0,1,5.13-1.463A8.309,8.309,0,0,1,6.9-15.371a9.377,9.377,0,0,1,2.28,6.707,10.38,10.38,0,0,1-.95,4.484A7.424,7.424,0,0,1,5.263-.95,9.554,9.554,0,0,1,.247.266Q-5.491.266-7.6-3.325t-2.109-9.747q0-7.03,2.28-10.659T.019-27.36a7.636,7.636,0,0,1,5.738,2.109,9.1,9.1,0,0,1,2.432,5.529ZM-6.973-9.272a8.4,8.4,0,0,0,.76,3.553,6.12,6.12,0,0,0,2.356,2.66A7.421,7.421,0,0,0,.171-2.052,6.343,6.343,0,0,0,4.864-3.819,6.6,6.6,0,0,0,6.631-8.7,7.043,7.043,0,0,0,4.864-13.87,6.507,6.507,0,0,0,.019-15.656a8.023,8.023,0,0,0-3.344.722,6.458,6.458,0,0,0-2.622,2.147A5.858,5.858,0,0,0-6.973-9.272Zm38.152-15.39H16.967v9.918a7.158,7.158,0,0,1,2.926-2.2,10.076,10.076,0,0,1,4.1-.836q4.294,0,6.4,2.47A9.2,9.2,0,0,1,32.509-9.12a9.824,9.824,0,0,1-2.28,6.688Q27.949.19,23.465.19a9.507,9.507,0,0,1-6.4-2.128,8.42,8.42,0,0,1-2.869-5.776h2.622a6.778,6.778,0,0,0,2.2,4.1,6.426,6.426,0,0,0,4.294,1.444,6.14,6.14,0,0,0,4.921-1.919,7.5,7.5,0,0,0,1.653-5.073,6.505,6.505,0,0,0-1.672-4.75,6.394,6.394,0,0,0-4.788-1.71,7.776,7.776,0,0,0-3.819.912A6.257,6.257,0,0,0,17.081-12.2H14.5v-14.82H31.179Z" transform="translate(355.934 164.633)" fill="#fbb600"/>
  </g>
</svg>
