<svg xmlns="http://www.w3.org/2000/svg" width="65.001" height="71.999" viewBox="0 0 65.001 71.999">
  <g id="years" transform="translate(-302.934 -67.233)">
    <path id="Path_1" data-name="Path 1" d="M310.934,88.6h49a7,7,0,0,1,7,7v49a7,7,0,0,1-7,7h-49a7,7,0,0,1-7-7v-49A7,7,0,0,1,310.934,88.6Z" transform="translate(0 -13.365)" fill="rgba(0,0,0,0)" stroke="#ffffff" stroke-linejoin="round" stroke-width="2"/>
    <path id="Path_2" data-name="Path 2" d="M436.308,68.233v14" transform="translate(-86.874)" fill="rgba(0,0,0,0)" stroke="#ffffff" stroke-linecap="round" stroke-linejoin="round" stroke-width="2"/>
    <path id="Path_3" data-name="Path 3" d="M354.847,68.233v14" transform="translate(-33.413)" fill="rgba(0,0,0,0)" stroke="#ffffff" stroke-linecap="round" stroke-linejoin="round" stroke-width="2"/>
    <path id="Path_4" data-name="Path 4" d="M303.934,149.693h63" transform="translate(0 -53.46)" fill="rgba(0,0,0,0)" stroke="#ffffff" stroke-linejoin="round" stroke-width="2"/>
    <path id="Path_903" data-name="Path 903" d="M-12.758-15.12a5.308,5.308,0,0,1,2.394.494,3.541,3.541,0,0,1,1.5,1.354,3.733,3.733,0,0,1,.515,1.953,3.514,3.514,0,0,1-.819,2.352,3.592,3.592,0,0,1-2.5,1.134v.126A5.873,5.873,0,0,1-9.03-6.395a3.211,3.211,0,0,1,.955,2.468A3.884,3.884,0,0,1-9.261-.987,4.812,4.812,0,0,1-12.716.147a5.455,5.455,0,0,1-3.633-1.166A5.029,5.029,0,0,1-18.008-4.41h1.449a3.928,3.928,0,0,0,1.207,2.383,3.7,3.7,0,0,0,2.593.892,3.334,3.334,0,0,0,2.4-.8,2.755,2.755,0,0,0,.83-2.079,2.587,2.587,0,0,0-1.187-2.3A6.031,6.031,0,0,0-14.06-7.1h-.462V-8.337h.462q4.263,0,4.263-2.835a2.553,2.553,0,0,0-.8-1.974,3.131,3.131,0,0,0-2.205-.735,3.634,3.634,0,0,0-2.352.777,3.366,3.366,0,0,0-1.155,2.331h-1.449a4.564,4.564,0,0,1,1.47-3.2A5.155,5.155,0,0,1-12.758-15.12ZM3.118-10.9a3.686,3.686,0,0,0-.987-2.215A3,3,0,0,0-.074-13.9a3.367,3.367,0,0,0-2.951,1.47A8.386,8.386,0,0,0-4.043-7.749q0,.609.021.924A3.419,3.419,0,0,1-2.531-9.02,4.943,4.943,0,0,1,.3-9.828,4.592,4.592,0,0,1,3.811-8.495a5.182,5.182,0,0,1,1.26,3.707A5.736,5.736,0,0,1,4.546-2.31,4.1,4.1,0,0,1,2.908-.525,5.28,5.28,0,0,1,.136.147Q-3.035.147-4.2-1.837A10.625,10.625,0,0,1-5.366-7.224a11.182,11.182,0,0,1,1.26-5.89A4.489,4.489,0,0,1,.01-15.12a4.22,4.22,0,0,1,3.171,1.166A5.031,5.031,0,0,1,4.525-10.9ZM-3.854-5.124a4.644,4.644,0,0,0,.42,1.964,3.382,3.382,0,0,0,1.3,1.47,4.1,4.1,0,0,0,2.226.556,3.506,3.506,0,0,0,2.593-.977,3.647,3.647,0,0,0,.976-2.7,3.892,3.892,0,0,0-.976-2.856A3.6,3.6,0,0,0,.01-8.652a4.434,4.434,0,0,0-1.848.4A3.569,3.569,0,0,0-3.287-7.066,3.237,3.237,0,0,0-3.854-5.124Zm21.084-8.5H9.376v5.481a3.955,3.955,0,0,1,1.617-1.218,5.568,5.568,0,0,1,2.268-.462A4.4,4.4,0,0,1,16.8-8.463,5.087,5.087,0,0,1,17.965-5.04a5.429,5.429,0,0,1-1.26,3.7A4.687,4.687,0,0,1,12.967.1,5.254,5.254,0,0,1,9.429-1.071,4.653,4.653,0,0,1,7.843-4.263H9.292A3.746,3.746,0,0,0,10.51-2a3.551,3.551,0,0,0,2.373.8A3.393,3.393,0,0,0,15.6-2.257a4.146,4.146,0,0,0,.913-2.8,3.6,3.6,0,0,0-.924-2.625,3.534,3.534,0,0,0-2.646-.945,4.3,4.3,0,0,0-2.111.5,3.458,3.458,0,0,0-1.4,1.386H8.011v-8.19H17.23Z" transform="translate(335.434 123.133)" fill="#ffffff"/>
  </g>
</svg>
