<svg xmlns="http://www.w3.org/2000/svg" width="108.879" height="60" viewBox="0 0 108.879 60">
  <g id="Group_744" data-name="Group 744" transform="translate(-1411.393 274.551)">
    <path id="Path_39" data-name="Path 39" d="M1640.506-238.7a14.88,14.88,0,0,0-14.993-14.079h-9.471a1.368,1.368,0,0,0-1.368,1.367v2.735a1.368,1.368,0,0,0,1.368,1.368h9.83a9.184,9.184,0,0,1,9.163,9.636,9.35,9.35,0,0,1-9.428,8.712h-19.028v-3.194a1.368,1.368,0,0,0-1.367-1.368h-2.735a1.368,1.368,0,0,0-1.368,1.368v31.405l2.735-2.735,2.735,2.735V-223.5h19.294A14.66,14.66,0,0,0,1640.506-238.7Z" transform="translate(-120.245 -13.796)" fill="#1786a3"/>
    <g id="Group_41" data-name="Group 41" transform="translate(1414.702 -233.506)">
      <path id="Path_40" data-name="Path 40" d="M1434.208-162.363a.089.089,0,0,1,.1-.1h.181a.089.089,0,0,1,.1.1v.743a.426.426,0,0,0,.1.3.328.328,0,0,0,.256.105.344.344,0,0,0,.256-.1.359.359,0,0,0,.1-.266v-.783a.089.089,0,0,1,.1-.1h.181a.089.089,0,0,1,.1.1v.783a.357.357,0,0,0,.1.266.345.345,0,0,0,.256.1.328.328,0,0,0,.255-.105.426.426,0,0,0,.1-.3v-.743a.089.089,0,0,1,.1-.1h.181a.089.089,0,0,1,.1.1v.713a.829.829,0,0,1-.2.572.68.68,0,0,1-.536.221.676.676,0,0,1-.542-.221.677.677,0,0,1-.542.221.681.681,0,0,1-.537-.221.829.829,0,0,1-.2-.572Z" transform="translate(-1429.163 162.463)" fill="#fff"/>
      <g id="Group_35" data-name="Group 35" transform="translate(0.019 1.676)">
        <path id="Rectangle_47" data-name="Rectangle 47" d="M.274,0H.609A.274.274,0,0,1,.883.274V.659A.274.274,0,0,1,.609.933H.273A.273.273,0,0,1,0,.66V.274A.274.274,0,0,1,.274,0Z" transform="translate(16.633 0.401)" fill="#fff"/>
        <g id="Group_34" data-name="Group 34">
          <path id="Rectangle_48" data-name="Rectangle 48" d="M.274,0H.609A.273.273,0,0,1,.883.273V.659A.274.274,0,0,1,.609.933H.273A.273.273,0,0,1,0,.66V.274A.274.274,0,0,1,.274,0Z" transform="translate(5.136 7.363)" fill="#fff"/>
          <rect id="Rectangle_49" data-name="Rectangle 49" width="0.883" height="0.933" rx="0.274" transform="translate(6.36 7.363)" fill="#fff"/>
          <g id="Group_33" data-name="Group 33">
            <rect id="Rectangle_50" data-name="Rectangle 50" width="0.883" height="0.933" rx="0.274" transform="translate(0.873)" fill="#fff"/>
            <path id="Rectangle_51" data-name="Rectangle 51" d="M.274,0H.609A.273.273,0,0,1,.883.273V.659A.274.274,0,0,1,.609.933H.273A.273.273,0,0,1,0,.66V.274A.274.274,0,0,1,.274,0Z" transform="translate(2.097)" fill="#fff"/>
            <path id="Path_41" data-name="Path 41" d="M1438.369-152.428a1.887,1.887,0,0,0-1.4-.516,2.21,2.21,0,0,0-.757.125,1.612,1.612,0,0,0-.607.391,1.808,1.808,0,0,0-.406.682,3,3,0,0,0-.146.988,2.568,2.568,0,0,0,.291,1.314h-1.554a.6.6,0,0,1-.417-.186.983.983,0,0,1-.206-.7c.007-.067.012-.137.015-.211s.005-.147.005-.22a2.311,2.311,0,0,0-.511-1.671,1.889,1.889,0,0,0-1.4-.516,1.888,1.888,0,0,0-1.4.516,2.307,2.307,0,0,0-.512,1.671v.205a1.857,1.857,0,0,0,.01.2,1.481,1.481,0,0,1-.055.436.794.794,0,0,1-.145.281.53.53,0,0,1-.2.15.577.577,0,0,1-.221.045h-.622a1.13,1.13,0,0,1-.657-.171.581.581,0,0,1-.246-.512v-2.538a.089.089,0,0,0-.1-.1h-.642a.089.089,0,0,0-.1.1v2.689a.583.583,0,0,1-.115.416.5.5,0,0,1-.366.116H1424.7a.5.5,0,0,1-.366-.116.583.583,0,0,1-.115-.416v-3.4a.089.089,0,0,0-.1-.1h-.642a.088.088,0,0,0-.1.1v.431h-.983a2.447,2.447,0,0,0-.717.105,1.584,1.584,0,0,0-.607.341,1.706,1.706,0,0,0-.421.617,2.431,2.431,0,0,0-.161.943,2.168,2.168,0,0,0,.14.818,1.559,1.559,0,0,0,.386.572,1.573,1.573,0,0,0,.582.336,2.313,2.313,0,0,0,.727.11,1.984,1.984,0,0,0,.612-.09,1.3,1.3,0,0,0,.481-.271.932.932,0,0,0,.366.617,1.364,1.364,0,0,0,.768.186h1.495a1.04,1.04,0,0,0,1.044-.522.877.877,0,0,0,.37.391,1.167,1.167,0,0,0,.562.13h.652a2.47,2.47,0,0,0,.612-.085.911.911,0,0,0,.542-.406,1.478,1.478,0,0,0,.612.426,2.357,2.357,0,0,0,.833.135,2.421,2.421,0,0,0,.823-.13,1.441,1.441,0,0,0,.612-.421.837.837,0,0,0,.241.256,1.145,1.145,0,0,0,.3.145,1.472,1.472,0,0,0,.316.066q.16.015.3.015h3.11a2.581,2.581,0,0,0,.8-.115,1.477,1.477,0,0,0,.6-.361,1.625,1.625,0,0,0,.381-.647,3.039,3.039,0,0,0,.136-.973A2.306,2.306,0,0,0,1438.369-152.428Zm-15,1.269a1.614,1.614,0,0,1-.236.938.917.917,0,0,1-.808.336.991.991,0,0,1-.742-.266,1.078,1.078,0,0,1-.261-.787,1.251,1.251,0,0,1,.3-.958,1.1,1.1,0,0,1,.767-.266h.983Zm8.713,1.454a.969.969,0,0,1-.818.331.969.969,0,0,1-.818-.331,1.728,1.728,0,0,1-.256-1.053,1.8,1.8,0,0,1,.256-1.033.923.923,0,0,1,.818-.371.923.923,0,0,1,.818.371,1.8,1.8,0,0,1,.256,1.033A1.73,1.73,0,0,1,1432.085-149.7Zm5.7-.035a1.026,1.026,0,0,1-.818.3.991.991,0,0,1-.817-.316,1.7,1.7,0,0,1-.256-1.059,1.6,1.6,0,0,1,.271-.983.939.939,0,0,1,.8-.361.922.922,0,0,1,.818.371,1.8,1.8,0,0,1,.256,1.033A1.57,1.57,0,0,1,1437.783-149.739Z" transform="translate(-1420.483 155.091)" fill="#fff"/>
          </g>
        </g>
        <path id="Rectangle_52" data-name="Rectangle 52" d="M.274,0H.609A.273.273,0,0,1,.883.273V.659A.274.274,0,0,1,.609.933H.274A.274.274,0,0,1,0,.659V.274A.274.274,0,0,1,.274,0Z" transform="translate(15.409 0.401)" fill="#fff"/>
      </g>
      <g id="Group_36" data-name="Group 36" transform="translate(19.019 1.284)">
        <path id="Path_42" data-name="Path 42" d="M1477.225-158.955h-.642a.088.088,0,0,0-.1.1v5.407a.583.583,0,0,1-.116.416.5.5,0,0,1-.366.116h-.742a1.132,1.132,0,0,1-.657-.171.582.582,0,0,1-.246-.512v-2.538a.089.089,0,0,0-.1-.1h-.642a.089.089,0,0,0-.1.1v4.364q0,.852-.813.852h-.23a.089.089,0,0,0-.1.1v.582a.089.089,0,0,0,.1.1h.271a1.61,1.61,0,0,0,1.2-.421,1.7,1.7,0,0,0,.411-1.234v-.662a1.008,1.008,0,0,0,.8.321h.993a1.154,1.154,0,0,0,.9-.306,1.418,1.418,0,0,0,.271-.958v-5.457A.088.088,0,0,0,1477.225-158.955Z" transform="translate(-1472.369 158.955)" fill="#fff"/>
        <rect id="Rectangle_53" data-name="Rectangle 53" width="0.843" height="6.822" rx="0.274" transform="translate(6.36)" fill="#fff"/>
      </g>
      <path id="Path_43" data-name="Path 43" d="M1524.2-162.363a.089.089,0,0,1,.1-.1h.181a.089.089,0,0,1,.1.1v.743a.425.425,0,0,0,.1.3.327.327,0,0,0,.256.105.345.345,0,0,0,.256-.1.358.358,0,0,0,.1-.266v-.783a.089.089,0,0,1,.1-.1h.181a.089.089,0,0,1,.1.1v.783a.358.358,0,0,0,.1.266.344.344,0,0,0,.256.1.327.327,0,0,0,.256-.105.425.425,0,0,0,.1-.3v-.743a.089.089,0,0,1,.1-.1h.181a.089.089,0,0,1,.1.1v.713a.83.83,0,0,1-.2.572.68.68,0,0,1-.537.221.676.676,0,0,1-.542-.221.677.677,0,0,1-.542.221.68.68,0,0,1-.536-.221.829.829,0,0,1-.2-.572Z" transform="translate(-1486.201 162.463)" fill="#fff"/>
      <g id="Group_38" data-name="Group 38" transform="translate(29.703 1.285)">
        <rect id="Rectangle_54" data-name="Rectangle 54" width="0.883" height="0.933" rx="0.274" transform="translate(15.729 0.792)" fill="#fff"/>
        <g id="Group_37" data-name="Group 37">
          <rect id="Rectangle_55" data-name="Rectangle 55" width="0.883" height="0.933" rx="0.274" transform="translate(2.097 0.391)" fill="#fff"/>
          <path id="Rectangle_56" data-name="Rectangle 56" d="M.274,0H.609A.273.273,0,0,1,.883.273V.659A.274.274,0,0,1,.609.933H.273A.273.273,0,0,1,0,.66V.274A.274.274,0,0,1,.274,0Z" transform="translate(0.873 0.391)" fill="#fff"/>
          <path id="Path_44" data-name="Path 44" d="M1526.765-158.955h-.642a.088.088,0,0,0-.1.1v5.407a.583.583,0,0,1-.116.416.5.5,0,0,1-.366.116h-.913a.6.6,0,0,1-.416-.186.981.981,0,0,1-.205-.7q.009-.1.015-.211t.005-.22a2.306,2.306,0,0,0-.512-1.671,1.888,1.888,0,0,0-1.4-.516,1.887,1.887,0,0,0-1.4.516,2.306,2.306,0,0,0-.512,1.671v.205a1.854,1.854,0,0,0,.01.2,1.494,1.494,0,0,1-.055.436.8.8,0,0,1-.146.281.53.53,0,0,1-.2.15.574.574,0,0,1-.22.045h-.542a1.131,1.131,0,0,1-.657-.171.582.582,0,0,1-.246-.512v-2.538a.089.089,0,0,0-.1-.1h-.642a.089.089,0,0,0-.1.1v2.689a.585.585,0,0,1-.115.416.5.5,0,0,1-.366.116h-1.926a1.129,1.129,0,0,1-.656-.171.58.58,0,0,1-.246-.512c0-.053,0-.119.005-.2s.005-.159.005-.246a3.67,3.67,0,0,0-.111-.913,1.882,1.882,0,0,0-.386-.757,1.893,1.893,0,0,0-.738-.517,3.068,3.068,0,0,0-1.164-.19,4.283,4.283,0,0,0-1.234.18,6.029,6.029,0,0,0-1.093.442v-.341a.089.089,0,0,0-.1-.1h-.642a.089.089,0,0,0-.1.1v2.689a.584.584,0,0,1-.115.416.5.5,0,0,1-.366.116h-2.187a.5.5,0,0,1-.366-.116.581.581,0,0,1-.116-.416v-3.4a.089.089,0,0,0-.1-.1h-.642a.089.089,0,0,0-.1.1v.431h-.983a2.448,2.448,0,0,0-.717.105,1.578,1.578,0,0,0-.607.341,1.707,1.707,0,0,0-.421.617,2.436,2.436,0,0,0-.16.943,2.167,2.167,0,0,0,.141.818,1.561,1.561,0,0,0,.386.572,1.575,1.575,0,0,0,.582.336,2.32,2.32,0,0,0,.728.11,1.98,1.98,0,0,0,.611-.09,1.308,1.308,0,0,0,.482-.271.932.932,0,0,0,.366.617,1.363,1.363,0,0,0,.768.186h2.488a1.47,1.47,0,0,0,.672-.13.4.4,0,0,0,.341.13h3.371a2,2,0,0,0,.807-.141.985.985,0,0,0,.486-.482.863.863,0,0,0,.386.461,1.221,1.221,0,0,0,.627.161h2.177a1.039,1.039,0,0,0,1.043-.522.877.877,0,0,0,.371.391,1.163,1.163,0,0,0,.562.13h.571a2.471,2.471,0,0,0,.612-.085.908.908,0,0,0,.542-.406,1.478,1.478,0,0,0,.612.426,2.357,2.357,0,0,0,.832.135,2.415,2.415,0,0,0,.822-.13,1.441,1.441,0,0,0,.612-.421.837.837,0,0,0,.241.256,1.151,1.151,0,0,0,.3.145,1.475,1.475,0,0,0,.316.066c.107.01.208.015.3.015h.993a1.154,1.154,0,0,0,.9-.306,1.42,1.42,0,0,0,.271-.958v-5.457A.088.088,0,0,0,1526.765-158.955Zm-22.33,4.324a1.613,1.613,0,0,1-.236.938.916.916,0,0,1-.807.336.991.991,0,0,1-.742-.266,1.078,1.078,0,0,1-.261-.787,1.252,1.252,0,0,1,.3-.958,1.105,1.105,0,0,1,.767-.266h.983Zm8.632,1.139a.743.743,0,0,1-.135.351.529.529,0,0,1-.281.176,1.767,1.767,0,0,1-.461.05h-2.969a2.246,2.246,0,0,0,.051-.482v-1.615q.22-.11.486-.221t.562-.2a5.176,5.176,0,0,1,.607-.145,3.516,3.516,0,0,1,.612-.055,2.3,2.3,0,0,1,.752.105,1.136,1.136,0,0,1,.481.306,1.147,1.147,0,0,1,.256.491,2.636,2.636,0,0,1,.075.662A3.932,3.932,0,0,1,1513.067-153.493Zm9.861.316a.968.968,0,0,1-.818.331.967.967,0,0,1-.817-.331,1.728,1.728,0,0,1-.256-1.053,1.8,1.8,0,0,1,.256-1.033.921.921,0,0,1,.817-.371.922.922,0,0,1,.818.371,1.8,1.8,0,0,1,.256,1.033A1.731,1.731,0,0,1,1522.927-153.177Z" transform="translate(-1501.545 158.955)" fill="#fff"/>
        </g>
      </g>
      <path id="Path_45" data-name="Path 45" d="M1575.368-152.234a.089.089,0,0,1-.1.1h-.642a.089.089,0,0,1-.1-.1v-6.621a.089.089,0,0,1,.1-.1h.642a.089.089,0,0,1,.1.1Z" transform="translate(-1518.098 160.24)" fill="#fff"/>
      <g id="Group_39" data-name="Group 39" transform="translate(6.48 16.975)">
        <path id="Rectangle_57" data-name="Rectangle 57" d="M.274,0H.609A.273.273,0,0,1,.883.273V.66A.273.273,0,0,1,.609.933H.273A.273.273,0,0,1,0,.66V.274A.274.274,0,0,1,.274,0Z" fill="#fff"/>
        <rect id="Rectangle_58" data-name="Rectangle 58" width="0.883" height="0.933" rx="0.274" transform="translate(1.224)" fill="#fff"/>
      </g>
      <g id="Group_40" data-name="Group 40" transform="translate(27.005 10.013)">
        <rect id="Rectangle_59" data-name="Rectangle 59" width="0.883" height="0.933" rx="0.274" transform="translate(1.224)" fill="#fff"/>
        <path id="Rectangle_60" data-name="Rectangle 60" d="M.274,0H.609A.273.273,0,0,1,.883.273V.659A.274.274,0,0,1,.609.933H.273A.273.273,0,0,1,0,.66V.274A.274.274,0,0,1,.274,0Z" fill="#fff"/>
      </g>
      <path id="Path_46" data-name="Path 46" d="M1451.808-137.284h-.642a.089.089,0,0,0-.1.1v5.407a.587.587,0,0,1-.115.416.5.5,0,0,1-.366.115h-.752a1.131,1.131,0,0,1-.657-.171.581.581,0,0,1-.246-.512v-2.538a.089.089,0,0,0-.1-.1h-.642a.089.089,0,0,0-.1.1v2.689a.587.587,0,0,1-.115.416.5.5,0,0,1-.366.115h-3.5a.523.523,0,0,1-.146-.02,2.335,2.335,0,0,0,.406-.316,2.627,2.627,0,0,0,.371-.441,2.429,2.429,0,0,0,.271-.542,1.833,1.833,0,0,0,.105-.617,1.4,1.4,0,0,0-.511-1.144,2.466,2.466,0,0,0-1.585-.421,4.1,4.1,0,0,0-.652.05,4.093,4.093,0,0,0-.567.13,3.8,3.8,0,0,0-.451.171c-.13.06-.236.114-.316.16a.216.216,0,0,0-.1.2v.6a.193.193,0,0,0,.025.1.372.372,0,0,0,.116.105q.22.16.436.321a2.33,2.33,0,0,1,.4.376,2.391,2.391,0,0,1,.316.5,2.88,2.88,0,0,1,.216.682,2.658,2.658,0,0,1-.507.1c-.144.01-.259.015-.346.015h-5.859a1.13,1.13,0,0,1-.657-.171.581.581,0,0,1-.246-.512v-5.257a.089.089,0,0,0-.1-.1h-.642a.089.089,0,0,0-.1.1v5.407a.587.587,0,0,1-.115.416.5.5,0,0,1-.366.115h-4.093a1.131,1.131,0,0,1-.657-.171.581.581,0,0,1-.246-.512v-2.538a.089.089,0,0,0-.1-.1h-.642a.088.088,0,0,0-.1.1v2.689a.585.585,0,0,1-.116.416.5.5,0,0,1-.366.115h-1.023a.6.6,0,0,1-.416-.186.98.98,0,0,1-.206-.7c.007-.067.011-.137.015-.211s.005-.147.005-.221a2.305,2.305,0,0,0-.512-1.67,1.887,1.887,0,0,0-1.4-.517,1.887,1.887,0,0,0-1.4.517,2.306,2.306,0,0,0-.511,1.67c0,.087,0,.169.005.246s.008.152.015.226a.527.527,0,0,1-.126.306,1.176,1.176,0,0,1-.251.206q-.146.09-.311.181a1.43,1.43,0,0,0-.306.226,1.057,1.057,0,0,0-.231.341,1.292,1.292,0,0,0-.09.517v1.846h.842V-130.1a.729.729,0,0,1,.091-.411.759.759,0,0,1,.215-.211c.083-.053.171-.1.261-.151a.621.621,0,0,0,.236-.231,1.473,1.473,0,0,0,.647.542,2.3,2.3,0,0,0,.918.171,2.407,2.407,0,0,0,.823-.131,1.433,1.433,0,0,0,.612-.421.846.846,0,0,0,.241.256,1.154,1.154,0,0,0,.3.145,1.469,1.469,0,0,0,.316.065q.16.015.3.015h1.1a1.04,1.04,0,0,0,1.044-.522.872.872,0,0,0,.371.391,1.163,1.163,0,0,0,.562.13h4.343a1.039,1.039,0,0,0,1.044-.522.875.875,0,0,0,.371.391,1.165,1.165,0,0,0,.562.13h6.028a3.86,3.86,0,0,0,.662-.065,2.289,2.289,0,0,0,.7-.246,1.855,1.855,0,0,0,.617.246,3.489,3.489,0,0,0,.687.065h3.431a1.039,1.039,0,0,0,1.043-.522.877.877,0,0,0,.371.391,1.164,1.164,0,0,0,.562.13h1a1.152,1.152,0,0,0,.9-.306,1.419,1.419,0,0,0,.271-.958v-5.457A.089.089,0,0,0,1451.808-137.284Zm-27.351,5.778a.969.969,0,0,1-.818.331.97.97,0,0,1-.818-.331,1.73,1.73,0,0,1-.256-1.053,1.8,1.8,0,0,1,.256-1.033.922.922,0,0,1,.818-.371.922.922,0,0,1,.818.371,1.8,1.8,0,0,1,.256,1.033A1.73,1.73,0,0,1,1424.458-131.506Zm19.115-.4a2.817,2.817,0,0,1-.341.256,3.36,3.36,0,0,0-.557-1.244,2.912,2.912,0,0,0-.9-.813,1.961,1.961,0,0,1,.451-.166,2.967,2.967,0,0,1,.792-.1,2.728,2.728,0,0,1,.477.04,1.153,1.153,0,0,1,.386.135.725.725,0,0,1,.256.256.8.8,0,0,1,.1.411,1.185,1.185,0,0,1-.1.467,1.812,1.812,0,0,1-.241.411A2.436,2.436,0,0,1,1443.573-131.9Z" transform="translate(-1420.43 146.504)" fill="#fff"/>
      <path id="Path_47" data-name="Path 47" d="M1511.072-130.563a.089.089,0,0,1-.1.1h-.642a.088.088,0,0,1-.1-.1v-6.621a.088.088,0,0,1,.1-.1h.642a.089.089,0,0,1,.1.1Z" transform="translate(-1477.347 146.504)" fill="#fff"/>
      <path id="Path_48" data-name="Path 48" d="M1524.172-129.02a1.9,1.9,0,0,1-1.4-.512,2.274,2.274,0,0,1-.511-1.655,2.309,2.309,0,0,1,.511-1.67,1.888,1.888,0,0,1,1.4-.517,1.886,1.886,0,0,1,1.4.517,2.305,2.305,0,0,1,.512,1.67,3.155,3.155,0,0,1-.135.983,1.767,1.767,0,0,1-.381.672,1.5,1.5,0,0,1-.6.386A2.385,2.385,0,0,1,1524.172-129.02Zm0-3.571a.922.922,0,0,0-.818.371,1.8,1.8,0,0,0-.256,1.033,1.733,1.733,0,0,0,.256,1.053.969.969,0,0,0,.818.331.969.969,0,0,0,.818-.331,1.73,1.73,0,0,0,.255-1.053,1.8,1.8,0,0,0-.255-1.033A.922.922,0,0,0,1524.172-132.592Zm-.953-1.6a.089.089,0,0,1-.1-.1v-.732a.089.089,0,0,1,.1-.1h.682a.089.089,0,0,1,.1.1v.732a.089.089,0,0,1-.1.1Zm1.224,0a.089.089,0,0,1-.1-.1v-.732a.089.089,0,0,1,.1-.1h.682a.089.089,0,0,1,.1.1v.732a.088.088,0,0,1-.1.1Z" transform="translate(-1484.969 145.133)" fill="#fff"/>
      <path id="Path_49" data-name="Path 49" d="M1534.328-123.76a.088.088,0,0,1-.1-.1v-.582a.088.088,0,0,1,.1-.1h.231q.813,0,.813-.853v-4.364a.089.089,0,0,1,.1-.1h.642a.089.089,0,0,1,.1.1v4.344a1.7,1.7,0,0,1-.411,1.234,1.608,1.608,0,0,1-1.2.421Z" transform="translate(-1492.557 141.799)" fill="#fff"/>
      <path id="Path_50" data-name="Path 50" d="M1544.192-130.563a.088.088,0,0,1-.1.1h-.642a.088.088,0,0,1-.1-.1v-6.621a.088.088,0,0,1,.1-.1h.642a.088.088,0,0,1,.1.1Z" transform="translate(-1498.339 146.504)" fill="#fff"/>
      <path id="Path_51" data-name="Path 51" d="M1552.9-127.785a3.392,3.392,0,0,1-.086.833,1.233,1.233,0,0,1-.261.527.943.943,0,0,1-.446.276,2.321,2.321,0,0,1-.653.08h-2.227a.089.089,0,0,1-.1-.1v-.582a.089.089,0,0,1,.1-.1h1.916a1.828,1.828,0,0,0,.451-.045.5.5,0,0,0,.261-.15.565.565,0,0,0,.12-.276,2.552,2.552,0,0,0,.03-.432v-.8q0-1.013-1.144-1.013H1549.7a.089.089,0,0,1-.1-.1v-.582a.089.089,0,0,1,.1-.1h1.475a1.794,1.794,0,0,1,1.244.431,1.731,1.731,0,0,1,.482,1.354Z" transform="translate(-1502.002 142.111)" fill="#fff"/>
      <path id="Path_52" data-name="Path 52" d="M1564.952-131.245h1.174a.5.5,0,0,0,.366-.115.587.587,0,0,0,.115-.416v-5.407a.089.089,0,0,1,.1-.1h.642a.089.089,0,0,1,.1.1v5.457a1.42,1.42,0,0,1-.271.958,1.152,1.152,0,0,1-.9.306h-4.143a.089.089,0,0,1-.1-.1v-.582a.089.089,0,0,1,.1-.1h1.976v-4.524a.089.089,0,0,1,.1-.1h.642a.089.089,0,0,1,.1.1Zm-1.073,3.1a1.125,1.125,0,0,1-.13-.276,1.119,1.119,0,0,1-.05-.346,1.212,1.212,0,0,1,.05-.336.88.88,0,0,1,.171-.321.924.924,0,0,1,.316-.241,1.1,1.1,0,0,1,.486-.1,1.152,1.152,0,0,1,.466.09.772.772,0,0,1,.326.261c.02.047.02.081,0,.1l-.211.171c-.047.04-.084.047-.11.02a.777.777,0,0,0-.211-.166.559.559,0,0,0-.271-.065.5.5,0,0,0-.416.171.626.626,0,0,0-.135.4.658.658,0,0,0,.115.386,1.031,1.031,0,0,0,.226.246h1.033c.04,0,.06.023.06.07v.281c0,.047-.02.07-.06.07H1563.5c-.04,0-.06-.023-.06-.07v-.281c0-.047.02-.07.06-.07Z" transform="translate(-1510.18 146.504)" fill="#fff"/>
    </g>
    <path id="Path_53" data-name="Path 53" d="M1477.184-238.7a14.88,14.88,0,0,0-14.993-14.079h-8.4l-1.7,1.7-1.7-1.7h-.242a.793.793,0,0,0-.793.794v16.031a1.368,1.368,0,0,0,1.368,1.368h2.735a1.368,1.368,0,0,0,1.367-1.368v-11.355h7.723a9.184,9.184,0,0,1,9.163,9.636,9.35,9.35,0,0,1-9.429,8.712h-36.247a9.184,9.184,0,0,1-9.163-9.636,9.35,9.35,0,0,1,9.428-8.712h3.135a1.368,1.368,0,0,0,1.367-1.368v-2.735a1.367,1.367,0,0,0-1.367-1.367H1426.4A14.88,14.88,0,0,0,1411.4-238.7a14.66,14.66,0,0,0,14.634,15.209h36.514A14.66,14.66,0,0,0,1477.184-238.7Z" transform="translate(0 -13.796)" fill="#1786a3"/>
    <rect id="Rectangle_61" data-name="Rectangle 61" width="5.47" height="5.47" rx="2.735" transform="translate(1448.225 -270.683) rotate(-45)" fill="#fbb600"/>
  </g>
</svg>
