<svg xmlns="http://www.w3.org/2000/svg" xmlns:xlink="http://www.w3.org/1999/xlink" width="146.557" height="80" viewBox="0 0 146.557 80">
  <defs>
    <clipPath id="clip-path">
      <rect id="Rectangle_66" data-name="Rectangle 66" width="146.557" height="80" fill="none"/>
    </clipPath>
  </defs>
  <g id="Group_967" data-name="Group 967" transform="translate(0 0)">
    <g id="Group_48" data-name="Group 48" transform="translate(0 0)" clip-path="url(#clip-path)">
      <path id="Path_54" data-name="Path 54" d="M101.592,24.128c-.4-10.668-9.507-18.952-20.181-18.952H68.662a1.841,1.841,0,0,0-1.841,1.841V10.7a1.84,1.84,0,0,0,1.841,1.841H81.895A12.364,12.364,0,0,1,94.228,25.509,12.588,12.588,0,0,1,81.536,37.238H55.924v-4.3A1.841,1.841,0,0,0,54.083,31.1H50.4a1.84,1.84,0,0,0-1.839,1.841V75.209l3.68-3.682,3.682,3.682V44.6H81.895a19.733,19.733,0,0,0,19.7-20.471" transform="translate(44.95 4.791)" fill="#1786a3"/>
      <path id="Path_55" data-name="Path 55" d="M6.215,32.355v-.58a.12.12,0,0,1,.137-.135h.863a.119.119,0,0,1,.135.135v4.577a.8.8,0,0,0,.156.56A.673.673,0,0,0,8,37.067h.6a.478.478,0,0,1,.539.541c0,.223-.042.368-.127.426a.763.763,0,0,1-.412.087H7.8a1.838,1.838,0,0,1-1.032-.248,1.258,1.258,0,0,1-.493-.832,1.773,1.773,0,0,1-.649.366,2.69,2.69,0,0,1-.824.119,3.158,3.158,0,0,1-.98-.146,2.034,2.034,0,0,1-1.3-1.223,2.867,2.867,0,0,1-.191-1.1,3.271,3.271,0,0,1,.216-1.269,2.305,2.305,0,0,1,.566-.83,2.133,2.133,0,0,1,.818-.458,3.233,3.233,0,0,1,.965-.143Zm-1.4,4.117A1.232,1.232,0,0,0,5.9,36.022a2.154,2.154,0,0,0,.318-1.263v-1.35H4.892a1.48,1.48,0,0,0-1.032.358,1.684,1.684,0,0,0-.4,1.288,1.454,1.454,0,0,0,.35,1.061,1.332,1.332,0,0,0,1,.356M3.636,30.721a.118.118,0,0,1-.135-.133V29.6a.119.119,0,0,1,.135-.133h.919a.117.117,0,0,1,.133.133v.988a.116.116,0,0,1-.133.133Zm1.648,0a.117.117,0,0,1-.135-.133V29.6a.118.118,0,0,1,.135-.133H6.2a.119.119,0,0,1,.135.133v.988a.118.118,0,0,1-.135.133Z" transform="translate(2.154 27.275)" fill="#1e485f"/>
      <path id="Path_56" data-name="Path 56" d="M5.888,36.616a.686.686,0,0,1-.4-.094.43.43,0,0,1-.135-.377.633.633,0,0,1,.127-.458.585.585,0,0,1,.412-.123h.919a.681.681,0,0,0,.495-.154.8.8,0,0,0,.154-.56v-3.62a.12.12,0,0,1,.135-.135h.863a.12.12,0,0,1,.135.135v3.418a.782.782,0,0,0,.331.687,1.52,1.52,0,0,0,.884.229h.164a.621.621,0,0,1,.4.116.48.48,0,0,1,.137.385.586.586,0,0,1-.129.454.673.673,0,0,1-.412.1h-.3a1.558,1.558,0,0,1-.757-.175,1.159,1.159,0,0,1-.5-.526,1.4,1.4,0,0,1-1.406.7Zm.689,2.513a.12.12,0,0,1-.137-.135v-.986a.12.12,0,0,1,.137-.135h.917a.119.119,0,0,1,.135.135v.986a.119.119,0,0,1-.135.135Zm1.646,0a.117.117,0,0,1-.133-.135v-.986a.117.117,0,0,1,.133-.135h.92a.118.118,0,0,1,.133.135v.986a.118.118,0,0,1-.133.135Z" transform="translate(4.951 28.78)" fill="#1e485f"/>
      <path id="Path_57" data-name="Path 57" d="M12.085,36.829a3.188,3.188,0,0,1-1.121-.183,1.993,1.993,0,0,1-.824-.574,1.214,1.214,0,0,1-.73.547,3.287,3.287,0,0,1-.822.114h-.58a.477.477,0,0,1-.541-.539c0-.223.042-.366.129-.426a.748.748,0,0,1,.412-.089h.674a.757.757,0,0,0,.3-.06.705.705,0,0,0,.268-.2,1.049,1.049,0,0,0,.2-.379,1.949,1.949,0,0,0,.075-.585,2.5,2.5,0,0,1-.013-.264v-.277a3.1,3.1,0,0,1,.689-2.249,2.542,2.542,0,0,1,1.889-.7,2.542,2.542,0,0,1,1.889.7,3.1,3.1,0,0,1,.691,2.249c0,.1,0,.2-.008.3s-.012.193-.021.281a1.317,1.317,0,0,0,.279.94.8.8,0,0,0,.56.248h.391a.621.621,0,0,1,.4.116.479.479,0,0,1,.135.385.586.586,0,0,1-.127.454.673.673,0,0,1-.412.1h-.3c-.127,0-.262-.006-.406-.017a2.015,2.015,0,0,1-.426-.089,1.566,1.566,0,0,1-.4-.2,1.115,1.115,0,0,1-.324-.345,1.924,1.924,0,0,1-.824.566,3.189,3.189,0,0,1-1.107.177m0-4.808a1.239,1.239,0,0,0-1.1.5,2.429,2.429,0,0,0-.345,1.39,2.341,2.341,0,0,0,.345,1.419,1.3,1.3,0,0,0,1.1.445,1.3,1.3,0,0,0,1.1-.445,2.341,2.341,0,0,0,.345-1.419,2.429,2.429,0,0,0-.345-1.39,1.239,1.239,0,0,0-1.1-.5" transform="translate(6.912 28.664)" fill="#1e485f"/>
      <path id="Path_58" data-name="Path 58" d="M12.178,37.862a.662.662,0,0,1-.41-.1.583.583,0,0,1-.129-.454.482.482,0,0,1,.137-.385.612.612,0,0,1,.4-.114H13.7a3.471,3.471,0,0,1-.391-1.768,4.1,4.1,0,0,1,.2-1.333,2.463,2.463,0,0,1,.547-.917,2.164,2.164,0,0,1,.818-.528,2.983,2.983,0,0,1,1.019-.169,2.543,2.543,0,0,1,1.891.7,3.11,3.11,0,0,1,.687,2.249,4.055,4.055,0,0,1-.183,1.307,2.167,2.167,0,0,1-.512.872,1.98,1.98,0,0,1-.809.485,3.472,3.472,0,0,1-1.074.156ZM14.583,31a.12.12,0,0,1-.137-.135v-.986a.12.12,0,0,1,.137-.135H15.5a.119.119,0,0,1,.135.135v.986A.119.119,0,0,1,15.5,31Zm1.309,2.145a1.266,1.266,0,0,0-1.08.487,2.164,2.164,0,0,0-.366,1.325,2.292,2.292,0,0,0,.345,1.423,1.339,1.339,0,0,0,1.1.426,1.383,1.383,0,0,0,1.1-.4,2.109,2.109,0,0,0,.345-1.371,2.416,2.416,0,0,0-.345-1.392,1.239,1.239,0,0,0-1.1-.5M16.23,31a.119.119,0,0,1-.135-.135v-.986a.119.119,0,0,1,.135-.135h.919a.119.119,0,0,1,.135.135v.986a.119.119,0,0,1-.135.135Z" transform="translate(10.773 27.534)" fill="#1e485f"/>
      <path id="Path_59" data-name="Path 59" d="M15.743,39.3a.118.118,0,0,1-.135-.133v-.786a.119.119,0,0,1,.135-.135h.31c.73,0,1.094-.381,1.094-1.148V31.23a.122.122,0,0,1,.135-.137h.865a.121.121,0,0,1,.135.137v3.416a.777.777,0,0,0,.331.687,1.5,1.5,0,0,0,.884.231h.148a.614.614,0,0,1,.4.114.482.482,0,0,1,.137.385c0,.235-.042.387-.129.454a.666.666,0,0,1-.412.1h-.283a1.361,1.361,0,0,1-1.08-.429v.892a2.272,2.272,0,0,1-.555,1.66,2.161,2.161,0,0,1-1.619.566Z" transform="translate(14.447 28.78)" fill="#1e485f"/>
      <path id="Path_60" data-name="Path 60" d="M17.964,38.374a.7.7,0,0,1-.4-.094.43.43,0,0,1-.135-.377.633.633,0,0,1,.127-.458.589.589,0,0,1,.412-.123h.851a.673.673,0,0,0,.493-.154.8.8,0,0,0,.154-.56V29.328a.121.121,0,0,1,.137-.135h.863a.119.119,0,0,1,.135.135v7.346a1.9,1.9,0,0,1-.364,1.288,1.541,1.541,0,0,1-1.215.412Z" transform="translate(16.129 27.022)" fill="#1e485f"/>
      <path id="Rectangle_62" data-name="Rectangle 62" d="M.069,0h1a.069.069,0,0,1,.069.069V9.11a.069.069,0,0,1-.069.069h-1A.07.07,0,0,1,0,9.109V.069A.069.069,0,0,1,.069,0Z" transform="translate(38.617 56.216)" fill="#1e485f"/>
      <path id="Path_61" data-name="Path 61" d="M26.963,32.355v-.58a.12.12,0,0,1,.137-.135h.865a.119.119,0,0,1,.135.135v4.577a.8.8,0,0,0,.154.56.676.676,0,0,0,.493.154h.6a.477.477,0,0,1,.539.541c0,.223-.04.368-.127.426a.754.754,0,0,1-.412.087h-.8a1.841,1.841,0,0,1-1.034-.248,1.266,1.266,0,0,1-.493-.832,1.781,1.781,0,0,1-.647.366,2.7,2.7,0,0,1-.826.119,3.146,3.146,0,0,1-.978-.146,2.159,2.159,0,0,1-.784-.453,2.114,2.114,0,0,1-.518-.77,2.905,2.905,0,0,1-.189-1.1,3.309,3.309,0,0,1,.214-1.269,2.309,2.309,0,0,1,.568-.83,2.112,2.112,0,0,1,.816-.458,3.245,3.245,0,0,1,.967-.143Zm-1.4,4.117a1.236,1.236,0,0,0,1.086-.451,2.169,2.169,0,0,0,.316-1.263v-1.35H25.642a1.48,1.48,0,0,0-1.032.358,1.676,1.676,0,0,0-.4,1.288,1.462,1.462,0,0,0,.349,1.061,1.34,1.34,0,0,0,1,.356m-1.175-5.752c-.091,0-.137-.042-.137-.133V29.6a.119.119,0,0,1,.137-.133H25.3a.118.118,0,0,1,.135.133v.988a.117.117,0,0,1-.135.133Zm1.646,0a.117.117,0,0,1-.135-.133V29.6a.118.118,0,0,1,.135-.133h.919a.119.119,0,0,1,.135.133v.988a.118.118,0,0,1-.135.133Z" transform="translate(21.361 27.275)" fill="#1e485f"/>
      <path id="Path_62" data-name="Path 62" d="M26.557,34.467a.449.449,0,0,1-.362-.116.614.614,0,0,1-.1-.4.721.721,0,0,1,.089-.439.49.49,0,0,1,.37-.1h1.485a.643.643,0,0,1,.406.11.481.481,0,0,1,.137.391.569.569,0,0,1-.131.445.636.636,0,0,1-.412.108Z" transform="translate(24.158 30.929)" fill="#1e485f"/>
      <path id="Path_63" data-name="Path 63" d="M27.367,36.732a.69.69,0,0,1-.4-.094.43.43,0,0,1-.135-.377.633.633,0,0,1,.127-.458.589.589,0,0,1,.412-.123h.851a.676.676,0,0,0,.493-.154.784.784,0,0,0,.154-.56v-3.62A.121.121,0,0,1,29,31.21h.867a.12.12,0,0,1,.133.135v.46a8.336,8.336,0,0,1,1.473-.6,5.752,5.752,0,0,1,1.66-.243,4.128,4.128,0,0,1,1.567.258,2.446,2.446,0,0,1,1.514,1.716,5.06,5.06,0,0,1,.148,1.227c0,.117,0,.227-.008.331s-.008.193-.008.264a.782.782,0,0,0,.331.687,1.518,1.518,0,0,0,.886.229h.148a.621.621,0,0,1,.4.116.479.479,0,0,1,.135.385.586.586,0,0,1-.127.454.673.673,0,0,1-.412.1h-.285a1.659,1.659,0,0,1-.843-.214,1.157,1.157,0,0,1-.52-.622,1.339,1.339,0,0,1-.655.649,2.706,2.706,0,0,1-1.088.187H29.786a.548.548,0,0,1-.462-.175,1.956,1.956,0,0,1-.9.175Zm5.684-4.712a4.876,4.876,0,0,0-.824.075,6.813,6.813,0,0,0-.816.2c-.264.081-.516.169-.755.27s-.456.2-.657.3v2.172a3.205,3.205,0,0,1-.065.647h4a2.238,2.238,0,0,0,.62-.067.687.687,0,0,0,.379-.235.993.993,0,0,0,.181-.472,5.041,5.041,0,0,0,.048-.776,3.585,3.585,0,0,0-.1-.892,1.557,1.557,0,0,0-.345-.662,1.538,1.538,0,0,0-.649-.412,3.046,3.046,0,0,0-1.013-.142" transform="translate(24.833 28.664)" fill="#1e485f"/>
      <path id="Path_64" data-name="Path 64" d="M32.707,34.467a.454.454,0,0,1-.364-.116.615.615,0,0,1-.094-.4.724.724,0,0,1,.087-.439.5.5,0,0,1,.372-.1h1.485a.641.641,0,0,1,.4.11.475.475,0,0,1,.137.391.577.577,0,0,1-.129.445.644.644,0,0,1-.412.108Z" transform="translate(29.85 30.929)" fill="#1e485f"/>
      <path id="Path_65" data-name="Path 65" d="M33.566,37.862a.7.7,0,0,1-.4-.094.436.436,0,0,1-.135-.379.624.624,0,0,1,.127-.458.582.582,0,0,1,.412-.121h.849a.683.683,0,0,0,.495-.154.8.8,0,0,0,.154-.56v-3.62a.122.122,0,0,1,.137-.137h.863a.121.121,0,0,1,.135.137V35.89a.788.788,0,0,0,.331.689,1.516,1.516,0,0,0,.884.229h.164a.621.621,0,0,1,.4.114.482.482,0,0,1,.135.385c0,.235-.042.387-.127.454a.672.672,0,0,1-.412.1h-.3a1.569,1.569,0,0,1-.757-.175,1.188,1.188,0,0,1-.5-.528,1.4,1.4,0,0,1-1.4.7ZM35.174,31a.119.119,0,0,1-.135-.135v-.986a.119.119,0,0,1,.135-.135h.919a.119.119,0,0,1,.135.135v.986a.119.119,0,0,1-.135.135Z" transform="translate(30.571 27.534)" fill="#1e485f"/>
      <path id="Path_66" data-name="Path 66" d="M39.672,36.829a3.181,3.181,0,0,1-1.121-.183,1.986,1.986,0,0,1-.826-.574,1.2,1.2,0,0,1-.728.547,3.287,3.287,0,0,1-.822.114h-.582a.476.476,0,0,1-.539-.539c0-.223.042-.366.127-.426a.748.748,0,0,1,.412-.089h.674a.751.751,0,0,0,.3-.06.7.7,0,0,0,.27-.2,1.08,1.08,0,0,0,.2-.379,2.019,2.019,0,0,0,.073-.585,2.5,2.5,0,0,1-.013-.264v-.277a3.1,3.1,0,0,1,.689-2.249,2.917,2.917,0,0,1,3.78,0,3.1,3.1,0,0,1,.689,2.249c0,.1,0,.2-.006.3s-.013.193-.021.281a1.317,1.317,0,0,0,.277.94.807.807,0,0,0,.56.248h.391a.623.623,0,0,1,.406.116.485.485,0,0,1,.133.385c0,.235-.04.385-.127.454a.666.666,0,0,1-.412.1h-.3q-.191,0-.4-.017a1.99,1.99,0,0,1-.426-.089,1.536,1.536,0,0,1-.4-.2,1.093,1.093,0,0,1-.324-.345,1.919,1.919,0,0,1-.826.566,3.177,3.177,0,0,1-1.105.177m0-4.808a1.243,1.243,0,0,0-1.1.5,2.429,2.429,0,0,0-.345,1.39,2.341,2.341,0,0,0,.345,1.419,1.584,1.584,0,0,0,2.2,0,2.341,2.341,0,0,0,.345-1.419,2.429,2.429,0,0,0-.345-1.39,1.239,1.239,0,0,0-1.1-.5" transform="translate(32.447 28.664)" fill="#1e485f"/>
      <path id="Path_67" data-name="Path 67" d="M39.667,38.374a.7.7,0,0,1-.4-.094.43.43,0,0,1-.135-.377.633.633,0,0,1,.127-.458.585.585,0,0,1,.412-.123h.849a.667.667,0,0,0,.493-.154.777.777,0,0,0,.156-.56V29.328a.121.121,0,0,1,.137-.135h.865a.119.119,0,0,1,.133.135v7.346a1.9,1.9,0,0,1-.364,1.288,1.541,1.541,0,0,1-1.215.412Z" transform="translate(36.218 27.022)" fill="#1e485f"/>
      <path id="Rectangle_63" data-name="Rectangle 63" d="M.07,0h1a.069.069,0,0,1,.069.069V9.11a.069.069,0,0,1-.069.069h-1A.07.07,0,0,1,0,9.109V.07A.07.07,0,0,1,.07,0Z" transform="translate(80.409 56.216)" fill="#1e485f"/>
      <path id="Path_68" data-name="Path 68" d="M6.634,42.375A3.125,3.125,0,0,1,5.4,42.146a1.961,1.961,0,0,1-.87-.73.825.825,0,0,1-.318.31c-.121.064-.239.133-.35.2a1.042,1.042,0,0,0-.291.283.988.988,0,0,0-.121.553v2.2H2.313V42.484a1.708,1.708,0,0,1,.121-.7,1.445,1.445,0,0,1,.31-.458,1.947,1.947,0,0,1,.412-.3c.148-.081.289-.162.418-.243a1.564,1.564,0,0,0,.339-.277.706.706,0,0,0,.169-.41c-.01-.1-.017-.2-.021-.306s-.008-.214-.008-.331a3.107,3.107,0,0,1,.689-2.249,2.545,2.545,0,0,1,1.891-.693,2.541,2.541,0,0,1,1.889.693,3.107,3.107,0,0,1,.689,2.249c0,.1,0,.2-.006.3s-.012.193-.021.283a1.333,1.333,0,0,0,.277.94.815.815,0,0,0,.56.248H10.4a.613.613,0,0,1,.406.116.483.483,0,0,1,.133.383c0,.235-.04.385-.127.454a.664.664,0,0,1-.412.1h-.283c-.127,0-.262-.008-.4-.019a1.99,1.99,0,0,1-.426-.089,1.536,1.536,0,0,1-.4-.2,1.073,1.073,0,0,1-.324-.345,1.923,1.923,0,0,1-.826.568,3.224,3.224,0,0,1-1.105.175m0-4.806a1.238,1.238,0,0,0-1.1.5,2.418,2.418,0,0,0-.347,1.39,2.323,2.323,0,0,0,.347,1.419,1.3,1.3,0,0,0,1.1.445,1.3,1.3,0,0,0,1.1-.445,2.337,2.337,0,0,0,.345-1.419,2.433,2.433,0,0,0-.345-1.39,1.238,1.238,0,0,0-1.1-.5" transform="translate(2.141 33.799)" fill="#1e485f"/>
      <path id="Path_69" data-name="Path 69" d="M6.814,42.164a.7.7,0,0,1-.4-.094.436.436,0,0,1-.135-.379.633.633,0,0,1,.127-.458.589.589,0,0,1,.412-.121h.92a.679.679,0,0,0,.493-.156.8.8,0,0,0,.154-.56V36.776a.119.119,0,0,1,.135-.135h.863a.119.119,0,0,1,.135.135v3.416a.788.788,0,0,0,.331.689,1.539,1.539,0,0,0,.884.229h.164a.61.61,0,0,1,.4.116.478.478,0,0,1,.137.383.586.586,0,0,1-.129.454.672.672,0,0,1-.412.1h-.3a1.563,1.563,0,0,1-.757-.175,1.174,1.174,0,0,1-.5-.528,1.4,1.4,0,0,1-1.406.7ZM7.5,44.675a.119.119,0,0,1-.135-.133v-.988a.119.119,0,0,1,.135-.133h.919a.119.119,0,0,1,.135.133v.988a.119.119,0,0,1-.135.133Zm1.646,0a.117.117,0,0,1-.133-.133v-.988a.117.117,0,0,1,.133-.133h.92a.117.117,0,0,1,.133.133v.988a.117.117,0,0,1-.133.133Z" transform="translate(5.808 33.916)" fill="#1e485f"/>
      <path id="Path_70" data-name="Path 70" d="M8.9,40.015a.458.458,0,0,1-.364-.116.637.637,0,0,1-.094-.4.713.713,0,0,1,.087-.437.5.5,0,0,1,.372-.1h1.485a.638.638,0,0,1,.4.108.477.477,0,0,1,.137.391.577.577,0,0,1-.129.445.632.632,0,0,1-.412.11Z" transform="translate(7.814 36.064)" fill="#1e485f"/>
      <path id="Path_71" data-name="Path 71" d="M9.679,40.015a.461.461,0,0,1-.364-.116.637.637,0,0,1-.094-.4.713.713,0,0,1,.087-.437.5.5,0,0,1,.372-.1h1.485a.638.638,0,0,1,.4.108.477.477,0,0,1,.137.391.577.577,0,0,1-.129.445.632.632,0,0,1-.412.11Z" transform="translate(8.535 36.064)" fill="#1e485f"/>
      <path id="Path_72" data-name="Path 72" d="M10.457,40.015a.461.461,0,0,1-.364-.116A.637.637,0,0,1,10,39.5a.713.713,0,0,1,.087-.437.5.5,0,0,1,.372-.1h1.485a.642.642,0,0,1,.4.108.477.477,0,0,1,.137.391.577.577,0,0,1-.129.445.632.632,0,0,1-.412.11Z" transform="translate(9.255 36.064)" fill="#1e485f"/>
      <path id="Path_73" data-name="Path 73" d="M11.269,43.923a.726.726,0,0,1-.408-.094.436.436,0,0,1-.133-.379.624.624,0,0,1,.127-.458.588.588,0,0,1,.414-.121h.849a.662.662,0,0,0,.491-.156.783.783,0,0,0,.156-.56V34.877a.122.122,0,0,1,.139-.137h.863a.119.119,0,0,1,.133.137v7.075a.788.788,0,0,0,.331.689,1.53,1.53,0,0,0,.884.229h.162a.613.613,0,0,1,.406.116.478.478,0,0,1,.137.383c0,.235-.044.385-.131.453a.663.663,0,0,1-.412.1h-.3a1.558,1.558,0,0,1-.757-.175,1.209,1.209,0,0,1-.5-.528,1.393,1.393,0,0,1-1.4.7Z" transform="translate(9.93 32.156)" fill="#1e485f"/>
      <path id="Path_74" data-name="Path 74" d="M13.31,40.015a.464.464,0,0,1-.364-.116.637.637,0,0,1-.094-.4.71.71,0,0,1,.089-.437.49.49,0,0,1,.37-.1h1.485a.644.644,0,0,1,.406.108.483.483,0,0,1,.135.391.57.57,0,0,1-.129.445.625.625,0,0,1-.412.11Z" transform="translate(11.896 36.064)" fill="#1e485f"/>
      <path id="Path_75" data-name="Path 75" d="M14.089,40.015a.456.456,0,0,1-.362-.116.623.623,0,0,1-.1-.4.71.71,0,0,1,.089-.437.49.49,0,0,1,.37-.1h1.485a.644.644,0,0,1,.406.108.483.483,0,0,1,.135.391.57.57,0,0,1-.129.445.625.625,0,0,1-.412.11Z" transform="translate(12.617 36.064)" fill="#1e485f"/>
      <path id="Path_76" data-name="Path 76" d="M14.867,40.015A.464.464,0,0,1,14.5,39.9a.637.637,0,0,1-.094-.4.71.71,0,0,1,.089-.437.49.49,0,0,1,.37-.1h1.485a.644.644,0,0,1,.406.108.477.477,0,0,1,.137.391.569.569,0,0,1-.131.445.625.625,0,0,1-.412.11Z" transform="translate(13.337 36.064)" fill="#1e485f"/>
      <path id="Path_77" data-name="Path 77" d="M15.645,40.015a.456.456,0,0,1-.362-.116.623.623,0,0,1-.1-.4.71.71,0,0,1,.089-.437.49.49,0,0,1,.37-.1H17.13a.644.644,0,0,1,.406.108.483.483,0,0,1,.135.391.57.57,0,0,1-.129.445.625.625,0,0,1-.412.11Z" transform="translate(14.057 36.064)" fill="#1e485f"/>
      <path id="Path_78" data-name="Path 78" d="M20.13,36.515a3.319,3.319,0,0,1,2.132.566,1.887,1.887,0,0,1,.689,1.541,2.532,2.532,0,0,1-.141.832,3.248,3.248,0,0,1-.366.726,3.428,3.428,0,0,1-.5.6,3.051,3.051,0,0,1-.545.426.659.659,0,0,0,.194.027h2.193a.723.723,0,0,1,.406.094.439.439,0,0,1,.137.379.629.629,0,0,1-.129.458.591.591,0,0,1-.414.121h-1.9a4.605,4.605,0,0,1-.924-.089,2.453,2.453,0,0,1-.83-.331,3.073,3.073,0,0,1-.945.331,5.1,5.1,0,0,1-.892.089H16.456a.476.476,0,0,1-.539-.539c0-.225.042-.366.127-.427a.759.759,0,0,1,.412-.087H18.2c.117,0,.272-.008.464-.019a3.627,3.627,0,0,0,.684-.129,3.791,3.791,0,0,0-.293-.919,3.187,3.187,0,0,0-.424-.668,3.075,3.075,0,0,0-.533-.506c-.193-.144-.389-.287-.587-.431a.469.469,0,0,1-.154-.144.242.242,0,0,1-.035-.127v-.811a.288.288,0,0,1,.135-.268,4.221,4.221,0,0,1,.426-.218,4.986,4.986,0,0,1,.607-.229,5.76,5.76,0,0,1,.764-.175,5.581,5.581,0,0,1,.878-.067m0,1.053a4.026,4.026,0,0,0-1.069.127,2.67,2.67,0,0,0-.607.223,3.929,3.929,0,0,1,1.209,1.094,4.509,4.509,0,0,1,.747,1.673,3.244,3.244,0,0,0,.46-.345,3.187,3.187,0,0,0,.439-.458,2.315,2.315,0,0,0,.324-.553,1.613,1.613,0,0,0,.129-.628,1.084,1.084,0,0,0-.129-.555,1,1,0,0,0-.343-.345,1.649,1.649,0,0,0-.522-.183,3.769,3.769,0,0,0-.639-.052" transform="translate(14.733 33.799)" fill="#1e485f"/>
      <path id="Path_79" data-name="Path 79" d="M20.233,40.015a.458.458,0,0,1-.364-.116.623.623,0,0,1-.1-.4.71.71,0,0,1,.089-.437.492.492,0,0,1,.372-.1h1.485a.642.642,0,0,1,.4.108.477.477,0,0,1,.137.391.569.569,0,0,1-.131.445.622.622,0,0,1-.41.11Z" transform="translate(18.302 36.064)" fill="#1e485f"/>
      <path id="Path_80" data-name="Path 80" d="M21.093,43.411a.723.723,0,0,1-.406-.094.443.443,0,0,1-.135-.381.624.624,0,0,1,.129-.458.582.582,0,0,1,.412-.119h.917A.678.678,0,0,0,22.5,42.2a.786.786,0,0,0,.156-.56V38.023a.12.12,0,0,1,.135-.137h.865a.12.12,0,0,1,.135.137v3.414a.783.783,0,0,0,.331.689,1.516,1.516,0,0,0,.884.231h.162a.613.613,0,0,1,.406.114.486.486,0,0,1,.133.383c0,.235-.04.387-.127.454a.663.663,0,0,1-.412.1h-.3a1.58,1.58,0,0,1-.757-.175,1.2,1.2,0,0,1-.5-.53,1.4,1.4,0,0,1-1.4.7Zm.824-6.861a.12.12,0,0,1-.137-.135v-.986a.12.12,0,0,1,.137-.135h.917a.119.119,0,0,1,.135.135v.986a.119.119,0,0,1-.135.135Zm1.646,0a.119.119,0,0,1-.135-.135v-.986a.119.119,0,0,1,.135-.135h.919a.119.119,0,0,1,.135.135v.986a.119.119,0,0,1-.135.135Z" transform="translate(19.023 32.669)" fill="#1e485f"/>
      <path id="Path_81" data-name="Path 81" d="M23.209,43.923a.72.72,0,0,1-.4-.094.436.436,0,0,1-.135-.379.633.633,0,0,1,.127-.458.589.589,0,0,1,.412-.121h.851a.67.67,0,0,0,.493-.156.784.784,0,0,0,.154-.56V34.877a.121.121,0,0,1,.137-.137h.865a.119.119,0,0,1,.133.137v7.344a1.912,1.912,0,0,1-.362,1.29,1.555,1.555,0,0,1-1.217.412Z" transform="translate(20.984 32.156)" fill="#1e485f"/>
      <rect id="Rectangle_64" data-name="Rectangle 64" width="1.134" height="9.181" rx="0.07" transform="translate(48.717 66.897)" fill="#1e485f"/>
      <path id="Path_82" data-name="Path 82" d="M30.956,43.5a2.557,2.557,0,0,1-1.891-.687,3.059,3.059,0,0,1-.687-2.228,3.113,3.113,0,0,1,.687-2.249,2.919,2.919,0,0,1,3.782,0,3.113,3.113,0,0,1,.687,2.249,4.257,4.257,0,0,1-.181,1.323,2.425,2.425,0,0,1-.514.905,1.985,1.985,0,0,1-.811.518,3.182,3.182,0,0,1-1.073.169m0-4.806a1.242,1.242,0,0,0-1.1.5,2.436,2.436,0,0,0-.343,1.392A2.328,2.328,0,0,0,29.855,42a1.586,1.586,0,0,0,2.2,0,2.327,2.327,0,0,0,.345-1.417,2.436,2.436,0,0,0-.345-1.392,1.244,1.244,0,0,0-1.1-.5M29.674,36.55a.119.119,0,0,1-.135-.135v-.986a.119.119,0,0,1,.135-.135h.919a.118.118,0,0,1,.133.135v.986a.118.118,0,0,1-.133.135Zm1.646,0a.119.119,0,0,1-.135-.135v-.986a.119.119,0,0,1,.135-.135h.92a.119.119,0,0,1,.133.135v.986a.119.119,0,0,1-.133.135Z" transform="translate(26.267 32.669)" fill="#1e485f"/>
      <path id="Path_83" data-name="Path 83" d="M31.577,44.851a.119.119,0,0,1-.135-.135v-.784a.119.119,0,0,1,.135-.135h.31q1.095,0,1.094-1.15V36.777a.12.12,0,0,1,.135-.137h.865a.12.12,0,0,1,.135.137v5.846a2.277,2.277,0,0,1-.555,1.66,2.161,2.161,0,0,1-1.619.568Z" transform="translate(29.103 33.915)" fill="#1e485f"/>
      <rect id="Rectangle_65" data-name="Rectangle 65" width="1.134" height="9.181" rx="0.07" transform="translate(65.042 66.897)" fill="#1e485f"/>
      <path id="Path_84" data-name="Path 84" d="M40.334,39.971a4.564,4.564,0,0,1-.116,1.121,1.666,1.666,0,0,1-.35.709,1.281,1.281,0,0,1-.6.372,3.073,3.073,0,0,1-.878.108h-3a.12.12,0,0,1-.137-.135v-.782a.121.121,0,0,1,.137-.137h2.578a2.385,2.385,0,0,0,.608-.062.674.674,0,0,0,.35-.2.755.755,0,0,0,.16-.374,3.2,3.2,0,0,0,.042-.58v-1.08q0-1.363-1.54-1.363H36.026a.119.119,0,0,1-.135-.135v-.786a.12.12,0,0,1,.135-.133h1.985a2.42,2.42,0,0,1,1.673.58,2.325,2.325,0,0,1,.649,1.824Z" transform="translate(32.634 33.799)" fill="#1e485f"/>
      <path id="Path_85" data-name="Path 85" d="M42.489,42.87h1.579a.676.676,0,0,0,.493-.156.784.784,0,0,0,.154-.56V34.877a.121.121,0,0,1,.137-.137h.865a.12.12,0,0,1,.135.137v7.344a1.915,1.915,0,0,1-.364,1.29,1.554,1.554,0,0,1-1.215.412H38.694a.119.119,0,0,1-.135-.135V43a.119.119,0,0,1,.135-.135h2.659V36.779a.119.119,0,0,1,.135-.135h.867a.119.119,0,0,1,.135.135Zm-1.446,4.173a1.615,1.615,0,0,1-.175-.372A1.552,1.552,0,0,1,40.8,46.2a1.661,1.661,0,0,1,.067-.451,1.237,1.237,0,0,1,.229-.433A1.255,1.255,0,0,1,41.523,45a1.48,1.48,0,0,1,.655-.131,1.547,1.547,0,0,1,.628.123,1.025,1.025,0,0,1,.441.35c.025.062.025.108,0,.137l-.285.229c-.064.052-.114.062-.148.025a1,1,0,0,0-.285-.221.733.733,0,0,0-.364-.089.674.674,0,0,0-.56.229.855.855,0,0,0-.183.541.9.9,0,0,0,.156.52,1.4,1.4,0,0,0,.306.331h1.388c.056,0,.081.031.081.094v.377c0,.062-.025.094-.081.094h-2.74c-.054,0-.081-.033-.081-.094v-.377c0-.064.027-.094.081-.094Z" transform="translate(35.691 32.156)" fill="#1e485f"/>
      <path id="Path_86" data-name="Path 86" d="M88.559,24.128c-.4-10.668-9.507-18.952-20.181-18.952H57.069L54.783,7.464,52.5,5.176H52.17A1.069,1.069,0,0,0,51.1,6.245V27.823a1.842,1.842,0,0,0,1.841,1.841h3.682a1.841,1.841,0,0,0,1.841-1.841V12.538h10.4A12.366,12.366,0,0,1,81.2,25.509,12.589,12.589,0,0,1,68.5,37.238H19.712A12.362,12.362,0,0,1,7.378,24.267,12.586,12.586,0,0,1,20.07,12.538h4.219A1.84,1.84,0,0,0,26.13,10.7V7.017a1.841,1.841,0,0,0-1.841-1.841H20.2C9.52,5.176.417,13.46.015,24.128A19.733,19.733,0,0,0,19.712,44.6h49.15a19.734,19.734,0,0,0,19.7-20.471" transform="translate(0 4.791)" fill="#1786a3"/>
      <path id="Path_87" data-name="Path 87" d="M26.683,5.745l3.9,3.905,3.909-3.905a1.846,1.846,0,0,0,0-2.6L31.886.54a1.836,1.836,0,0,0-2.6,0l-2.6,2.6a1.839,1.839,0,0,0,0,2.6" transform="translate(24.198 -0.001)" fill="#fbb600"/>
    </g>
  </g>
</svg>
