<?xml version="1.0" encoding="utf-8"?>
<!-- Generator: Adobe Illustrator 25.0.1, SVG Export Plug-In . SVG Version: 6.00 Build 0)  -->
<svg version="1.1" id="_x3F__x3F__x3F__x3F__1" xmlns="http://www.w3.org/2000/svg" xmlns:xlink="http://www.w3.org/1999/xlink"
	 x="0px" y="0px" viewBox="0 0 76 74" style="enable-background:new 0 0 76 74;" xml:space="preserve">
<style type="text/css">
	.st0{fill-rule:evenodd;clip-rule:evenodd;fill:#FFFFFF;}
</style>
<g>
	<g>
		<path class="st0" d="M56.3,14.9c-3.2,2.1-7.9,4.8-11.6,5.8c-4.3,14-4.9,24.2-6.7,39.6h0c-1.8-15.4-2-25.5-6.7-39.6
			c-3.7-0.9-8.4-3.7-11.6-5.8c1-0.8,2.1-1.4,3.2-2.1c4.5,2.6,9.6,4,15.1,4c5.4,0,10.6-1.5,15.1-4C54.2,13.5,55.3,14.1,56.3,14.9z"/>
		<path class="st0" d="M38.3,73.1c2.3-5.3,7.6-7.1,13.1-8.5c1.8-0.4,3.7-0.7,5.5-0.8c5.3-0.5,7,0.5,11.1-3.8c2.2-2.3,4-5.3,5-8.4
			c0.3-1,0.6-2.1,0.6-3.1c0-0.2,0-1.1-0.3-1.2c-0.4-0.1-1.4,1.8-1.5,2c-1.8,3.7-3.9,7-7.9,8.7c-2.7,1.1-5.1,0.4-7.8,0.4
			c-1.3,0-2.6,0.1-3.8,0.3c-0.5,0.1-1,0.2-1.6,0.3c-0.4,0.1-1.7,0.4-1.9-0.1c-0.1-0.1,0-0.3,0.1-0.4c0.7-1.1,2.9-1.6,4-1.8
			c2.4-0.4,4.3-0.6,6.2-2.4c0.3-0.3,0.8-0.9,0.2-1.2c-0.7-0.3-2.3,0.1-3.1,0.2c-4,0.7-8.7,0.5-12.1,3C40.3,59.2,38.6,68,38.3,73.1
			L38.3,73.1z M37.7,73.1c-0.3-5.2-2-13.9-5.9-16.7c-3.5-2.5-8.1-2.3-12.1-3c-0.8-0.1-2.4-0.5-3.1-0.2c-0.6,0.3-0.1,0.9,0.2,1.2
			c1.9,1.8,3.8,2,6.2,2.4c1.2,0.2,3.4,0.7,4,1.8c0.1,0.1,0.1,0.3,0.1,0.4c-0.3,0.7-2.9-0.1-3.5-0.2c-1.3-0.2-2.5-0.3-3.8-0.3
			c-2.8,0-5.1,0.8-7.8-0.4c-3.9-1.7-6.1-4.9-7.9-8.7c-0.1-0.3-1.1-2.2-1.5-2c-0.2,0.1-0.3,1-0.3,1.2c0,1,0.3,2.1,0.6,3.1
			c1,3.1,2.7,6.1,5,8.4c4.1,4.3,5.8,3.3,11.1,3.8c1.8,0.2,3.7,0.4,5.5,0.8C30.1,66,35.4,67.8,37.7,73.1z"/>
		<path class="st0" d="M12.2,40.4l-0.4-0.1l0.4-0.2c1.8-0.9,4.4-1.1,6.2-0.1c0.6,0.4,0.9,0.6,1.6,0.8c4,1.2,7.7,3.7,10.4,6.9
			c0.7,0.8,1.3,1.6,1.8,2.5c0.7,1.2,1.5,3.1,1.8,4.5c0.1,0.6-0.5,0.8-0.6,0.2c-0.2-1.2-1.1-3.3-1.7-4.4c-0.5-0.8-1-1.6-1.7-2.4
			c-1.8-2.1-4.3-4.2-6.7-5.5c-1.1-0.6-2.4-1.1-3.6-1.4c-0.4-0.1-0.7-0.2-1.1-0.1C16.3,42,14.6,41.2,12.2,40.4L12.2,40.4z M27.3,47.9
			c-0.6-0.1-1.2,0-1.9,0.1l-0.2,0l0.1,0.2c1.3,1.9,3.8,4.1,6.3,3.4l0.1,0l0-0.1C31.4,49.3,29.2,48.1,27.3,47.9L27.3,47.9z
			 M33.1,50.6c1.8-2.6,0.4-6.1-1.6-8.2l-0.2-0.2l-0.1,0.3c-0.2,0.7-0.3,1.4-0.4,2.1c-0.2,2.2,0.9,4.2,2,6l0.1,0.2L33.1,50.6
			L33.1,50.6z M29.3,45.3c0-3.3-1.6-5.7-4.6-6.9l-0.3-0.1l0.1,0.3c0.8,3.1,1.7,5.2,4.6,6.9l0.2,0.1L29.3,45.3L29.3,45.3z M28,46.6
			c-0.9-1.5-2.4-2-4-2.1c-0.4,0-0.9,0-1.3,0c-0.6,0.1-1.2,0.2-1.8,0.5l-0.2,0.1l0.1,0.2c1.8,2.2,4.5,2.3,7,1.6l0.2-0.1L28,46.6
			L28,46.6z M17.3,43.2c-0.5,0.3-1,0.7-1.4,1.2l-0.2,0.2l0.3,0c0.7,0,1.3,0.1,2,0.1c1.6-0.1,3.6-0.6,4.8-1.7l0.1-0.1l-0.2-0.1
			C21.3,41.7,18.9,42.2,17.3,43.2L17.3,43.2z M23.6,41.7c0.2-3-2.4-5.4-5.3-5.7l-0.3,0l0.1,0.3c0.3,0.6,0.5,1.2,0.9,1.8
			c1.1,1.5,2.7,2.9,4.3,3.8l0.2,0.1L23.6,41.7L23.6,41.7z M63.8,40.4c-2.4,0.8-4.1,1.7-6.6,0.9c-0.4-0.1-0.7,0-1.1,0.1
			c-1.2,0.3-2.5,0.8-3.6,1.4c-2.4,1.3-4.9,3.4-6.7,5.5c-0.6,0.7-1.2,1.5-1.7,2.4c-0.6,1.1-1.5,3.2-1.7,4.4c-0.1,0.7-0.7,0.5-0.6-0.2
			c0.2-1.4,1.1-3.3,1.8-4.5c0.5-0.9,1.1-1.8,1.8-2.5c2.7-3.1,6.4-5.7,10.4-6.9c0.7-0.2,1-0.4,1.6-0.8c1.8-1.1,4.4-0.8,6.2,0.1
			l0.4,0.2L63.8,40.4L63.8,40.4z M48.7,47.9c-1.9,0.2-4.1,1.4-4.5,3.5l0,0.1l0.1,0c2.5,0.7,5-1.5,6.3-3.4l0.1-0.2l-0.2,0
			C50,47.9,49.3,47.8,48.7,47.9L48.7,47.9z M42.9,50.6l0.1,0.2l0.1-0.2c1.1-1.8,2.2-3.8,2-6c-0.1-0.7-0.2-1.4-0.4-2.1l-0.1-0.3
			l-0.2,0.2C42.5,44.5,41.1,47.9,42.9,50.6L42.9,50.6z M46.7,45.3l0,0.3l0.2-0.1c2.9-1.7,3.8-3.8,4.6-6.9l0.1-0.3l-0.3,0.1
			C48.3,39.6,46.7,42.1,46.7,45.3L46.7,45.3z M48,46.6l-0.1,0.2l0.2,0.1c2.5,0.7,5.3,0.6,7-1.6l0.1-0.2L55.1,45
			c-0.6-0.2-1.2-0.4-1.8-0.5c-0.4-0.1-0.9-0.1-1.3,0C50.4,44.6,48.9,45.2,48,46.6L48,46.6z M58.7,43.2c-1.5-1-4-1.5-5.6-0.5
			l-0.2,0.1l0.1,0.1c1.2,1.1,3.2,1.6,4.8,1.7c0.7,0,1.3-0.1,2-0.1l0.3,0L60,44.4C59.6,43.9,59.2,43.5,58.7,43.2L58.7,43.2z
			 M52.4,41.7l0,0.3l0.2-0.1c1.6-0.9,3.3-2.3,4.3-3.8c0.4-0.5,0.6-1.2,0.9-1.8l0.1-0.3l-0.3,0C54.8,36.4,52.3,38.7,52.4,41.7z"/>
		<g>
			<path class="st0" d="M60.5,65.9c-5.2,4.5-12.6,7.3-20,7.8c0.4-0.8,0.9-1.6,1.5-2.2c1.7-0.2,3.4-0.6,5.1-1.1
				c3.1-1,5.9-2.4,8.3-4.1c0.6-0.1,1.1-0.1,1.7-0.2C58.2,66,59.3,66,60.5,65.9L60.5,65.9z M35.5,73.8c-7.3-0.5-14.8-3.3-20-7.8
				c1.1,0.1,2.3,0.1,3.4,0.2c0.6,0.1,1.1,0.1,1.7,0.2c3,2.2,6.6,3.8,10.4,4.7c1,0.2,2,0.4,3,0.5C34.6,72.2,35.1,72.9,35.5,73.8z"/>
			<path class="st0" d="M65.5,15c-3.9-4.5-9-8.1-15.1-10.3c-1.8-0.7-3.7-1.2-5.5-1.5C45,3.7,45,4.2,45,4.8c0,0.2,0,0.5,0,0.7
				c7.2,1.5,13.5,5.2,18.3,10.3C64.1,15.5,64.8,15.3,65.5,15L65.5,15z M31.1,3.2C23.2,4.7,15.9,8.9,10.5,15c0.7,0.2,1.4,0.5,2.1,0.8
				C17.4,10.7,23.8,7,31,5.5c0-0.2,0-0.5,0-0.7C31,4.2,31,3.7,31.1,3.2z"/>
		</g>
		<path class="st0" d="M38,0.2c2.5,0,4.5,2,4.5,4.5c0,2.5-2,4.5-4.5,4.5c-2.5,0-4.5-2-4.5-4.5C33.5,2.3,35.5,0.2,38,0.2z"/>
		<path class="st0" d="M31.1,32c-8.2-6.8-19.6-12.5-26.3-13.7L5.6,21c7.3,1.6,17.4,6.3,25,11.6c-8.8-5.4-21.1-8.9-28.3-8.9l1.4,4.5
			c8.1-0.2,18.3,1.2,27.7,6.1C19.9,29.1,6.9,30,0.3,32l9.4,21.6c0.9,1,2,1.7,3.3,2.3c0.4,0.2,0.9,0.3,1.3,0.4l-7-21.7
			c3-1.6,11.1-3.9,24.7,1.1C31.7,34.5,31.4,33.2,31.1,32L31.1,32z M44.9,32c8.2-6.8,19.6-12.5,26.3-13.7L70.4,21
			c-7.3,1.6-17.4,6.3-25,11.6c8.8-5.4,21.1-8.9,28.3-8.9l-1.4,4.5c-8.1-0.2-18.3,1.2-27.7,6.1C56.1,29.1,69.1,30,75.7,32l-9.4,21.6
			c-0.9,1-2,1.7-3.3,2.3c-0.4,0.2-0.9,0.3-1.3,0.4l7-21.7c-3-1.6-11.1-3.9-24.7,1.1C44.3,34.5,44.6,33.2,44.9,32z"/>
	</g>
</g>
</svg>
